<?xml version="1.0" encoding="UTF-8" standalone="no"?>
<!DOCTYPE svg PUBLIC "-//W3C//DTD SVG 1.1//EN"
 "http://www.w3.org/Graphics/SVG/1.1/DTD/svg11.dtd">
<!-- Generated by graphviz version 9.0.0 (20230911.1827)
 -->
<!-- Title: DownloadTaxesTemplateFlow Pages: 1 -->
<svg width="822pt" height="726pt"
 viewBox="0.00 0.00 821.88 725.50" xmlns="http://www.w3.org/2000/svg" xmlns:xlink="http://www.w3.org/1999/xlink">
<g id="graph0" class="graph" transform="scale(1 1) rotate(0) translate(4 721.5)">
<title>DownloadTaxesTemplateFlow</title>
<polygon fill="white" stroke="none" points="-4,4 -4,-721.5 817.88,-721.5 817.88,4 -4,4"/>
<!-- TADTF01 -->
<g id="node1" class="node">
<title>TADTF01</title>
<polygon fill="none" stroke="black" points="422.5,-717.5 280.25,-717.5 280.25,-656.5 422.5,-656.5 422.5,-717.5"/>
<polygon fill="none" stroke="black" points="288.25,-687 288.25,-713.5 414.5,-713.5 414.5,-687 288.25,-687"/>
<text text-anchor="start" x="293.25" y="-695.2" font-family="Times,serif" font-size="14.00">TADTF01: Viene de:</text>
<polygon fill="none" stroke="black" points="288.25,-660.5 288.25,-687 414.5,-687 414.5,-660.5 288.25,-660.5"/>
<text text-anchor="start" x="328.88" y="-668.7" font-family="Times,serif" font-size="14.00" fill="orange">MPF23.</text>
</g>
<!-- TADTF02 -->
<g id="node2" class="node">
<title>TADTF02</title>
<polygon fill="none" stroke="black" points="472.38,-619.5 230.38,-619.5 230.38,-558.5 472.38,-558.5 472.38,-619.5"/>
<polygon fill="none" stroke="black" points="238.38,-589 238.38,-615.5 464.38,-615.5 464.38,-589 238.38,-589"/>
<text text-anchor="start" x="295.5" y="-598.2" font-family="Times,serif" font-size="14.00">TADTF02: </text>
<text text-anchor="start" x="360" y="-598.2" font-family="Times,serif" font-size="14.00" fill="green">Sistema</text>
<text text-anchor="start" x="403.5" y="-598.2" font-family="Times,serif" font-size="14.00">.</text>
<polygon fill="none" stroke="black" points="238.38,-562.5 238.38,-589 464.38,-589 464.38,-562.5 238.38,-562.5"/>
<text text-anchor="start" x="243.38" y="-571.7" font-family="Times,serif" font-size="14.00" fill="blue">Ejecuta: </text>
<text text-anchor="start" x="291.38" y="-571.7" font-family="Times,serif" font-size="14.00">&quot;Download Template(Taxes)&quot;.</text>
</g>
<!-- TADTF01&#45;&gt;TADTF02 -->
<g id="edge1" class="edge">
<title>TADTF01&#45;&gt;TADTF02</title>
<path fill="none" stroke="black" d="M351.38,-656.15C351.38,-648.29 351.38,-639.68 351.38,-631.33"/>
<polygon fill="black" stroke="black" points="354.88,-631.34 351.38,-621.34 347.88,-631.34 354.88,-631.34"/>
</g>
<!-- TADTF03 -->
<g id="node3" class="node">
<title>TADTF03</title>
<polygon fill="none" stroke="black" points="194.75,-492.75 0,-492.75 0,-405.25 194.75,-405.25 194.75,-492.75"/>
<polygon fill="none" stroke="black" points="8,-462.25 8,-488.75 186.75,-488.75 186.75,-462.25 8,-462.25"/>
<text text-anchor="start" x="37.38" y="-471.45" font-family="Times,serif" font-size="14.00">TADTF03: </text>
<text text-anchor="start" x="101.88" y="-471.45" font-family="Times,serif" font-size="14.00">Response</text>
<text text-anchor="start" x="153.62" y="-471.45" font-family="Times,serif" font-size="14.00">.</text>
<polygon fill="none" stroke="black" points="8,-435.75 8,-462.25 186.75,-462.25 186.75,-435.75 8,-435.75"/>
<text text-anchor="start" x="41.5" y="-444.95" font-family="Times,serif" font-size="14.00" fill="purple">res_msg: </text>
<text text-anchor="start" x="94.75" y="-444.95" font-family="Times,serif" font-size="14.00">&quot;Success&quot;.</text>
<polygon fill="none" stroke="black" points="8,-409.25 8,-435.75 186.75,-435.75 186.75,-409.25 8,-409.25"/>
<text text-anchor="start" x="13" y="-418.45" font-family="Times,serif" font-size="14.00" fill="purple">res_obj: </text>
<text text-anchor="start" x="60.25" y="-418.45" font-family="Times,serif" font-size="14.00">&quot;TaxesTemplate.csv&quot;.</text>
</g>
<!-- TADTF02&#45;&gt;TADTF03 -->
<g id="edge2" class="edge">
<title>TADTF02&#45;&gt;TADTF03</title>
<path fill="none" stroke="green" d="M296.26,-558.06C264.25,-540.66 223.15,-518.34 186.64,-498.5"/>
<polygon fill="green" stroke="green" points="188.75,-495.66 178.3,-493.97 185.41,-501.81 188.75,-495.66"/>
<text text-anchor="middle" x="291.25" y="-527.2" font-family="Times,serif" font-size="14.00">code: &#39;200&#39;</text>
</g>
<!-- TADTF04 -->
<g id="node4" class="node">
<title>TADTF04</title>
<polygon fill="none" stroke="black" points="490.38,-506 212.38,-506 212.38,-392 490.38,-392 490.38,-506"/>
<polygon fill="none" stroke="black" points="220.38,-475.5 220.38,-502 482.38,-502 482.38,-475.5 220.38,-475.5"/>
<text text-anchor="start" x="291.38" y="-484.7" font-family="Times,serif" font-size="14.00">TADTF04: </text>
<text text-anchor="start" x="355.88" y="-484.7" font-family="Times,serif" font-size="14.00">Response</text>
<text text-anchor="start" x="407.62" y="-484.7" font-family="Times,serif" font-size="14.00">.</text>
<polygon fill="none" stroke="black" points="220.38,-449 220.38,-475.5 482.38,-475.5 482.38,-449 220.38,-449"/>
<text text-anchor="start" x="267.38" y="-458.2" font-family="Times,serif" font-size="14.00" fill="purple">res_msg: </text>
<text text-anchor="start" x="320.62" y="-458.2" font-family="Times,serif" font-size="14.00">&quot;Record not found.&quot;.</text>
<polygon fill="none" stroke="black" points="220.38,-422.5 220.38,-449 482.38,-449 482.38,-422.5 220.38,-422.5"/>
<text text-anchor="start" x="225.38" y="-431.7" font-family="Times,serif" font-size="14.00" fill="purple">dis_msg: </text>
<text text-anchor="start" x="278.62" y="-431.7" font-family="Times,serif" font-size="14.00">&quot;Hay un problema con el servidor.&quot;.</text>
<polygon fill="none" stroke="black" points="220.38,-396 220.38,-422.5 482.38,-422.5 482.38,-396 220.38,-396"/>
<text text-anchor="start" x="315" y="-405.2" font-family="Times,serif" font-size="14.00" fill="purple">type: </text>
<text text-anchor="start" x="345.75" y="-405.2" font-family="Times,serif" font-size="14.00">&quot;error&quot;.</text>
</g>
<!-- TADTF02&#45;&gt;TADTF04 -->
<g id="edge3" class="edge">
<title>TADTF02&#45;&gt;TADTF04</title>
<path fill="none" stroke="red" d="M351.38,-558.06C351.38,-546.11 351.38,-531.83 351.38,-517.63"/>
<polygon fill="red" stroke="red" points="354.88,-517.82 351.38,-507.82 347.88,-517.82 354.88,-517.82"/>
<text text-anchor="middle" x="380.25" y="-527.2" font-family="Times,serif" font-size="14.00">code: &#39;404&#39;</text>
</g>
<!-- TADTF05 -->
<g id="node5" class="node">
<title>TADTF05</title>
<polygon fill="none" stroke="black" points="813.88,-506 508.88,-506 508.88,-392 813.88,-392 813.88,-506"/>
<polygon fill="none" stroke="black" points="516.88,-475.5 516.88,-502 805.88,-502 805.88,-475.5 516.88,-475.5"/>
<text text-anchor="start" x="601.38" y="-484.7" font-family="Times,serif" font-size="14.00">TADTF05: </text>
<text text-anchor="start" x="665.88" y="-484.7" font-family="Times,serif" font-size="14.00">Response</text>
<text text-anchor="start" x="717.62" y="-484.7" font-family="Times,serif" font-size="14.00">.</text>
<polygon fill="none" stroke="black" points="516.88,-449 516.88,-475.5 805.88,-475.5 805.88,-449 516.88,-449"/>
<text text-anchor="start" x="565.38" y="-458.2" font-family="Times,serif" font-size="14.00" fill="purple">res_msg: </text>
<text text-anchor="start" x="618.62" y="-458.2" font-family="Times,serif" font-size="14.00">&quot;Database not available&quot;.</text>
<polygon fill="none" stroke="black" points="516.88,-422.5 516.88,-449 805.88,-449 805.88,-422.5 516.88,-422.5"/>
<text text-anchor="start" x="521.88" y="-431.7" font-family="Times,serif" font-size="14.00" fill="purple">dis_msg: </text>
<text text-anchor="start" x="575.12" y="-431.7" font-family="Times,serif" font-size="14.00">&quot;No hay conexión con la base de datos.&quot;.</text>
<polygon fill="none" stroke="black" points="516.88,-396 516.88,-422.5 805.88,-422.5 805.88,-396 516.88,-396"/>
<text text-anchor="start" x="625" y="-405.2" font-family="Times,serif" font-size="14.00" fill="purple">type: </text>
<text text-anchor="start" x="655.75" y="-405.2" font-family="Times,serif" font-size="14.00">&quot;error&quot;.</text>
</g>
<!-- TADTF02&#45;&gt;TADTF05 -->
<g id="edge4" class="edge">
<title>TADTF02&#45;&gt;TADTF05</title>
<path fill="none" stroke="red" d="M418.64,-558.06C449.65,-544.25 487.64,-527.34 524.28,-511.03"/>
<polygon fill="red" stroke="red" points="525.48,-514.33 533.19,-507.06 522.63,-507.93 525.48,-514.33"/>
<text text-anchor="middle" x="513.62" y="-527.2" font-family="Times,serif" font-size="14.00">code: &#39;E1&#39;</text>
</g>
<!-- TADTF06 -->
<g id="node6" class="node">
<title>TADTF06</title>
<polygon fill="none" stroke="black" points="172.62,-355 22.12,-355 22.12,-294 172.62,-294 172.62,-355"/>
<polygon fill="none" stroke="black" points="30.12,-324.5 30.12,-351 164.62,-351 164.62,-324.5 30.12,-324.5"/>
<text text-anchor="start" x="35.12" y="-332.7" font-family="Times,serif" font-size="14.00">TADTF06: Redirige a:</text>
<polygon fill="none" stroke="black" points="30.12,-298 30.12,-324.5 164.62,-324.5 164.62,-298 30.12,-298"/>
<text text-anchor="start" x="74.88" y="-306.2" font-family="Times,serif" font-size="14.00" fill="blue">MPF74.</text>
</g>
<!-- TADTF03&#45;&gt;TADTF06 -->
<g id="edge5" class="edge">
<title>TADTF03&#45;&gt;TADTF06</title>
<path fill="none" stroke="black" d="M97.38,-404.81C97.38,-392.39 97.38,-378.87 97.38,-366.58"/>
<polygon fill="black" stroke="black" points="100.88,-366.76 97.38,-356.76 93.88,-366.76 100.88,-366.76"/>
</g>
<!-- TADTF07 -->
<g id="node7" class="node">
<title>TADTF07</title>
<polygon fill="none" stroke="black" points="638.25,-355 374.5,-355 374.5,-294 638.25,-294 638.25,-355"/>
<polygon fill="none" stroke="black" points="382.5,-324.5 382.5,-351 630.25,-351 630.25,-324.5 382.5,-324.5"/>
<text text-anchor="start" x="450.5" y="-333.7" font-family="Times,serif" font-size="14.00">TADTF07: </text>
<text text-anchor="start" x="515" y="-333.7" font-family="Times,serif" font-size="14.00" fill="green">Sistema</text>
<text text-anchor="start" x="558.5" y="-333.7" font-family="Times,serif" font-size="14.00">.</text>
<polygon fill="none" stroke="black" points="382.5,-298 382.5,-324.5 630.25,-324.5 630.25,-298 382.5,-298"/>
<text text-anchor="start" x="387.5" y="-307.2" font-family="Times,serif" font-size="14.00" fill="green">Muestra: </text>
<text text-anchor="start" x="440" y="-307.2" font-family="Times,serif" font-size="14.00">&quot;MessageModal[dis_msg, type]&quot;.</text>
</g>
<!-- TADTF04&#45;&gt;TADTF07 -->
<g id="edge6" class="edge">
<title>TADTF04&#45;&gt;TADTF07</title>
<path fill="none" stroke="black" d="M422.52,-391.77C435.21,-381.75 448.12,-371.54 459.89,-362.24"/>
<polygon fill="black" stroke="black" points="461.78,-365.21 467.46,-356.26 457.44,-359.71 461.78,-365.21"/>
</g>
<!-- TADTF05&#45;&gt;TADTF07 -->
<g id="edge13" class="edge">
<title>TADTF05&#45;&gt;TADTF07</title>
<path fill="none" stroke="black" d="M590.23,-391.77C577.54,-381.75 564.63,-371.54 552.86,-362.24"/>
<polygon fill="black" stroke="black" points="555.31,-359.71 545.29,-356.26 550.97,-365.21 555.31,-359.71"/>
</g>
<!-- TADTF08 -->
<g id="node8" class="node">
<title>TADTF08</title>
<polygon fill="none" stroke="black" points="471.25,-257 249.5,-257 249.5,-196 471.25,-196 471.25,-257"/>
<polygon fill="none" stroke="black" points="257.5,-226.5 257.5,-253 463.25,-253 463.25,-226.5 257.5,-226.5"/>
<text text-anchor="start" x="310.88" y="-235.7" font-family="Times,serif" font-size="14.00">TADTF08: </text>
<text text-anchor="start" x="375.38" y="-235.7" font-family="Times,serif" font-size="14.00" fill="blue">Actor</text>
<text text-anchor="start" x="406.12" y="-235.7" font-family="Times,serif" font-size="14.00">.</text>
<polygon fill="none" stroke="black" points="257.5,-200 257.5,-226.5 463.25,-226.5 463.25,-200 257.5,-200"/>
<text text-anchor="start" x="262.5" y="-209.2" font-family="Times,serif" font-size="14.00" fill="orange">Selecciona: </text>
<text text-anchor="start" x="328.5" y="-209.2" font-family="Times,serif" font-size="14.00">&quot;MessageModal : Yes&quot;.</text>
</g>
<!-- TADTF07&#45;&gt;TADTF08 -->
<g id="edge7" class="edge">
<title>TADTF07&#45;&gt;TADTF08</title>
<path fill="none" stroke="black" d="M460.98,-293.65C446.49,-284.12 430.3,-273.48 415.22,-263.56"/>
<polygon fill="black" stroke="black" points="417.54,-260.9 407.26,-258.33 413.69,-266.75 417.54,-260.9"/>
</g>
<!-- TADTF09 -->
<g id="node9" class="node">
<title>TADTF09</title>
<polygon fill="none" stroke="black" points="709.12,-257 489.62,-257 489.62,-196 709.12,-196 709.12,-257"/>
<polygon fill="none" stroke="black" points="497.62,-226.5 497.62,-253 701.12,-253 701.12,-226.5 497.62,-226.5"/>
<text text-anchor="start" x="549.88" y="-235.7" font-family="Times,serif" font-size="14.00">TADTF09: </text>
<text text-anchor="start" x="614.38" y="-235.7" font-family="Times,serif" font-size="14.00" fill="blue">Actor</text>
<text text-anchor="start" x="645.12" y="-235.7" font-family="Times,serif" font-size="14.00">.</text>
<polygon fill="none" stroke="black" points="497.62,-200 497.62,-226.5 701.12,-226.5 701.12,-200 497.62,-200"/>
<text text-anchor="start" x="502.62" y="-209.2" font-family="Times,serif" font-size="14.00" fill="orange">Selecciona: </text>
<text text-anchor="start" x="568.62" y="-209.2" font-family="Times,serif" font-size="14.00">&quot;MessageModal : No&quot;.</text>
</g>
<!-- TADTF07&#45;&gt;TADTF09 -->
<g id="edge8" class="edge">
<title>TADTF07&#45;&gt;TADTF09</title>
<path fill="none" stroke="black" d="M535.29,-293.65C543.95,-284.71 553.57,-274.79 562.66,-265.4"/>
<polygon fill="black" stroke="black" points="564.98,-268.04 569.42,-258.42 559.95,-263.16 564.98,-268.04"/>
</g>
<!-- TADTF12 -->
<g id="node12" class="node">
<title>TADTF12</title>
<polygon fill="none" stroke="black" points="442,-159 278.75,-159 278.75,-98 442,-98 442,-159"/>
<polygon fill="none" stroke="black" points="286.75,-128.5 286.75,-155 434,-155 434,-128.5 286.75,-128.5"/>
<text text-anchor="start" x="306.38" y="-137.7" font-family="Times,serif" font-size="14.00">TADTF12: </text>
<text text-anchor="start" x="370.88" y="-137.7" font-family="Times,serif" font-size="14.00" fill="green">Sistema</text>
<polygon fill="none" stroke="black" points="286.75,-102 286.75,-128.5 434,-128.5 434,-102 286.75,-102"/>
<text text-anchor="start" x="291.75" y="-111.2" font-family="Times,serif" font-size="14.00" fill="blue">Cierra</text>
<text text-anchor="start" x="325.5" y="-111.2" font-family="Times,serif" font-size="14.00">: &quot;MessageModal&quot;</text>
</g>
<!-- TADTF08&#45;&gt;TADTF12 -->
<g id="edge11" class="edge">
<title>TADTF08&#45;&gt;TADTF12</title>
<path fill="none" stroke="black" d="M360.38,-195.65C360.38,-187.79 360.38,-179.18 360.38,-170.83"/>
<polygon fill="black" stroke="black" points="363.88,-170.84 360.38,-160.84 356.88,-170.84 363.88,-170.84"/>
</g>
<!-- TADTF10 -->
<g id="node10" class="node">
<title>TADTF10</title>
<polygon fill="none" stroke="black" points="681,-159 517.75,-159 517.75,-98 681,-98 681,-159"/>
<polygon fill="none" stroke="black" points="525.75,-128.5 525.75,-155 673,-155 673,-128.5 525.75,-128.5"/>
<text text-anchor="start" x="545.38" y="-137.7" font-family="Times,serif" font-size="14.00">TADTF10: </text>
<text text-anchor="start" x="609.88" y="-137.7" font-family="Times,serif" font-size="14.00" fill="green">Sistema</text>
<polygon fill="none" stroke="black" points="525.75,-102 525.75,-128.5 673,-128.5 673,-102 525.75,-102"/>
<text text-anchor="start" x="530.75" y="-111.2" font-family="Times,serif" font-size="14.00" fill="blue">Cierra</text>
<text text-anchor="start" x="564.5" y="-111.2" font-family="Times,serif" font-size="14.00">: &quot;MessageModal&quot;</text>
</g>
<!-- TADTF09&#45;&gt;TADTF10 -->
<g id="edge9" class="edge">
<title>TADTF09&#45;&gt;TADTF10</title>
<path fill="none" stroke="black" d="M599.38,-195.65C599.38,-187.79 599.38,-179.18 599.38,-170.83"/>
<polygon fill="black" stroke="black" points="602.88,-170.84 599.38,-160.84 595.88,-170.84 602.88,-170.84"/>
</g>
<!-- TADTF11 -->
<g id="node11" class="node">
<title>TADTF11</title>
<polygon fill="none" stroke="black" points="674.62,-61 524.12,-61 524.12,0 674.62,0 674.62,-61"/>
<polygon fill="none" stroke="black" points="532.12,-30.5 532.12,-57 666.62,-57 666.62,-30.5 532.12,-30.5"/>
<text text-anchor="start" x="537.12" y="-38.7" font-family="Times,serif" font-size="14.00">TADTF11: Redirige a:</text>
<polygon fill="none" stroke="black" points="532.12,-4 532.12,-30.5 666.62,-30.5 666.62,-4 532.12,-4"/>
<text text-anchor="start" x="576.88" y="-12.2" font-family="Times,serif" font-size="14.00" fill="blue">MPF68.</text>
</g>
<!-- TADTF10&#45;&gt;TADTF11 -->
<g id="edge10" class="edge">
<title>TADTF10&#45;&gt;TADTF11</title>
<path fill="none" stroke="black" d="M599.38,-97.65C599.38,-89.79 599.38,-81.18 599.38,-72.83"/>
<polygon fill="black" stroke="black" points="602.88,-72.84 599.38,-62.84 595.88,-72.84 602.88,-72.84"/>
</g>
<!-- TADTF13 -->
<g id="node13" class="node">
<title>TADTF13</title>
<polygon fill="none" stroke="black" points="435.62,-61 285.12,-61 285.12,0 435.62,0 435.62,-61"/>
<polygon fill="none" stroke="black" points="293.12,-30.5 293.12,-57 427.62,-57 427.62,-30.5 293.12,-30.5"/>
<text text-anchor="start" x="298.12" y="-38.7" font-family="Times,serif" font-size="14.00">TADTF13: Redirige a:</text>
<polygon fill="none" stroke="black" points="293.12,-4 293.12,-30.5 427.62,-30.5 427.62,-4 293.12,-4"/>
<text text-anchor="start" x="330" y="-12.2" font-family="Times,serif" font-size="14.00" fill="blue">TADTF02.</text>
</g>
<!-- TADTF12&#45;&gt;TADTF13 -->
<g id="edge12" class="edge">
<title>TADTF12&#45;&gt;TADTF13</title>
<path fill="none" stroke="black" d="M360.38,-97.65C360.38,-89.79 360.38,-81.18 360.38,-72.83"/>
<polygon fill="black" stroke="black" points="363.88,-72.84 360.38,-62.84 356.88,-72.84 363.88,-72.84"/>
</g>
</g>
</svg>
