<?xml version="1.0" encoding="UTF-8" standalone="no"?>
<!DOCTYPE svg PUBLIC "-//W3C//DTD SVG 1.1//EN"
 "http://www.w3.org/Graphics/SVG/1.1/DTD/svg11.dtd">
<!-- Generated by graphviz version 9.0.0 (20230911.1827)
 -->
<!-- Title: UploadProductTemplateFlow Pages: 1 -->
<svg width="1185pt" height="922pt"
 viewBox="0.00 0.00 1185.00 921.50" xmlns="http://www.w3.org/2000/svg" xmlns:xlink="http://www.w3.org/1999/xlink">
<g id="graph0" class="graph" transform="scale(1 1) rotate(0) translate(4 917.5)">
<title>UploadProductTemplateFlow</title>
<polygon fill="white" stroke="none" points="-4,4 -4,-917.5 1181,-917.5 1181,4 -4,4"/>
<!-- PRUTF01 -->
<g id="node1" class="node">
<title>PRUTF01</title>
<polygon fill="none" stroke="black" points="552.88,-913.5 412.12,-913.5 412.12,-852.5 552.88,-852.5 552.88,-913.5"/>
<polygon fill="none" stroke="black" points="420.12,-883 420.12,-909.5 544.88,-909.5 544.88,-883 420.12,-883"/>
<text text-anchor="start" x="425.12" y="-891.2" font-family="Times,serif" font-size="14.00">PRUTF01: Viene de:</text>
<polygon fill="none" stroke="black" points="420.12,-856.5 420.12,-883 544.88,-883 544.88,-856.5 420.12,-856.5"/>
<text text-anchor="start" x="456.62" y="-864.7" font-family="Times,serif" font-size="14.00" fill="orange">MPF128.</text>
</g>
<!-- PRUTF02 -->
<g id="node2" class="node">
<title>PRUTF02</title>
<polygon fill="none" stroke="black" points="605.75,-815.5 359.25,-815.5 359.25,-754.5 605.75,-754.5 605.75,-815.5"/>
<polygon fill="none" stroke="black" points="367.25,-785 367.25,-811.5 597.75,-811.5 597.75,-785 367.25,-785"/>
<text text-anchor="start" x="427.38" y="-794.2" font-family="Times,serif" font-size="14.00">PRUTF02: </text>
<text text-anchor="start" x="490.38" y="-794.2" font-family="Times,serif" font-size="14.00" fill="green">Sistema</text>
<text text-anchor="start" x="533.88" y="-794.2" font-family="Times,serif" font-size="14.00">.</text>
<polygon fill="none" stroke="black" points="367.25,-758.5 367.25,-785 597.75,-785 597.75,-758.5 367.25,-758.5"/>
<text text-anchor="start" x="372.25" y="-767.7" font-family="Times,serif" font-size="14.00" fill="green">Muestra: </text>
<text text-anchor="start" x="424.75" y="-767.7" font-family="Times,serif" font-size="14.00">&quot;UploadFileModal(&#39;Product&#39;)&quot;.</text>
</g>
<!-- PRUTF01&#45;&gt;PRUTF02 -->
<g id="edge1" class="edge">
<title>PRUTF01&#45;&gt;PRUTF02</title>
<path fill="none" stroke="black" d="M482.5,-852.15C482.5,-844.29 482.5,-835.68 482.5,-827.33"/>
<polygon fill="black" stroke="black" points="486,-827.34 482.5,-817.34 479,-827.34 486,-827.34"/>
</g>
<!-- PRUTF03 -->
<g id="node3" class="node">
<title>PRUTF03</title>
<polygon fill="none" stroke="black" points="621.12,-717.5 343.88,-717.5 343.88,-656.5 621.12,-656.5 621.12,-717.5"/>
<polygon fill="none" stroke="black" points="351.88,-687 351.88,-713.5 613.12,-713.5 613.12,-687 351.88,-687"/>
<text text-anchor="start" x="433.75" y="-696.2" font-family="Times,serif" font-size="14.00">PRUTF03: </text>
<text text-anchor="start" x="496.75" y="-696.2" font-family="Times,serif" font-size="14.00" fill="blue">Actor</text>
<text text-anchor="start" x="527.5" y="-696.2" font-family="Times,serif" font-size="14.00">.</text>
<polygon fill="none" stroke="black" points="351.88,-660.5 351.88,-687 613.12,-687 613.12,-660.5 351.88,-660.5"/>
<text text-anchor="start" x="356.88" y="-669.7" font-family="Times,serif" font-size="14.00" fill="orange">Selecciona: </text>
<text text-anchor="start" x="422.88" y="-669.7" font-family="Times,serif" font-size="14.00">&quot;Cargar Archivo [&#39;products.csv&#39;]&quot;.</text>
</g>
<!-- PRUTF02&#45;&gt;PRUTF03 -->
<g id="edge2" class="edge">
<title>PRUTF02&#45;&gt;PRUTF03</title>
<path fill="none" stroke="black" d="M482.5,-754.15C482.5,-746.29 482.5,-737.68 482.5,-729.33"/>
<polygon fill="black" stroke="black" points="486,-729.34 482.5,-719.34 479,-729.34 486,-729.34"/>
</g>
<!-- PRUTF04 -->
<g id="node4" class="node">
<title>PRUTF04</title>
<polygon fill="none" stroke="black" points="600.5,-619.5 364.5,-619.5 364.5,-558.5 600.5,-558.5 600.5,-619.5"/>
<polygon fill="none" stroke="black" points="372.5,-589 372.5,-615.5 592.5,-615.5 592.5,-589 372.5,-589"/>
<text text-anchor="start" x="427.38" y="-598.2" font-family="Times,serif" font-size="14.00">PRUTF04: </text>
<text text-anchor="start" x="490.38" y="-598.2" font-family="Times,serif" font-size="14.00" fill="green">Sistema</text>
<text text-anchor="start" x="533.88" y="-598.2" font-family="Times,serif" font-size="14.00">.</text>
<polygon fill="none" stroke="black" points="372.5,-562.5 372.5,-589 592.5,-589 592.5,-562.5 372.5,-562.5"/>
<text text-anchor="start" x="377.5" y="-571.7" font-family="Times,serif" font-size="14.00" fill="blue">Ejecuta: </text>
<text text-anchor="start" x="425.5" y="-571.7" font-family="Times,serif" font-size="14.00">&quot;Upload File(&#39;products.csv&#39;)&quot;.</text>
</g>
<!-- PRUTF03&#45;&gt;PRUTF04 -->
<g id="edge3" class="edge">
<title>PRUTF03&#45;&gt;PRUTF04</title>
<path fill="none" stroke="black" d="M482.5,-656.15C482.5,-648.29 482.5,-639.68 482.5,-631.33"/>
<polygon fill="black" stroke="black" points="486,-631.34 482.5,-621.34 479,-631.34 486,-631.34"/>
</g>
<!-- PRUTF05 -->
<g id="node5" class="node">
<title>PRUTF05</title>
<polygon fill="none" stroke="black" points="227,-492.75 0,-492.75 0,-405.25 227,-405.25 227,-492.75"/>
<polygon fill="none" stroke="black" points="8,-462.25 8,-488.75 219,-488.75 219,-462.25 8,-462.25"/>
<text text-anchor="start" x="54.25" y="-471.45" font-family="Times,serif" font-size="14.00">PRUTF05: </text>
<text text-anchor="start" x="117.25" y="-471.45" font-family="Times,serif" font-size="14.00">Response</text>
<text text-anchor="start" x="169" y="-471.45" font-family="Times,serif" font-size="14.00">.</text>
<polygon fill="none" stroke="black" points="8,-435.75 8,-462.25 219,-462.25 219,-435.75 8,-435.75"/>
<text text-anchor="start" x="57.62" y="-444.95" font-family="Times,serif" font-size="14.00" fill="purple">res_msg: </text>
<text text-anchor="start" x="110.88" y="-444.95" font-family="Times,serif" font-size="14.00">&quot;Success&quot;.</text>
<polygon fill="none" stroke="black" points="8,-409.25 8,-435.75 219,-435.75 219,-409.25 8,-409.25"/>
<text text-anchor="start" x="13" y="-418.45" font-family="Times,serif" font-size="14.00" fill="purple">res_obj: </text>
<text text-anchor="start" x="60.25" y="-418.45" font-family="Times,serif" font-size="14.00">&quot;ProductUploadResult.csv&quot;.</text>
</g>
<!-- PRUTF04&#45;&gt;PRUTF05 -->
<g id="edge4" class="edge">
<title>PRUTF04&#45;&gt;PRUTF05</title>
<path fill="none" stroke="green" d="M384.68,-558.01C339.22,-543.41 284.68,-524.94 236.5,-506 229.68,-503.32 222.69,-500.46 215.68,-497.5"/>
<polygon fill="green" stroke="green" points="217.36,-494.42 206.79,-493.7 214.61,-500.85 217.36,-494.42"/>
<text text-anchor="middle" x="359.38" y="-527.2" font-family="Times,serif" font-size="14.00">code: &#39;200&#39;</text>
</g>
<!-- PRUTF06 -->
<g id="node6" class="node">
<title>PRUTF06</title>
<polygon fill="none" stroke="black" points="523.5,-506 245.5,-506 245.5,-392 523.5,-392 523.5,-506"/>
<polygon fill="none" stroke="black" points="253.5,-475.5 253.5,-502 515.5,-502 515.5,-475.5 253.5,-475.5"/>
<text text-anchor="start" x="325.25" y="-484.7" font-family="Times,serif" font-size="14.00">PRUTF06: </text>
<text text-anchor="start" x="388.25" y="-484.7" font-family="Times,serif" font-size="14.00">Response</text>
<text text-anchor="start" x="440" y="-484.7" font-family="Times,serif" font-size="14.00">.</text>
<polygon fill="none" stroke="black" points="253.5,-449 253.5,-475.5 515.5,-475.5 515.5,-449 253.5,-449"/>
<text text-anchor="start" x="300.5" y="-458.2" font-family="Times,serif" font-size="14.00" fill="purple">res_msg: </text>
<text text-anchor="start" x="353.75" y="-458.2" font-family="Times,serif" font-size="14.00">&quot;Record not found.&quot;.</text>
<polygon fill="none" stroke="black" points="253.5,-422.5 253.5,-449 515.5,-449 515.5,-422.5 253.5,-422.5"/>
<text text-anchor="start" x="258.5" y="-431.7" font-family="Times,serif" font-size="14.00" fill="purple">dis_msg: </text>
<text text-anchor="start" x="311.75" y="-431.7" font-family="Times,serif" font-size="14.00">&quot;Hay un problema con el servidor.&quot;.</text>
<polygon fill="none" stroke="black" points="253.5,-396 253.5,-422.5 515.5,-422.5 515.5,-396 253.5,-396"/>
<text text-anchor="start" x="348.12" y="-405.2" font-family="Times,serif" font-size="14.00" fill="purple">type: </text>
<text text-anchor="start" x="378.88" y="-405.2" font-family="Times,serif" font-size="14.00">&quot;error&quot;.</text>
</g>
<!-- PRUTF04&#45;&gt;PRUTF06 -->
<g id="edge5" class="edge">
<title>PRUTF04&#45;&gt;PRUTF06</title>
<path fill="none" stroke="red" d="M461.24,-558.06C452.33,-545.52 441.61,-530.41 431.03,-515.53"/>
<polygon fill="red" stroke="red" points="434.01,-513.67 425.36,-507.54 428.3,-517.72 434.01,-513.67"/>
<text text-anchor="middle" x="477.38" y="-527.2" font-family="Times,serif" font-size="14.00">code: &#39;404&#39;</text>
</g>
<!-- PRUTF07 -->
<g id="node7" class="node">
<title>PRUTF07</title>
<polygon fill="none" stroke="black" points="853.75,-506 541.25,-506 541.25,-392 853.75,-392 853.75,-506"/>
<polygon fill="none" stroke="black" points="549.25,-475.5 549.25,-502 845.75,-502 845.75,-475.5 549.25,-475.5"/>
<text text-anchor="start" x="638.25" y="-484.7" font-family="Times,serif" font-size="14.00">PRUTF07: </text>
<text text-anchor="start" x="701.25" y="-484.7" font-family="Times,serif" font-size="14.00">Response</text>
<text text-anchor="start" x="753" y="-484.7" font-family="Times,serif" font-size="14.00">.</text>
<polygon fill="none" stroke="black" points="549.25,-449 549.25,-475.5 845.75,-475.5 845.75,-449 549.25,-449"/>
<text text-anchor="start" x="600.38" y="-458.2" font-family="Times,serif" font-size="14.00" fill="purple">res_msg: </text>
<text text-anchor="start" x="653.62" y="-458.2" font-family="Times,serif" font-size="14.00">&quot;Invalid request format.&quot;.</text>
<polygon fill="none" stroke="black" points="549.25,-422.5 549.25,-449 845.75,-449 845.75,-422.5 549.25,-422.5"/>
<text text-anchor="start" x="554.25" y="-431.7" font-family="Times,serif" font-size="14.00" fill="purple">dis_msg: </text>
<text text-anchor="start" x="607.5" y="-431.7" font-family="Times,serif" font-size="14.00">&quot;Solicitud incompleta o mal formateada.&quot;.</text>
<polygon fill="none" stroke="black" points="549.25,-396 549.25,-422.5 845.75,-422.5 845.75,-396 549.25,-396"/>
<text text-anchor="start" x="661.12" y="-405.2" font-family="Times,serif" font-size="14.00" fill="purple">type: </text>
<text text-anchor="start" x="691.88" y="-405.2" font-family="Times,serif" font-size="14.00">&quot;error&quot;.</text>
</g>
<!-- PRUTF04&#45;&gt;PRUTF07 -->
<g id="edge6" class="edge">
<title>PRUTF04&#45;&gt;PRUTF07</title>
<path fill="none" stroke="red" d="M529.15,-558.06C550.07,-544.63 575.57,-528.26 600.33,-512.37"/>
<polygon fill="red" stroke="red" points="601.97,-515.47 608.5,-507.13 598.19,-509.58 601.97,-515.47"/>
<text text-anchor="middle" x="606.38" y="-527.2" font-family="Times,serif" font-size="14.00">code: &#39;400&#39;</text>
</g>
<!-- PRUTF08 -->
<g id="node8" class="node">
<title>PRUTF08</title>
<polygon fill="none" stroke="black" points="1177,-506 872,-506 872,-392 1177,-392 1177,-506"/>
<polygon fill="none" stroke="black" points="880,-475.5 880,-502 1169,-502 1169,-475.5 880,-475.5"/>
<text text-anchor="start" x="965.25" y="-484.7" font-family="Times,serif" font-size="14.00">PRUTF08: </text>
<text text-anchor="start" x="1028.25" y="-484.7" font-family="Times,serif" font-size="14.00">Response</text>
<text text-anchor="start" x="1080" y="-484.7" font-family="Times,serif" font-size="14.00">.</text>
<polygon fill="none" stroke="black" points="880,-449 880,-475.5 1169,-475.5 1169,-449 880,-449"/>
<text text-anchor="start" x="928.5" y="-458.2" font-family="Times,serif" font-size="14.00" fill="purple">res_msg: </text>
<text text-anchor="start" x="981.75" y="-458.2" font-family="Times,serif" font-size="14.00">&quot;Database not available&quot;.</text>
<polygon fill="none" stroke="black" points="880,-422.5 880,-449 1169,-449 1169,-422.5 880,-422.5"/>
<text text-anchor="start" x="885" y="-431.7" font-family="Times,serif" font-size="14.00" fill="purple">dis_msg: </text>
<text text-anchor="start" x="938.25" y="-431.7" font-family="Times,serif" font-size="14.00">&quot;No hay conexión con la base de datos.&quot;.</text>
<polygon fill="none" stroke="black" points="880,-396 880,-422.5 1169,-422.5 1169,-396 880,-396"/>
<text text-anchor="start" x="988.12" y="-405.2" font-family="Times,serif" font-size="14.00" fill="purple">type: </text>
<text text-anchor="start" x="1018.88" y="-405.2" font-family="Times,serif" font-size="14.00">&quot;error&quot;.</text>
</g>
<!-- PRUTF04&#45;&gt;PRUTF08 -->
<g id="edge7" class="edge">
<title>PRUTF04&#45;&gt;PRUTF08</title>
<path fill="none" stroke="red" d="M600.66,-566.31C673.24,-552.08 768.18,-531.87 860.63,-506.45"/>
<polygon fill="red" stroke="red" points="861.44,-509.86 870.14,-503.81 859.57,-503.11 861.44,-509.86"/>
<text text-anchor="middle" x="816.75" y="-527.2" font-family="Times,serif" font-size="14.00">code: &#39;E1&#39;</text>
</g>
<!-- PRUTF09 -->
<g id="node9" class="node">
<title>PRUTF09</title>
<polygon fill="none" stroke="black" points="188,-355 39,-355 39,-294 188,-294 188,-355"/>
<polygon fill="none" stroke="black" points="47,-324.5 47,-351 180,-351 180,-324.5 47,-324.5"/>
<text text-anchor="start" x="52" y="-332.7" font-family="Times,serif" font-size="14.00">PRUTF09: Redirige a:</text>
<polygon fill="none" stroke="black" points="47,-298 47,-324.5 180,-324.5 180,-298 47,-298"/>
<text text-anchor="start" x="91" y="-306.2" font-family="Times,serif" font-size="14.00" fill="blue">MPF16.</text>
</g>
<!-- PRUTF05&#45;&gt;PRUTF09 -->
<g id="edge11" class="edge">
<title>PRUTF05&#45;&gt;PRUTF09</title>
<path fill="none" stroke="black" d="M113.5,-404.81C113.5,-392.39 113.5,-378.87 113.5,-366.58"/>
<polygon fill="black" stroke="black" points="117,-366.76 113.5,-356.76 110,-366.76 117,-366.76"/>
</g>
<!-- PRUTF10 -->
<g id="node10" class="node">
<title>PRUTF10</title>
<polygon fill="none" stroke="black" points="829.38,-355 565.62,-355 565.62,-294 829.38,-294 829.38,-355"/>
<polygon fill="none" stroke="black" points="573.62,-324.5 573.62,-351 821.38,-351 821.38,-324.5 573.62,-324.5"/>
<text text-anchor="start" x="642.38" y="-333.7" font-family="Times,serif" font-size="14.00">PRUTF10: </text>
<text text-anchor="start" x="705.38" y="-333.7" font-family="Times,serif" font-size="14.00" fill="green">Sistema</text>
<text text-anchor="start" x="748.88" y="-333.7" font-family="Times,serif" font-size="14.00">.</text>
<polygon fill="none" stroke="black" points="573.62,-298 573.62,-324.5 821.38,-324.5 821.38,-298 573.62,-298"/>
<text text-anchor="start" x="578.62" y="-307.2" font-family="Times,serif" font-size="14.00" fill="green">Muestra: </text>
<text text-anchor="start" x="631.12" y="-307.2" font-family="Times,serif" font-size="14.00">&quot;MessageModal[dis_msg, type]&quot;.</text>
</g>
<!-- PRUTF06&#45;&gt;PRUTF10 -->
<g id="edge8" class="edge">
<title>PRUTF06&#45;&gt;PRUTF10</title>
<path fill="none" stroke="black" d="M523.61,-393.56C553.16,-381.99 583.54,-370.1 610.48,-359.56"/>
<polygon fill="black" stroke="black" points="611.57,-362.89 619.61,-355.98 609.02,-356.37 611.57,-362.89"/>
</g>
<!-- PRUTF07&#45;&gt;PRUTF10 -->
<g id="edge9" class="edge">
<title>PRUTF07&#45;&gt;PRUTF10</title>
<path fill="none" stroke="black" d="M697.5,-391.77C697.5,-383.32 697.5,-374.74 697.5,-366.68"/>
<polygon fill="black" stroke="black" points="701,-366.83 697.5,-356.83 694,-366.83 701,-366.83"/>
</g>
<!-- PRUTF08&#45;&gt;PRUTF10 -->
<g id="edge10" class="edge">
<title>PRUTF08&#45;&gt;PRUTF10</title>
<path fill="none" stroke="black" d="M873.92,-391.59C844.47,-380.56 814.46,-369.32 787.74,-359.31"/>
<polygon fill="black" stroke="black" points="789.3,-356.15 778.7,-355.92 786.84,-362.71 789.3,-356.15"/>
</g>
<!-- PRUTF11 -->
<g id="node11" class="node">
<title>PRUTF11</title>
<polygon fill="none" stroke="black" points="662.38,-257 440.62,-257 440.62,-196 662.38,-196 662.38,-257"/>
<polygon fill="none" stroke="black" points="448.62,-226.5 448.62,-253 654.38,-253 654.38,-226.5 448.62,-226.5"/>
<text text-anchor="start" x="502.75" y="-235.7" font-family="Times,serif" font-size="14.00">PRUTF11: </text>
<text text-anchor="start" x="565.75" y="-235.7" font-family="Times,serif" font-size="14.00" fill="blue">Actor</text>
<text text-anchor="start" x="596.5" y="-235.7" font-family="Times,serif" font-size="14.00">.</text>
<polygon fill="none" stroke="black" points="448.62,-200 448.62,-226.5 654.38,-226.5 654.38,-200 448.62,-200"/>
<text text-anchor="start" x="453.62" y="-209.2" font-family="Times,serif" font-size="14.00" fill="orange">Selecciona: </text>
<text text-anchor="start" x="519.62" y="-209.2" font-family="Times,serif" font-size="14.00">&quot;MessageModal : Yes&quot;.</text>
</g>
<!-- PRUTF10&#45;&gt;PRUTF11 -->
<g id="edge12" class="edge">
<title>PRUTF10&#45;&gt;PRUTF11</title>
<path fill="none" stroke="black" d="M652.11,-293.65C637.62,-284.12 621.43,-273.48 606.34,-263.56"/>
<polygon fill="black" stroke="black" points="608.66,-260.9 598.38,-258.33 604.82,-266.75 608.66,-260.9"/>
</g>
<!-- PRUTF12 -->
<g id="node12" class="node">
<title>PRUTF12</title>
<polygon fill="none" stroke="black" points="900.25,-257 680.75,-257 680.75,-196 900.25,-196 900.25,-257"/>
<polygon fill="none" stroke="black" points="688.75,-226.5 688.75,-253 892.25,-253 892.25,-226.5 688.75,-226.5"/>
<text text-anchor="start" x="741.75" y="-235.7" font-family="Times,serif" font-size="14.00">PRUTF12: </text>
<text text-anchor="start" x="804.75" y="-235.7" font-family="Times,serif" font-size="14.00" fill="blue">Actor</text>
<text text-anchor="start" x="835.5" y="-235.7" font-family="Times,serif" font-size="14.00">.</text>
<polygon fill="none" stroke="black" points="688.75,-200 688.75,-226.5 892.25,-226.5 892.25,-200 688.75,-200"/>
<text text-anchor="start" x="693.75" y="-209.2" font-family="Times,serif" font-size="14.00" fill="orange">Selecciona: </text>
<text text-anchor="start" x="759.75" y="-209.2" font-family="Times,serif" font-size="14.00">&quot;MessageModal : No&quot;.</text>
</g>
<!-- PRUTF10&#45;&gt;PRUTF12 -->
<g id="edge13" class="edge">
<title>PRUTF10&#45;&gt;PRUTF12</title>
<path fill="none" stroke="black" d="M726.42,-293.65C735.08,-284.71 744.69,-274.79 753.78,-265.4"/>
<polygon fill="black" stroke="black" points="756.1,-268.04 760.55,-258.42 751.08,-263.16 756.1,-268.04"/>
</g>
<!-- PRUTF13 -->
<g id="node13" class="node">
<title>PRUTF13</title>
<polygon fill="none" stroke="black" points="633.12,-159 469.88,-159 469.88,-98 633.12,-98 633.12,-159"/>
<polygon fill="none" stroke="black" points="477.88,-128.5 477.88,-155 625.12,-155 625.12,-128.5 477.88,-128.5"/>
<text text-anchor="start" x="498.25" y="-137.7" font-family="Times,serif" font-size="14.00">PRUTF13: </text>
<text text-anchor="start" x="561.25" y="-137.7" font-family="Times,serif" font-size="14.00" fill="green">Sistema</text>
<polygon fill="none" stroke="black" points="477.88,-102 477.88,-128.5 625.12,-128.5 625.12,-102 477.88,-102"/>
<text text-anchor="start" x="482.88" y="-111.2" font-family="Times,serif" font-size="14.00" fill="blue">Cierra</text>
<text text-anchor="start" x="516.62" y="-111.2" font-family="Times,serif" font-size="14.00">: &quot;MessageModal&quot;</text>
</g>
<!-- PRUTF11&#45;&gt;PRUTF13 -->
<g id="edge14" class="edge">
<title>PRUTF11&#45;&gt;PRUTF13</title>
<path fill="none" stroke="black" d="M551.5,-195.65C551.5,-187.79 551.5,-179.18 551.5,-170.83"/>
<polygon fill="black" stroke="black" points="555,-170.84 551.5,-160.84 548,-170.84 555,-170.84"/>
</g>
<!-- PRUTF15 -->
<g id="node15" class="node">
<title>PRUTF15</title>
<polygon fill="none" stroke="black" points="872.12,-159 708.88,-159 708.88,-98 872.12,-98 872.12,-159"/>
<polygon fill="none" stroke="black" points="716.88,-128.5 716.88,-155 864.12,-155 864.12,-128.5 716.88,-128.5"/>
<text text-anchor="start" x="737.25" y="-137.7" font-family="Times,serif" font-size="14.00">PRUTF15: </text>
<text text-anchor="start" x="800.25" y="-137.7" font-family="Times,serif" font-size="14.00" fill="green">Sistema</text>
<polygon fill="none" stroke="black" points="716.88,-102 716.88,-128.5 864.12,-128.5 864.12,-102 716.88,-102"/>
<text text-anchor="start" x="721.88" y="-111.2" font-family="Times,serif" font-size="14.00" fill="blue">Cierra</text>
<text text-anchor="start" x="755.62" y="-111.2" font-family="Times,serif" font-size="14.00">: &quot;MessageModal&quot;</text>
</g>
<!-- PRUTF12&#45;&gt;PRUTF15 -->
<g id="edge16" class="edge">
<title>PRUTF12&#45;&gt;PRUTF15</title>
<path fill="none" stroke="black" d="M790.5,-195.65C790.5,-187.79 790.5,-179.18 790.5,-170.83"/>
<polygon fill="black" stroke="black" points="794,-170.84 790.5,-160.84 787,-170.84 794,-170.84"/>
</g>
<!-- PRUTF14 -->
<g id="node14" class="node">
<title>PRUTF14</title>
<polygon fill="none" stroke="black" points="626,-61 477,-61 477,0 626,0 626,-61"/>
<polygon fill="none" stroke="black" points="485,-30.5 485,-57 618,-57 618,-30.5 485,-30.5"/>
<text text-anchor="start" x="490" y="-38.7" font-family="Times,serif" font-size="14.00">PRUTF14: Redirige a:</text>
<polygon fill="none" stroke="black" points="485,-4 485,-30.5 618,-30.5 618,-4 485,-4"/>
<text text-anchor="start" x="521.88" y="-12.2" font-family="Times,serif" font-size="14.00" fill="blue">PRUTF04.</text>
</g>
<!-- PRUTF13&#45;&gt;PRUTF14 -->
<g id="edge15" class="edge">
<title>PRUTF13&#45;&gt;PRUTF14</title>
<path fill="none" stroke="black" d="M551.5,-97.65C551.5,-89.79 551.5,-81.18 551.5,-72.83"/>
<polygon fill="black" stroke="black" points="555,-72.84 551.5,-62.84 548,-72.84 555,-72.84"/>
</g>
<!-- PRUTF16 -->
<g id="node16" class="node">
<title>PRUTF16</title>
<polygon fill="none" stroke="black" points="865,-61 716,-61 716,0 865,0 865,-61"/>
<polygon fill="none" stroke="black" points="724,-30.5 724,-57 857,-57 857,-30.5 724,-30.5"/>
<text text-anchor="start" x="729" y="-38.7" font-family="Times,serif" font-size="14.00">PRUTF16: Redirige a:</text>
<polygon fill="none" stroke="black" points="724,-4 724,-30.5 857,-30.5 857,-4 724,-4"/>
<text text-anchor="start" x="768" y="-12.2" font-family="Times,serif" font-size="14.00" fill="blue">MPF16.</text>
</g>
<!-- PRUTF15&#45;&gt;PRUTF16 -->
<g id="edge17" class="edge">
<title>PRUTF15&#45;&gt;PRUTF16</title>
<path fill="none" stroke="black" d="M790.5,-97.65C790.5,-89.79 790.5,-81.18 790.5,-72.83"/>
<polygon fill="black" stroke="black" points="794,-72.84 790.5,-62.84 787,-72.84 794,-72.84"/>
</g>
</g>
</svg>
