<?xml version="1.0" encoding="UTF-8" standalone="no"?>
<!DOCTYPE svg PUBLIC "-//W3C//DTD SVG 1.1//EN"
 "http://www.w3.org/Graphics/SVG/1.1/DTD/svg11.dtd">
<!-- Generated by graphviz version 9.0.0 (20230911.1827)
 -->
<!-- Title: DownloadPermissionsTemplateFlow Pages: 1 -->
<svg width="856pt" height="726pt"
 viewBox="0.00 0.00 855.75 725.50" xmlns="http://www.w3.org/2000/svg" xmlns:xlink="http://www.w3.org/1999/xlink">
<g id="graph0" class="graph" transform="scale(1 1) rotate(0) translate(4 721.5)">
<title>DownloadPermissionsTemplateFlow</title>
<polygon fill="white" stroke="none" points="-4,4 -4,-721.5 851.75,-721.5 851.75,4 -4,4"/>
<!-- PEDTF01 -->
<g id="node1" class="node">
<title>PEDTF01</title>
<polygon fill="none" stroke="black" points="455.25,-717.5 315.25,-717.5 315.25,-656.5 455.25,-656.5 455.25,-717.5"/>
<polygon fill="none" stroke="black" points="323.25,-687 323.25,-713.5 447.25,-713.5 447.25,-687 323.25,-687"/>
<text text-anchor="start" x="328.25" y="-695.2" font-family="Times,serif" font-size="14.00">PEDTF01: Viene de:</text>
<polygon fill="none" stroke="black" points="323.25,-660.5 323.25,-687 447.25,-687 447.25,-660.5 323.25,-660.5"/>
<text text-anchor="start" x="362.75" y="-668.7" font-family="Times,serif" font-size="14.00" fill="orange">MPF23.</text>
</g>
<!-- PEDTF02 -->
<g id="node2" class="node">
<title>PEDTF02</title>
<polygon fill="none" stroke="black" points="523.12,-619.5 247.38,-619.5 247.38,-558.5 523.12,-558.5 523.12,-619.5"/>
<polygon fill="none" stroke="black" points="255.38,-589 255.38,-615.5 515.12,-615.5 515.12,-589 255.38,-589"/>
<text text-anchor="start" x="330.5" y="-598.2" font-family="Times,serif" font-size="14.00">PEDTF02: </text>
<text text-anchor="start" x="392.75" y="-598.2" font-family="Times,serif" font-size="14.00" fill="green">Sistema</text>
<text text-anchor="start" x="436.25" y="-598.2" font-family="Times,serif" font-size="14.00">.</text>
<polygon fill="none" stroke="black" points="255.38,-562.5 255.38,-589 515.12,-589 515.12,-562.5 255.38,-562.5"/>
<text text-anchor="start" x="260.38" y="-571.7" font-family="Times,serif" font-size="14.00" fill="blue">Ejecuta: </text>
<text text-anchor="start" x="308.38" y="-571.7" font-family="Times,serif" font-size="14.00">&quot;Download Template(Permissions)&quot;.</text>
</g>
<!-- PEDTF01&#45;&gt;PEDTF02 -->
<g id="edge1" class="edge">
<title>PEDTF01&#45;&gt;PEDTF02</title>
<path fill="none" stroke="black" d="M385.25,-656.15C385.25,-648.29 385.25,-639.68 385.25,-631.33"/>
<polygon fill="black" stroke="black" points="388.75,-631.34 385.25,-621.34 381.75,-631.34 388.75,-631.34"/>
</g>
<!-- PEDTF03 -->
<g id="node3" class="node">
<title>PEDTF03</title>
<polygon fill="none" stroke="black" points="228.5,-492.75 0,-492.75 0,-405.25 228.5,-405.25 228.5,-492.75"/>
<polygon fill="none" stroke="black" points="8,-462.25 8,-488.75 220.5,-488.75 220.5,-462.25 8,-462.25"/>
<text text-anchor="start" x="55.38" y="-471.45" font-family="Times,serif" font-size="14.00">PEDTF03: </text>
<text text-anchor="start" x="117.62" y="-471.45" font-family="Times,serif" font-size="14.00">Response</text>
<text text-anchor="start" x="169.38" y="-471.45" font-family="Times,serif" font-size="14.00">.</text>
<polygon fill="none" stroke="black" points="8,-435.75 8,-462.25 220.5,-462.25 220.5,-435.75 8,-435.75"/>
<text text-anchor="start" x="58.38" y="-444.95" font-family="Times,serif" font-size="14.00" fill="purple">res_msg: </text>
<text text-anchor="start" x="111.62" y="-444.95" font-family="Times,serif" font-size="14.00">&quot;Success&quot;.</text>
<polygon fill="none" stroke="black" points="8,-409.25 8,-435.75 220.5,-435.75 220.5,-409.25 8,-409.25"/>
<text text-anchor="start" x="13" y="-418.45" font-family="Times,serif" font-size="14.00" fill="purple">res_obj: </text>
<text text-anchor="start" x="60.25" y="-418.45" font-family="Times,serif" font-size="14.00">&quot;PermissionsTemplate.csv&quot;.</text>
</g>
<!-- PEDTF02&#45;&gt;PEDTF03 -->
<g id="edge2" class="edge">
<title>PEDTF02&#45;&gt;PEDTF03</title>
<path fill="none" stroke="green" d="M326.45,-558.06C292.15,-540.59 248.07,-518.15 208.99,-498.24"/>
<polygon fill="green" stroke="green" points="211.02,-495.35 200.52,-493.93 207.84,-501.59 211.02,-495.35"/>
<text text-anchor="middle" x="319.12" y="-527.2" font-family="Times,serif" font-size="14.00">code: &#39;200&#39;</text>
</g>
<!-- PEDTF04 -->
<g id="node4" class="node">
<title>PEDTF04</title>
<polygon fill="none" stroke="black" points="524.25,-506 246.25,-506 246.25,-392 524.25,-392 524.25,-506"/>
<polygon fill="none" stroke="black" points="254.25,-475.5 254.25,-502 516.25,-502 516.25,-475.5 254.25,-475.5"/>
<text text-anchor="start" x="326.38" y="-484.7" font-family="Times,serif" font-size="14.00">PEDTF04: </text>
<text text-anchor="start" x="388.62" y="-484.7" font-family="Times,serif" font-size="14.00">Response</text>
<text text-anchor="start" x="440.38" y="-484.7" font-family="Times,serif" font-size="14.00">.</text>
<polygon fill="none" stroke="black" points="254.25,-449 254.25,-475.5 516.25,-475.5 516.25,-449 254.25,-449"/>
<text text-anchor="start" x="301.25" y="-458.2" font-family="Times,serif" font-size="14.00" fill="purple">res_msg: </text>
<text text-anchor="start" x="354.5" y="-458.2" font-family="Times,serif" font-size="14.00">&quot;Record not found.&quot;.</text>
<polygon fill="none" stroke="black" points="254.25,-422.5 254.25,-449 516.25,-449 516.25,-422.5 254.25,-422.5"/>
<text text-anchor="start" x="259.25" y="-431.7" font-family="Times,serif" font-size="14.00" fill="purple">dis_msg: </text>
<text text-anchor="start" x="312.5" y="-431.7" font-family="Times,serif" font-size="14.00">&quot;Hay un problema con el servidor.&quot;.</text>
<polygon fill="none" stroke="black" points="254.25,-396 254.25,-422.5 516.25,-422.5 516.25,-396 254.25,-396"/>
<text text-anchor="start" x="348.88" y="-405.2" font-family="Times,serif" font-size="14.00" fill="purple">type: </text>
<text text-anchor="start" x="379.62" y="-405.2" font-family="Times,serif" font-size="14.00">&quot;error&quot;.</text>
</g>
<!-- PEDTF02&#45;&gt;PEDTF04 -->
<g id="edge3" class="edge">
<title>PEDTF02&#45;&gt;PEDTF04</title>
<path fill="none" stroke="red" d="M385.25,-558.06C385.25,-546.11 385.25,-531.83 385.25,-517.63"/>
<polygon fill="red" stroke="red" points="388.75,-517.82 385.25,-507.82 381.75,-517.82 388.75,-517.82"/>
<text text-anchor="middle" x="414.12" y="-527.2" font-family="Times,serif" font-size="14.00">code: &#39;404&#39;</text>
</g>
<!-- PEDTF05 -->
<g id="node5" class="node">
<title>PEDTF05</title>
<polygon fill="none" stroke="black" points="847.75,-506 542.75,-506 542.75,-392 847.75,-392 847.75,-506"/>
<polygon fill="none" stroke="black" points="550.75,-475.5 550.75,-502 839.75,-502 839.75,-475.5 550.75,-475.5"/>
<text text-anchor="start" x="636.38" y="-484.7" font-family="Times,serif" font-size="14.00">PEDTF05: </text>
<text text-anchor="start" x="698.62" y="-484.7" font-family="Times,serif" font-size="14.00">Response</text>
<text text-anchor="start" x="750.38" y="-484.7" font-family="Times,serif" font-size="14.00">.</text>
<polygon fill="none" stroke="black" points="550.75,-449 550.75,-475.5 839.75,-475.5 839.75,-449 550.75,-449"/>
<text text-anchor="start" x="599.25" y="-458.2" font-family="Times,serif" font-size="14.00" fill="purple">res_msg: </text>
<text text-anchor="start" x="652.5" y="-458.2" font-family="Times,serif" font-size="14.00">&quot;Database not available&quot;.</text>
<polygon fill="none" stroke="black" points="550.75,-422.5 550.75,-449 839.75,-449 839.75,-422.5 550.75,-422.5"/>
<text text-anchor="start" x="555.75" y="-431.7" font-family="Times,serif" font-size="14.00" fill="purple">dis_msg: </text>
<text text-anchor="start" x="609" y="-431.7" font-family="Times,serif" font-size="14.00">&quot;No hay conexión con la base de datos.&quot;.</text>
<polygon fill="none" stroke="black" points="550.75,-396 550.75,-422.5 839.75,-422.5 839.75,-396 550.75,-396"/>
<text text-anchor="start" x="658.88" y="-405.2" font-family="Times,serif" font-size="14.00" fill="purple">type: </text>
<text text-anchor="start" x="689.62" y="-405.2" font-family="Times,serif" font-size="14.00">&quot;error&quot;.</text>
</g>
<!-- PEDTF02&#45;&gt;PEDTF05 -->
<g id="edge4" class="edge">
<title>PEDTF02&#45;&gt;PEDTF05</title>
<path fill="none" stroke="red" d="M452.52,-558.06C483.52,-544.25 521.52,-527.34 558.16,-511.03"/>
<polygon fill="red" stroke="red" points="559.35,-514.33 567.06,-507.06 556.5,-507.93 559.35,-514.33"/>
<text text-anchor="middle" x="547.5" y="-527.2" font-family="Times,serif" font-size="14.00">code: &#39;E1&#39;</text>
</g>
<!-- PEDTF06 -->
<g id="node6" class="node">
<title>PEDTF06</title>
<polygon fill="none" stroke="black" points="188.38,-355 40.12,-355 40.12,-294 188.38,-294 188.38,-355"/>
<polygon fill="none" stroke="black" points="48.12,-324.5 48.12,-351 180.38,-351 180.38,-324.5 48.12,-324.5"/>
<text text-anchor="start" x="53.12" y="-332.7" font-family="Times,serif" font-size="14.00">PEDTF06: Redirige a:</text>
<polygon fill="none" stroke="black" points="48.12,-298 48.12,-324.5 180.38,-324.5 180.38,-298 48.12,-298"/>
<text text-anchor="start" x="88.38" y="-306.2" font-family="Times,serif" font-size="14.00" fill="blue">MPF152.</text>
</g>
<!-- PEDTF03&#45;&gt;PEDTF06 -->
<g id="edge5" class="edge">
<title>PEDTF03&#45;&gt;PEDTF06</title>
<path fill="none" stroke="black" d="M114.25,-404.81C114.25,-392.39 114.25,-378.87 114.25,-366.58"/>
<polygon fill="black" stroke="black" points="117.75,-366.76 114.25,-356.76 110.75,-366.76 117.75,-366.76"/>
</g>
<!-- PEDTF07 -->
<g id="node7" class="node">
<title>PEDTF07</title>
<polygon fill="none" stroke="black" points="672.12,-355 408.38,-355 408.38,-294 672.12,-294 672.12,-355"/>
<polygon fill="none" stroke="black" points="416.38,-324.5 416.38,-351 664.12,-351 664.12,-324.5 416.38,-324.5"/>
<text text-anchor="start" x="485.5" y="-333.7" font-family="Times,serif" font-size="14.00">PEDTF07: </text>
<text text-anchor="start" x="547.75" y="-333.7" font-family="Times,serif" font-size="14.00" fill="green">Sistema</text>
<text text-anchor="start" x="591.25" y="-333.7" font-family="Times,serif" font-size="14.00">.</text>
<polygon fill="none" stroke="black" points="416.38,-298 416.38,-324.5 664.12,-324.5 664.12,-298 416.38,-298"/>
<text text-anchor="start" x="421.38" y="-307.2" font-family="Times,serif" font-size="14.00" fill="green">Muestra: </text>
<text text-anchor="start" x="473.88" y="-307.2" font-family="Times,serif" font-size="14.00">&quot;MessageModal[dis_msg, type]&quot;.</text>
</g>
<!-- PEDTF04&#45;&gt;PEDTF07 -->
<g id="edge6" class="edge">
<title>PEDTF04&#45;&gt;PEDTF07</title>
<path fill="none" stroke="black" d="M456.4,-391.77C469.08,-381.75 481.99,-371.54 493.76,-362.24"/>
<polygon fill="black" stroke="black" points="495.66,-365.21 501.33,-356.26 491.32,-359.71 495.66,-365.21"/>
</g>
<!-- PEDTF05&#45;&gt;PEDTF07 -->
<g id="edge13" class="edge">
<title>PEDTF05&#45;&gt;PEDTF07</title>
<path fill="none" stroke="black" d="M624.1,-391.77C611.42,-381.75 598.51,-371.54 586.74,-362.24"/>
<polygon fill="black" stroke="black" points="589.18,-359.71 579.17,-356.26 584.84,-365.21 589.18,-359.71"/>
</g>
<!-- PEDTF08 -->
<g id="node8" class="node">
<title>PEDTF08</title>
<polygon fill="none" stroke="black" points="505.12,-257 283.38,-257 283.38,-196 505.12,-196 505.12,-257"/>
<polygon fill="none" stroke="black" points="291.38,-226.5 291.38,-253 497.12,-253 497.12,-226.5 291.38,-226.5"/>
<text text-anchor="start" x="345.88" y="-235.7" font-family="Times,serif" font-size="14.00">PEDTF08: </text>
<text text-anchor="start" x="408.12" y="-235.7" font-family="Times,serif" font-size="14.00" fill="blue">Actor</text>
<text text-anchor="start" x="438.88" y="-235.7" font-family="Times,serif" font-size="14.00">.</text>
<polygon fill="none" stroke="black" points="291.38,-200 291.38,-226.5 497.12,-226.5 497.12,-200 291.38,-200"/>
<text text-anchor="start" x="296.38" y="-209.2" font-family="Times,serif" font-size="14.00" fill="orange">Selecciona: </text>
<text text-anchor="start" x="362.38" y="-209.2" font-family="Times,serif" font-size="14.00">&quot;MessageModal : Yes&quot;.</text>
</g>
<!-- PEDTF07&#45;&gt;PEDTF08 -->
<g id="edge7" class="edge">
<title>PEDTF07&#45;&gt;PEDTF08</title>
<path fill="none" stroke="black" d="M494.86,-293.65C480.37,-284.12 464.18,-273.48 449.09,-263.56"/>
<polygon fill="black" stroke="black" points="451.41,-260.9 441.13,-258.33 447.57,-266.75 451.41,-260.9"/>
</g>
<!-- PEDTF09 -->
<g id="node9" class="node">
<title>PEDTF09</title>
<polygon fill="none" stroke="black" points="743,-257 523.5,-257 523.5,-196 743,-196 743,-257"/>
<polygon fill="none" stroke="black" points="531.5,-226.5 531.5,-253 735,-253 735,-226.5 531.5,-226.5"/>
<text text-anchor="start" x="584.88" y="-235.7" font-family="Times,serif" font-size="14.00">PEDTF09: </text>
<text text-anchor="start" x="647.12" y="-235.7" font-family="Times,serif" font-size="14.00" fill="blue">Actor</text>
<text text-anchor="start" x="677.88" y="-235.7" font-family="Times,serif" font-size="14.00">.</text>
<polygon fill="none" stroke="black" points="531.5,-200 531.5,-226.5 735,-226.5 735,-200 531.5,-200"/>
<text text-anchor="start" x="536.5" y="-209.2" font-family="Times,serif" font-size="14.00" fill="orange">Selecciona: </text>
<text text-anchor="start" x="602.5" y="-209.2" font-family="Times,serif" font-size="14.00">&quot;MessageModal : No&quot;.</text>
</g>
<!-- PEDTF07&#45;&gt;PEDTF09 -->
<g id="edge8" class="edge">
<title>PEDTF07&#45;&gt;PEDTF09</title>
<path fill="none" stroke="black" d="M569.17,-293.65C577.83,-284.71 587.44,-274.79 596.53,-265.4"/>
<polygon fill="black" stroke="black" points="598.85,-268.04 603.3,-258.42 593.83,-263.16 598.85,-268.04"/>
</g>
<!-- PEDTF12 -->
<g id="node12" class="node">
<title>PEDTF12</title>
<polygon fill="none" stroke="black" points="475.88,-159 312.62,-159 312.62,-98 475.88,-98 475.88,-159"/>
<polygon fill="none" stroke="black" points="320.62,-128.5 320.62,-155 467.88,-155 467.88,-128.5 320.62,-128.5"/>
<text text-anchor="start" x="341.38" y="-137.7" font-family="Times,serif" font-size="14.00">PEDTF12: </text>
<text text-anchor="start" x="403.62" y="-137.7" font-family="Times,serif" font-size="14.00" fill="green">Sistema</text>
<polygon fill="none" stroke="black" points="320.62,-102 320.62,-128.5 467.88,-128.5 467.88,-102 320.62,-102"/>
<text text-anchor="start" x="325.62" y="-111.2" font-family="Times,serif" font-size="14.00" fill="blue">Cierra</text>
<text text-anchor="start" x="359.38" y="-111.2" font-family="Times,serif" font-size="14.00">: &quot;MessageModal&quot;</text>
</g>
<!-- PEDTF08&#45;&gt;PEDTF12 -->
<g id="edge11" class="edge">
<title>PEDTF08&#45;&gt;PEDTF12</title>
<path fill="none" stroke="black" d="M394.25,-195.65C394.25,-187.79 394.25,-179.18 394.25,-170.83"/>
<polygon fill="black" stroke="black" points="397.75,-170.84 394.25,-160.84 390.75,-170.84 397.75,-170.84"/>
</g>
<!-- PEDTF10 -->
<g id="node10" class="node">
<title>PEDTF10</title>
<polygon fill="none" stroke="black" points="714.88,-159 551.62,-159 551.62,-98 714.88,-98 714.88,-159"/>
<polygon fill="none" stroke="black" points="559.62,-128.5 559.62,-155 706.88,-155 706.88,-128.5 559.62,-128.5"/>
<text text-anchor="start" x="580.38" y="-137.7" font-family="Times,serif" font-size="14.00">PEDTF10: </text>
<text text-anchor="start" x="642.62" y="-137.7" font-family="Times,serif" font-size="14.00" fill="green">Sistema</text>
<polygon fill="none" stroke="black" points="559.62,-102 559.62,-128.5 706.88,-128.5 706.88,-102 559.62,-102"/>
<text text-anchor="start" x="564.62" y="-111.2" font-family="Times,serif" font-size="14.00" fill="blue">Cierra</text>
<text text-anchor="start" x="598.38" y="-111.2" font-family="Times,serif" font-size="14.00">: &quot;MessageModal&quot;</text>
</g>
<!-- PEDTF09&#45;&gt;PEDTF10 -->
<g id="edge9" class="edge">
<title>PEDTF09&#45;&gt;PEDTF10</title>
<path fill="none" stroke="black" d="M633.25,-195.65C633.25,-187.79 633.25,-179.18 633.25,-170.83"/>
<polygon fill="black" stroke="black" points="636.75,-170.84 633.25,-160.84 629.75,-170.84 636.75,-170.84"/>
</g>
<!-- PEDTF11 -->
<g id="node11" class="node">
<title>PEDTF11</title>
<polygon fill="none" stroke="black" points="707.38,-61 559.12,-61 559.12,0 707.38,0 707.38,-61"/>
<polygon fill="none" stroke="black" points="567.12,-30.5 567.12,-57 699.38,-57 699.38,-30.5 567.12,-30.5"/>
<text text-anchor="start" x="572.12" y="-38.7" font-family="Times,serif" font-size="14.00">PEDTF11: Redirige a:</text>
<polygon fill="none" stroke="black" points="567.12,-4 567.12,-30.5 699.38,-30.5 699.38,-4 567.12,-4"/>
<text text-anchor="start" x="607.38" y="-12.2" font-family="Times,serif" font-size="14.00" fill="blue">MPF146.</text>
</g>
<!-- PEDTF10&#45;&gt;PEDTF11 -->
<g id="edge10" class="edge">
<title>PEDTF10&#45;&gt;PEDTF11</title>
<path fill="none" stroke="black" d="M633.25,-97.65C633.25,-89.79 633.25,-81.18 633.25,-72.83"/>
<polygon fill="black" stroke="black" points="636.75,-72.84 633.25,-62.84 629.75,-72.84 636.75,-72.84"/>
</g>
<!-- PEDTF13 -->
<g id="node13" class="node">
<title>PEDTF13</title>
<polygon fill="none" stroke="black" points="468.38,-61 320.12,-61 320.12,0 468.38,0 468.38,-61"/>
<polygon fill="none" stroke="black" points="328.12,-30.5 328.12,-57 460.38,-57 460.38,-30.5 328.12,-30.5"/>
<text text-anchor="start" x="333.12" y="-38.7" font-family="Times,serif" font-size="14.00">PEDTF13: Redirige a:</text>
<polygon fill="none" stroke="black" points="328.12,-4 328.12,-30.5 460.38,-30.5 460.38,-4 328.12,-4"/>
<text text-anchor="start" x="365" y="-12.2" font-family="Times,serif" font-size="14.00" fill="blue">PEDTF02.</text>
</g>
<!-- PEDTF12&#45;&gt;PEDTF13 -->
<g id="edge12" class="edge">
<title>PEDTF12&#45;&gt;PEDTF13</title>
<path fill="none" stroke="black" d="M394.25,-97.65C394.25,-89.79 394.25,-81.18 394.25,-72.83"/>
<polygon fill="black" stroke="black" points="397.75,-72.84 394.25,-62.84 390.75,-72.84 397.75,-72.84"/>
</g>
</g>
</svg>
