<?xml version="1.0" encoding="UTF-8" standalone="no"?>
<!DOCTYPE svg PUBLIC "-//W3C//DTD SVG 1.1//EN"
 "http://www.w3.org/Graphics/SVG/1.1/DTD/svg11.dtd">
<!-- Generated by graphviz version 9.0.0 (20230911.1827)
 -->
<!-- Title: UploadUserTemplateFlow Pages: 1 -->
<svg width="1168pt" height="922pt"
 viewBox="0.00 0.00 1167.75 921.50" xmlns="http://www.w3.org/2000/svg" xmlns:xlink="http://www.w3.org/1999/xlink">
<g id="graph0" class="graph" transform="scale(1 1) rotate(0) translate(4 917.5)">
<title>UploadUserTemplateFlow</title>
<polygon fill="white" stroke="none" points="-4,4 -4,-917.5 1163.75,-917.5 1163.75,4 -4,4"/>
<!-- USUTF01 -->
<g id="node1" class="node">
<title>USUTF01</title>
<polygon fill="none" stroke="black" points="536,-913.5 394.5,-913.5 394.5,-852.5 536,-852.5 536,-913.5"/>
<polygon fill="none" stroke="black" points="402.5,-883 402.5,-909.5 528,-909.5 528,-883 402.5,-883"/>
<text text-anchor="start" x="407.5" y="-891.2" font-family="Times,serif" font-size="14.00">USUTF01: Viene de:</text>
<polygon fill="none" stroke="black" points="402.5,-856.5 402.5,-883 528,-883 528,-856.5 402.5,-856.5"/>
<text text-anchor="start" x="439.38" y="-864.7" font-family="Times,serif" font-size="14.00" fill="orange">MPF128.</text>
</g>
<!-- USUTF02 -->
<g id="node2" class="node">
<title>USUTF02</title>
<polygon fill="none" stroke="black" points="580.25,-815.5 350.25,-815.5 350.25,-754.5 580.25,-754.5 580.25,-815.5"/>
<polygon fill="none" stroke="black" points="358.25,-785 358.25,-811.5 572.25,-811.5 572.25,-785 358.25,-785"/>
<text text-anchor="start" x="409.75" y="-794.2" font-family="Times,serif" font-size="14.00">USUTF02: </text>
<text text-anchor="start" x="473.5" y="-794.2" font-family="Times,serif" font-size="14.00" fill="green">Sistema</text>
<text text-anchor="start" x="517" y="-794.2" font-family="Times,serif" font-size="14.00">.</text>
<polygon fill="none" stroke="black" points="358.25,-758.5 358.25,-785 572.25,-785 572.25,-758.5 358.25,-758.5"/>
<text text-anchor="start" x="363.25" y="-767.7" font-family="Times,serif" font-size="14.00" fill="green">Muestra: </text>
<text text-anchor="start" x="415.75" y="-767.7" font-family="Times,serif" font-size="14.00">&quot;UploadFileModal(&#39;User&#39;)&quot;.</text>
</g>
<!-- USUTF01&#45;&gt;USUTF02 -->
<g id="edge1" class="edge">
<title>USUTF01&#45;&gt;USUTF02</title>
<path fill="none" stroke="black" d="M465.25,-852.15C465.25,-844.29 465.25,-835.68 465.25,-827.33"/>
<polygon fill="black" stroke="black" points="468.75,-827.34 465.25,-817.34 461.75,-827.34 468.75,-827.34"/>
</g>
<!-- USUTF03 -->
<g id="node3" class="node">
<title>USUTF03</title>
<polygon fill="none" stroke="black" points="594.5,-717.5 336,-717.5 336,-656.5 594.5,-656.5 594.5,-717.5"/>
<polygon fill="none" stroke="black" points="344,-687 344,-713.5 586.5,-713.5 586.5,-687 344,-687"/>
<text text-anchor="start" x="416.12" y="-696.2" font-family="Times,serif" font-size="14.00">USUTF03: </text>
<text text-anchor="start" x="479.88" y="-696.2" font-family="Times,serif" font-size="14.00" fill="blue">Actor</text>
<text text-anchor="start" x="510.62" y="-696.2" font-family="Times,serif" font-size="14.00">.</text>
<polygon fill="none" stroke="black" points="344,-660.5 344,-687 586.5,-687 586.5,-660.5 344,-660.5"/>
<text text-anchor="start" x="349" y="-669.7" font-family="Times,serif" font-size="14.00" fill="orange">Selecciona: </text>
<text text-anchor="start" x="415" y="-669.7" font-family="Times,serif" font-size="14.00">&quot;Cargar Archivo [&#39;users.csv&#39;]&quot;.</text>
</g>
<!-- USUTF02&#45;&gt;USUTF03 -->
<g id="edge2" class="edge">
<title>USUTF02&#45;&gt;USUTF03</title>
<path fill="none" stroke="black" d="M465.25,-754.15C465.25,-746.29 465.25,-737.68 465.25,-729.33"/>
<polygon fill="black" stroke="black" points="468.75,-729.34 465.25,-719.34 461.75,-729.34 468.75,-729.34"/>
</g>
<!-- USUTF04 -->
<g id="node4" class="node">
<title>USUTF04</title>
<polygon fill="none" stroke="black" points="573.88,-619.5 356.62,-619.5 356.62,-558.5 573.88,-558.5 573.88,-619.5"/>
<polygon fill="none" stroke="black" points="364.62,-589 364.62,-615.5 565.88,-615.5 565.88,-589 364.62,-589"/>
<text text-anchor="start" x="409.75" y="-598.2" font-family="Times,serif" font-size="14.00">USUTF04: </text>
<text text-anchor="start" x="473.5" y="-598.2" font-family="Times,serif" font-size="14.00" fill="green">Sistema</text>
<text text-anchor="start" x="517" y="-598.2" font-family="Times,serif" font-size="14.00">.</text>
<polygon fill="none" stroke="black" points="364.62,-562.5 364.62,-589 565.88,-589 565.88,-562.5 364.62,-562.5"/>
<text text-anchor="start" x="369.62" y="-571.7" font-family="Times,serif" font-size="14.00" fill="blue">Ejecuta: </text>
<text text-anchor="start" x="417.62" y="-571.7" font-family="Times,serif" font-size="14.00">&quot;Upload File(&#39;users.csv&#39;)&quot;.</text>
</g>
<!-- USUTF03&#45;&gt;USUTF04 -->
<g id="edge3" class="edge">
<title>USUTF03&#45;&gt;USUTF04</title>
<path fill="none" stroke="black" d="M465.25,-656.15C465.25,-648.29 465.25,-639.68 465.25,-631.33"/>
<polygon fill="black" stroke="black" points="468.75,-631.34 465.25,-621.34 461.75,-631.34 468.75,-631.34"/>
</g>
<!-- USUTF05 -->
<g id="node5" class="node">
<title>USUTF05</title>
<polygon fill="none" stroke="black" points="210.5,-492.75 0,-492.75 0,-405.25 210.5,-405.25 210.5,-492.75"/>
<polygon fill="none" stroke="black" points="8,-462.25 8,-488.75 202.5,-488.75 202.5,-462.25 8,-462.25"/>
<text text-anchor="start" x="45.62" y="-471.45" font-family="Times,serif" font-size="14.00">USUTF05: </text>
<text text-anchor="start" x="109.38" y="-471.45" font-family="Times,serif" font-size="14.00">Response</text>
<text text-anchor="start" x="161.12" y="-471.45" font-family="Times,serif" font-size="14.00">.</text>
<polygon fill="none" stroke="black" points="8,-435.75 8,-462.25 202.5,-462.25 202.5,-435.75 8,-435.75"/>
<text text-anchor="start" x="49.38" y="-444.95" font-family="Times,serif" font-size="14.00" fill="purple">res_msg: </text>
<text text-anchor="start" x="102.62" y="-444.95" font-family="Times,serif" font-size="14.00">&quot;Success&quot;.</text>
<polygon fill="none" stroke="black" points="8,-409.25 8,-435.75 202.5,-435.75 202.5,-409.25 8,-409.25"/>
<text text-anchor="start" x="13" y="-418.45" font-family="Times,serif" font-size="14.00" fill="purple">res_obj: </text>
<text text-anchor="start" x="60.25" y="-418.45" font-family="Times,serif" font-size="14.00">&quot;UserUploadResult.csv&quot;.</text>
</g>
<!-- USUTF04&#45;&gt;USUTF05 -->
<g id="edge4" class="edge">
<title>USUTF04&#45;&gt;USUTF05</title>
<path fill="none" stroke="green" d="M365.38,-558.08C320.24,-543.7 266.53,-525.39 219.25,-506 212.96,-503.42 206.53,-500.65 200.08,-497.77"/>
<polygon fill="green" stroke="green" points="201.89,-494.75 191.34,-493.79 198.99,-501.12 201.89,-494.75"/>
<text text-anchor="middle" x="335.12" y="-527.2" font-family="Times,serif" font-size="14.00">code: &#39;200&#39;</text>
</g>
<!-- USUTF06 -->
<g id="node6" class="node">
<title>USUTF06</title>
<polygon fill="none" stroke="black" points="506.25,-506 228.25,-506 228.25,-392 506.25,-392 506.25,-506"/>
<polygon fill="none" stroke="black" points="236.25,-475.5 236.25,-502 498.25,-502 498.25,-475.5 236.25,-475.5"/>
<text text-anchor="start" x="307.62" y="-484.7" font-family="Times,serif" font-size="14.00">USUTF06: </text>
<text text-anchor="start" x="371.38" y="-484.7" font-family="Times,serif" font-size="14.00">Response</text>
<text text-anchor="start" x="423.12" y="-484.7" font-family="Times,serif" font-size="14.00">.</text>
<polygon fill="none" stroke="black" points="236.25,-449 236.25,-475.5 498.25,-475.5 498.25,-449 236.25,-449"/>
<text text-anchor="start" x="283.25" y="-458.2" font-family="Times,serif" font-size="14.00" fill="purple">res_msg: </text>
<text text-anchor="start" x="336.5" y="-458.2" font-family="Times,serif" font-size="14.00">&quot;Record not found.&quot;.</text>
<polygon fill="none" stroke="black" points="236.25,-422.5 236.25,-449 498.25,-449 498.25,-422.5 236.25,-422.5"/>
<text text-anchor="start" x="241.25" y="-431.7" font-family="Times,serif" font-size="14.00" fill="purple">dis_msg: </text>
<text text-anchor="start" x="294.5" y="-431.7" font-family="Times,serif" font-size="14.00">&quot;Hay un problema con el servidor.&quot;.</text>
<polygon fill="none" stroke="black" points="236.25,-396 236.25,-422.5 498.25,-422.5 498.25,-396 236.25,-396"/>
<text text-anchor="start" x="330.88" y="-405.2" font-family="Times,serif" font-size="14.00" fill="purple">type: </text>
<text text-anchor="start" x="361.62" y="-405.2" font-family="Times,serif" font-size="14.00">&quot;error&quot;.</text>
</g>
<!-- USUTF04&#45;&gt;USUTF06 -->
<g id="edge5" class="edge">
<title>USUTF04&#45;&gt;USUTF06</title>
<path fill="none" stroke="red" d="M443.99,-558.06C435.08,-545.52 424.36,-530.41 413.78,-515.53"/>
<polygon fill="red" stroke="red" points="416.76,-513.67 408.11,-507.54 411.05,-517.72 416.76,-513.67"/>
<text text-anchor="middle" x="460.12" y="-527.2" font-family="Times,serif" font-size="14.00">code: &#39;404&#39;</text>
</g>
<!-- USUTF07 -->
<g id="node7" class="node">
<title>USUTF07</title>
<polygon fill="none" stroke="black" points="836.5,-506 524,-506 524,-392 836.5,-392 836.5,-506"/>
<polygon fill="none" stroke="black" points="532,-475.5 532,-502 828.5,-502 828.5,-475.5 532,-475.5"/>
<text text-anchor="start" x="620.62" y="-484.7" font-family="Times,serif" font-size="14.00">USUTF07: </text>
<text text-anchor="start" x="684.38" y="-484.7" font-family="Times,serif" font-size="14.00">Response</text>
<text text-anchor="start" x="736.12" y="-484.7" font-family="Times,serif" font-size="14.00">.</text>
<polygon fill="none" stroke="black" points="532,-449 532,-475.5 828.5,-475.5 828.5,-449 532,-449"/>
<text text-anchor="start" x="583.12" y="-458.2" font-family="Times,serif" font-size="14.00" fill="purple">res_msg: </text>
<text text-anchor="start" x="636.38" y="-458.2" font-family="Times,serif" font-size="14.00">&quot;Invalid request format.&quot;.</text>
<polygon fill="none" stroke="black" points="532,-422.5 532,-449 828.5,-449 828.5,-422.5 532,-422.5"/>
<text text-anchor="start" x="537" y="-431.7" font-family="Times,serif" font-size="14.00" fill="purple">dis_msg: </text>
<text text-anchor="start" x="590.25" y="-431.7" font-family="Times,serif" font-size="14.00">&quot;Solicitud incompleta o mal formateada.&quot;.</text>
<polygon fill="none" stroke="black" points="532,-396 532,-422.5 828.5,-422.5 828.5,-396 532,-396"/>
<text text-anchor="start" x="643.88" y="-405.2" font-family="Times,serif" font-size="14.00" fill="purple">type: </text>
<text text-anchor="start" x="674.62" y="-405.2" font-family="Times,serif" font-size="14.00">&quot;error&quot;.</text>
</g>
<!-- USUTF04&#45;&gt;USUTF07 -->
<g id="edge6" class="edge">
<title>USUTF04&#45;&gt;USUTF07</title>
<path fill="none" stroke="red" d="M511.9,-558.06C532.82,-544.63 558.32,-528.26 583.08,-512.37"/>
<polygon fill="red" stroke="red" points="584.72,-515.47 591.25,-507.13 580.94,-509.58 584.72,-515.47"/>
<text text-anchor="middle" x="589.12" y="-527.2" font-family="Times,serif" font-size="14.00">code: &#39;400&#39;</text>
</g>
<!-- USUTF08 -->
<g id="node8" class="node">
<title>USUTF08</title>
<polygon fill="none" stroke="black" points="1159.75,-506 854.75,-506 854.75,-392 1159.75,-392 1159.75,-506"/>
<polygon fill="none" stroke="black" points="862.75,-475.5 862.75,-502 1151.75,-502 1151.75,-475.5 862.75,-475.5"/>
<text text-anchor="start" x="947.62" y="-484.7" font-family="Times,serif" font-size="14.00">USUTF08: </text>
<text text-anchor="start" x="1011.38" y="-484.7" font-family="Times,serif" font-size="14.00">Response</text>
<text text-anchor="start" x="1063.12" y="-484.7" font-family="Times,serif" font-size="14.00">.</text>
<polygon fill="none" stroke="black" points="862.75,-449 862.75,-475.5 1151.75,-475.5 1151.75,-449 862.75,-449"/>
<text text-anchor="start" x="911.25" y="-458.2" font-family="Times,serif" font-size="14.00" fill="purple">res_msg: </text>
<text text-anchor="start" x="964.5" y="-458.2" font-family="Times,serif" font-size="14.00">&quot;Database not available&quot;.</text>
<polygon fill="none" stroke="black" points="862.75,-422.5 862.75,-449 1151.75,-449 1151.75,-422.5 862.75,-422.5"/>
<text text-anchor="start" x="867.75" y="-431.7" font-family="Times,serif" font-size="14.00" fill="purple">dis_msg: </text>
<text text-anchor="start" x="921" y="-431.7" font-family="Times,serif" font-size="14.00">&quot;No hay conexión con la base de datos.&quot;.</text>
<polygon fill="none" stroke="black" points="862.75,-396 862.75,-422.5 1151.75,-422.5 1151.75,-396 862.75,-396"/>
<text text-anchor="start" x="970.88" y="-405.2" font-family="Times,serif" font-size="14.00" fill="purple">type: </text>
<text text-anchor="start" x="1001.62" y="-405.2" font-family="Times,serif" font-size="14.00">&quot;error&quot;.</text>
</g>
<!-- USUTF04&#45;&gt;USUTF08 -->
<g id="edge7" class="edge">
<title>USUTF04&#45;&gt;USUTF08</title>
<path fill="none" stroke="red" d="M574.2,-568.1C647.8,-553.82 747.2,-532.89 843.26,-506.48"/>
<polygon fill="red" stroke="red" points="844.19,-509.85 852.89,-503.81 842.32,-503.11 844.19,-509.85"/>
<text text-anchor="middle" x="799.5" y="-527.2" font-family="Times,serif" font-size="14.00">code: &#39;E1&#39;</text>
</g>
<!-- USUTF09 -->
<g id="node9" class="node">
<title>USUTF09</title>
<polygon fill="none" stroke="black" points="180.12,-355 30.38,-355 30.38,-294 180.12,-294 180.12,-355"/>
<polygon fill="none" stroke="black" points="38.38,-324.5 38.38,-351 172.12,-351 172.12,-324.5 38.38,-324.5"/>
<text text-anchor="start" x="43.38" y="-332.7" font-family="Times,serif" font-size="14.00">USUTF09: Redirige a:</text>
<polygon fill="none" stroke="black" points="38.38,-298 38.38,-324.5 172.12,-324.5 172.12,-298 38.38,-298"/>
<text text-anchor="start" x="79.38" y="-306.2" font-family="Times,serif" font-size="14.00" fill="blue">MPF120.</text>
</g>
<!-- USUTF05&#45;&gt;USUTF09 -->
<g id="edge11" class="edge">
<title>USUTF05&#45;&gt;USUTF09</title>
<path fill="none" stroke="black" d="M105.25,-404.81C105.25,-392.39 105.25,-378.87 105.25,-366.58"/>
<polygon fill="black" stroke="black" points="108.75,-366.76 105.25,-356.76 101.75,-366.76 108.75,-366.76"/>
</g>
<!-- USUTF10 -->
<g id="node10" class="node">
<title>USUTF10</title>
<polygon fill="none" stroke="black" points="812.12,-355 548.38,-355 548.38,-294 812.12,-294 812.12,-355"/>
<polygon fill="none" stroke="black" points="556.38,-324.5 556.38,-351 804.12,-351 804.12,-324.5 556.38,-324.5"/>
<text text-anchor="start" x="624.75" y="-333.7" font-family="Times,serif" font-size="14.00">USUTF10: </text>
<text text-anchor="start" x="688.5" y="-333.7" font-family="Times,serif" font-size="14.00" fill="green">Sistema</text>
<text text-anchor="start" x="732" y="-333.7" font-family="Times,serif" font-size="14.00">.</text>
<polygon fill="none" stroke="black" points="556.38,-298 556.38,-324.5 804.12,-324.5 804.12,-298 556.38,-298"/>
<text text-anchor="start" x="561.38" y="-307.2" font-family="Times,serif" font-size="14.00" fill="green">Muestra: </text>
<text text-anchor="start" x="613.88" y="-307.2" font-family="Times,serif" font-size="14.00">&quot;MessageModal[dis_msg, type]&quot;.</text>
</g>
<!-- USUTF06&#45;&gt;USUTF10 -->
<g id="edge8" class="edge">
<title>USUTF06&#45;&gt;USUTF10</title>
<path fill="none" stroke="black" d="M506.36,-393.56C535.91,-381.99 566.29,-370.1 593.23,-359.56"/>
<polygon fill="black" stroke="black" points="594.32,-362.89 602.36,-355.98 591.77,-356.37 594.32,-362.89"/>
</g>
<!-- USUTF07&#45;&gt;USUTF10 -->
<g id="edge9" class="edge">
<title>USUTF07&#45;&gt;USUTF10</title>
<path fill="none" stroke="black" d="M680.25,-391.77C680.25,-383.32 680.25,-374.74 680.25,-366.68"/>
<polygon fill="black" stroke="black" points="683.75,-366.83 680.25,-356.83 676.75,-366.83 683.75,-366.83"/>
</g>
<!-- USUTF08&#45;&gt;USUTF10 -->
<g id="edge10" class="edge">
<title>USUTF08&#45;&gt;USUTF10</title>
<path fill="none" stroke="black" d="M856.67,-391.59C827.22,-380.56 797.21,-369.32 770.49,-359.31"/>
<polygon fill="black" stroke="black" points="772.05,-356.15 761.45,-355.92 769.59,-362.71 772.05,-356.15"/>
</g>
<!-- USUTF11 -->
<g id="node11" class="node">
<title>USUTF11</title>
<polygon fill="none" stroke="black" points="645.12,-257 423.38,-257 423.38,-196 645.12,-196 645.12,-257"/>
<polygon fill="none" stroke="black" points="431.38,-226.5 431.38,-253 637.12,-253 637.12,-226.5 431.38,-226.5"/>
<text text-anchor="start" x="485.12" y="-235.7" font-family="Times,serif" font-size="14.00">USUTF11: </text>
<text text-anchor="start" x="548.88" y="-235.7" font-family="Times,serif" font-size="14.00" fill="blue">Actor</text>
<text text-anchor="start" x="579.62" y="-235.7" font-family="Times,serif" font-size="14.00">.</text>
<polygon fill="none" stroke="black" points="431.38,-200 431.38,-226.5 637.12,-226.5 637.12,-200 431.38,-200"/>
<text text-anchor="start" x="436.38" y="-209.2" font-family="Times,serif" font-size="14.00" fill="orange">Selecciona: </text>
<text text-anchor="start" x="502.38" y="-209.2" font-family="Times,serif" font-size="14.00">&quot;MessageModal : Yes&quot;.</text>
</g>
<!-- USUTF10&#45;&gt;USUTF11 -->
<g id="edge12" class="edge">
<title>USUTF10&#45;&gt;USUTF11</title>
<path fill="none" stroke="black" d="M634.86,-293.65C620.37,-284.12 604.18,-273.48 589.09,-263.56"/>
<polygon fill="black" stroke="black" points="591.41,-260.9 581.13,-258.33 587.57,-266.75 591.41,-260.9"/>
</g>
<!-- USUTF12 -->
<g id="node12" class="node">
<title>USUTF12</title>
<polygon fill="none" stroke="black" points="883,-257 663.5,-257 663.5,-196 883,-196 883,-257"/>
<polygon fill="none" stroke="black" points="671.5,-226.5 671.5,-253 875,-253 875,-226.5 671.5,-226.5"/>
<text text-anchor="start" x="724.12" y="-235.7" font-family="Times,serif" font-size="14.00">USUTF12: </text>
<text text-anchor="start" x="787.88" y="-235.7" font-family="Times,serif" font-size="14.00" fill="blue">Actor</text>
<text text-anchor="start" x="818.62" y="-235.7" font-family="Times,serif" font-size="14.00">.</text>
<polygon fill="none" stroke="black" points="671.5,-200 671.5,-226.5 875,-226.5 875,-200 671.5,-200"/>
<text text-anchor="start" x="676.5" y="-209.2" font-family="Times,serif" font-size="14.00" fill="orange">Selecciona: </text>
<text text-anchor="start" x="742.5" y="-209.2" font-family="Times,serif" font-size="14.00">&quot;MessageModal : No&quot;.</text>
</g>
<!-- USUTF10&#45;&gt;USUTF12 -->
<g id="edge13" class="edge">
<title>USUTF10&#45;&gt;USUTF12</title>
<path fill="none" stroke="black" d="M709.17,-293.65C717.83,-284.71 727.44,-274.79 736.53,-265.4"/>
<polygon fill="black" stroke="black" points="738.85,-268.04 743.3,-258.42 733.83,-263.16 738.85,-268.04"/>
</g>
<!-- USUTF13 -->
<g id="node13" class="node">
<title>USUTF13</title>
<polygon fill="none" stroke="black" points="615.88,-159 452.62,-159 452.62,-98 615.88,-98 615.88,-159"/>
<polygon fill="none" stroke="black" points="460.62,-128.5 460.62,-155 607.88,-155 607.88,-128.5 460.62,-128.5"/>
<text text-anchor="start" x="480.62" y="-137.7" font-family="Times,serif" font-size="14.00">USUTF13: </text>
<text text-anchor="start" x="544.38" y="-137.7" font-family="Times,serif" font-size="14.00" fill="green">Sistema</text>
<polygon fill="none" stroke="black" points="460.62,-102 460.62,-128.5 607.88,-128.5 607.88,-102 460.62,-102"/>
<text text-anchor="start" x="465.62" y="-111.2" font-family="Times,serif" font-size="14.00" fill="blue">Cierra</text>
<text text-anchor="start" x="499.38" y="-111.2" font-family="Times,serif" font-size="14.00">: &quot;MessageModal&quot;</text>
</g>
<!-- USUTF11&#45;&gt;USUTF13 -->
<g id="edge14" class="edge">
<title>USUTF11&#45;&gt;USUTF13</title>
<path fill="none" stroke="black" d="M534.25,-195.65C534.25,-187.79 534.25,-179.18 534.25,-170.83"/>
<polygon fill="black" stroke="black" points="537.75,-170.84 534.25,-160.84 530.75,-170.84 537.75,-170.84"/>
</g>
<!-- USUTF15 -->
<g id="node15" class="node">
<title>USUTF15</title>
<polygon fill="none" stroke="black" points="854.88,-159 691.62,-159 691.62,-98 854.88,-98 854.88,-159"/>
<polygon fill="none" stroke="black" points="699.62,-128.5 699.62,-155 846.88,-155 846.88,-128.5 699.62,-128.5"/>
<text text-anchor="start" x="719.62" y="-137.7" font-family="Times,serif" font-size="14.00">USUTF15: </text>
<text text-anchor="start" x="783.38" y="-137.7" font-family="Times,serif" font-size="14.00" fill="green">Sistema</text>
<polygon fill="none" stroke="black" points="699.62,-102 699.62,-128.5 846.88,-128.5 846.88,-102 699.62,-102"/>
<text text-anchor="start" x="704.62" y="-111.2" font-family="Times,serif" font-size="14.00" fill="blue">Cierra</text>
<text text-anchor="start" x="738.38" y="-111.2" font-family="Times,serif" font-size="14.00">: &quot;MessageModal&quot;</text>
</g>
<!-- USUTF12&#45;&gt;USUTF15 -->
<g id="edge16" class="edge">
<title>USUTF12&#45;&gt;USUTF15</title>
<path fill="none" stroke="black" d="M773.25,-195.65C773.25,-187.79 773.25,-179.18 773.25,-170.83"/>
<polygon fill="black" stroke="black" points="776.75,-170.84 773.25,-160.84 769.75,-170.84 776.75,-170.84"/>
</g>
<!-- USUTF14 -->
<g id="node14" class="node">
<title>USUTF14</title>
<polygon fill="none" stroke="black" points="609.12,-61 459.38,-61 459.38,0 609.12,0 609.12,-61"/>
<polygon fill="none" stroke="black" points="467.38,-30.5 467.38,-57 601.12,-57 601.12,-30.5 467.38,-30.5"/>
<text text-anchor="start" x="472.38" y="-38.7" font-family="Times,serif" font-size="14.00">USUTF14: Redirige a:</text>
<polygon fill="none" stroke="black" points="467.38,-4 467.38,-30.5 601.12,-30.5 601.12,-4 467.38,-4"/>
<text text-anchor="start" x="504.25" y="-12.2" font-family="Times,serif" font-size="14.00" fill="blue">USUTF04.</text>
</g>
<!-- USUTF13&#45;&gt;USUTF14 -->
<g id="edge15" class="edge">
<title>USUTF13&#45;&gt;USUTF14</title>
<path fill="none" stroke="black" d="M534.25,-97.65C534.25,-89.79 534.25,-81.18 534.25,-72.83"/>
<polygon fill="black" stroke="black" points="537.75,-72.84 534.25,-62.84 530.75,-72.84 537.75,-72.84"/>
</g>
<!-- USUTF16 -->
<g id="node16" class="node">
<title>USUTF16</title>
<polygon fill="none" stroke="black" points="848.12,-61 698.38,-61 698.38,0 848.12,0 848.12,-61"/>
<polygon fill="none" stroke="black" points="706.38,-30.5 706.38,-57 840.12,-57 840.12,-30.5 706.38,-30.5"/>
<text text-anchor="start" x="711.38" y="-38.7" font-family="Times,serif" font-size="14.00">USUTF16: Redirige a:</text>
<polygon fill="none" stroke="black" points="706.38,-4 706.38,-30.5 840.12,-30.5 840.12,-4 706.38,-4"/>
<text text-anchor="start" x="747.38" y="-12.2" font-family="Times,serif" font-size="14.00" fill="blue">MPF120.</text>
</g>
<!-- USUTF15&#45;&gt;USUTF16 -->
<g id="edge17" class="edge">
<title>USUTF15&#45;&gt;USUTF16</title>
<path fill="none" stroke="black" d="M773.25,-97.65C773.25,-89.79 773.25,-81.18 773.25,-72.83"/>
<polygon fill="black" stroke="black" points="776.75,-72.84 773.25,-62.84 769.75,-72.84 776.75,-72.84"/>
</g>
</g>
</svg>
