<?xml version="1.0" encoding="UTF-8" standalone="no"?>
<!DOCTYPE svg PUBLIC "-//W3C//DTD SVG 1.1//EN"
 "http://www.w3.org/Graphics/SVG/1.1/DTD/svg11.dtd">
<!-- Generated by graphviz version 9.0.0 (20230911.1827)
 -->
<!-- Title: DownloadUserTemplateFlow Pages: 1 -->
<svg width="903pt" height="726pt"
 viewBox="0.00 0.00 902.50 725.50" xmlns="http://www.w3.org/2000/svg" xmlns:xlink="http://www.w3.org/1999/xlink">
<g id="graph0" class="graph" transform="scale(1 1) rotate(0) translate(4 721.5)">
<title>DownloadUserTemplateFlow</title>
<polygon fill="white" stroke="none" points="-4,4 -4,-721.5 898.5,-721.5 898.5,4 -4,4"/>
<!-- USDTF01 -->
<g id="node1" class="node">
<title>USDTF01</title>
<polygon fill="none" stroke="black" points="675.38,-717.5 443.88,-717.5 443.88,-656.5 675.38,-656.5 675.38,-717.5"/>
<polygon fill="none" stroke="black" points="451.88,-687 451.88,-713.5 667.38,-713.5 667.38,-687 451.88,-687"/>
<text text-anchor="start" x="501.88" y="-695.2" font-family="Times,serif" font-size="14.00">USDTF01: Viene de:</text>
<polygon fill="none" stroke="black" points="451.88,-660.5 451.88,-687 667.38,-687 667.38,-660.5 451.88,-660.5"/>
<text text-anchor="start" x="456.88" y="-668.7" font-family="Times,serif" font-size="14.00" fill="orange">MPF127 : SEL &quot;Descargar Plantilla&quot;.</text>
</g>
<!-- USDTF02 -->
<g id="node2" class="node">
<title>USDTF02</title>
<polygon fill="none" stroke="black" points="674.25,-619.5 445,-619.5 445,-558.5 674.25,-558.5 674.25,-619.5"/>
<polygon fill="none" stroke="black" points="453,-589 453,-615.5 666.25,-615.5 666.25,-589 453,-589"/>
<text text-anchor="start" x="504.12" y="-598.2" font-family="Times,serif" font-size="14.00">USDTF02: </text>
<text text-anchor="start" x="567.88" y="-598.2" font-family="Times,serif" font-size="14.00" fill="green">Sistema</text>
<text text-anchor="start" x="611.38" y="-598.2" font-family="Times,serif" font-size="14.00">.</text>
<polygon fill="none" stroke="black" points="453,-562.5 453,-589 666.25,-589 666.25,-562.5 453,-562.5"/>
<text text-anchor="start" x="458" y="-571.7" font-family="Times,serif" font-size="14.00" fill="blue">Ejecuta: </text>
<text text-anchor="start" x="506" y="-571.7" font-family="Times,serif" font-size="14.00">&quot;downloadUserTemplate()&quot;.</text>
</g>
<!-- USDTF01&#45;&gt;USDTF02 -->
<g id="edge1" class="edge">
<title>USDTF01&#45;&gt;USDTF02</title>
<path fill="none" stroke="black" d="M559.62,-656.15C559.62,-648.29 559.62,-639.68 559.62,-631.33"/>
<polygon fill="black" stroke="black" points="563.13,-631.34 559.63,-621.34 556.13,-631.34 563.13,-631.34"/>
</g>
<!-- USDTF03 -->
<g id="node3" class="node">
<title>USDTF03</title>
<polygon fill="none" stroke="black" points="208.62,-492.75 20.62,-492.75 20.62,-405.25 208.62,-405.25 208.62,-492.75"/>
<polygon fill="none" stroke="black" points="28.62,-462.25 28.62,-488.75 200.62,-488.75 200.62,-462.25 28.62,-462.25"/>
<text text-anchor="start" x="55" y="-471.45" font-family="Times,serif" font-size="14.00">USDTF03: </text>
<text text-anchor="start" x="118.75" y="-471.45" font-family="Times,serif" font-size="14.00">Response</text>
<text text-anchor="start" x="170.5" y="-471.45" font-family="Times,serif" font-size="14.00">.</text>
<polygon fill="none" stroke="black" points="28.62,-435.75 28.62,-462.25 200.62,-462.25 200.62,-435.75 28.62,-435.75"/>
<text text-anchor="start" x="58.75" y="-444.95" font-family="Times,serif" font-size="14.00" fill="purple">res_msg: </text>
<text text-anchor="start" x="112" y="-444.95" font-family="Times,serif" font-size="14.00">&quot;Success&quot;.</text>
<polygon fill="none" stroke="black" points="28.62,-409.25 28.62,-435.75 200.62,-435.75 200.62,-409.25 28.62,-409.25"/>
<text text-anchor="start" x="33.62" y="-418.45" font-family="Times,serif" font-size="14.00" fill="purple">res_obj: </text>
<text text-anchor="start" x="80.88" y="-418.45" font-family="Times,serif" font-size="14.00">&quot;UserTemplate.csv&quot;.</text>
</g>
<!-- USDTF02&#45;&gt;USDTF03 -->
<g id="edge2" class="edge">
<title>USDTF02&#45;&gt;USDTF03</title>
<path fill="none" stroke="green" d="M444.52,-568.25C377.09,-554.76 291.01,-534.18 217.62,-506 211.48,-503.64 205.24,-500.98 199.03,-498.14"/>
<polygon fill="green" stroke="green" points="200.53,-494.98 190,-493.85 197.53,-501.3 200.53,-494.98"/>
<text text-anchor="middle" x="347.5" y="-527.2" font-family="Times,serif" font-size="14.00">code: &#39;200&#39;</text>
</g>
<!-- USDTF04 -->
<g id="node4" class="node">
<title>USDTF04</title>
<polygon fill="none" stroke="black" points="504.62,-506 226.62,-506 226.62,-392 504.62,-392 504.62,-506"/>
<polygon fill="none" stroke="black" points="234.62,-475.5 234.62,-502 496.62,-502 496.62,-475.5 234.62,-475.5"/>
<text text-anchor="start" x="306" y="-484.7" font-family="Times,serif" font-size="14.00">USDTF04: </text>
<text text-anchor="start" x="369.75" y="-484.7" font-family="Times,serif" font-size="14.00">Response</text>
<text text-anchor="start" x="421.5" y="-484.7" font-family="Times,serif" font-size="14.00">.</text>
<polygon fill="none" stroke="black" points="234.62,-449 234.62,-475.5 496.62,-475.5 496.62,-449 234.62,-449"/>
<text text-anchor="start" x="281.62" y="-458.2" font-family="Times,serif" font-size="14.00" fill="purple">res_msg: </text>
<text text-anchor="start" x="334.88" y="-458.2" font-family="Times,serif" font-size="14.00">&quot;Record not found.&quot;.</text>
<polygon fill="none" stroke="black" points="234.62,-422.5 234.62,-449 496.62,-449 496.62,-422.5 234.62,-422.5"/>
<text text-anchor="start" x="239.62" y="-431.7" font-family="Times,serif" font-size="14.00" fill="purple">dis_msg: </text>
<text text-anchor="start" x="292.88" y="-431.7" font-family="Times,serif" font-size="14.00">&quot;Hay un problema con el servidor.&quot;.</text>
<polygon fill="none" stroke="black" points="234.62,-396 234.62,-422.5 496.62,-422.5 496.62,-396 234.62,-396"/>
<text text-anchor="start" x="329.25" y="-405.2" font-family="Times,serif" font-size="14.00" fill="purple">type: </text>
<text text-anchor="start" x="360" y="-405.2" font-family="Times,serif" font-size="14.00">&quot;error&quot;.</text>
</g>
<!-- USDTF02&#45;&gt;USDTF04 -->
<g id="edge3" class="edge">
<title>USDTF02&#45;&gt;USDTF04</title>
<path fill="none" stroke="red" d="M517.53,-558.06C498.82,-544.75 476.05,-528.55 453.89,-512.79"/>
<polygon fill="red" stroke="red" points="456.19,-510.13 446.02,-507.19 452.14,-515.83 456.19,-510.13"/>
<text text-anchor="middle" x="519.5" y="-527.2" font-family="Times,serif" font-size="14.00">code: &#39;404&#39;</text>
</g>
<!-- USDTF05 -->
<g id="node5" class="node">
<title>USDTF05</title>
<polygon fill="none" stroke="black" points="828.12,-506 523.12,-506 523.12,-392 828.12,-392 828.12,-506"/>
<polygon fill="none" stroke="black" points="531.12,-475.5 531.12,-502 820.12,-502 820.12,-475.5 531.12,-475.5"/>
<text text-anchor="start" x="616" y="-484.7" font-family="Times,serif" font-size="14.00">USDTF05: </text>
<text text-anchor="start" x="679.75" y="-484.7" font-family="Times,serif" font-size="14.00">Response</text>
<text text-anchor="start" x="731.5" y="-484.7" font-family="Times,serif" font-size="14.00">.</text>
<polygon fill="none" stroke="black" points="531.12,-449 531.12,-475.5 820.12,-475.5 820.12,-449 531.12,-449"/>
<text text-anchor="start" x="579.62" y="-458.2" font-family="Times,serif" font-size="14.00" fill="purple">res_msg: </text>
<text text-anchor="start" x="632.88" y="-458.2" font-family="Times,serif" font-size="14.00">&quot;Database not available&quot;.</text>
<polygon fill="none" stroke="black" points="531.12,-422.5 531.12,-449 820.12,-449 820.12,-422.5 531.12,-422.5"/>
<text text-anchor="start" x="536.12" y="-431.7" font-family="Times,serif" font-size="14.00" fill="purple">dis_msg: </text>
<text text-anchor="start" x="589.38" y="-431.7" font-family="Times,serif" font-size="14.00">&quot;No hay conexión con la base de datos.&quot;.</text>
<polygon fill="none" stroke="black" points="531.12,-396 531.12,-422.5 820.12,-422.5 820.12,-396 531.12,-396"/>
<text text-anchor="start" x="639.25" y="-405.2" font-family="Times,serif" font-size="14.00" fill="purple">type: </text>
<text text-anchor="start" x="670" y="-405.2" font-family="Times,serif" font-size="14.00">&quot;error&quot;.</text>
</g>
<!-- USDTF02&#45;&gt;USDTF05 -->
<g id="edge4" class="edge">
<title>USDTF02&#45;&gt;USDTF05</title>
<path fill="none" stroke="red" d="M584.8,-558.06C595.43,-545.4 608.27,-530.13 620.9,-515.1"/>
<polygon fill="red" stroke="red" points="623.56,-517.37 627.32,-507.47 618.21,-512.87 623.56,-517.37"/>
<text text-anchor="middle" x="636.88" y="-527.2" font-family="Times,serif" font-size="14.00">code: &#39;E1&#39;</text>
</g>
<!-- USDTF06 -->
<g id="node6" class="node">
<title>USDTF06</title>
<polygon fill="none" stroke="black" points="229.25,-355 0,-355 0,-294 229.25,-294 229.25,-355"/>
<polygon fill="none" stroke="black" points="8,-324.5 8,-351 221.25,-351 221.25,-324.5 8,-324.5"/>
<text text-anchor="start" x="52.75" y="-332.7" font-family="Times,serif" font-size="14.00">USDTF06: Redirige a:</text>
<polygon fill="none" stroke="black" points="8,-298 8,-324.5 221.25,-324.5 221.25,-298 8,-298"/>
<text text-anchor="start" x="13" y="-306.2" font-family="Times,serif" font-size="14.00" fill="blue">MPF126 : Esperar acción de usuario.</text>
</g>
<!-- USDTF03&#45;&gt;USDTF06 -->
<g id="edge5" class="edge">
<title>USDTF03&#45;&gt;USDTF06</title>
<path fill="none" stroke="black" d="M114.62,-404.81C114.62,-392.39 114.62,-378.87 114.62,-366.58"/>
<polygon fill="black" stroke="black" points="118.13,-366.76 114.63,-356.76 111.13,-366.76 118.13,-366.76"/>
</g>
<!-- USDTF07 -->
<g id="node7" class="node">
<title>USDTF07</title>
<polygon fill="none" stroke="black" points="744.75,-355 452.5,-355 452.5,-294 744.75,-294 744.75,-355"/>
<polygon fill="none" stroke="black" points="460.5,-324.5 460.5,-351 736.75,-351 736.75,-324.5 460.5,-324.5"/>
<text text-anchor="start" x="543.12" y="-333.7" font-family="Times,serif" font-size="14.00">USDTF07: </text>
<text text-anchor="start" x="606.88" y="-333.7" font-family="Times,serif" font-size="14.00" fill="green">Sistema</text>
<text text-anchor="start" x="650.38" y="-333.7" font-family="Times,serif" font-size="14.00">.</text>
<polygon fill="none" stroke="black" points="460.5,-298 460.5,-324.5 736.75,-324.5 736.75,-298 460.5,-298"/>
<text text-anchor="start" x="465.5" y="-307.2" font-family="Times,serif" font-size="14.00" fill="green">Muestra: </text>
<text text-anchor="start" x="518" y="-307.2" font-family="Times,serif" font-size="14.00">&quot;showMessageModal(dis_msg, type)&quot;.</text>
</g>
<!-- USDTF04&#45;&gt;USDTF07 -->
<g id="edge6" class="edge">
<title>USDTF04&#45;&gt;USDTF07</title>
<path fill="none" stroke="black" d="M472.92,-391.59C492.97,-381.05 513.39,-370.31 531.78,-360.64"/>
<polygon fill="black" stroke="black" points="533.21,-363.85 540.43,-356.09 529.95,-357.65 533.21,-363.85"/>
</g>
<!-- USDTF05&#45;&gt;USDTF07 -->
<g id="edge14" class="edge">
<title>USDTF05&#45;&gt;USDTF07</title>
<path fill="none" stroke="black" d="M640.28,-391.77C634.6,-382.73 628.82,-373.54 623.45,-365"/>
<polygon fill="black" stroke="black" points="626.46,-363.21 618.17,-356.6 620.53,-366.93 626.46,-363.21"/>
</g>
<!-- USDTF08 -->
<g id="node8" class="node">
<title>USDTF08</title>
<polygon fill="none" stroke="black" points="828.5,-257 606.75,-257 606.75,-196 828.5,-196 828.5,-257"/>
<polygon fill="none" stroke="black" points="614.75,-226.5 614.75,-253 820.5,-253 820.5,-226.5 614.75,-226.5"/>
<text text-anchor="start" x="668.5" y="-235.7" font-family="Times,serif" font-size="14.00">USDTF08: </text>
<text text-anchor="start" x="732.25" y="-235.7" font-family="Times,serif" font-size="14.00" fill="blue">Actor</text>
<text text-anchor="start" x="763" y="-235.7" font-family="Times,serif" font-size="14.00">.</text>
<polygon fill="none" stroke="black" points="614.75,-200 614.75,-226.5 820.5,-226.5 820.5,-200 614.75,-200"/>
<text text-anchor="start" x="619.75" y="-209.2" font-family="Times,serif" font-size="14.00" fill="orange">Selecciona: </text>
<text text-anchor="start" x="685.75" y="-209.2" font-family="Times,serif" font-size="14.00">&quot;MessageModal : Yes&quot;.</text>
</g>
<!-- USDTF07&#45;&gt;USDTF08 -->
<g id="edge7" class="edge">
<title>USDTF07&#45;&gt;USDTF08</title>
<path fill="none" stroke="black" d="M635.63,-293.65C647.04,-284.44 659.76,-274.18 671.7,-264.55"/>
<polygon fill="black" stroke="black" points="673.88,-267.28 679.47,-258.28 669.49,-261.84 673.88,-267.28"/>
</g>
<!-- USDTF09 -->
<g id="node9" class="node">
<title>USDTF09</title>
<polygon fill="none" stroke="black" points="588.38,-257 368.88,-257 368.88,-196 588.38,-196 588.38,-257"/>
<polygon fill="none" stroke="black" points="376.88,-226.5 376.88,-253 580.38,-253 580.38,-226.5 376.88,-226.5"/>
<text text-anchor="start" x="429.5" y="-235.7" font-family="Times,serif" font-size="14.00">USDTF09: </text>
<text text-anchor="start" x="493.25" y="-235.7" font-family="Times,serif" font-size="14.00" fill="blue">Actor</text>
<text text-anchor="start" x="524" y="-235.7" font-family="Times,serif" font-size="14.00">.</text>
<polygon fill="none" stroke="black" points="376.88,-200 376.88,-226.5 580.38,-226.5 580.38,-200 376.88,-200"/>
<text text-anchor="start" x="381.88" y="-209.2" font-family="Times,serif" font-size="14.00" fill="orange">Selecciona: </text>
<text text-anchor="start" x="447.88" y="-209.2" font-family="Times,serif" font-size="14.00">&quot;MessageModal : No&quot;.</text>
</g>
<!-- USDTF07&#45;&gt;USDTF09 -->
<g id="edge8" class="edge">
<title>USDTF07&#45;&gt;USDTF09</title>
<path fill="none" stroke="black" d="M561.31,-293.65C549.69,-284.35 536.73,-273.98 524.58,-264.27"/>
<polygon fill="black" stroke="black" points="527.09,-261.79 517.09,-258.28 522.72,-267.26 527.09,-261.79"/>
</g>
<!-- USDTF12 -->
<g id="node12" class="node">
<title>USDTF12</title>
<polygon fill="none" stroke="black" points="814.25,-159 651,-159 651,-98 814.25,-98 814.25,-159"/>
<polygon fill="none" stroke="black" points="659,-128.5 659,-155 806.25,-155 806.25,-128.5 659,-128.5"/>
<text text-anchor="start" x="679" y="-137.7" font-family="Times,serif" font-size="14.00">USDTF12: </text>
<text text-anchor="start" x="742.75" y="-137.7" font-family="Times,serif" font-size="14.00" fill="green">Sistema</text>
<polygon fill="none" stroke="black" points="659,-102 659,-128.5 806.25,-128.5 806.25,-102 659,-102"/>
<text text-anchor="start" x="664" y="-111.2" font-family="Times,serif" font-size="14.00" fill="blue">Cierra</text>
<text text-anchor="start" x="697.75" y="-111.2" font-family="Times,serif" font-size="14.00">: &quot;MessageModal&quot;</text>
</g>
<!-- USDTF08&#45;&gt;USDTF12 -->
<g id="edge11" class="edge">
<title>USDTF08&#45;&gt;USDTF12</title>
<path fill="none" stroke="black" d="M722.29,-195.65C723.53,-187.7 724.89,-178.98 726.21,-170.55"/>
<polygon fill="black" stroke="black" points="729.64,-171.25 727.73,-160.83 722.73,-170.17 729.64,-171.25"/>
</g>
<!-- USDTF10 -->
<g id="node10" class="node">
<title>USDTF10</title>
<polygon fill="none" stroke="black" points="560.25,-159 397,-159 397,-98 560.25,-98 560.25,-159"/>
<polygon fill="none" stroke="black" points="405,-128.5 405,-155 552.25,-155 552.25,-128.5 405,-128.5"/>
<text text-anchor="start" x="425" y="-137.7" font-family="Times,serif" font-size="14.00">USDTF10: </text>
<text text-anchor="start" x="488.75" y="-137.7" font-family="Times,serif" font-size="14.00" fill="green">Sistema</text>
<polygon fill="none" stroke="black" points="405,-102 405,-128.5 552.25,-128.5 552.25,-102 405,-102"/>
<text text-anchor="start" x="410" y="-111.2" font-family="Times,serif" font-size="14.00" fill="blue">Cierra</text>
<text text-anchor="start" x="443.75" y="-111.2" font-family="Times,serif" font-size="14.00">: &quot;MessageModal&quot;</text>
</g>
<!-- USDTF09&#45;&gt;USDTF10 -->
<g id="edge9" class="edge">
<title>USDTF09&#45;&gt;USDTF10</title>
<path fill="none" stroke="black" d="M478.62,-195.65C478.62,-187.79 478.62,-179.18 478.62,-170.83"/>
<polygon fill="black" stroke="black" points="482.13,-170.84 478.63,-160.84 475.13,-170.84 482.13,-170.84"/>
</g>
<!-- USDTF11 -->
<g id="node11" class="node">
<title>USDTF11</title>
<polygon fill="none" stroke="black" points="601.12,-61 356.12,-61 356.12,0 601.12,0 601.12,-61"/>
<polygon fill="none" stroke="black" points="364.12,-30.5 364.12,-57 593.12,-57 593.12,-30.5 364.12,-30.5"/>
<text text-anchor="start" x="416.75" y="-38.7" font-family="Times,serif" font-size="14.00">USDTF11: Redirige a:</text>
<polygon fill="none" stroke="black" points="364.12,-4 364.12,-30.5 593.12,-30.5 593.12,-4 364.12,-4"/>
<text text-anchor="start" x="369.12" y="-12.2" font-family="Times,serif" font-size="14.00" fill="blue">MPF120 : Muestra MainUsersListPage.</text>
</g>
<!-- USDTF10&#45;&gt;USDTF11 -->
<g id="edge10" class="edge">
<title>USDTF10&#45;&gt;USDTF11</title>
<path fill="none" stroke="black" d="M478.62,-97.65C478.62,-89.79 478.62,-81.18 478.62,-72.83"/>
<polygon fill="black" stroke="black" points="482.13,-72.84 478.63,-62.84 475.13,-72.84 482.13,-72.84"/>
</g>
<!-- USDTF13 -->
<g id="node13" class="node">
<title>USDTF13</title>
<polygon fill="none" stroke="black" points="894.5,-61 744.75,-61 744.75,0 894.5,0 894.5,-61"/>
<polygon fill="none" stroke="black" points="752.75,-30.5 752.75,-57 886.5,-57 886.5,-30.5 752.75,-30.5"/>
<text text-anchor="start" x="757.75" y="-38.7" font-family="Times,serif" font-size="14.00">USDTF13: Redirige a:</text>
<polygon fill="none" stroke="black" points="752.75,-4 752.75,-30.5 886.5,-30.5 886.5,-4 752.75,-4"/>
<text text-anchor="start" x="789.62" y="-12.2" font-family="Times,serif" font-size="14.00" fill="blue">USDTF02.</text>
</g>
<!-- USDTF12&#45;&gt;USDTF13 -->
<g id="edge12" class="edge">
<title>USDTF12&#45;&gt;USDTF13</title>
<path fill="none" stroke="black" d="M759.68,-97.65C767.7,-88.8 776.59,-78.99 785.02,-69.69"/>
<polygon fill="black" stroke="black" points="787.45,-72.21 791.57,-62.45 782.27,-67.51 787.45,-72.21"/>
</g>
<!-- USDTF13&#45;&gt;USDTF02 -->
<g id="edge13" class="edge">
<title>USDTF13&#45;&gt;USDTF02</title>
<path fill="none" stroke="black" d="M837.69,-61.5C847.08,-79.89 856.62,-104.28 856.62,-127.5 856.62,-450 856.62,-450 856.62,-450 856.62,-530.1 766.69,-563.83 685.8,-577.97"/>
<polygon fill="black" stroke="black" points="685.24,-574.51 675.95,-579.59 686.38,-581.42 685.24,-574.51"/>
</g>
</g>
</svg>
