<?xml version="1.0" encoding="UTF-8" standalone="no"?>
<!DOCTYPE svg PUBLIC "-//W3C//DTD SVG 1.1//EN"
 "http://www.w3.org/Graphics/SVG/1.1/DTD/svg11.dtd">
<!-- Generated by graphviz version 9.0.0 (20230911.1827)
 -->
<!-- Title: DownloadPointsOfSaleTemplateFlow Pages: 1 -->
<svg width="861pt" height="726pt"
 viewBox="0.00 0.00 861.38 725.50" xmlns="http://www.w3.org/2000/svg" xmlns:xlink="http://www.w3.org/1999/xlink">
<g id="graph0" class="graph" transform="scale(1 1) rotate(0) translate(4 721.5)">
<title>DownloadPointsOfSaleTemplateFlow</title>
<polygon fill="white" stroke="none" points="-4,4 -4,-721.5 857.38,-721.5 857.38,4 -4,4"/>
<!-- PSDTF01 -->
<g id="node1" class="node">
<title>PSDTF01</title>
<polygon fill="none" stroke="black" points="460.5,-717.5 321.25,-717.5 321.25,-656.5 460.5,-656.5 460.5,-717.5"/>
<polygon fill="none" stroke="black" points="329.25,-687 329.25,-713.5 452.5,-713.5 452.5,-687 329.25,-687"/>
<text text-anchor="start" x="334.25" y="-695.2" font-family="Times,serif" font-size="14.00">PSDTF01: Viene de:</text>
<polygon fill="none" stroke="black" points="329.25,-660.5 329.25,-687 452.5,-687 452.5,-660.5 329.25,-660.5"/>
<text text-anchor="start" x="368.38" y="-668.7" font-family="Times,serif" font-size="14.00" fill="orange">MPF23.</text>
</g>
<!-- PSDTF02 -->
<g id="node2" class="node">
<title>PSDTF02</title>
<polygon fill="none" stroke="black" points="533.62,-619.5 248.12,-619.5 248.12,-558.5 533.62,-558.5 533.62,-619.5"/>
<polygon fill="none" stroke="black" points="256.12,-589 256.12,-615.5 525.62,-615.5 525.62,-589 256.12,-589"/>
<text text-anchor="start" x="336.5" y="-598.2" font-family="Times,serif" font-size="14.00">PSDTF02: </text>
<text text-anchor="start" x="398" y="-598.2" font-family="Times,serif" font-size="14.00" fill="green">Sistema</text>
<text text-anchor="start" x="441.5" y="-598.2" font-family="Times,serif" font-size="14.00">.</text>
<polygon fill="none" stroke="black" points="256.12,-562.5 256.12,-589 525.62,-589 525.62,-562.5 256.12,-562.5"/>
<text text-anchor="start" x="261.12" y="-571.7" font-family="Times,serif" font-size="14.00" fill="blue">Ejecuta: </text>
<text text-anchor="start" x="309.12" y="-571.7" font-family="Times,serif" font-size="14.00">&quot;Download Template(Points of Sale)&quot;.</text>
</g>
<!-- PSDTF01&#45;&gt;PSDTF02 -->
<g id="edge1" class="edge">
<title>PSDTF01&#45;&gt;PSDTF02</title>
<path fill="none" stroke="black" d="M390.88,-656.15C390.88,-648.29 390.88,-639.68 390.88,-631.33"/>
<polygon fill="black" stroke="black" points="394.38,-631.34 390.88,-621.34 387.38,-631.34 394.38,-631.34"/>
</g>
<!-- PSDTF03 -->
<g id="node3" class="node">
<title>PSDTF03</title>
<polygon fill="none" stroke="black" points="233.75,-492.75 0,-492.75 0,-405.25 233.75,-405.25 233.75,-492.75"/>
<polygon fill="none" stroke="black" points="8,-462.25 8,-488.75 225.75,-488.75 225.75,-462.25 8,-462.25"/>
<text text-anchor="start" x="58.38" y="-471.45" font-family="Times,serif" font-size="14.00">PSDTF03: </text>
<text text-anchor="start" x="119.88" y="-471.45" font-family="Times,serif" font-size="14.00">Response</text>
<text text-anchor="start" x="171.62" y="-471.45" font-family="Times,serif" font-size="14.00">.</text>
<polygon fill="none" stroke="black" points="8,-435.75 8,-462.25 225.75,-462.25 225.75,-435.75 8,-435.75"/>
<text text-anchor="start" x="61" y="-444.95" font-family="Times,serif" font-size="14.00" fill="purple">res_msg: </text>
<text text-anchor="start" x="114.25" y="-444.95" font-family="Times,serif" font-size="14.00">&quot;Success&quot;.</text>
<polygon fill="none" stroke="black" points="8,-409.25 8,-435.75 225.75,-435.75 225.75,-409.25 8,-409.25"/>
<text text-anchor="start" x="13" y="-418.45" font-family="Times,serif" font-size="14.00" fill="purple">res_obj: </text>
<text text-anchor="start" x="60.25" y="-418.45" font-family="Times,serif" font-size="14.00">&quot;PointsOfSaleTemplate.csv&quot;.</text>
</g>
<!-- PSDTF02&#45;&gt;PSDTF03 -->
<g id="edge2" class="edge">
<title>PSDTF02&#45;&gt;PSDTF03</title>
<path fill="none" stroke="green" d="M331.42,-558.06C296.82,-540.63 252.37,-518.24 212.91,-498.37"/>
<polygon fill="green" stroke="green" points="214.59,-495.3 204.09,-493.92 211.44,-501.55 214.59,-495.3"/>
<text text-anchor="middle" x="323.75" y="-527.2" font-family="Times,serif" font-size="14.00">code: &#39;200&#39;</text>
</g>
<!-- PSDTF04 -->
<g id="node4" class="node">
<title>PSDTF04</title>
<polygon fill="none" stroke="black" points="529.88,-506 251.88,-506 251.88,-392 529.88,-392 529.88,-506"/>
<polygon fill="none" stroke="black" points="259.88,-475.5 259.88,-502 521.88,-502 521.88,-475.5 259.88,-475.5"/>
<text text-anchor="start" x="332.38" y="-484.7" font-family="Times,serif" font-size="14.00">PSDTF04: </text>
<text text-anchor="start" x="393.88" y="-484.7" font-family="Times,serif" font-size="14.00">Response</text>
<text text-anchor="start" x="445.62" y="-484.7" font-family="Times,serif" font-size="14.00">.</text>
<polygon fill="none" stroke="black" points="259.88,-449 259.88,-475.5 521.88,-475.5 521.88,-449 259.88,-449"/>
<text text-anchor="start" x="306.88" y="-458.2" font-family="Times,serif" font-size="14.00" fill="purple">res_msg: </text>
<text text-anchor="start" x="360.12" y="-458.2" font-family="Times,serif" font-size="14.00">&quot;Record not found.&quot;.</text>
<polygon fill="none" stroke="black" points="259.88,-422.5 259.88,-449 521.88,-449 521.88,-422.5 259.88,-422.5"/>
<text text-anchor="start" x="264.88" y="-431.7" font-family="Times,serif" font-size="14.00" fill="purple">dis_msg: </text>
<text text-anchor="start" x="318.12" y="-431.7" font-family="Times,serif" font-size="14.00">&quot;Hay un problema con el servidor.&quot;.</text>
<polygon fill="none" stroke="black" points="259.88,-396 259.88,-422.5 521.88,-422.5 521.88,-396 259.88,-396"/>
<text text-anchor="start" x="354.5" y="-405.2" font-family="Times,serif" font-size="14.00" fill="purple">type: </text>
<text text-anchor="start" x="385.25" y="-405.2" font-family="Times,serif" font-size="14.00">&quot;error&quot;.</text>
</g>
<!-- PSDTF02&#45;&gt;PSDTF04 -->
<g id="edge3" class="edge">
<title>PSDTF02&#45;&gt;PSDTF04</title>
<path fill="none" stroke="red" d="M390.88,-558.06C390.88,-546.11 390.88,-531.83 390.88,-517.63"/>
<polygon fill="red" stroke="red" points="394.38,-517.82 390.88,-507.82 387.38,-517.82 394.38,-517.82"/>
<text text-anchor="middle" x="419.75" y="-527.2" font-family="Times,serif" font-size="14.00">code: &#39;404&#39;</text>
</g>
<!-- PSDTF05 -->
<g id="node5" class="node">
<title>PSDTF05</title>
<polygon fill="none" stroke="black" points="853.38,-506 548.38,-506 548.38,-392 853.38,-392 853.38,-506"/>
<polygon fill="none" stroke="black" points="556.38,-475.5 556.38,-502 845.38,-502 845.38,-475.5 556.38,-475.5"/>
<text text-anchor="start" x="642.38" y="-484.7" font-family="Times,serif" font-size="14.00">PSDTF05: </text>
<text text-anchor="start" x="703.88" y="-484.7" font-family="Times,serif" font-size="14.00">Response</text>
<text text-anchor="start" x="755.62" y="-484.7" font-family="Times,serif" font-size="14.00">.</text>
<polygon fill="none" stroke="black" points="556.38,-449 556.38,-475.5 845.38,-475.5 845.38,-449 556.38,-449"/>
<text text-anchor="start" x="604.88" y="-458.2" font-family="Times,serif" font-size="14.00" fill="purple">res_msg: </text>
<text text-anchor="start" x="658.12" y="-458.2" font-family="Times,serif" font-size="14.00">&quot;Database not available&quot;.</text>
<polygon fill="none" stroke="black" points="556.38,-422.5 556.38,-449 845.38,-449 845.38,-422.5 556.38,-422.5"/>
<text text-anchor="start" x="561.38" y="-431.7" font-family="Times,serif" font-size="14.00" fill="purple">dis_msg: </text>
<text text-anchor="start" x="614.62" y="-431.7" font-family="Times,serif" font-size="14.00">&quot;No hay conexión con la base de datos.&quot;.</text>
<polygon fill="none" stroke="black" points="556.38,-396 556.38,-422.5 845.38,-422.5 845.38,-396 556.38,-396"/>
<text text-anchor="start" x="664.5" y="-405.2" font-family="Times,serif" font-size="14.00" fill="purple">type: </text>
<text text-anchor="start" x="695.25" y="-405.2" font-family="Times,serif" font-size="14.00">&quot;error&quot;.</text>
</g>
<!-- PSDTF02&#45;&gt;PSDTF05 -->
<g id="edge4" class="edge">
<title>PSDTF02&#45;&gt;PSDTF05</title>
<path fill="none" stroke="red" d="M458.14,-558.06C489.15,-544.25 527.14,-527.34 563.78,-511.03"/>
<polygon fill="red" stroke="red" points="564.98,-514.33 572.69,-507.06 562.13,-507.93 564.98,-514.33"/>
<text text-anchor="middle" x="553.12" y="-527.2" font-family="Times,serif" font-size="14.00">code: &#39;E1&#39;</text>
</g>
<!-- PSDTF06 -->
<g id="node6" class="node">
<title>PSDTF06</title>
<polygon fill="none" stroke="black" points="190.62,-355 43.12,-355 43.12,-294 190.62,-294 190.62,-355"/>
<polygon fill="none" stroke="black" points="51.12,-324.5 51.12,-351 182.62,-351 182.62,-324.5 51.12,-324.5"/>
<text text-anchor="start" x="56.12" y="-332.7" font-family="Times,serif" font-size="14.00">PSDTF06: Redirige a:</text>
<polygon fill="none" stroke="black" points="51.12,-298 51.12,-324.5 182.62,-324.5 182.62,-298 51.12,-298"/>
<text text-anchor="start" x="91" y="-306.2" font-family="Times,serif" font-size="14.00" fill="blue">MPF100.</text>
</g>
<!-- PSDTF03&#45;&gt;PSDTF06 -->
<g id="edge5" class="edge">
<title>PSDTF03&#45;&gt;PSDTF06</title>
<path fill="none" stroke="black" d="M116.88,-404.81C116.88,-392.39 116.88,-378.87 116.88,-366.58"/>
<polygon fill="black" stroke="black" points="120.38,-366.76 116.88,-356.76 113.38,-366.76 120.38,-366.76"/>
</g>
<!-- PSDTF07 -->
<g id="node7" class="node">
<title>PSDTF07</title>
<polygon fill="none" stroke="black" points="677.75,-355 414,-355 414,-294 677.75,-294 677.75,-355"/>
<polygon fill="none" stroke="black" points="422,-324.5 422,-351 669.75,-351 669.75,-324.5 422,-324.5"/>
<text text-anchor="start" x="491.5" y="-333.7" font-family="Times,serif" font-size="14.00">PSDTF07: </text>
<text text-anchor="start" x="553" y="-333.7" font-family="Times,serif" font-size="14.00" fill="green">Sistema</text>
<text text-anchor="start" x="596.5" y="-333.7" font-family="Times,serif" font-size="14.00">.</text>
<polygon fill="none" stroke="black" points="422,-298 422,-324.5 669.75,-324.5 669.75,-298 422,-298"/>
<text text-anchor="start" x="427" y="-307.2" font-family="Times,serif" font-size="14.00" fill="green">Muestra: </text>
<text text-anchor="start" x="479.5" y="-307.2" font-family="Times,serif" font-size="14.00">&quot;MessageModal[dis_msg, type]&quot;.</text>
</g>
<!-- PSDTF04&#45;&gt;PSDTF07 -->
<g id="edge6" class="edge">
<title>PSDTF04&#45;&gt;PSDTF07</title>
<path fill="none" stroke="black" d="M462.02,-391.77C474.71,-381.75 487.62,-371.54 499.39,-362.24"/>
<polygon fill="black" stroke="black" points="501.28,-365.21 506.96,-356.26 496.94,-359.71 501.28,-365.21"/>
</g>
<!-- PSDTF05&#45;&gt;PSDTF07 -->
<g id="edge13" class="edge">
<title>PSDTF05&#45;&gt;PSDTF07</title>
<path fill="none" stroke="black" d="M629.73,-391.77C617.04,-381.75 604.13,-371.54 592.36,-362.24"/>
<polygon fill="black" stroke="black" points="594.81,-359.71 584.79,-356.26 590.47,-365.21 594.81,-359.71"/>
</g>
<!-- PSDTF08 -->
<g id="node8" class="node">
<title>PSDTF08</title>
<polygon fill="none" stroke="black" points="510.75,-257 289,-257 289,-196 510.75,-196 510.75,-257"/>
<polygon fill="none" stroke="black" points="297,-226.5 297,-253 502.75,-253 502.75,-226.5 297,-226.5"/>
<text text-anchor="start" x="351.88" y="-235.7" font-family="Times,serif" font-size="14.00">PSDTF08: </text>
<text text-anchor="start" x="413.38" y="-235.7" font-family="Times,serif" font-size="14.00" fill="blue">Actor</text>
<text text-anchor="start" x="444.12" y="-235.7" font-family="Times,serif" font-size="14.00">.</text>
<polygon fill="none" stroke="black" points="297,-200 297,-226.5 502.75,-226.5 502.75,-200 297,-200"/>
<text text-anchor="start" x="302" y="-209.2" font-family="Times,serif" font-size="14.00" fill="orange">Selecciona: </text>
<text text-anchor="start" x="368" y="-209.2" font-family="Times,serif" font-size="14.00">&quot;MessageModal : Yes&quot;.</text>
</g>
<!-- PSDTF07&#45;&gt;PSDTF08 -->
<g id="edge7" class="edge">
<title>PSDTF07&#45;&gt;PSDTF08</title>
<path fill="none" stroke="black" d="M500.48,-293.65C485.99,-284.12 469.8,-273.48 454.72,-263.56"/>
<polygon fill="black" stroke="black" points="457.04,-260.9 446.76,-258.33 453.19,-266.75 457.04,-260.9"/>
</g>
<!-- PSDTF09 -->
<g id="node9" class="node">
<title>PSDTF09</title>
<polygon fill="none" stroke="black" points="748.62,-257 529.12,-257 529.12,-196 748.62,-196 748.62,-257"/>
<polygon fill="none" stroke="black" points="537.12,-226.5 537.12,-253 740.62,-253 740.62,-226.5 537.12,-226.5"/>
<text text-anchor="start" x="590.88" y="-235.7" font-family="Times,serif" font-size="14.00">PSDTF09: </text>
<text text-anchor="start" x="652.38" y="-235.7" font-family="Times,serif" font-size="14.00" fill="blue">Actor</text>
<text text-anchor="start" x="683.12" y="-235.7" font-family="Times,serif" font-size="14.00">.</text>
<polygon fill="none" stroke="black" points="537.12,-200 537.12,-226.5 740.62,-226.5 740.62,-200 537.12,-200"/>
<text text-anchor="start" x="542.12" y="-209.2" font-family="Times,serif" font-size="14.00" fill="orange">Selecciona: </text>
<text text-anchor="start" x="608.12" y="-209.2" font-family="Times,serif" font-size="14.00">&quot;MessageModal : No&quot;.</text>
</g>
<!-- PSDTF07&#45;&gt;PSDTF09 -->
<g id="edge8" class="edge">
<title>PSDTF07&#45;&gt;PSDTF09</title>
<path fill="none" stroke="black" d="M574.79,-293.65C583.45,-284.71 593.07,-274.79 602.16,-265.4"/>
<polygon fill="black" stroke="black" points="604.48,-268.04 608.92,-258.42 599.45,-263.16 604.48,-268.04"/>
</g>
<!-- PSDTF12 -->
<g id="node12" class="node">
<title>PSDTF12</title>
<polygon fill="none" stroke="black" points="481.5,-159 318.25,-159 318.25,-98 481.5,-98 481.5,-159"/>
<polygon fill="none" stroke="black" points="326.25,-128.5 326.25,-155 473.5,-155 473.5,-128.5 326.25,-128.5"/>
<text text-anchor="start" x="347.38" y="-137.7" font-family="Times,serif" font-size="14.00">PSDTF12: </text>
<text text-anchor="start" x="408.88" y="-137.7" font-family="Times,serif" font-size="14.00" fill="green">Sistema</text>
<polygon fill="none" stroke="black" points="326.25,-102 326.25,-128.5 473.5,-128.5 473.5,-102 326.25,-102"/>
<text text-anchor="start" x="331.25" y="-111.2" font-family="Times,serif" font-size="14.00" fill="blue">Cierra</text>
<text text-anchor="start" x="365" y="-111.2" font-family="Times,serif" font-size="14.00">: &quot;MessageModal&quot;</text>
</g>
<!-- PSDTF08&#45;&gt;PSDTF12 -->
<g id="edge11" class="edge">
<title>PSDTF08&#45;&gt;PSDTF12</title>
<path fill="none" stroke="black" d="M399.88,-195.65C399.88,-187.79 399.88,-179.18 399.88,-170.83"/>
<polygon fill="black" stroke="black" points="403.38,-170.84 399.88,-160.84 396.38,-170.84 403.38,-170.84"/>
</g>
<!-- PSDTF10 -->
<g id="node10" class="node">
<title>PSDTF10</title>
<polygon fill="none" stroke="black" points="720.5,-159 557.25,-159 557.25,-98 720.5,-98 720.5,-159"/>
<polygon fill="none" stroke="black" points="565.25,-128.5 565.25,-155 712.5,-155 712.5,-128.5 565.25,-128.5"/>
<text text-anchor="start" x="586.38" y="-137.7" font-family="Times,serif" font-size="14.00">PSDTF10: </text>
<text text-anchor="start" x="647.88" y="-137.7" font-family="Times,serif" font-size="14.00" fill="green">Sistema</text>
<polygon fill="none" stroke="black" points="565.25,-102 565.25,-128.5 712.5,-128.5 712.5,-102 565.25,-102"/>
<text text-anchor="start" x="570.25" y="-111.2" font-family="Times,serif" font-size="14.00" fill="blue">Cierra</text>
<text text-anchor="start" x="604" y="-111.2" font-family="Times,serif" font-size="14.00">: &quot;MessageModal&quot;</text>
</g>
<!-- PSDTF09&#45;&gt;PSDTF10 -->
<g id="edge9" class="edge">
<title>PSDTF09&#45;&gt;PSDTF10</title>
<path fill="none" stroke="black" d="M638.88,-195.65C638.88,-187.79 638.88,-179.18 638.88,-170.83"/>
<polygon fill="black" stroke="black" points="642.38,-170.84 638.88,-160.84 635.38,-170.84 642.38,-170.84"/>
</g>
<!-- PSDTF11 -->
<g id="node11" class="node">
<title>PSDTF11</title>
<polygon fill="none" stroke="black" points="712.62,-61 565.12,-61 565.12,0 712.62,0 712.62,-61"/>
<polygon fill="none" stroke="black" points="573.12,-30.5 573.12,-57 704.62,-57 704.62,-30.5 573.12,-30.5"/>
<text text-anchor="start" x="578.12" y="-38.7" font-family="Times,serif" font-size="14.00">PSDTF11: Redirige a:</text>
<polygon fill="none" stroke="black" points="573.12,-4 573.12,-30.5 704.62,-30.5 704.62,-4 573.12,-4"/>
<text text-anchor="start" x="616.38" y="-12.2" font-family="Times,serif" font-size="14.00" fill="blue">MPF94.</text>
</g>
<!-- PSDTF10&#45;&gt;PSDTF11 -->
<g id="edge10" class="edge">
<title>PSDTF10&#45;&gt;PSDTF11</title>
<path fill="none" stroke="black" d="M638.88,-97.65C638.88,-89.79 638.88,-81.18 638.88,-72.83"/>
<polygon fill="black" stroke="black" points="642.38,-72.84 638.88,-62.84 635.38,-72.84 642.38,-72.84"/>
</g>
<!-- PSDTF13 -->
<g id="node13" class="node">
<title>PSDTF13</title>
<polygon fill="none" stroke="black" points="473.62,-61 326.12,-61 326.12,0 473.62,0 473.62,-61"/>
<polygon fill="none" stroke="black" points="334.12,-30.5 334.12,-57 465.62,-57 465.62,-30.5 334.12,-30.5"/>
<text text-anchor="start" x="339.12" y="-38.7" font-family="Times,serif" font-size="14.00">PSDTF13: Redirige a:</text>
<polygon fill="none" stroke="black" points="334.12,-4 334.12,-30.5 465.62,-30.5 465.62,-4 334.12,-4"/>
<text text-anchor="start" x="371" y="-12.2" font-family="Times,serif" font-size="14.00" fill="blue">PSDTF02.</text>
</g>
<!-- PSDTF12&#45;&gt;PSDTF13 -->
<g id="edge12" class="edge">
<title>PSDTF12&#45;&gt;PSDTF13</title>
<path fill="none" stroke="black" d="M399.88,-97.65C399.88,-89.79 399.88,-81.18 399.88,-72.83"/>
<polygon fill="black" stroke="black" points="403.38,-72.84 399.88,-62.84 396.38,-72.84 403.38,-72.84"/>
</g>
</g>
</svg>
