<?xml version="1.0" encoding="UTF-8" standalone="no"?>
<!DOCTYPE svg PUBLIC "-//W3C//DTD SVG 1.1//EN"
 "http://www.w3.org/Graphics/SVG/1.1/DTD/svg11.dtd">
<!-- Generated by graphviz version 9.0.0 (20230911.1827)
 -->
<!-- Title: UploadPaymentMethodsTemplateFlow Pages: 1 -->
<svg width="1239pt" height="922pt"
 viewBox="0.00 0.00 1239.00 921.50" xmlns="http://www.w3.org/2000/svg" xmlns:xlink="http://www.w3.org/1999/xlink">
<g id="graph0" class="graph" transform="scale(1 1) rotate(0) translate(4 917.5)">
<title>UploadPaymentMethodsTemplateFlow</title>
<polygon fill="white" stroke="none" points="-4,4 -4,-917.5 1235,-917.5 1235,4 -4,4"/>
<!-- PMUTF01 -->
<g id="node1" class="node">
<title>PMUTF01</title>
<polygon fill="none" stroke="black" points="608.75,-913.5 464.25,-913.5 464.25,-852.5 608.75,-852.5 608.75,-913.5"/>
<polygon fill="none" stroke="black" points="472.25,-883 472.25,-909.5 600.75,-909.5 600.75,-883 472.25,-883"/>
<text text-anchor="start" x="477.25" y="-891.2" font-family="Times,serif" font-size="14.00">PMUTF01: Viene de:</text>
<polygon fill="none" stroke="black" points="472.25,-856.5 472.25,-883 600.75,-883 600.75,-856.5 472.25,-856.5"/>
<text text-anchor="start" x="510.62" y="-864.7" font-family="Times,serif" font-size="14.00" fill="orange">MPF128.</text>
</g>
<!-- PMUTF02 -->
<g id="node2" class="node">
<title>PMUTF02</title>
<polygon fill="none" stroke="black" points="688.62,-815.5 384.38,-815.5 384.38,-754.5 688.62,-754.5 688.62,-815.5"/>
<polygon fill="none" stroke="black" points="392.38,-785 392.38,-811.5 680.62,-811.5 680.62,-785 392.38,-785"/>
<text text-anchor="start" x="479.5" y="-794.2" font-family="Times,serif" font-size="14.00">PMUTF02: </text>
<text text-anchor="start" x="546.25" y="-794.2" font-family="Times,serif" font-size="14.00" fill="green">Sistema</text>
<text text-anchor="start" x="589.75" y="-794.2" font-family="Times,serif" font-size="14.00">.</text>
<polygon fill="none" stroke="black" points="392.38,-758.5 392.38,-785 680.62,-785 680.62,-758.5 392.38,-758.5"/>
<text text-anchor="start" x="397.38" y="-767.7" font-family="Times,serif" font-size="14.00" fill="green">Muestra: </text>
<text text-anchor="start" x="449.88" y="-767.7" font-family="Times,serif" font-size="14.00">&quot;UploadFileModal(&#39;Payment Methods&#39;)&quot;.</text>
</g>
<!-- PMUTF01&#45;&gt;PMUTF02 -->
<g id="edge1" class="edge">
<title>PMUTF01&#45;&gt;PMUTF02</title>
<path fill="none" stroke="black" d="M536.5,-852.15C536.5,-844.29 536.5,-835.68 536.5,-827.33"/>
<polygon fill="black" stroke="black" points="540,-827.34 536.5,-817.34 533,-827.34 540,-827.34"/>
</g>
<!-- PMUTF03 -->
<g id="node3" class="node">
<title>PMUTF03</title>
<polygon fill="none" stroke="black" points="698.75,-717.5 374.25,-717.5 374.25,-656.5 698.75,-656.5 698.75,-717.5"/>
<polygon fill="none" stroke="black" points="382.25,-687 382.25,-713.5 690.75,-713.5 690.75,-687 382.25,-687"/>
<text text-anchor="start" x="485.88" y="-696.2" font-family="Times,serif" font-size="14.00">PMUTF03: </text>
<text text-anchor="start" x="552.62" y="-696.2" font-family="Times,serif" font-size="14.00" fill="blue">Actor</text>
<text text-anchor="start" x="583.38" y="-696.2" font-family="Times,serif" font-size="14.00">.</text>
<polygon fill="none" stroke="black" points="382.25,-660.5 382.25,-687 690.75,-687 690.75,-660.5 382.25,-660.5"/>
<text text-anchor="start" x="387.25" y="-669.7" font-family="Times,serif" font-size="14.00" fill="orange">Selecciona: </text>
<text text-anchor="start" x="453.25" y="-669.7" font-family="Times,serif" font-size="14.00">&quot;Cargar Archivo [&#39;paymentmethods.csv&#39;]&quot;.</text>
</g>
<!-- PMUTF02&#45;&gt;PMUTF03 -->
<g id="edge2" class="edge">
<title>PMUTF02&#45;&gt;PMUTF03</title>
<path fill="none" stroke="black" d="M536.5,-754.15C536.5,-746.29 536.5,-737.68 536.5,-729.33"/>
<polygon fill="black" stroke="black" points="540,-729.34 536.5,-719.34 533,-729.34 540,-729.34"/>
</g>
<!-- PMUTF04 -->
<g id="node4" class="node">
<title>PMUTF04</title>
<polygon fill="none" stroke="black" points="678.12,-619.5 394.88,-619.5 394.88,-558.5 678.12,-558.5 678.12,-619.5"/>
<polygon fill="none" stroke="black" points="402.88,-589 402.88,-615.5 670.12,-615.5 670.12,-589 402.88,-589"/>
<text text-anchor="start" x="479.5" y="-598.2" font-family="Times,serif" font-size="14.00">PMUTF04: </text>
<text text-anchor="start" x="546.25" y="-598.2" font-family="Times,serif" font-size="14.00" fill="green">Sistema</text>
<text text-anchor="start" x="589.75" y="-598.2" font-family="Times,serif" font-size="14.00">.</text>
<polygon fill="none" stroke="black" points="402.88,-562.5 402.88,-589 670.12,-589 670.12,-562.5 402.88,-562.5"/>
<text text-anchor="start" x="407.88" y="-571.7" font-family="Times,serif" font-size="14.00" fill="blue">Ejecuta: </text>
<text text-anchor="start" x="455.88" y="-571.7" font-family="Times,serif" font-size="14.00">&quot;Upload File(&#39;paymentmethods.csv&#39;)&quot;.</text>
</g>
<!-- PMUTF03&#45;&gt;PMUTF04 -->
<g id="edge3" class="edge">
<title>PMUTF03&#45;&gt;PMUTF04</title>
<path fill="none" stroke="black" d="M536.5,-656.15C536.5,-648.29 536.5,-639.68 536.5,-631.33"/>
<polygon fill="black" stroke="black" points="540,-631.34 536.5,-621.34 533,-631.34 540,-631.34"/>
</g>
<!-- PMUTF05 -->
<g id="node5" class="node">
<title>PMUTF05</title>
<polygon fill="none" stroke="black" points="281,-492.75 0,-492.75 0,-405.25 281,-405.25 281,-492.75"/>
<polygon fill="none" stroke="black" points="8,-462.25 8,-488.75 273,-488.75 273,-462.25 8,-462.25"/>
<text text-anchor="start" x="79.38" y="-471.45" font-family="Times,serif" font-size="14.00">PMUTF05: </text>
<text text-anchor="start" x="146.12" y="-471.45" font-family="Times,serif" font-size="14.00">Response</text>
<text text-anchor="start" x="197.88" y="-471.45" font-family="Times,serif" font-size="14.00">.</text>
<polygon fill="none" stroke="black" points="8,-435.75 8,-462.25 273,-462.25 273,-435.75 8,-435.75"/>
<text text-anchor="start" x="84.62" y="-444.95" font-family="Times,serif" font-size="14.00" fill="purple">res_msg: </text>
<text text-anchor="start" x="137.88" y="-444.95" font-family="Times,serif" font-size="14.00">&quot;Success&quot;.</text>
<polygon fill="none" stroke="black" points="8,-409.25 8,-435.75 273,-435.75 273,-409.25 8,-409.25"/>
<text text-anchor="start" x="13" y="-418.45" font-family="Times,serif" font-size="14.00" fill="purple">res_obj: </text>
<text text-anchor="start" x="60.25" y="-418.45" font-family="Times,serif" font-size="14.00">&quot;PaymentMethodsUploadResult.csv&quot;.</text>
</g>
<!-- PMUTF04&#45;&gt;PMUTF05 -->
<g id="edge4" class="edge">
<title>PMUTF04&#45;&gt;PMUTF05</title>
<path fill="none" stroke="green" d="M443.95,-558.01C397.72,-542.81 341.01,-523.84 290.5,-506 282.39,-503.14 274.05,-500.15 265.66,-497.1"/>
<polygon fill="green" stroke="green" points="267.02,-493.87 256.43,-493.74 264.62,-500.45 267.02,-493.87"/>
<text text-anchor="middle" x="414.38" y="-527.2" font-family="Times,serif" font-size="14.00">code: &#39;200&#39;</text>
</g>
<!-- PMUTF06 -->
<g id="node6" class="node">
<title>PMUTF06</title>
<polygon fill="none" stroke="black" points="577.5,-506 299.5,-506 299.5,-392 577.5,-392 577.5,-506"/>
<polygon fill="none" stroke="black" points="307.5,-475.5 307.5,-502 569.5,-502 569.5,-475.5 307.5,-475.5"/>
<text text-anchor="start" x="377.38" y="-484.7" font-family="Times,serif" font-size="14.00">PMUTF06: </text>
<text text-anchor="start" x="444.12" y="-484.7" font-family="Times,serif" font-size="14.00">Response</text>
<text text-anchor="start" x="495.88" y="-484.7" font-family="Times,serif" font-size="14.00">.</text>
<polygon fill="none" stroke="black" points="307.5,-449 307.5,-475.5 569.5,-475.5 569.5,-449 307.5,-449"/>
<text text-anchor="start" x="354.5" y="-458.2" font-family="Times,serif" font-size="14.00" fill="purple">res_msg: </text>
<text text-anchor="start" x="407.75" y="-458.2" font-family="Times,serif" font-size="14.00">&quot;Record not found.&quot;.</text>
<polygon fill="none" stroke="black" points="307.5,-422.5 307.5,-449 569.5,-449 569.5,-422.5 307.5,-422.5"/>
<text text-anchor="start" x="312.5" y="-431.7" font-family="Times,serif" font-size="14.00" fill="purple">dis_msg: </text>
<text text-anchor="start" x="365.75" y="-431.7" font-family="Times,serif" font-size="14.00">&quot;Hay un problema con el servidor.&quot;.</text>
<polygon fill="none" stroke="black" points="307.5,-396 307.5,-422.5 569.5,-422.5 569.5,-396 307.5,-396"/>
<text text-anchor="start" x="402.12" y="-405.2" font-family="Times,serif" font-size="14.00" fill="purple">type: </text>
<text text-anchor="start" x="432.88" y="-405.2" font-family="Times,serif" font-size="14.00">&quot;error&quot;.</text>
</g>
<!-- PMUTF04&#45;&gt;PMUTF06 -->
<g id="edge5" class="edge">
<title>PMUTF04&#45;&gt;PMUTF06</title>
<path fill="none" stroke="red" d="M515.24,-558.06C506.33,-545.52 495.61,-530.41 485.03,-515.53"/>
<polygon fill="red" stroke="red" points="488.01,-513.67 479.36,-507.54 482.3,-517.72 488.01,-513.67"/>
<text text-anchor="middle" x="531.38" y="-527.2" font-family="Times,serif" font-size="14.00">code: &#39;404&#39;</text>
</g>
<!-- PMUTF07 -->
<g id="node7" class="node">
<title>PMUTF07</title>
<polygon fill="none" stroke="black" points="907.75,-506 595.25,-506 595.25,-392 907.75,-392 907.75,-506"/>
<polygon fill="none" stroke="black" points="603.25,-475.5 603.25,-502 899.75,-502 899.75,-475.5 603.25,-475.5"/>
<text text-anchor="start" x="690.38" y="-484.7" font-family="Times,serif" font-size="14.00">PMUTF07: </text>
<text text-anchor="start" x="757.12" y="-484.7" font-family="Times,serif" font-size="14.00">Response</text>
<text text-anchor="start" x="808.88" y="-484.7" font-family="Times,serif" font-size="14.00">.</text>
<polygon fill="none" stroke="black" points="603.25,-449 603.25,-475.5 899.75,-475.5 899.75,-449 603.25,-449"/>
<text text-anchor="start" x="654.38" y="-458.2" font-family="Times,serif" font-size="14.00" fill="purple">res_msg: </text>
<text text-anchor="start" x="707.62" y="-458.2" font-family="Times,serif" font-size="14.00">&quot;Invalid request format.&quot;.</text>
<polygon fill="none" stroke="black" points="603.25,-422.5 603.25,-449 899.75,-449 899.75,-422.5 603.25,-422.5"/>
<text text-anchor="start" x="608.25" y="-431.7" font-family="Times,serif" font-size="14.00" fill="purple">dis_msg: </text>
<text text-anchor="start" x="661.5" y="-431.7" font-family="Times,serif" font-size="14.00">&quot;Solicitud incompleta o mal formateada.&quot;.</text>
<polygon fill="none" stroke="black" points="603.25,-396 603.25,-422.5 899.75,-422.5 899.75,-396 603.25,-396"/>
<text text-anchor="start" x="715.12" y="-405.2" font-family="Times,serif" font-size="14.00" fill="purple">type: </text>
<text text-anchor="start" x="745.88" y="-405.2" font-family="Times,serif" font-size="14.00">&quot;error&quot;.</text>
</g>
<!-- PMUTF04&#45;&gt;PMUTF07 -->
<g id="edge6" class="edge">
<title>PMUTF04&#45;&gt;PMUTF07</title>
<path fill="none" stroke="red" d="M583.15,-558.06C604.07,-544.63 629.57,-528.26 654.33,-512.37"/>
<polygon fill="red" stroke="red" points="655.97,-515.47 662.5,-507.13 652.19,-509.58 655.97,-515.47"/>
<text text-anchor="middle" x="660.38" y="-527.2" font-family="Times,serif" font-size="14.00">code: &#39;400&#39;</text>
</g>
<!-- PMUTF08 -->
<g id="node8" class="node">
<title>PMUTF08</title>
<polygon fill="none" stroke="black" points="1231,-506 926,-506 926,-392 1231,-392 1231,-506"/>
<polygon fill="none" stroke="black" points="934,-475.5 934,-502 1223,-502 1223,-475.5 934,-475.5"/>
<text text-anchor="start" x="1017.38" y="-484.7" font-family="Times,serif" font-size="14.00">PMUTF08: </text>
<text text-anchor="start" x="1084.12" y="-484.7" font-family="Times,serif" font-size="14.00">Response</text>
<text text-anchor="start" x="1135.88" y="-484.7" font-family="Times,serif" font-size="14.00">.</text>
<polygon fill="none" stroke="black" points="934,-449 934,-475.5 1223,-475.5 1223,-449 934,-449"/>
<text text-anchor="start" x="982.5" y="-458.2" font-family="Times,serif" font-size="14.00" fill="purple">res_msg: </text>
<text text-anchor="start" x="1035.75" y="-458.2" font-family="Times,serif" font-size="14.00">&quot;Database not available&quot;.</text>
<polygon fill="none" stroke="black" points="934,-422.5 934,-449 1223,-449 1223,-422.5 934,-422.5"/>
<text text-anchor="start" x="939" y="-431.7" font-family="Times,serif" font-size="14.00" fill="purple">dis_msg: </text>
<text text-anchor="start" x="992.25" y="-431.7" font-family="Times,serif" font-size="14.00">&quot;No hay conexión con la base de datos.&quot;.</text>
<polygon fill="none" stroke="black" points="934,-396 934,-422.5 1223,-422.5 1223,-396 934,-396"/>
<text text-anchor="start" x="1042.12" y="-405.2" font-family="Times,serif" font-size="14.00" fill="purple">type: </text>
<text text-anchor="start" x="1072.88" y="-405.2" font-family="Times,serif" font-size="14.00">&quot;error&quot;.</text>
</g>
<!-- PMUTF04&#45;&gt;PMUTF08 -->
<g id="edge7" class="edge">
<title>PMUTF04&#45;&gt;PMUTF08</title>
<path fill="none" stroke="red" d="M678.25,-561.63C747.11,-547.8 831.11,-529.43 914.62,-506.45"/>
<polygon fill="red" stroke="red" points="915.44,-509.86 924.14,-503.81 913.57,-503.11 915.44,-509.86"/>
<text text-anchor="middle" x="870.75" y="-527.2" font-family="Times,serif" font-size="14.00">code: &#39;E1&#39;</text>
</g>
<!-- PMUTF09 -->
<g id="node9" class="node">
<title>PMUTF09</title>
<polygon fill="none" stroke="black" points="216.88,-355 64.12,-355 64.12,-294 216.88,-294 216.88,-355"/>
<polygon fill="none" stroke="black" points="72.12,-324.5 72.12,-351 208.88,-351 208.88,-324.5 72.12,-324.5"/>
<text text-anchor="start" x="77.12" y="-332.7" font-family="Times,serif" font-size="14.00">PMUTF09: Redirige a:</text>
<polygon fill="none" stroke="black" points="72.12,-298 72.12,-324.5 208.88,-324.5 208.88,-298 72.12,-298"/>
<text text-anchor="start" x="118" y="-306.2" font-family="Times,serif" font-size="14.00" fill="blue">MPF42.</text>
</g>
<!-- PMUTF05&#45;&gt;PMUTF09 -->
<g id="edge11" class="edge">
<title>PMUTF05&#45;&gt;PMUTF09</title>
<path fill="none" stroke="black" d="M140.5,-404.81C140.5,-392.39 140.5,-378.87 140.5,-366.58"/>
<polygon fill="black" stroke="black" points="144,-366.76 140.5,-356.76 137,-366.76 144,-366.76"/>
</g>
<!-- PMUTF10 -->
<g id="node10" class="node">
<title>PMUTF10</title>
<polygon fill="none" stroke="black" points="883.38,-355 619.62,-355 619.62,-294 883.38,-294 883.38,-355"/>
<polygon fill="none" stroke="black" points="627.62,-324.5 627.62,-351 875.38,-351 875.38,-324.5 627.62,-324.5"/>
<text text-anchor="start" x="694.5" y="-333.7" font-family="Times,serif" font-size="14.00">PMUTF10: </text>
<text text-anchor="start" x="761.25" y="-333.7" font-family="Times,serif" font-size="14.00" fill="green">Sistema</text>
<text text-anchor="start" x="804.75" y="-333.7" font-family="Times,serif" font-size="14.00">.</text>
<polygon fill="none" stroke="black" points="627.62,-298 627.62,-324.5 875.38,-324.5 875.38,-298 627.62,-298"/>
<text text-anchor="start" x="632.62" y="-307.2" font-family="Times,serif" font-size="14.00" fill="green">Muestra: </text>
<text text-anchor="start" x="685.12" y="-307.2" font-family="Times,serif" font-size="14.00">&quot;MessageModal[dis_msg, type]&quot;.</text>
</g>
<!-- PMUTF06&#45;&gt;PMUTF10 -->
<g id="edge8" class="edge">
<title>PMUTF06&#45;&gt;PMUTF10</title>
<path fill="none" stroke="black" d="M577.61,-393.56C607.16,-381.99 637.54,-370.1 664.48,-359.56"/>
<polygon fill="black" stroke="black" points="665.57,-362.89 673.61,-355.98 663.02,-356.37 665.57,-362.89"/>
</g>
<!-- PMUTF07&#45;&gt;PMUTF10 -->
<g id="edge9" class="edge">
<title>PMUTF07&#45;&gt;PMUTF10</title>
<path fill="none" stroke="black" d="M751.5,-391.77C751.5,-383.32 751.5,-374.74 751.5,-366.68"/>
<polygon fill="black" stroke="black" points="755,-366.83 751.5,-356.83 748,-366.83 755,-366.83"/>
</g>
<!-- PMUTF08&#45;&gt;PMUTF10 -->
<g id="edge10" class="edge">
<title>PMUTF08&#45;&gt;PMUTF10</title>
<path fill="none" stroke="black" d="M927.92,-391.59C898.47,-380.56 868.46,-369.32 841.74,-359.31"/>
<polygon fill="black" stroke="black" points="843.3,-356.15 832.7,-355.92 840.84,-362.71 843.3,-356.15"/>
</g>
<!-- PMUTF11 -->
<g id="node11" class="node">
<title>PMUTF11</title>
<polygon fill="none" stroke="black" points="716.38,-257 494.62,-257 494.62,-196 716.38,-196 716.38,-257"/>
<polygon fill="none" stroke="black" points="502.62,-226.5 502.62,-253 708.38,-253 708.38,-226.5 502.62,-226.5"/>
<text text-anchor="start" x="554.88" y="-235.7" font-family="Times,serif" font-size="14.00">PMUTF11: </text>
<text text-anchor="start" x="621.62" y="-235.7" font-family="Times,serif" font-size="14.00" fill="blue">Actor</text>
<text text-anchor="start" x="652.38" y="-235.7" font-family="Times,serif" font-size="14.00">.</text>
<polygon fill="none" stroke="black" points="502.62,-200 502.62,-226.5 708.38,-226.5 708.38,-200 502.62,-200"/>
<text text-anchor="start" x="507.62" y="-209.2" font-family="Times,serif" font-size="14.00" fill="orange">Selecciona: </text>
<text text-anchor="start" x="573.62" y="-209.2" font-family="Times,serif" font-size="14.00">&quot;MessageModal : Yes&quot;.</text>
</g>
<!-- PMUTF10&#45;&gt;PMUTF11 -->
<g id="edge12" class="edge">
<title>PMUTF10&#45;&gt;PMUTF11</title>
<path fill="none" stroke="black" d="M706.11,-293.65C691.62,-284.12 675.43,-273.48 660.34,-263.56"/>
<polygon fill="black" stroke="black" points="662.66,-260.9 652.38,-258.33 658.82,-266.75 662.66,-260.9"/>
</g>
<!-- PMUTF12 -->
<g id="node12" class="node">
<title>PMUTF12</title>
<polygon fill="none" stroke="black" points="954.25,-257 734.75,-257 734.75,-196 954.25,-196 954.25,-257"/>
<polygon fill="none" stroke="black" points="742.75,-226.5 742.75,-253 946.25,-253 946.25,-226.5 742.75,-226.5"/>
<text text-anchor="start" x="793.88" y="-235.7" font-family="Times,serif" font-size="14.00">PMUTF12: </text>
<text text-anchor="start" x="860.62" y="-235.7" font-family="Times,serif" font-size="14.00" fill="blue">Actor</text>
<text text-anchor="start" x="891.38" y="-235.7" font-family="Times,serif" font-size="14.00">.</text>
<polygon fill="none" stroke="black" points="742.75,-200 742.75,-226.5 946.25,-226.5 946.25,-200 742.75,-200"/>
<text text-anchor="start" x="747.75" y="-209.2" font-family="Times,serif" font-size="14.00" fill="orange">Selecciona: </text>
<text text-anchor="start" x="813.75" y="-209.2" font-family="Times,serif" font-size="14.00">&quot;MessageModal : No&quot;.</text>
</g>
<!-- PMUTF10&#45;&gt;PMUTF12 -->
<g id="edge13" class="edge">
<title>PMUTF10&#45;&gt;PMUTF12</title>
<path fill="none" stroke="black" d="M780.42,-293.65C789.08,-284.71 798.69,-274.79 807.78,-265.4"/>
<polygon fill="black" stroke="black" points="810.1,-268.04 814.55,-258.42 805.08,-263.16 810.1,-268.04"/>
</g>
<!-- PMUTF13 -->
<g id="node13" class="node">
<title>PMUTF13</title>
<polygon fill="none" stroke="black" points="687.12,-159 523.88,-159 523.88,-98 687.12,-98 687.12,-159"/>
<polygon fill="none" stroke="black" points="531.88,-128.5 531.88,-155 679.12,-155 679.12,-128.5 531.88,-128.5"/>
<text text-anchor="start" x="550.38" y="-137.7" font-family="Times,serif" font-size="14.00">PMUTF13: </text>
<text text-anchor="start" x="617.12" y="-137.7" font-family="Times,serif" font-size="14.00" fill="green">Sistema</text>
<polygon fill="none" stroke="black" points="531.88,-102 531.88,-128.5 679.12,-128.5 679.12,-102 531.88,-102"/>
<text text-anchor="start" x="536.88" y="-111.2" font-family="Times,serif" font-size="14.00" fill="blue">Cierra</text>
<text text-anchor="start" x="570.62" y="-111.2" font-family="Times,serif" font-size="14.00">: &quot;MessageModal&quot;</text>
</g>
<!-- PMUTF11&#45;&gt;PMUTF13 -->
<g id="edge14" class="edge">
<title>PMUTF11&#45;&gt;PMUTF13</title>
<path fill="none" stroke="black" d="M605.5,-195.65C605.5,-187.79 605.5,-179.18 605.5,-170.83"/>
<polygon fill="black" stroke="black" points="609,-170.84 605.5,-160.84 602,-170.84 609,-170.84"/>
</g>
<!-- PMUTF15 -->
<g id="node15" class="node">
<title>PMUTF15</title>
<polygon fill="none" stroke="black" points="926.12,-159 762.88,-159 762.88,-98 926.12,-98 926.12,-159"/>
<polygon fill="none" stroke="black" points="770.88,-128.5 770.88,-155 918.12,-155 918.12,-128.5 770.88,-128.5"/>
<text text-anchor="start" x="789.38" y="-137.7" font-family="Times,serif" font-size="14.00">PMUTF15: </text>
<text text-anchor="start" x="856.12" y="-137.7" font-family="Times,serif" font-size="14.00" fill="green">Sistema</text>
<polygon fill="none" stroke="black" points="770.88,-102 770.88,-128.5 918.12,-128.5 918.12,-102 770.88,-102"/>
<text text-anchor="start" x="775.88" y="-111.2" font-family="Times,serif" font-size="14.00" fill="blue">Cierra</text>
<text text-anchor="start" x="809.62" y="-111.2" font-family="Times,serif" font-size="14.00">: &quot;MessageModal&quot;</text>
</g>
<!-- PMUTF12&#45;&gt;PMUTF15 -->
<g id="edge16" class="edge">
<title>PMUTF12&#45;&gt;PMUTF15</title>
<path fill="none" stroke="black" d="M844.5,-195.65C844.5,-187.79 844.5,-179.18 844.5,-170.83"/>
<polygon fill="black" stroke="black" points="848,-170.84 844.5,-160.84 841,-170.84 848,-170.84"/>
</g>
<!-- PMUTF14 -->
<g id="node14" class="node">
<title>PMUTF14</title>
<polygon fill="none" stroke="black" points="681.88,-61 529.12,-61 529.12,0 681.88,0 681.88,-61"/>
<polygon fill="none" stroke="black" points="537.12,-30.5 537.12,-57 673.88,-57 673.88,-30.5 537.12,-30.5"/>
<text text-anchor="start" x="542.12" y="-38.7" font-family="Times,serif" font-size="14.00">PMUTF14: Redirige a:</text>
<polygon fill="none" stroke="black" points="537.12,-4 537.12,-30.5 673.88,-30.5 673.88,-4 537.12,-4"/>
<text text-anchor="start" x="574" y="-12.2" font-family="Times,serif" font-size="14.00" fill="blue">PMUTF04.</text>
</g>
<!-- PMUTF13&#45;&gt;PMUTF14 -->
<g id="edge15" class="edge">
<title>PMUTF13&#45;&gt;PMUTF14</title>
<path fill="none" stroke="black" d="M605.5,-97.65C605.5,-89.79 605.5,-81.18 605.5,-72.83"/>
<polygon fill="black" stroke="black" points="609,-72.84 605.5,-62.84 602,-72.84 609,-72.84"/>
</g>
<!-- PMUTF16 -->
<g id="node16" class="node">
<title>PMUTF16</title>
<polygon fill="none" stroke="black" points="920.88,-61 768.12,-61 768.12,0 920.88,0 920.88,-61"/>
<polygon fill="none" stroke="black" points="776.12,-30.5 776.12,-57 912.88,-57 912.88,-30.5 776.12,-30.5"/>
<text text-anchor="start" x="781.12" y="-38.7" font-family="Times,serif" font-size="14.00">PMUTF16: Redirige a:</text>
<polygon fill="none" stroke="black" points="776.12,-4 776.12,-30.5 912.88,-30.5 912.88,-4 776.12,-4"/>
<text text-anchor="start" x="822" y="-12.2" font-family="Times,serif" font-size="14.00" fill="blue">MPF42.</text>
</g>
<!-- PMUTF15&#45;&gt;PMUTF16 -->
<g id="edge17" class="edge">
<title>PMUTF15&#45;&gt;PMUTF16</title>
<path fill="none" stroke="black" d="M844.5,-97.65C844.5,-89.79 844.5,-81.18 844.5,-72.83"/>
<polygon fill="black" stroke="black" points="848,-72.84 844.5,-62.84 841,-72.84 848,-72.84"/>
</g>
</g>
</svg>
