<?xml version="1.0" encoding="UTF-8" standalone="no"?>
<!DOCTYPE svg PUBLIC "-//W3C//DTD SVG 1.1//EN"
 "http://www.w3.org/Graphics/SVG/1.1/DTD/svg11.dtd">
<!-- Generated by graphviz version 9.0.0 (20230911.1827)
 -->
<!-- Title: UploadPointsOfSaleTemplateFlow Pages: 1 -->
<svg width="1214pt" height="922pt"
 viewBox="0.00 0.00 1213.62 921.50" xmlns="http://www.w3.org/2000/svg" xmlns:xlink="http://www.w3.org/1999/xlink">
<g id="graph0" class="graph" transform="scale(1 1) rotate(0) translate(4 917.5)">
<title>UploadPointsOfSaleTemplateFlow</title>
<polygon fill="white" stroke="none" points="-4,4 -4,-917.5 1209.62,-917.5 1209.62,4 -4,4"/>
<!-- PSUTF01 -->
<g id="node1" class="node">
<title>PSUTF01</title>
<polygon fill="none" stroke="black" points="580.75,-913.5 441.5,-913.5 441.5,-852.5 580.75,-852.5 580.75,-913.5"/>
<polygon fill="none" stroke="black" points="449.5,-883 449.5,-909.5 572.75,-909.5 572.75,-883 449.5,-883"/>
<text text-anchor="start" x="454.5" y="-891.2" font-family="Times,serif" font-size="14.00">PSUTF01: Viene de:</text>
<polygon fill="none" stroke="black" points="449.5,-856.5 449.5,-883 572.75,-883 572.75,-856.5 449.5,-856.5"/>
<text text-anchor="start" x="485.25" y="-864.7" font-family="Times,serif" font-size="14.00" fill="orange">MPF128.</text>
</g>
<!-- PSUTF02 -->
<g id="node2" class="node">
<title>PSUTF02</title>
<polygon fill="none" stroke="black" points="651.25,-815.5 371,-815.5 371,-754.5 651.25,-754.5 651.25,-815.5"/>
<polygon fill="none" stroke="black" points="379,-785 379,-811.5 643.25,-811.5 643.25,-785 379,-785"/>
<text text-anchor="start" x="456.75" y="-794.2" font-family="Times,serif" font-size="14.00">PSUTF02: </text>
<text text-anchor="start" x="518.25" y="-794.2" font-family="Times,serif" font-size="14.00" fill="green">Sistema</text>
<text text-anchor="start" x="561.75" y="-794.2" font-family="Times,serif" font-size="14.00">.</text>
<polygon fill="none" stroke="black" points="379,-758.5 379,-785 643.25,-785 643.25,-758.5 379,-758.5"/>
<text text-anchor="start" x="384" y="-767.7" font-family="Times,serif" font-size="14.00" fill="green">Muestra: </text>
<text text-anchor="start" x="436.5" y="-767.7" font-family="Times,serif" font-size="14.00">&quot;UploadFileModal(&#39;Points of Sale&#39;)&quot;.</text>
</g>
<!-- PSUTF01&#45;&gt;PSUTF02 -->
<g id="edge1" class="edge">
<title>PSUTF01&#45;&gt;PSUTF02</title>
<path fill="none" stroke="black" d="M511.12,-852.15C511.12,-844.29 511.12,-835.68 511.12,-827.33"/>
<polygon fill="black" stroke="black" points="514.63,-827.34 511.13,-817.34 507.63,-827.34 514.63,-827.34"/>
</g>
<!-- PSUTF03 -->
<g id="node3" class="node">
<title>PSUTF03</title>
<polygon fill="none" stroke="black" points="659.12,-717.5 363.12,-717.5 363.12,-656.5 659.12,-656.5 659.12,-717.5"/>
<polygon fill="none" stroke="black" points="371.12,-687 371.12,-713.5 651.12,-713.5 651.12,-687 371.12,-687"/>
<text text-anchor="start" x="463.12" y="-696.2" font-family="Times,serif" font-size="14.00">PSUTF03: </text>
<text text-anchor="start" x="524.62" y="-696.2" font-family="Times,serif" font-size="14.00" fill="blue">Actor</text>
<text text-anchor="start" x="555.38" y="-696.2" font-family="Times,serif" font-size="14.00">.</text>
<polygon fill="none" stroke="black" points="371.12,-660.5 371.12,-687 651.12,-687 651.12,-660.5 371.12,-660.5"/>
<text text-anchor="start" x="376.12" y="-669.7" font-family="Times,serif" font-size="14.00" fill="orange">Selecciona: </text>
<text text-anchor="start" x="442.12" y="-669.7" font-family="Times,serif" font-size="14.00">&quot;Cargar Archivo [&#39;pointsofsale.csv&#39;]&quot;.</text>
</g>
<!-- PSUTF02&#45;&gt;PSUTF03 -->
<g id="edge2" class="edge">
<title>PSUTF02&#45;&gt;PSUTF03</title>
<path fill="none" stroke="black" d="M511.12,-754.15C511.12,-746.29 511.12,-737.68 511.12,-729.33"/>
<polygon fill="black" stroke="black" points="514.63,-729.34 511.13,-719.34 507.63,-729.34 514.63,-729.34"/>
</g>
<!-- PSUTF04 -->
<g id="node4" class="node">
<title>PSUTF04</title>
<polygon fill="none" stroke="black" points="638.5,-619.5 383.75,-619.5 383.75,-558.5 638.5,-558.5 638.5,-619.5"/>
<polygon fill="none" stroke="black" points="391.75,-589 391.75,-615.5 630.5,-615.5 630.5,-589 391.75,-589"/>
<text text-anchor="start" x="456.75" y="-598.2" font-family="Times,serif" font-size="14.00">PSUTF04: </text>
<text text-anchor="start" x="518.25" y="-598.2" font-family="Times,serif" font-size="14.00" fill="green">Sistema</text>
<text text-anchor="start" x="561.75" y="-598.2" font-family="Times,serif" font-size="14.00">.</text>
<polygon fill="none" stroke="black" points="391.75,-562.5 391.75,-589 630.5,-589 630.5,-562.5 391.75,-562.5"/>
<text text-anchor="start" x="396.75" y="-571.7" font-family="Times,serif" font-size="14.00" fill="blue">Ejecuta: </text>
<text text-anchor="start" x="444.75" y="-571.7" font-family="Times,serif" font-size="14.00">&quot;Upload File(&#39;pointsofsale.csv&#39;)&quot;.</text>
</g>
<!-- PSUTF03&#45;&gt;PSUTF04 -->
<g id="edge3" class="edge">
<title>PSUTF03&#45;&gt;PSUTF04</title>
<path fill="none" stroke="black" d="M511.12,-656.15C511.12,-648.29 511.12,-639.68 511.12,-631.33"/>
<polygon fill="black" stroke="black" points="514.63,-631.34 511.13,-621.34 507.63,-631.34 514.63,-631.34"/>
</g>
<!-- PSUTF05 -->
<g id="node5" class="node">
<title>PSUTF05</title>
<polygon fill="none" stroke="black" points="256.25,-492.75 0,-492.75 0,-405.25 256.25,-405.25 256.25,-492.75"/>
<polygon fill="none" stroke="black" points="8,-462.25 8,-488.75 248.25,-488.75 248.25,-462.25 8,-462.25"/>
<text text-anchor="start" x="69.62" y="-471.45" font-family="Times,serif" font-size="14.00">PSUTF05: </text>
<text text-anchor="start" x="131.12" y="-471.45" font-family="Times,serif" font-size="14.00">Response</text>
<text text-anchor="start" x="182.88" y="-471.45" font-family="Times,serif" font-size="14.00">.</text>
<polygon fill="none" stroke="black" points="8,-435.75 8,-462.25 248.25,-462.25 248.25,-435.75 8,-435.75"/>
<text text-anchor="start" x="72.25" y="-444.95" font-family="Times,serif" font-size="14.00" fill="purple">res_msg: </text>
<text text-anchor="start" x="125.5" y="-444.95" font-family="Times,serif" font-size="14.00">&quot;Success&quot;.</text>
<polygon fill="none" stroke="black" points="8,-409.25 8,-435.75 248.25,-435.75 248.25,-409.25 8,-409.25"/>
<text text-anchor="start" x="13" y="-418.45" font-family="Times,serif" font-size="14.00" fill="purple">res_obj: </text>
<text text-anchor="start" x="60.25" y="-418.45" font-family="Times,serif" font-size="14.00">&quot;PointsOfSaleUploadResult.csv&quot;.</text>
</g>
<!-- PSUTF04&#45;&gt;PSUTF05 -->
<g id="edge4" class="edge">
<title>PSUTF04&#45;&gt;PSUTF05</title>
<path fill="none" stroke="green" d="M416.28,-558.01C370.38,-543.08 314.62,-524.34 265.12,-506 257.67,-503.24 250.02,-500.33 242.32,-497.34"/>
<polygon fill="green" stroke="green" points="243.81,-494.16 233.23,-493.78 241.26,-500.68 243.81,-494.16"/>
<text text-anchor="middle" x="389" y="-527.2" font-family="Times,serif" font-size="14.00">code: &#39;200&#39;</text>
</g>
<!-- PSUTF06 -->
<g id="node6" class="node">
<title>PSUTF06</title>
<polygon fill="none" stroke="black" points="552.12,-506 274.12,-506 274.12,-392 552.12,-392 552.12,-506"/>
<polygon fill="none" stroke="black" points="282.12,-475.5 282.12,-502 544.12,-502 544.12,-475.5 282.12,-475.5"/>
<text text-anchor="start" x="354.62" y="-484.7" font-family="Times,serif" font-size="14.00">PSUTF06: </text>
<text text-anchor="start" x="416.12" y="-484.7" font-family="Times,serif" font-size="14.00">Response</text>
<text text-anchor="start" x="467.88" y="-484.7" font-family="Times,serif" font-size="14.00">.</text>
<polygon fill="none" stroke="black" points="282.12,-449 282.12,-475.5 544.12,-475.5 544.12,-449 282.12,-449"/>
<text text-anchor="start" x="329.12" y="-458.2" font-family="Times,serif" font-size="14.00" fill="purple">res_msg: </text>
<text text-anchor="start" x="382.38" y="-458.2" font-family="Times,serif" font-size="14.00">&quot;Record not found.&quot;.</text>
<polygon fill="none" stroke="black" points="282.12,-422.5 282.12,-449 544.12,-449 544.12,-422.5 282.12,-422.5"/>
<text text-anchor="start" x="287.12" y="-431.7" font-family="Times,serif" font-size="14.00" fill="purple">dis_msg: </text>
<text text-anchor="start" x="340.38" y="-431.7" font-family="Times,serif" font-size="14.00">&quot;Hay un problema con el servidor.&quot;.</text>
<polygon fill="none" stroke="black" points="282.12,-396 282.12,-422.5 544.12,-422.5 544.12,-396 282.12,-396"/>
<text text-anchor="start" x="376.75" y="-405.2" font-family="Times,serif" font-size="14.00" fill="purple">type: </text>
<text text-anchor="start" x="407.5" y="-405.2" font-family="Times,serif" font-size="14.00">&quot;error&quot;.</text>
</g>
<!-- PSUTF04&#45;&gt;PSUTF06 -->
<g id="edge5" class="edge">
<title>PSUTF04&#45;&gt;PSUTF06</title>
<path fill="none" stroke="red" d="M489.86,-558.06C480.96,-545.52 470.23,-530.41 459.66,-515.53"/>
<polygon fill="red" stroke="red" points="462.63,-513.67 453.99,-507.54 456.93,-517.72 462.63,-513.67"/>
<text text-anchor="middle" x="506" y="-527.2" font-family="Times,serif" font-size="14.00">code: &#39;404&#39;</text>
</g>
<!-- PSUTF07 -->
<g id="node7" class="node">
<title>PSUTF07</title>
<polygon fill="none" stroke="black" points="882.38,-506 569.88,-506 569.88,-392 882.38,-392 882.38,-506"/>
<polygon fill="none" stroke="black" points="577.88,-475.5 577.88,-502 874.38,-502 874.38,-475.5 577.88,-475.5"/>
<text text-anchor="start" x="667.62" y="-484.7" font-family="Times,serif" font-size="14.00">PSUTF07: </text>
<text text-anchor="start" x="729.12" y="-484.7" font-family="Times,serif" font-size="14.00">Response</text>
<text text-anchor="start" x="780.88" y="-484.7" font-family="Times,serif" font-size="14.00">.</text>
<polygon fill="none" stroke="black" points="577.88,-449 577.88,-475.5 874.38,-475.5 874.38,-449 577.88,-449"/>
<text text-anchor="start" x="629" y="-458.2" font-family="Times,serif" font-size="14.00" fill="purple">res_msg: </text>
<text text-anchor="start" x="682.25" y="-458.2" font-family="Times,serif" font-size="14.00">&quot;Invalid request format.&quot;.</text>
<polygon fill="none" stroke="black" points="577.88,-422.5 577.88,-449 874.38,-449 874.38,-422.5 577.88,-422.5"/>
<text text-anchor="start" x="582.88" y="-431.7" font-family="Times,serif" font-size="14.00" fill="purple">dis_msg: </text>
<text text-anchor="start" x="636.12" y="-431.7" font-family="Times,serif" font-size="14.00">&quot;Solicitud incompleta o mal formateada.&quot;.</text>
<polygon fill="none" stroke="black" points="577.88,-396 577.88,-422.5 874.38,-422.5 874.38,-396 577.88,-396"/>
<text text-anchor="start" x="689.75" y="-405.2" font-family="Times,serif" font-size="14.00" fill="purple">type: </text>
<text text-anchor="start" x="720.5" y="-405.2" font-family="Times,serif" font-size="14.00">&quot;error&quot;.</text>
</g>
<!-- PSUTF04&#45;&gt;PSUTF07 -->
<g id="edge6" class="edge">
<title>PSUTF04&#45;&gt;PSUTF07</title>
<path fill="none" stroke="red" d="M557.78,-558.06C578.69,-544.63 604.19,-528.26 628.95,-512.37"/>
<polygon fill="red" stroke="red" points="630.6,-515.47 637.12,-507.13 626.82,-509.58 630.6,-515.47"/>
<text text-anchor="middle" x="635" y="-527.2" font-family="Times,serif" font-size="14.00">code: &#39;400&#39;</text>
</g>
<!-- PSUTF08 -->
<g id="node8" class="node">
<title>PSUTF08</title>
<polygon fill="none" stroke="black" points="1205.62,-506 900.62,-506 900.62,-392 1205.62,-392 1205.62,-506"/>
<polygon fill="none" stroke="black" points="908.62,-475.5 908.62,-502 1197.62,-502 1197.62,-475.5 908.62,-475.5"/>
<text text-anchor="start" x="994.62" y="-484.7" font-family="Times,serif" font-size="14.00">PSUTF08: </text>
<text text-anchor="start" x="1056.12" y="-484.7" font-family="Times,serif" font-size="14.00">Response</text>
<text text-anchor="start" x="1107.88" y="-484.7" font-family="Times,serif" font-size="14.00">.</text>
<polygon fill="none" stroke="black" points="908.62,-449 908.62,-475.5 1197.62,-475.5 1197.62,-449 908.62,-449"/>
<text text-anchor="start" x="957.12" y="-458.2" font-family="Times,serif" font-size="14.00" fill="purple">res_msg: </text>
<text text-anchor="start" x="1010.38" y="-458.2" font-family="Times,serif" font-size="14.00">&quot;Database not available&quot;.</text>
<polygon fill="none" stroke="black" points="908.62,-422.5 908.62,-449 1197.62,-449 1197.62,-422.5 908.62,-422.5"/>
<text text-anchor="start" x="913.62" y="-431.7" font-family="Times,serif" font-size="14.00" fill="purple">dis_msg: </text>
<text text-anchor="start" x="966.88" y="-431.7" font-family="Times,serif" font-size="14.00">&quot;No hay conexión con la base de datos.&quot;.</text>
<polygon fill="none" stroke="black" points="908.62,-396 908.62,-422.5 1197.62,-422.5 1197.62,-396 908.62,-396"/>
<text text-anchor="start" x="1016.75" y="-405.2" font-family="Times,serif" font-size="14.00" fill="purple">type: </text>
<text text-anchor="start" x="1047.5" y="-405.2" font-family="Times,serif" font-size="14.00">&quot;error&quot;.</text>
</g>
<!-- PSUTF04&#45;&gt;PSUTF08 -->
<g id="edge7" class="edge">
<title>PSUTF04&#45;&gt;PSUTF08</title>
<path fill="none" stroke="red" d="M638.73,-564.45C710.03,-550.34 800.54,-530.86 889.4,-506.41"/>
<polygon fill="red" stroke="red" points="890.06,-509.86 898.76,-503.81 888.19,-503.11 890.06,-509.86"/>
<text text-anchor="middle" x="845.38" y="-527.2" font-family="Times,serif" font-size="14.00">code: &#39;E1&#39;</text>
</g>
<!-- PSUTF09 -->
<g id="node9" class="node">
<title>PSUTF09</title>
<polygon fill="none" stroke="black" points="201.88,-355 54.38,-355 54.38,-294 201.88,-294 201.88,-355"/>
<polygon fill="none" stroke="black" points="62.38,-324.5 62.38,-351 193.88,-351 193.88,-324.5 62.38,-324.5"/>
<text text-anchor="start" x="67.38" y="-332.7" font-family="Times,serif" font-size="14.00">PSUTF09: Redirige a:</text>
<polygon fill="none" stroke="black" points="62.38,-298 62.38,-324.5 193.88,-324.5 193.88,-298 62.38,-298"/>
<text text-anchor="start" x="105.62" y="-306.2" font-family="Times,serif" font-size="14.00" fill="blue">MPF94.</text>
</g>
<!-- PSUTF05&#45;&gt;PSUTF09 -->
<g id="edge11" class="edge">
<title>PSUTF05&#45;&gt;PSUTF09</title>
<path fill="none" stroke="black" d="M128.12,-404.81C128.12,-392.39 128.12,-378.87 128.12,-366.58"/>
<polygon fill="black" stroke="black" points="131.63,-366.76 128.13,-356.76 124.63,-366.76 131.63,-366.76"/>
</g>
<!-- PSUTF10 -->
<g id="node10" class="node">
<title>PSUTF10</title>
<polygon fill="none" stroke="black" points="858,-355 594.25,-355 594.25,-294 858,-294 858,-355"/>
<polygon fill="none" stroke="black" points="602.25,-324.5 602.25,-351 850,-351 850,-324.5 602.25,-324.5"/>
<text text-anchor="start" x="671.75" y="-333.7" font-family="Times,serif" font-size="14.00">PSUTF10: </text>
<text text-anchor="start" x="733.25" y="-333.7" font-family="Times,serif" font-size="14.00" fill="green">Sistema</text>
<text text-anchor="start" x="776.75" y="-333.7" font-family="Times,serif" font-size="14.00">.</text>
<polygon fill="none" stroke="black" points="602.25,-298 602.25,-324.5 850,-324.5 850,-298 602.25,-298"/>
<text text-anchor="start" x="607.25" y="-307.2" font-family="Times,serif" font-size="14.00" fill="green">Muestra: </text>
<text text-anchor="start" x="659.75" y="-307.2" font-family="Times,serif" font-size="14.00">&quot;MessageModal[dis_msg, type]&quot;.</text>
</g>
<!-- PSUTF06&#45;&gt;PSUTF10 -->
<g id="edge8" class="edge">
<title>PSUTF06&#45;&gt;PSUTF10</title>
<path fill="none" stroke="black" d="M552.23,-393.56C581.78,-381.99 612.17,-370.1 639.11,-359.56"/>
<polygon fill="black" stroke="black" points="640.2,-362.89 648.23,-355.98 637.65,-356.37 640.2,-362.89"/>
</g>
<!-- PSUTF07&#45;&gt;PSUTF10 -->
<g id="edge9" class="edge">
<title>PSUTF07&#45;&gt;PSUTF10</title>
<path fill="none" stroke="black" d="M726.12,-391.77C726.12,-383.32 726.12,-374.74 726.12,-366.68"/>
<polygon fill="black" stroke="black" points="729.63,-366.83 726.13,-356.83 722.63,-366.83 729.63,-366.83"/>
</g>
<!-- PSUTF08&#45;&gt;PSUTF10 -->
<g id="edge10" class="edge">
<title>PSUTF08&#45;&gt;PSUTF10</title>
<path fill="none" stroke="black" d="M902.55,-391.59C873.1,-380.56 843.09,-369.32 816.37,-359.31"/>
<polygon fill="black" stroke="black" points="817.92,-356.15 807.33,-355.92 815.47,-362.71 817.92,-356.15"/>
</g>
<!-- PSUTF11 -->
<g id="node11" class="node">
<title>PSUTF11</title>
<polygon fill="none" stroke="black" points="691,-257 469.25,-257 469.25,-196 691,-196 691,-257"/>
<polygon fill="none" stroke="black" points="477.25,-226.5 477.25,-253 683,-253 683,-226.5 477.25,-226.5"/>
<text text-anchor="start" x="532.12" y="-235.7" font-family="Times,serif" font-size="14.00">PSUTF11: </text>
<text text-anchor="start" x="593.62" y="-235.7" font-family="Times,serif" font-size="14.00" fill="blue">Actor</text>
<text text-anchor="start" x="624.38" y="-235.7" font-family="Times,serif" font-size="14.00">.</text>
<polygon fill="none" stroke="black" points="477.25,-200 477.25,-226.5 683,-226.5 683,-200 477.25,-200"/>
<text text-anchor="start" x="482.25" y="-209.2" font-family="Times,serif" font-size="14.00" fill="orange">Selecciona: </text>
<text text-anchor="start" x="548.25" y="-209.2" font-family="Times,serif" font-size="14.00">&quot;MessageModal : Yes&quot;.</text>
</g>
<!-- PSUTF10&#45;&gt;PSUTF11 -->
<g id="edge12" class="edge">
<title>PSUTF10&#45;&gt;PSUTF11</title>
<path fill="none" stroke="black" d="M680.73,-293.65C666.24,-284.12 650.05,-273.48 634.97,-263.56"/>
<polygon fill="black" stroke="black" points="637.29,-260.9 627.01,-258.33 633.44,-266.75 637.29,-260.9"/>
</g>
<!-- PSUTF12 -->
<g id="node12" class="node">
<title>PSUTF12</title>
<polygon fill="none" stroke="black" points="928.88,-257 709.38,-257 709.38,-196 928.88,-196 928.88,-257"/>
<polygon fill="none" stroke="black" points="717.38,-226.5 717.38,-253 920.88,-253 920.88,-226.5 717.38,-226.5"/>
<text text-anchor="start" x="771.12" y="-235.7" font-family="Times,serif" font-size="14.00">PSUTF12: </text>
<text text-anchor="start" x="832.62" y="-235.7" font-family="Times,serif" font-size="14.00" fill="blue">Actor</text>
<text text-anchor="start" x="863.38" y="-235.7" font-family="Times,serif" font-size="14.00">.</text>
<polygon fill="none" stroke="black" points="717.38,-200 717.38,-226.5 920.88,-226.5 920.88,-200 717.38,-200"/>
<text text-anchor="start" x="722.38" y="-209.2" font-family="Times,serif" font-size="14.00" fill="orange">Selecciona: </text>
<text text-anchor="start" x="788.38" y="-209.2" font-family="Times,serif" font-size="14.00">&quot;MessageModal : No&quot;.</text>
</g>
<!-- PSUTF10&#45;&gt;PSUTF12 -->
<g id="edge13" class="edge">
<title>PSUTF10&#45;&gt;PSUTF12</title>
<path fill="none" stroke="black" d="M755.04,-293.65C763.7,-284.71 773.32,-274.79 782.41,-265.4"/>
<polygon fill="black" stroke="black" points="784.73,-268.04 789.17,-258.42 779.7,-263.16 784.73,-268.04"/>
</g>
<!-- PSUTF13 -->
<g id="node13" class="node">
<title>PSUTF13</title>
<polygon fill="none" stroke="black" points="661.75,-159 498.5,-159 498.5,-98 661.75,-98 661.75,-159"/>
<polygon fill="none" stroke="black" points="506.5,-128.5 506.5,-155 653.75,-155 653.75,-128.5 506.5,-128.5"/>
<text text-anchor="start" x="527.62" y="-137.7" font-family="Times,serif" font-size="14.00">PSUTF13: </text>
<text text-anchor="start" x="589.12" y="-137.7" font-family="Times,serif" font-size="14.00" fill="green">Sistema</text>
<polygon fill="none" stroke="black" points="506.5,-102 506.5,-128.5 653.75,-128.5 653.75,-102 506.5,-102"/>
<text text-anchor="start" x="511.5" y="-111.2" font-family="Times,serif" font-size="14.00" fill="blue">Cierra</text>
<text text-anchor="start" x="545.25" y="-111.2" font-family="Times,serif" font-size="14.00">: &quot;MessageModal&quot;</text>
</g>
<!-- PSUTF11&#45;&gt;PSUTF13 -->
<g id="edge14" class="edge">
<title>PSUTF11&#45;&gt;PSUTF13</title>
<path fill="none" stroke="black" d="M580.12,-195.65C580.12,-187.79 580.12,-179.18 580.12,-170.83"/>
<polygon fill="black" stroke="black" points="583.63,-170.84 580.13,-160.84 576.63,-170.84 583.63,-170.84"/>
</g>
<!-- PSUTF15 -->
<g id="node15" class="node">
<title>PSUTF15</title>
<polygon fill="none" stroke="black" points="900.75,-159 737.5,-159 737.5,-98 900.75,-98 900.75,-159"/>
<polygon fill="none" stroke="black" points="745.5,-128.5 745.5,-155 892.75,-155 892.75,-128.5 745.5,-128.5"/>
<text text-anchor="start" x="766.62" y="-137.7" font-family="Times,serif" font-size="14.00">PSUTF15: </text>
<text text-anchor="start" x="828.12" y="-137.7" font-family="Times,serif" font-size="14.00" fill="green">Sistema</text>
<polygon fill="none" stroke="black" points="745.5,-102 745.5,-128.5 892.75,-128.5 892.75,-102 745.5,-102"/>
<text text-anchor="start" x="750.5" y="-111.2" font-family="Times,serif" font-size="14.00" fill="blue">Cierra</text>
<text text-anchor="start" x="784.25" y="-111.2" font-family="Times,serif" font-size="14.00">: &quot;MessageModal&quot;</text>
</g>
<!-- PSUTF12&#45;&gt;PSUTF15 -->
<g id="edge16" class="edge">
<title>PSUTF12&#45;&gt;PSUTF15</title>
<path fill="none" stroke="black" d="M819.12,-195.65C819.12,-187.79 819.12,-179.18 819.12,-170.83"/>
<polygon fill="black" stroke="black" points="822.63,-170.84 819.13,-160.84 815.63,-170.84 822.63,-170.84"/>
</g>
<!-- PSUTF14 -->
<g id="node14" class="node">
<title>PSUTF14</title>
<polygon fill="none" stroke="black" points="653.88,-61 506.38,-61 506.38,0 653.88,0 653.88,-61"/>
<polygon fill="none" stroke="black" points="514.38,-30.5 514.38,-57 645.88,-57 645.88,-30.5 514.38,-30.5"/>
<text text-anchor="start" x="519.38" y="-38.7" font-family="Times,serif" font-size="14.00">PSUTF14: Redirige a:</text>
<polygon fill="none" stroke="black" points="514.38,-4 514.38,-30.5 645.88,-30.5 645.88,-4 514.38,-4"/>
<text text-anchor="start" x="551.25" y="-12.2" font-family="Times,serif" font-size="14.00" fill="blue">PSUTF04.</text>
</g>
<!-- PSUTF13&#45;&gt;PSUTF14 -->
<g id="edge15" class="edge">
<title>PSUTF13&#45;&gt;PSUTF14</title>
<path fill="none" stroke="black" d="M580.12,-97.65C580.12,-89.79 580.12,-81.18 580.12,-72.83"/>
<polygon fill="black" stroke="black" points="583.63,-72.84 580.13,-62.84 576.63,-72.84 583.63,-72.84"/>
</g>
<!-- PSUTF16 -->
<g id="node16" class="node">
<title>PSUTF16</title>
<polygon fill="none" stroke="black" points="892.88,-61 745.38,-61 745.38,0 892.88,0 892.88,-61"/>
<polygon fill="none" stroke="black" points="753.38,-30.5 753.38,-57 884.88,-57 884.88,-30.5 753.38,-30.5"/>
<text text-anchor="start" x="758.38" y="-38.7" font-family="Times,serif" font-size="14.00">PSUTF16: Redirige a:</text>
<polygon fill="none" stroke="black" points="753.38,-4 753.38,-30.5 884.88,-30.5 884.88,-4 753.38,-4"/>
<text text-anchor="start" x="796.62" y="-12.2" font-family="Times,serif" font-size="14.00" fill="blue">MPF94.</text>
</g>
<!-- PSUTF15&#45;&gt;PSUTF16 -->
<g id="edge17" class="edge">
<title>PSUTF15&#45;&gt;PSUTF16</title>
<path fill="none" stroke="black" d="M819.12,-97.65C819.12,-89.79 819.12,-81.18 819.12,-72.83"/>
<polygon fill="black" stroke="black" points="822.63,-72.84 819.13,-62.84 815.63,-72.84 822.63,-72.84"/>
</g>
</g>
</svg>
