<?xml version="1.0" encoding="UTF-8" standalone="no"?>
<!DOCTYPE svg PUBLIC "-//W3C//DTD SVG 1.1//EN"
 "http://www.w3.org/Graphics/SVG/1.1/DTD/svg11.dtd">
<!-- Generated by graphviz version 9.0.0 (20230911.1827)
 -->
<!-- Title: UploadRolesTemplateFlow Pages: 1 -->
<svg width="1173pt" height="922pt"
 viewBox="0.00 0.00 1173.38 921.50" xmlns="http://www.w3.org/2000/svg" xmlns:xlink="http://www.w3.org/1999/xlink">
<g id="graph0" class="graph" transform="scale(1 1) rotate(0) translate(4 917.5)">
<title>UploadRolesTemplateFlow</title>
<polygon fill="white" stroke="none" points="-4,4 -4,-917.5 1169.38,-917.5 1169.38,4 -4,4"/>
<!-- ROUTF01 -->
<g id="node1" class="node">
<title>ROUTF01</title>
<polygon fill="none" stroke="black" points="542.38,-913.5 399.38,-913.5 399.38,-852.5 542.38,-852.5 542.38,-913.5"/>
<polygon fill="none" stroke="black" points="407.38,-883 407.38,-909.5 534.38,-909.5 534.38,-883 407.38,-883"/>
<text text-anchor="start" x="412.38" y="-891.2" font-family="Times,serif" font-size="14.00">ROUTF01: Viene de:</text>
<polygon fill="none" stroke="black" points="407.38,-856.5 407.38,-883 534.38,-883 534.38,-856.5 407.38,-856.5"/>
<text text-anchor="start" x="445" y="-864.7" font-family="Times,serif" font-size="14.00" fill="orange">MPF128.</text>
</g>
<!-- ROUTF02 -->
<g id="node2" class="node">
<title>ROUTF02</title>
<polygon fill="none" stroke="black" points="588.5,-815.5 353.25,-815.5 353.25,-754.5 588.5,-754.5 588.5,-815.5"/>
<polygon fill="none" stroke="black" points="361.25,-785 361.25,-811.5 580.5,-811.5 580.5,-785 361.25,-785"/>
<text text-anchor="start" x="414.62" y="-794.2" font-family="Times,serif" font-size="14.00">ROUTF02: </text>
<text text-anchor="start" x="479.88" y="-794.2" font-family="Times,serif" font-size="14.00" fill="green">Sistema</text>
<text text-anchor="start" x="523.38" y="-794.2" font-family="Times,serif" font-size="14.00">.</text>
<polygon fill="none" stroke="black" points="361.25,-758.5 361.25,-785 580.5,-785 580.5,-758.5 361.25,-758.5"/>
<text text-anchor="start" x="366.25" y="-767.7" font-family="Times,serif" font-size="14.00" fill="green">Muestra: </text>
<text text-anchor="start" x="418.75" y="-767.7" font-family="Times,serif" font-size="14.00">&quot;UploadFileModal(&#39;Roles&#39;)&quot;.</text>
</g>
<!-- ROUTF01&#45;&gt;ROUTF02 -->
<g id="edge1" class="edge">
<title>ROUTF01&#45;&gt;ROUTF02</title>
<path fill="none" stroke="black" d="M470.88,-852.15C470.88,-844.29 470.88,-835.68 470.88,-827.33"/>
<polygon fill="black" stroke="black" points="474.38,-827.34 470.88,-817.34 467.38,-827.34 474.38,-827.34"/>
</g>
<!-- ROUTF03 -->
<g id="node3" class="node">
<title>ROUTF03</title>
<polygon fill="none" stroke="black" points="599.38,-717.5 342.38,-717.5 342.38,-656.5 599.38,-656.5 599.38,-717.5"/>
<polygon fill="none" stroke="black" points="350.38,-687 350.38,-713.5 591.38,-713.5 591.38,-687 350.38,-687"/>
<text text-anchor="start" x="421" y="-696.2" font-family="Times,serif" font-size="14.00">ROUTF03: </text>
<text text-anchor="start" x="486.25" y="-696.2" font-family="Times,serif" font-size="14.00" fill="blue">Actor</text>
<text text-anchor="start" x="517" y="-696.2" font-family="Times,serif" font-size="14.00">.</text>
<polygon fill="none" stroke="black" points="350.38,-660.5 350.38,-687 591.38,-687 591.38,-660.5 350.38,-660.5"/>
<text text-anchor="start" x="355.38" y="-669.7" font-family="Times,serif" font-size="14.00" fill="orange">Selecciona: </text>
<text text-anchor="start" x="421.38" y="-669.7" font-family="Times,serif" font-size="14.00">&quot;Cargar Archivo [&#39;roles.csv&#39;]&quot;.</text>
</g>
<!-- ROUTF02&#45;&gt;ROUTF03 -->
<g id="edge2" class="edge">
<title>ROUTF02&#45;&gt;ROUTF03</title>
<path fill="none" stroke="black" d="M470.88,-754.15C470.88,-746.29 470.88,-737.68 470.88,-729.33"/>
<polygon fill="black" stroke="black" points="474.38,-729.34 470.88,-719.34 467.38,-729.34 474.38,-729.34"/>
</g>
<!-- ROUTF04 -->
<g id="node4" class="node">
<title>ROUTF04</title>
<polygon fill="none" stroke="black" points="578.75,-619.5 363,-619.5 363,-558.5 578.75,-558.5 578.75,-619.5"/>
<polygon fill="none" stroke="black" points="371,-589 371,-615.5 570.75,-615.5 570.75,-589 371,-589"/>
<text text-anchor="start" x="414.62" y="-598.2" font-family="Times,serif" font-size="14.00">ROUTF04: </text>
<text text-anchor="start" x="479.88" y="-598.2" font-family="Times,serif" font-size="14.00" fill="green">Sistema</text>
<text text-anchor="start" x="523.38" y="-598.2" font-family="Times,serif" font-size="14.00">.</text>
<polygon fill="none" stroke="black" points="371,-562.5 371,-589 570.75,-589 570.75,-562.5 371,-562.5"/>
<text text-anchor="start" x="376" y="-571.7" font-family="Times,serif" font-size="14.00" fill="blue">Ejecuta: </text>
<text text-anchor="start" x="424" y="-571.7" font-family="Times,serif" font-size="14.00">&quot;Upload File(&#39;roles.csv&#39;)&quot;.</text>
</g>
<!-- ROUTF03&#45;&gt;ROUTF04 -->
<g id="edge3" class="edge">
<title>ROUTF03&#45;&gt;ROUTF04</title>
<path fill="none" stroke="black" d="M470.88,-656.15C470.88,-648.29 470.88,-639.68 470.88,-631.33"/>
<polygon fill="black" stroke="black" points="474.38,-631.34 470.88,-621.34 467.38,-631.34 474.38,-631.34"/>
</g>
<!-- ROUTF05 -->
<g id="node5" class="node">
<title>ROUTF05</title>
<polygon fill="none" stroke="black" points="215.75,-492.75 0,-492.75 0,-405.25 215.75,-405.25 215.75,-492.75"/>
<polygon fill="none" stroke="black" points="8,-462.25 8,-488.75 207.75,-488.75 207.75,-462.25 8,-462.25"/>
<text text-anchor="start" x="47.5" y="-471.45" font-family="Times,serif" font-size="14.00">ROUTF05: </text>
<text text-anchor="start" x="112.75" y="-471.45" font-family="Times,serif" font-size="14.00">Response</text>
<text text-anchor="start" x="164.5" y="-471.45" font-family="Times,serif" font-size="14.00">.</text>
<polygon fill="none" stroke="black" points="8,-435.75 8,-462.25 207.75,-462.25 207.75,-435.75 8,-435.75"/>
<text text-anchor="start" x="52" y="-444.95" font-family="Times,serif" font-size="14.00" fill="purple">res_msg: </text>
<text text-anchor="start" x="105.25" y="-444.95" font-family="Times,serif" font-size="14.00">&quot;Success&quot;.</text>
<polygon fill="none" stroke="black" points="8,-409.25 8,-435.75 207.75,-435.75 207.75,-409.25 8,-409.25"/>
<text text-anchor="start" x="13" y="-418.45" font-family="Times,serif" font-size="14.00" fill="purple">res_obj: </text>
<text text-anchor="start" x="60.25" y="-418.45" font-family="Times,serif" font-size="14.00">&quot;RolesUploadResult.csv&quot;.</text>
</g>
<!-- ROUTF04&#45;&gt;ROUTF05 -->
<g id="edge4" class="edge">
<title>ROUTF04&#45;&gt;ROUTF05</title>
<path fill="none" stroke="green" d="M371.7,-558.05C326.44,-543.59 272.46,-525.23 224.88,-506 218.5,-503.43 211.99,-500.67 205.46,-497.81"/>
<polygon fill="green" stroke="green" points="207.13,-494.73 196.57,-493.86 204.29,-501.12 207.13,-494.73"/>
<text text-anchor="middle" x="347.75" y="-527.2" font-family="Times,serif" font-size="14.00">code: &#39;200&#39;</text>
</g>
<!-- ROUTF06 -->
<g id="node6" class="node">
<title>ROUTF06</title>
<polygon fill="none" stroke="black" points="511.88,-506 233.88,-506 233.88,-392 511.88,-392 511.88,-506"/>
<polygon fill="none" stroke="black" points="241.88,-475.5 241.88,-502 503.88,-502 503.88,-475.5 241.88,-475.5"/>
<text text-anchor="start" x="312.5" y="-484.7" font-family="Times,serif" font-size="14.00">ROUTF06: </text>
<text text-anchor="start" x="377.75" y="-484.7" font-family="Times,serif" font-size="14.00">Response</text>
<text text-anchor="start" x="429.5" y="-484.7" font-family="Times,serif" font-size="14.00">.</text>
<polygon fill="none" stroke="black" points="241.88,-449 241.88,-475.5 503.88,-475.5 503.88,-449 241.88,-449"/>
<text text-anchor="start" x="288.88" y="-458.2" font-family="Times,serif" font-size="14.00" fill="purple">res_msg: </text>
<text text-anchor="start" x="342.12" y="-458.2" font-family="Times,serif" font-size="14.00">&quot;Record not found.&quot;.</text>
<polygon fill="none" stroke="black" points="241.88,-422.5 241.88,-449 503.88,-449 503.88,-422.5 241.88,-422.5"/>
<text text-anchor="start" x="246.88" y="-431.7" font-family="Times,serif" font-size="14.00" fill="purple">dis_msg: </text>
<text text-anchor="start" x="300.12" y="-431.7" font-family="Times,serif" font-size="14.00">&quot;Hay un problema con el servidor.&quot;.</text>
<polygon fill="none" stroke="black" points="241.88,-396 241.88,-422.5 503.88,-422.5 503.88,-396 241.88,-396"/>
<text text-anchor="start" x="336.5" y="-405.2" font-family="Times,serif" font-size="14.00" fill="purple">type: </text>
<text text-anchor="start" x="367.25" y="-405.2" font-family="Times,serif" font-size="14.00">&quot;error&quot;.</text>
</g>
<!-- ROUTF04&#45;&gt;ROUTF06 -->
<g id="edge5" class="edge">
<title>ROUTF04&#45;&gt;ROUTF06</title>
<path fill="none" stroke="red" d="M449.61,-558.06C440.71,-545.52 429.98,-530.41 419.41,-515.53"/>
<polygon fill="red" stroke="red" points="422.38,-513.67 413.74,-507.54 416.68,-517.72 422.38,-513.67"/>
<text text-anchor="middle" x="465.75" y="-527.2" font-family="Times,serif" font-size="14.00">code: &#39;404&#39;</text>
</g>
<!-- ROUTF07 -->
<g id="node7" class="node">
<title>ROUTF07</title>
<polygon fill="none" stroke="black" points="842.12,-506 529.62,-506 529.62,-392 842.12,-392 842.12,-506"/>
<polygon fill="none" stroke="black" points="537.62,-475.5 537.62,-502 834.12,-502 834.12,-475.5 537.62,-475.5"/>
<text text-anchor="start" x="625.5" y="-484.7" font-family="Times,serif" font-size="14.00">ROUTF07: </text>
<text text-anchor="start" x="690.75" y="-484.7" font-family="Times,serif" font-size="14.00">Response</text>
<text text-anchor="start" x="742.5" y="-484.7" font-family="Times,serif" font-size="14.00">.</text>
<polygon fill="none" stroke="black" points="537.62,-449 537.62,-475.5 834.12,-475.5 834.12,-449 537.62,-449"/>
<text text-anchor="start" x="588.75" y="-458.2" font-family="Times,serif" font-size="14.00" fill="purple">res_msg: </text>
<text text-anchor="start" x="642" y="-458.2" font-family="Times,serif" font-size="14.00">&quot;Invalid request format.&quot;.</text>
<polygon fill="none" stroke="black" points="537.62,-422.5 537.62,-449 834.12,-449 834.12,-422.5 537.62,-422.5"/>
<text text-anchor="start" x="542.62" y="-431.7" font-family="Times,serif" font-size="14.00" fill="purple">dis_msg: </text>
<text text-anchor="start" x="595.88" y="-431.7" font-family="Times,serif" font-size="14.00">&quot;Solicitud incompleta o mal formateada.&quot;.</text>
<polygon fill="none" stroke="black" points="537.62,-396 537.62,-422.5 834.12,-422.5 834.12,-396 537.62,-396"/>
<text text-anchor="start" x="649.5" y="-405.2" font-family="Times,serif" font-size="14.00" fill="purple">type: </text>
<text text-anchor="start" x="680.25" y="-405.2" font-family="Times,serif" font-size="14.00">&quot;error&quot;.</text>
</g>
<!-- ROUTF04&#45;&gt;ROUTF07 -->
<g id="edge6" class="edge">
<title>ROUTF04&#45;&gt;ROUTF07</title>
<path fill="none" stroke="red" d="M517.53,-558.06C538.44,-544.63 563.94,-528.26 588.7,-512.37"/>
<polygon fill="red" stroke="red" points="590.35,-515.47 596.87,-507.13 586.57,-509.58 590.35,-515.47"/>
<text text-anchor="middle" x="594.75" y="-527.2" font-family="Times,serif" font-size="14.00">code: &#39;400&#39;</text>
</g>
<!-- ROUTF08 -->
<g id="node8" class="node">
<title>ROUTF08</title>
<polygon fill="none" stroke="black" points="1165.38,-506 860.38,-506 860.38,-392 1165.38,-392 1165.38,-506"/>
<polygon fill="none" stroke="black" points="868.38,-475.5 868.38,-502 1157.38,-502 1157.38,-475.5 868.38,-475.5"/>
<text text-anchor="start" x="952.5" y="-484.7" font-family="Times,serif" font-size="14.00">ROUTF08: </text>
<text text-anchor="start" x="1017.75" y="-484.7" font-family="Times,serif" font-size="14.00">Response</text>
<text text-anchor="start" x="1069.5" y="-484.7" font-family="Times,serif" font-size="14.00">.</text>
<polygon fill="none" stroke="black" points="868.38,-449 868.38,-475.5 1157.38,-475.5 1157.38,-449 868.38,-449"/>
<text text-anchor="start" x="916.88" y="-458.2" font-family="Times,serif" font-size="14.00" fill="purple">res_msg: </text>
<text text-anchor="start" x="970.12" y="-458.2" font-family="Times,serif" font-size="14.00">&quot;Database not available&quot;.</text>
<polygon fill="none" stroke="black" points="868.38,-422.5 868.38,-449 1157.38,-449 1157.38,-422.5 868.38,-422.5"/>
<text text-anchor="start" x="873.38" y="-431.7" font-family="Times,serif" font-size="14.00" fill="purple">dis_msg: </text>
<text text-anchor="start" x="926.62" y="-431.7" font-family="Times,serif" font-size="14.00">&quot;No hay conexión con la base de datos.&quot;.</text>
<polygon fill="none" stroke="black" points="868.38,-396 868.38,-422.5 1157.38,-422.5 1157.38,-396 868.38,-396"/>
<text text-anchor="start" x="976.5" y="-405.2" font-family="Times,serif" font-size="14.00" fill="purple">type: </text>
<text text-anchor="start" x="1007.25" y="-405.2" font-family="Times,serif" font-size="14.00">&quot;error&quot;.</text>
</g>
<!-- ROUTF04&#45;&gt;ROUTF08 -->
<g id="edge7" class="edge">
<title>ROUTF04&#45;&gt;ROUTF08</title>
<path fill="none" stroke="red" d="M579.01,-568.26C652.75,-553.96 752.68,-532.94 849.14,-506.41"/>
<polygon fill="red" stroke="red" points="849.81,-509.86 858.51,-503.81 847.94,-503.11 849.81,-509.86"/>
<text text-anchor="middle" x="805.12" y="-527.2" font-family="Times,serif" font-size="14.00">code: &#39;E1&#39;</text>
</g>
<!-- ROUTF09 -->
<g id="node9" class="node">
<title>ROUTF09</title>
<polygon fill="none" stroke="black" points="183.5,-355 32.25,-355 32.25,-294 183.5,-294 183.5,-355"/>
<polygon fill="none" stroke="black" points="40.25,-324.5 40.25,-351 175.5,-351 175.5,-324.5 40.25,-324.5"/>
<text text-anchor="start" x="45.25" y="-332.7" font-family="Times,serif" font-size="14.00">ROUTF09: Redirige a:</text>
<polygon fill="none" stroke="black" points="40.25,-298 40.25,-324.5 175.5,-324.5 175.5,-298 40.25,-298"/>
<text text-anchor="start" x="82" y="-306.2" font-family="Times,serif" font-size="14.00" fill="blue">MPF133.</text>
</g>
<!-- ROUTF05&#45;&gt;ROUTF09 -->
<g id="edge11" class="edge">
<title>ROUTF05&#45;&gt;ROUTF09</title>
<path fill="none" stroke="black" d="M107.88,-404.81C107.88,-392.39 107.88,-378.87 107.88,-366.58"/>
<polygon fill="black" stroke="black" points="111.38,-366.76 107.88,-356.76 104.38,-366.76 111.38,-366.76"/>
</g>
<!-- ROUTF10 -->
<g id="node10" class="node">
<title>ROUTF10</title>
<polygon fill="none" stroke="black" points="817.75,-355 554,-355 554,-294 817.75,-294 817.75,-355"/>
<polygon fill="none" stroke="black" points="562,-324.5 562,-351 809.75,-351 809.75,-324.5 562,-324.5"/>
<text text-anchor="start" x="629.62" y="-333.7" font-family="Times,serif" font-size="14.00">ROUTF10: </text>
<text text-anchor="start" x="694.88" y="-333.7" font-family="Times,serif" font-size="14.00" fill="green">Sistema</text>
<text text-anchor="start" x="738.38" y="-333.7" font-family="Times,serif" font-size="14.00">.</text>
<polygon fill="none" stroke="black" points="562,-298 562,-324.5 809.75,-324.5 809.75,-298 562,-298"/>
<text text-anchor="start" x="567" y="-307.2" font-family="Times,serif" font-size="14.00" fill="green">Muestra: </text>
<text text-anchor="start" x="619.5" y="-307.2" font-family="Times,serif" font-size="14.00">&quot;MessageModal[dis_msg, type]&quot;.</text>
</g>
<!-- ROUTF06&#45;&gt;ROUTF10 -->
<g id="edge8" class="edge">
<title>ROUTF06&#45;&gt;ROUTF10</title>
<path fill="none" stroke="black" d="M511.98,-393.56C541.53,-381.99 571.92,-370.1 598.86,-359.56"/>
<polygon fill="black" stroke="black" points="599.95,-362.89 607.98,-355.98 597.4,-356.37 599.95,-362.89"/>
</g>
<!-- ROUTF07&#45;&gt;ROUTF10 -->
<g id="edge9" class="edge">
<title>ROUTF07&#45;&gt;ROUTF10</title>
<path fill="none" stroke="black" d="M685.88,-391.77C685.88,-383.32 685.88,-374.74 685.88,-366.68"/>
<polygon fill="black" stroke="black" points="689.38,-366.83 685.88,-356.83 682.38,-366.83 689.38,-366.83"/>
</g>
<!-- ROUTF08&#45;&gt;ROUTF10 -->
<g id="edge10" class="edge">
<title>ROUTF08&#45;&gt;ROUTF10</title>
<path fill="none" stroke="black" d="M862.3,-391.59C832.85,-380.56 802.84,-369.32 776.12,-359.31"/>
<polygon fill="black" stroke="black" points="777.67,-356.15 767.08,-355.92 775.22,-362.71 777.67,-356.15"/>
</g>
<!-- ROUTF11 -->
<g id="node11" class="node">
<title>ROUTF11</title>
<polygon fill="none" stroke="black" points="650.75,-257 429,-257 429,-196 650.75,-196 650.75,-257"/>
<polygon fill="none" stroke="black" points="437,-226.5 437,-253 642.75,-253 642.75,-226.5 437,-226.5"/>
<text text-anchor="start" x="490" y="-235.7" font-family="Times,serif" font-size="14.00">ROUTF11: </text>
<text text-anchor="start" x="555.25" y="-235.7" font-family="Times,serif" font-size="14.00" fill="blue">Actor</text>
<text text-anchor="start" x="586" y="-235.7" font-family="Times,serif" font-size="14.00">.</text>
<polygon fill="none" stroke="black" points="437,-200 437,-226.5 642.75,-226.5 642.75,-200 437,-200"/>
<text text-anchor="start" x="442" y="-209.2" font-family="Times,serif" font-size="14.00" fill="orange">Selecciona: </text>
<text text-anchor="start" x="508" y="-209.2" font-family="Times,serif" font-size="14.00">&quot;MessageModal : Yes&quot;.</text>
</g>
<!-- ROUTF10&#45;&gt;ROUTF11 -->
<g id="edge12" class="edge">
<title>ROUTF10&#45;&gt;ROUTF11</title>
<path fill="none" stroke="black" d="M640.48,-293.65C625.99,-284.12 609.8,-273.48 594.72,-263.56"/>
<polygon fill="black" stroke="black" points="597.04,-260.9 586.76,-258.33 593.19,-266.75 597.04,-260.9"/>
</g>
<!-- ROUTF12 -->
<g id="node12" class="node">
<title>ROUTF12</title>
<polygon fill="none" stroke="black" points="888.62,-257 669.12,-257 669.12,-196 888.62,-196 888.62,-257"/>
<polygon fill="none" stroke="black" points="677.12,-226.5 677.12,-253 880.62,-253 880.62,-226.5 677.12,-226.5"/>
<text text-anchor="start" x="729" y="-235.7" font-family="Times,serif" font-size="14.00">ROUTF12: </text>
<text text-anchor="start" x="794.25" y="-235.7" font-family="Times,serif" font-size="14.00" fill="blue">Actor</text>
<text text-anchor="start" x="825" y="-235.7" font-family="Times,serif" font-size="14.00">.</text>
<polygon fill="none" stroke="black" points="677.12,-200 677.12,-226.5 880.62,-226.5 880.62,-200 677.12,-200"/>
<text text-anchor="start" x="682.12" y="-209.2" font-family="Times,serif" font-size="14.00" fill="orange">Selecciona: </text>
<text text-anchor="start" x="748.12" y="-209.2" font-family="Times,serif" font-size="14.00">&quot;MessageModal : No&quot;.</text>
</g>
<!-- ROUTF10&#45;&gt;ROUTF12 -->
<g id="edge13" class="edge">
<title>ROUTF10&#45;&gt;ROUTF12</title>
<path fill="none" stroke="black" d="M714.79,-293.65C723.45,-284.71 733.07,-274.79 742.16,-265.4"/>
<polygon fill="black" stroke="black" points="744.48,-268.04 748.92,-258.42 739.45,-263.16 744.48,-268.04"/>
</g>
<!-- ROUTF13 -->
<g id="node13" class="node">
<title>ROUTF13</title>
<polygon fill="none" stroke="black" points="621.5,-159 458.25,-159 458.25,-98 621.5,-98 621.5,-159"/>
<polygon fill="none" stroke="black" points="466.25,-128.5 466.25,-155 613.5,-155 613.5,-128.5 466.25,-128.5"/>
<text text-anchor="start" x="485.5" y="-137.7" font-family="Times,serif" font-size="14.00">ROUTF13: </text>
<text text-anchor="start" x="550.75" y="-137.7" font-family="Times,serif" font-size="14.00" fill="green">Sistema</text>
<polygon fill="none" stroke="black" points="466.25,-102 466.25,-128.5 613.5,-128.5 613.5,-102 466.25,-102"/>
<text text-anchor="start" x="471.25" y="-111.2" font-family="Times,serif" font-size="14.00" fill="blue">Cierra</text>
<text text-anchor="start" x="505" y="-111.2" font-family="Times,serif" font-size="14.00">: &quot;MessageModal&quot;</text>
</g>
<!-- ROUTF11&#45;&gt;ROUTF13 -->
<g id="edge14" class="edge">
<title>ROUTF11&#45;&gt;ROUTF13</title>
<path fill="none" stroke="black" d="M539.88,-195.65C539.88,-187.79 539.88,-179.18 539.88,-170.83"/>
<polygon fill="black" stroke="black" points="543.38,-170.84 539.88,-160.84 536.38,-170.84 543.38,-170.84"/>
</g>
<!-- ROUTF15 -->
<g id="node15" class="node">
<title>ROUTF15</title>
<polygon fill="none" stroke="black" points="860.5,-159 697.25,-159 697.25,-98 860.5,-98 860.5,-159"/>
<polygon fill="none" stroke="black" points="705.25,-128.5 705.25,-155 852.5,-155 852.5,-128.5 705.25,-128.5"/>
<text text-anchor="start" x="724.5" y="-137.7" font-family="Times,serif" font-size="14.00">ROUTF15: </text>
<text text-anchor="start" x="789.75" y="-137.7" font-family="Times,serif" font-size="14.00" fill="green">Sistema</text>
<polygon fill="none" stroke="black" points="705.25,-102 705.25,-128.5 852.5,-128.5 852.5,-102 705.25,-102"/>
<text text-anchor="start" x="710.25" y="-111.2" font-family="Times,serif" font-size="14.00" fill="blue">Cierra</text>
<text text-anchor="start" x="744" y="-111.2" font-family="Times,serif" font-size="14.00">: &quot;MessageModal&quot;</text>
</g>
<!-- ROUTF12&#45;&gt;ROUTF15 -->
<g id="edge16" class="edge">
<title>ROUTF12&#45;&gt;ROUTF15</title>
<path fill="none" stroke="black" d="M778.88,-195.65C778.88,-187.79 778.88,-179.18 778.88,-170.83"/>
<polygon fill="black" stroke="black" points="782.38,-170.84 778.88,-160.84 775.38,-170.84 782.38,-170.84"/>
</g>
<!-- ROUTF14 -->
<g id="node14" class="node">
<title>ROUTF14</title>
<polygon fill="none" stroke="black" points="615.5,-61 464.25,-61 464.25,0 615.5,0 615.5,-61"/>
<polygon fill="none" stroke="black" points="472.25,-30.5 472.25,-57 607.5,-57 607.5,-30.5 472.25,-30.5"/>
<text text-anchor="start" x="477.25" y="-38.7" font-family="Times,serif" font-size="14.00">ROUTF14: Redirige a:</text>
<polygon fill="none" stroke="black" points="472.25,-4 472.25,-30.5 607.5,-30.5 607.5,-4 472.25,-4"/>
<text text-anchor="start" x="509.12" y="-12.2" font-family="Times,serif" font-size="14.00" fill="blue">ROUTF04.</text>
</g>
<!-- ROUTF13&#45;&gt;ROUTF14 -->
<g id="edge15" class="edge">
<title>ROUTF13&#45;&gt;ROUTF14</title>
<path fill="none" stroke="black" d="M539.88,-97.65C539.88,-89.79 539.88,-81.18 539.88,-72.83"/>
<polygon fill="black" stroke="black" points="543.38,-72.84 539.88,-62.84 536.38,-72.84 543.38,-72.84"/>
</g>
<!-- ROUTF16 -->
<g id="node16" class="node">
<title>ROUTF16</title>
<polygon fill="none" stroke="black" points="854.5,-61 703.25,-61 703.25,0 854.5,0 854.5,-61"/>
<polygon fill="none" stroke="black" points="711.25,-30.5 711.25,-57 846.5,-57 846.5,-30.5 711.25,-30.5"/>
<text text-anchor="start" x="716.25" y="-38.7" font-family="Times,serif" font-size="14.00">ROUTF16: Redirige a:</text>
<polygon fill="none" stroke="black" points="711.25,-4 711.25,-30.5 846.5,-30.5 846.5,-4 711.25,-4"/>
<text text-anchor="start" x="753" y="-12.2" font-family="Times,serif" font-size="14.00" fill="blue">MPF133.</text>
</g>
<!-- ROUTF15&#45;&gt;ROUTF16 -->
<g id="edge17" class="edge">
<title>ROUTF15&#45;&gt;ROUTF16</title>
<path fill="none" stroke="black" d="M778.88,-97.65C778.88,-89.79 778.88,-81.18 778.88,-72.83"/>
<polygon fill="black" stroke="black" points="782.38,-72.84 778.88,-62.84 775.38,-72.84 782.38,-72.84"/>
</g>
</g>
</svg>
