<?xml version="1.0" encoding="UTF-8" standalone="no"?>
<!DOCTYPE svg PUBLIC "-//W3C//DTD SVG 1.1//EN"
 "http://www.w3.org/Graphics/SVG/1.1/DTD/svg11.dtd">
<!-- Generated by graphviz version 9.0.0 (20230911.1827)
 -->
<!-- Title: LoginAdminFlow Pages: 1 -->
<svg width="765pt" height="726pt"
 viewBox="0.00 0.00 765.38 725.50" xmlns="http://www.w3.org/2000/svg" xmlns:xlink="http://www.w3.org/1999/xlink">
<g id="graph0" class="graph" transform="scale(1 1) rotate(0) translate(4 721.5)">
<title>LoginAdminFlow</title>
<polygon fill="white" stroke="none" points="-4,4 -4,-721.5 761.38,-721.5 761.38,4 -4,4"/>
<!-- LAF01 -->
<g id="node1" class="node">
<title>LAF01</title>
<polygon fill="none" stroke="black" points="357,-717.5 232.75,-717.5 232.75,-656.5 357,-656.5 357,-717.5"/>
<polygon fill="none" stroke="black" points="240.75,-687 240.75,-713.5 349,-713.5 349,-687 240.75,-687"/>
<text text-anchor="start" x="245.75" y="-695.2" font-family="Times,serif" font-size="14.00">LAF01: Viene de:</text>
<polygon fill="none" stroke="black" points="240.75,-660.5 240.75,-687 349,-687 349,-660.5 240.75,-660.5"/>
<text text-anchor="start" x="272.38" y="-668.7" font-family="Times,serif" font-size="14.00" fill="orange">MPF01.</text>
</g>
<!-- LAF02 -->
<g id="node2" class="node">
<title>LAF02</title>
<polygon fill="none" stroke="black" points="439.12,-619.5 150.62,-619.5 150.62,-558.5 439.12,-558.5 439.12,-619.5"/>
<polygon fill="none" stroke="black" points="158.62,-589 158.62,-615.5 431.12,-615.5 431.12,-589 158.62,-589"/>
<text text-anchor="start" x="254.38" y="-598.2" font-family="Times,serif" font-size="14.00">LAF02: </text>
<text text-anchor="start" x="300.88" y="-598.2" font-family="Times,serif" font-size="14.00" fill="blue">Actor</text>
<text text-anchor="start" x="331.62" y="-598.2" font-family="Times,serif" font-size="14.00">.</text>
<polygon fill="none" stroke="black" points="158.62,-562.5 158.62,-589 431.12,-589 431.12,-562.5 158.62,-562.5"/>
<text text-anchor="start" x="163.62" y="-571.7" font-family="Times,serif" font-size="14.00" fill="orange">Ingresa: </text>
<text text-anchor="start" x="210.88" y="-571.7" font-family="Times,serif" font-size="14.00">&quot;B_User.username, B_User.password&quot;.</text>
</g>
<!-- LAF01&#45;&gt;LAF02 -->
<g id="edge1" class="edge">
<title>LAF01&#45;&gt;LAF02</title>
<path fill="none" stroke="black" d="M294.88,-656.15C294.88,-648.29 294.88,-639.68 294.88,-631.33"/>
<polygon fill="black" stroke="black" points="298.38,-631.34 294.88,-621.34 291.38,-631.34 298.38,-631.34"/>
</g>
<!-- LAF03 -->
<g id="node3" class="node">
<title>LAF03</title>
<polygon fill="none" stroke="black" points="471,-521.5 118.75,-521.5 118.75,-460.5 471,-460.5 471,-521.5"/>
<polygon fill="none" stroke="black" points="126.75,-491 126.75,-517.5 463,-517.5 463,-491 126.75,-491"/>
<text text-anchor="start" x="248" y="-500.2" font-family="Times,serif" font-size="14.00">LAF03: </text>
<text text-anchor="start" x="294.5" y="-500.2" font-family="Times,serif" font-size="14.00" fill="green">Sistema</text>
<text text-anchor="start" x="338" y="-500.2" font-family="Times,serif" font-size="14.00">.</text>
<polygon fill="none" stroke="black" points="126.75,-464.5 126.75,-491 463,-491 463,-464.5 126.75,-464.5"/>
<text text-anchor="start" x="131.75" y="-473.7" font-family="Times,serif" font-size="14.00" fill="blue">Ejecuta: </text>
<text text-anchor="start" x="179.75" y="-473.7" font-family="Times,serif" font-size="14.00">&quot;Login Pin[B_User.username, B_User.password]&quot;.</text>
</g>
<!-- LAF02&#45;&gt;LAF03 -->
<g id="edge2" class="edge">
<title>LAF02&#45;&gt;LAF03</title>
<path fill="none" stroke="black" d="M294.88,-558.15C294.88,-550.29 294.88,-541.68 294.88,-533.33"/>
<polygon fill="black" stroke="black" points="298.38,-533.34 294.88,-523.34 291.38,-533.34 298.38,-533.34"/>
</g>
<!-- LAF04 -->
<g id="node4" class="node">
<title>LAF04</title>
<polygon fill="none" stroke="black" points="137.75,-394.75 0,-394.75 0,-307.25 137.75,-307.25 137.75,-394.75"/>
<polygon fill="none" stroke="black" points="8,-364.25 8,-390.75 129.75,-390.75 129.75,-364.25 8,-364.25"/>
<text text-anchor="start" x="17.88" y="-373.45" font-family="Times,serif" font-size="14.00">LAF04: </text>
<text text-anchor="start" x="64.38" y="-373.45" font-family="Times,serif" font-size="14.00">Response</text>
<text text-anchor="start" x="116.12" y="-373.45" font-family="Times,serif" font-size="14.00">.</text>
<polygon fill="none" stroke="black" points="8,-337.75 8,-364.25 129.75,-364.25 129.75,-337.75 8,-337.75"/>
<text text-anchor="start" x="13" y="-346.95" font-family="Times,serif" font-size="14.00" fill="purple">res_msg: </text>
<text text-anchor="start" x="66.25" y="-346.95" font-family="Times,serif" font-size="14.00">&quot;Success&quot;.</text>
<polygon fill="none" stroke="black" points="8,-311.25 8,-337.75 129.75,-337.75 129.75,-311.25 8,-311.25"/>
<text text-anchor="start" x="15.25" y="-320.45" font-family="Times,serif" font-size="14.00" fill="purple">res_obj: </text>
<text text-anchor="start" x="62.5" y="-320.45" font-family="Times,serif" font-size="14.00">&quot;B_User.&quot;.</text>
</g>
<!-- LAF03&#45;&gt;LAF04 -->
<g id="edge3" class="edge">
<title>LAF03&#45;&gt;LAF04</title>
<path fill="none" stroke="green" d="M237.4,-460.18C209.61,-445.25 176.04,-426.46 146.88,-408 143.61,-405.93 140.29,-403.78 136.96,-401.57"/>
<polygon fill="green" stroke="green" points="139.08,-398.78 128.83,-396.09 135.16,-404.58 139.08,-398.78"/>
<text text-anchor="middle" x="231.75" y="-429.2" font-family="Times,serif" font-size="14.00">code: &#39;200&#39;</text>
</g>
<!-- LAF05 -->
<g id="node5" class="node">
<title>LAF05</title>
<polygon fill="none" stroke="black" points="434.25,-408 155.5,-408 155.5,-294 434.25,-294 434.25,-408"/>
<polygon fill="none" stroke="black" points="163.5,-377.5 163.5,-404 426.25,-404 426.25,-377.5 163.5,-377.5"/>
<text text-anchor="start" x="243.88" y="-386.7" font-family="Times,serif" font-size="14.00">LAF05: </text>
<text text-anchor="start" x="290.38" y="-386.7" font-family="Times,serif" font-size="14.00">Response</text>
<text text-anchor="start" x="342.12" y="-386.7" font-family="Times,serif" font-size="14.00">.</text>
<polygon fill="none" stroke="black" points="163.5,-351 163.5,-377.5 426.25,-377.5 426.25,-351 163.5,-351"/>
<text text-anchor="start" x="210.88" y="-360.2" font-family="Times,serif" font-size="14.00" fill="purple">res_msg: </text>
<text text-anchor="start" x="264.12" y="-360.2" font-family="Times,serif" font-size="14.00">&quot;Record not found.&quot;.</text>
<polygon fill="none" stroke="black" points="163.5,-324.5 163.5,-351 426.25,-351 426.25,-324.5 163.5,-324.5"/>
<text text-anchor="start" x="168.5" y="-333.7" font-family="Times,serif" font-size="14.00" fill="purple">dis_msg: </text>
<text text-anchor="start" x="221.75" y="-333.7" font-family="Times,serif" font-size="14.00">&quot;Clave incorrecta vuelva a intentar&quot;.</text>
<polygon fill="none" stroke="black" points="163.5,-298 163.5,-324.5 426.25,-324.5 426.25,-298 163.5,-298"/>
<text text-anchor="start" x="258.5" y="-307.2" font-family="Times,serif" font-size="14.00" fill="purple">type: </text>
<text text-anchor="start" x="289.25" y="-307.2" font-family="Times,serif" font-size="14.00">&quot;error&quot;.</text>
</g>
<!-- LAF03&#45;&gt;LAF05 -->
<g id="edge4" class="edge">
<title>LAF03&#45;&gt;LAF05</title>
<path fill="none" stroke="red" d="M294.88,-460.06C294.88,-448.11 294.88,-433.83 294.88,-419.63"/>
<polygon fill="red" stroke="red" points="298.38,-419.82 294.88,-409.82 291.38,-419.82 298.38,-419.82"/>
<text text-anchor="middle" x="323.75" y="-429.2" font-family="Times,serif" font-size="14.00">code: &#39;404&#39;</text>
</g>
<!-- LAF06 -->
<g id="node6" class="node">
<title>LAF06</title>
<polygon fill="none" stroke="black" points="757.38,-408 452.38,-408 452.38,-294 757.38,-294 757.38,-408"/>
<polygon fill="none" stroke="black" points="460.38,-377.5 460.38,-404 749.38,-404 749.38,-377.5 460.38,-377.5"/>
<text text-anchor="start" x="553.88" y="-386.7" font-family="Times,serif" font-size="14.00">LAF06: </text>
<text text-anchor="start" x="600.38" y="-386.7" font-family="Times,serif" font-size="14.00">Response</text>
<text text-anchor="start" x="652.12" y="-386.7" font-family="Times,serif" font-size="14.00">.</text>
<polygon fill="none" stroke="black" points="460.38,-351 460.38,-377.5 749.38,-377.5 749.38,-351 460.38,-351"/>
<text text-anchor="start" x="508.88" y="-360.2" font-family="Times,serif" font-size="14.00" fill="purple">res_msg: </text>
<text text-anchor="start" x="562.12" y="-360.2" font-family="Times,serif" font-size="14.00">&quot;Database not available&quot;.</text>
<polygon fill="none" stroke="black" points="460.38,-324.5 460.38,-351 749.38,-351 749.38,-324.5 460.38,-324.5"/>
<text text-anchor="start" x="465.38" y="-333.7" font-family="Times,serif" font-size="14.00" fill="purple">dis_msg: </text>
<text text-anchor="start" x="518.62" y="-333.7" font-family="Times,serif" font-size="14.00">&quot;No hay conexión con la base de datos.&quot;.</text>
<polygon fill="none" stroke="black" points="460.38,-298 460.38,-324.5 749.38,-324.5 749.38,-298 460.38,-298"/>
<text text-anchor="start" x="568.5" y="-307.2" font-family="Times,serif" font-size="14.00" fill="purple">type: </text>
<text text-anchor="start" x="599.25" y="-307.2" font-family="Times,serif" font-size="14.00">&quot;error&quot;.</text>
</g>
<!-- LAF03&#45;&gt;LAF06 -->
<g id="edge5" class="edge">
<title>LAF03&#45;&gt;LAF06</title>
<path fill="none" stroke="red" d="M362.14,-460.06C393.15,-446.25 431.14,-429.34 467.78,-413.03"/>
<polygon fill="red" stroke="red" points="468.98,-416.33 476.69,-409.06 466.13,-409.93 468.98,-416.33"/>
<text text-anchor="middle" x="457.12" y="-429.2" font-family="Times,serif" font-size="14.00">code: &#39;E1&#39;</text>
</g>
<!-- LAF07 -->
<g id="node7" class="node">
<title>LAF07</title>
<polygon fill="none" stroke="black" points="135.12,-257 2.62,-257 2.62,-196 135.12,-196 135.12,-257"/>
<polygon fill="none" stroke="black" points="10.62,-226.5 10.62,-253 127.12,-253 127.12,-226.5 10.62,-226.5"/>
<text text-anchor="start" x="15.62" y="-234.7" font-family="Times,serif" font-size="14.00">LAF07: Redirige a:</text>
<polygon fill="none" stroke="black" points="10.62,-200 10.62,-226.5 127.12,-226.5 127.12,-200 10.62,-200"/>
<text text-anchor="start" x="46.38" y="-208.2" font-family="Times,serif" font-size="14.00" fill="blue">MPF03.</text>
</g>
<!-- LAF04&#45;&gt;LAF07 -->
<g id="edge6" class="edge">
<title>LAF04&#45;&gt;LAF07</title>
<path fill="none" stroke="black" d="M68.88,-306.81C68.88,-294.39 68.88,-280.87 68.88,-268.58"/>
<polygon fill="black" stroke="black" points="72.38,-268.76 68.88,-258.76 65.38,-268.76 72.38,-268.76"/>
</g>
<!-- LAF08 -->
<g id="node8" class="node">
<title>LAF08</title>
<polygon fill="none" stroke="black" points="583.25,-257 316.5,-257 316.5,-196 583.25,-196 583.25,-257"/>
<polygon fill="none" stroke="black" points="324.5,-226.5 324.5,-253 575.25,-253 575.25,-226.5 324.5,-226.5"/>
<text text-anchor="start" x="403" y="-235.7" font-family="Times,serif" font-size="14.00">LAF08: </text>
<text text-anchor="start" x="449.5" y="-235.7" font-family="Times,serif" font-size="14.00" fill="green">Sistema</text>
<text text-anchor="start" x="493" y="-235.7" font-family="Times,serif" font-size="14.00">.</text>
<polygon fill="none" stroke="black" points="324.5,-200 324.5,-226.5 575.25,-226.5 575.25,-200 324.5,-200"/>
<text text-anchor="start" x="329.5" y="-209.2" font-family="Times,serif" font-size="14.00" fill="green">Muestra: </text>
<text text-anchor="start" x="382" y="-209.2" font-family="Times,serif" font-size="14.00">&quot;MessageBanner[dis_msg, type]&quot;.</text>
</g>
<!-- LAF05&#45;&gt;LAF08 -->
<g id="edge7" class="edge">
<title>LAF05&#45;&gt;LAF08</title>
<path fill="none" stroke="black" d="M366.02,-293.77C378.71,-283.75 391.62,-273.54 403.39,-264.24"/>
<polygon fill="black" stroke="black" points="405.28,-267.21 410.96,-258.26 400.94,-261.71 405.28,-267.21"/>
</g>
<!-- LAF06&#45;&gt;LAF08 -->
<g id="edge8" class="edge">
<title>LAF06&#45;&gt;LAF08</title>
<path fill="none" stroke="black" d="M533.73,-293.77C521.04,-283.75 508.13,-273.54 496.36,-264.24"/>
<polygon fill="black" stroke="black" points="498.81,-261.71 488.79,-258.26 494.47,-267.21 498.81,-261.71"/>
</g>
<!-- LAF09 -->
<g id="node9" class="node">
<title>LAF09</title>
<polygon fill="none" stroke="black" points="514.25,-159 385.5,-159 385.5,-98 514.25,-98 514.25,-159"/>
<polygon fill="none" stroke="black" points="393.5,-128.5 393.5,-155 506.25,-155 506.25,-128.5 393.5,-128.5"/>
<text text-anchor="start" x="403" y="-137.7" font-family="Times,serif" font-size="14.00">LAF09: </text>
<text text-anchor="start" x="449.5" y="-137.7" font-family="Times,serif" font-size="14.00" fill="green">Sistema</text>
<text text-anchor="start" x="493" y="-137.7" font-family="Times,serif" font-size="14.00">.</text>
<polygon fill="none" stroke="black" points="393.5,-102 393.5,-128.5 506.25,-128.5 506.25,-102 393.5,-102"/>
<text text-anchor="start" x="398.5" y="-111.2" font-family="Times,serif" font-size="14.00" fill="blue">Ejecuta: </text>
<text text-anchor="start" x="446.5" y="-111.2" font-family="Times,serif" font-size="14.00">&quot;Logout&quot;.</text>
</g>
<!-- LAF08&#45;&gt;LAF09 -->
<g id="edge9" class="edge">
<title>LAF08&#45;&gt;LAF09</title>
<path fill="none" stroke="black" d="M449.88,-195.65C449.88,-187.79 449.88,-179.18 449.88,-170.83"/>
<polygon fill="black" stroke="black" points="453.38,-170.84 449.88,-160.84 446.38,-170.84 453.38,-170.84"/>
</g>
<!-- LAF10 -->
<g id="node10" class="node">
<title>LAF10</title>
<polygon fill="none" stroke="black" points="516.12,-61 383.62,-61 383.62,0 516.12,0 516.12,-61"/>
<polygon fill="none" stroke="black" points="391.62,-30.5 391.62,-57 508.12,-57 508.12,-30.5 391.62,-30.5"/>
<text text-anchor="start" x="396.62" y="-38.7" font-family="Times,serif" font-size="14.00">LAF10: Redirige a:</text>
<polygon fill="none" stroke="black" points="391.62,-4 391.62,-30.5 508.12,-30.5 508.12,-4 391.62,-4"/>
<text text-anchor="start" x="427.38" y="-12.2" font-family="Times,serif" font-size="14.00" fill="blue">MPF01.</text>
</g>
<!-- LAF09&#45;&gt;LAF10 -->
<g id="edge10" class="edge">
<title>LAF09&#45;&gt;LAF10</title>
<path fill="none" stroke="black" d="M449.88,-97.65C449.88,-89.79 449.88,-81.18 449.88,-72.83"/>
<polygon fill="black" stroke="black" points="453.38,-72.84 449.88,-62.84 446.38,-72.84 453.38,-72.84"/>
</g>
</g>
</svg>
