<?xml version="1.0" encoding="UTF-8" standalone="no"?>
<!DOCTYPE svg PUBLIC "-//W3C//DTD SVG 1.1//EN"
 "http://www.w3.org/Graphics/SVG/1.1/DTD/svg11.dtd">
<!-- Generated by graphviz version 9.0.0 (20230911.1827)
 -->
<!-- Title: DownloadPlatformsTemplateFlow Pages: 1 -->
<svg width="843pt" height="726pt"
 viewBox="0.00 0.00 843.38 725.50" xmlns="http://www.w3.org/2000/svg" xmlns:xlink="http://www.w3.org/1999/xlink">
<g id="graph0" class="graph" transform="scale(1 1) rotate(0) translate(4 721.5)">
<title>DownloadPlatformsTemplateFlow</title>
<polygon fill="white" stroke="none" points="-4,4 -4,-721.5 839.38,-721.5 839.38,4 -4,4"/>
<!-- PLDTF01 -->
<g id="node1" class="node">
<title>PLDTF01</title>
<polygon fill="none" stroke="black" points="442.88,-717.5 302.88,-717.5 302.88,-656.5 442.88,-656.5 442.88,-717.5"/>
<polygon fill="none" stroke="black" points="310.88,-687 310.88,-713.5 434.88,-713.5 434.88,-687 310.88,-687"/>
<text text-anchor="start" x="315.88" y="-695.2" font-family="Times,serif" font-size="14.00">PLDTF01: Viene de:</text>
<polygon fill="none" stroke="black" points="310.88,-660.5 310.88,-687 434.88,-687 434.88,-660.5 310.88,-660.5"/>
<text text-anchor="start" x="350.38" y="-668.7" font-family="Times,serif" font-size="14.00" fill="orange">MPF23.</text>
</g>
<!-- PLDTF02 -->
<g id="node2" class="node">
<title>PLDTF02</title>
<polygon fill="none" stroke="black" points="504.38,-619.5 241.38,-619.5 241.38,-558.5 504.38,-558.5 504.38,-619.5"/>
<polygon fill="none" stroke="black" points="249.38,-589 249.38,-615.5 496.38,-615.5 496.38,-589 249.38,-589"/>
<text text-anchor="start" x="318.12" y="-598.2" font-family="Times,serif" font-size="14.00">PLDTF02: </text>
<text text-anchor="start" x="380.38" y="-598.2" font-family="Times,serif" font-size="14.00" fill="green">Sistema</text>
<text text-anchor="start" x="423.88" y="-598.2" font-family="Times,serif" font-size="14.00">.</text>
<polygon fill="none" stroke="black" points="249.38,-562.5 249.38,-589 496.38,-589 496.38,-562.5 249.38,-562.5"/>
<text text-anchor="start" x="254.38" y="-571.7" font-family="Times,serif" font-size="14.00" fill="blue">Ejecuta: </text>
<text text-anchor="start" x="302.38" y="-571.7" font-family="Times,serif" font-size="14.00">&quot;Download Template(Platforms)&quot;.</text>
</g>
<!-- PLDTF01&#45;&gt;PLDTF02 -->
<g id="edge1" class="edge">
<title>PLDTF01&#45;&gt;PLDTF02</title>
<path fill="none" stroke="black" d="M372.88,-656.15C372.88,-648.29 372.88,-639.68 372.88,-631.33"/>
<polygon fill="black" stroke="black" points="376.38,-631.34 372.88,-621.34 369.38,-631.34 376.38,-631.34"/>
</g>
<!-- PLDTF03 -->
<g id="node3" class="node">
<title>PLDTF03</title>
<polygon fill="none" stroke="black" points="215.75,-492.75 0,-492.75 0,-405.25 215.75,-405.25 215.75,-492.75"/>
<polygon fill="none" stroke="black" points="8,-462.25 8,-488.75 207.75,-488.75 207.75,-462.25 8,-462.25"/>
<text text-anchor="start" x="49" y="-471.45" font-family="Times,serif" font-size="14.00">PLDTF03: </text>
<text text-anchor="start" x="111.25" y="-471.45" font-family="Times,serif" font-size="14.00">Response</text>
<text text-anchor="start" x="163" y="-471.45" font-family="Times,serif" font-size="14.00">.</text>
<polygon fill="none" stroke="black" points="8,-435.75 8,-462.25 207.75,-462.25 207.75,-435.75 8,-435.75"/>
<text text-anchor="start" x="52" y="-444.95" font-family="Times,serif" font-size="14.00" fill="purple">res_msg: </text>
<text text-anchor="start" x="105.25" y="-444.95" font-family="Times,serif" font-size="14.00">&quot;Success&quot;.</text>
<polygon fill="none" stroke="black" points="8,-409.25 8,-435.75 207.75,-435.75 207.75,-409.25 8,-409.25"/>
<text text-anchor="start" x="13" y="-418.45" font-family="Times,serif" font-size="14.00" fill="purple">res_obj: </text>
<text text-anchor="start" x="60.25" y="-418.45" font-family="Times,serif" font-size="14.00">&quot;PlatformsTemplate.csv&quot;.</text>
</g>
<!-- PLDTF02&#45;&gt;PLDTF03 -->
<g id="edge2" class="edge">
<title>PLDTF02&#45;&gt;PLDTF03</title>
<path fill="none" stroke="green" d="M315.37,-558.06C281.98,-540.66 239.1,-518.34 201,-498.5"/>
<polygon fill="green" stroke="green" points="202.74,-495.46 192.26,-493.94 199.51,-501.66 202.74,-495.46"/>
<text text-anchor="middle" x="308.75" y="-527.2" font-family="Times,serif" font-size="14.00">code: &#39;200&#39;</text>
</g>
<!-- PLDTF04 -->
<g id="node4" class="node">
<title>PLDTF04</title>
<polygon fill="none" stroke="black" points="511.88,-506 233.88,-506 233.88,-392 511.88,-392 511.88,-506"/>
<polygon fill="none" stroke="black" points="241.88,-475.5 241.88,-502 503.88,-502 503.88,-475.5 241.88,-475.5"/>
<text text-anchor="start" x="314" y="-484.7" font-family="Times,serif" font-size="14.00">PLDTF04: </text>
<text text-anchor="start" x="376.25" y="-484.7" font-family="Times,serif" font-size="14.00">Response</text>
<text text-anchor="start" x="428" y="-484.7" font-family="Times,serif" font-size="14.00">.</text>
<polygon fill="none" stroke="black" points="241.88,-449 241.88,-475.5 503.88,-475.5 503.88,-449 241.88,-449"/>
<text text-anchor="start" x="288.88" y="-458.2" font-family="Times,serif" font-size="14.00" fill="purple">res_msg: </text>
<text text-anchor="start" x="342.12" y="-458.2" font-family="Times,serif" font-size="14.00">&quot;Record not found.&quot;.</text>
<polygon fill="none" stroke="black" points="241.88,-422.5 241.88,-449 503.88,-449 503.88,-422.5 241.88,-422.5"/>
<text text-anchor="start" x="246.88" y="-431.7" font-family="Times,serif" font-size="14.00" fill="purple">dis_msg: </text>
<text text-anchor="start" x="300.12" y="-431.7" font-family="Times,serif" font-size="14.00">&quot;Hay un problema con el servidor.&quot;.</text>
<polygon fill="none" stroke="black" points="241.88,-396 241.88,-422.5 503.88,-422.5 503.88,-396 241.88,-396"/>
<text text-anchor="start" x="336.5" y="-405.2" font-family="Times,serif" font-size="14.00" fill="purple">type: </text>
<text text-anchor="start" x="367.25" y="-405.2" font-family="Times,serif" font-size="14.00">&quot;error&quot;.</text>
</g>
<!-- PLDTF02&#45;&gt;PLDTF04 -->
<g id="edge3" class="edge">
<title>PLDTF02&#45;&gt;PLDTF04</title>
<path fill="none" stroke="red" d="M372.88,-558.06C372.88,-546.11 372.88,-531.83 372.88,-517.63"/>
<polygon fill="red" stroke="red" points="376.38,-517.82 372.88,-507.82 369.38,-517.82 376.38,-517.82"/>
<text text-anchor="middle" x="401.75" y="-527.2" font-family="Times,serif" font-size="14.00">code: &#39;404&#39;</text>
</g>
<!-- PLDTF05 -->
<g id="node5" class="node">
<title>PLDTF05</title>
<polygon fill="none" stroke="black" points="835.38,-506 530.38,-506 530.38,-392 835.38,-392 835.38,-506"/>
<polygon fill="none" stroke="black" points="538.38,-475.5 538.38,-502 827.38,-502 827.38,-475.5 538.38,-475.5"/>
<text text-anchor="start" x="624" y="-484.7" font-family="Times,serif" font-size="14.00">PLDTF05: </text>
<text text-anchor="start" x="686.25" y="-484.7" font-family="Times,serif" font-size="14.00">Response</text>
<text text-anchor="start" x="738" y="-484.7" font-family="Times,serif" font-size="14.00">.</text>
<polygon fill="none" stroke="black" points="538.38,-449 538.38,-475.5 827.38,-475.5 827.38,-449 538.38,-449"/>
<text text-anchor="start" x="586.88" y="-458.2" font-family="Times,serif" font-size="14.00" fill="purple">res_msg: </text>
<text text-anchor="start" x="640.12" y="-458.2" font-family="Times,serif" font-size="14.00">&quot;Database not available&quot;.</text>
<polygon fill="none" stroke="black" points="538.38,-422.5 538.38,-449 827.38,-449 827.38,-422.5 538.38,-422.5"/>
<text text-anchor="start" x="543.38" y="-431.7" font-family="Times,serif" font-size="14.00" fill="purple">dis_msg: </text>
<text text-anchor="start" x="596.62" y="-431.7" font-family="Times,serif" font-size="14.00">&quot;No hay conexión con la base de datos.&quot;.</text>
<polygon fill="none" stroke="black" points="538.38,-396 538.38,-422.5 827.38,-422.5 827.38,-396 538.38,-396"/>
<text text-anchor="start" x="646.5" y="-405.2" font-family="Times,serif" font-size="14.00" fill="purple">type: </text>
<text text-anchor="start" x="677.25" y="-405.2" font-family="Times,serif" font-size="14.00">&quot;error&quot;.</text>
</g>
<!-- PLDTF02&#45;&gt;PLDTF05 -->
<g id="edge4" class="edge">
<title>PLDTF02&#45;&gt;PLDTF05</title>
<path fill="none" stroke="red" d="M440.14,-558.06C471.15,-544.25 509.14,-527.34 545.78,-511.03"/>
<polygon fill="red" stroke="red" points="546.98,-514.33 554.69,-507.06 544.13,-507.93 546.98,-514.33"/>
<text text-anchor="middle" x="535.12" y="-527.2" font-family="Times,serif" font-size="14.00">code: &#39;E1&#39;</text>
</g>
<!-- PLDTF06 -->
<g id="node6" class="node">
<title>PLDTF06</title>
<polygon fill="none" stroke="black" points="182,-355 33.75,-355 33.75,-294 182,-294 182,-355"/>
<polygon fill="none" stroke="black" points="41.75,-324.5 41.75,-351 174,-351 174,-324.5 41.75,-324.5"/>
<text text-anchor="start" x="46.75" y="-332.7" font-family="Times,serif" font-size="14.00">PLDTF06: Redirige a:</text>
<polygon fill="none" stroke="black" points="41.75,-298 41.75,-324.5 174,-324.5 174,-298 41.75,-298"/>
<text text-anchor="start" x="85.38" y="-306.2" font-family="Times,serif" font-size="14.00" fill="blue">MPF87.</text>
</g>
<!-- PLDTF03&#45;&gt;PLDTF06 -->
<g id="edge5" class="edge">
<title>PLDTF03&#45;&gt;PLDTF06</title>
<path fill="none" stroke="black" d="M107.88,-404.81C107.88,-392.39 107.88,-378.87 107.88,-366.58"/>
<polygon fill="black" stroke="black" points="111.38,-366.76 107.88,-356.76 104.38,-366.76 111.38,-366.76"/>
</g>
<!-- PLDTF07 -->
<g id="node7" class="node">
<title>PLDTF07</title>
<polygon fill="none" stroke="black" points="659.75,-355 396,-355 396,-294 659.75,-294 659.75,-355"/>
<polygon fill="none" stroke="black" points="404,-324.5 404,-351 651.75,-351 651.75,-324.5 404,-324.5"/>
<text text-anchor="start" x="473.12" y="-333.7" font-family="Times,serif" font-size="14.00">PLDTF07: </text>
<text text-anchor="start" x="535.38" y="-333.7" font-family="Times,serif" font-size="14.00" fill="green">Sistema</text>
<text text-anchor="start" x="578.88" y="-333.7" font-family="Times,serif" font-size="14.00">.</text>
<polygon fill="none" stroke="black" points="404,-298 404,-324.5 651.75,-324.5 651.75,-298 404,-298"/>
<text text-anchor="start" x="409" y="-307.2" font-family="Times,serif" font-size="14.00" fill="green">Muestra: </text>
<text text-anchor="start" x="461.5" y="-307.2" font-family="Times,serif" font-size="14.00">&quot;MessageModal[dis_msg, type]&quot;.</text>
</g>
<!-- PLDTF04&#45;&gt;PLDTF07 -->
<g id="edge6" class="edge">
<title>PLDTF04&#45;&gt;PLDTF07</title>
<path fill="none" stroke="black" d="M444.02,-391.77C456.71,-381.75 469.62,-371.54 481.39,-362.24"/>
<polygon fill="black" stroke="black" points="483.28,-365.21 488.96,-356.26 478.94,-359.71 483.28,-365.21"/>
</g>
<!-- PLDTF05&#45;&gt;PLDTF07 -->
<g id="edge13" class="edge">
<title>PLDTF05&#45;&gt;PLDTF07</title>
<path fill="none" stroke="black" d="M611.73,-391.77C599.04,-381.75 586.13,-371.54 574.36,-362.24"/>
<polygon fill="black" stroke="black" points="576.81,-359.71 566.79,-356.26 572.47,-365.21 576.81,-359.71"/>
</g>
<!-- PLDTF08 -->
<g id="node8" class="node">
<title>PLDTF08</title>
<polygon fill="none" stroke="black" points="492.75,-257 271,-257 271,-196 492.75,-196 492.75,-257"/>
<polygon fill="none" stroke="black" points="279,-226.5 279,-253 484.75,-253 484.75,-226.5 279,-226.5"/>
<text text-anchor="start" x="333.5" y="-235.7" font-family="Times,serif" font-size="14.00">PLDTF08: </text>
<text text-anchor="start" x="395.75" y="-235.7" font-family="Times,serif" font-size="14.00" fill="blue">Actor</text>
<text text-anchor="start" x="426.5" y="-235.7" font-family="Times,serif" font-size="14.00">.</text>
<polygon fill="none" stroke="black" points="279,-200 279,-226.5 484.75,-226.5 484.75,-200 279,-200"/>
<text text-anchor="start" x="284" y="-209.2" font-family="Times,serif" font-size="14.00" fill="orange">Selecciona: </text>
<text text-anchor="start" x="350" y="-209.2" font-family="Times,serif" font-size="14.00">&quot;MessageModal : Yes&quot;.</text>
</g>
<!-- PLDTF07&#45;&gt;PLDTF08 -->
<g id="edge7" class="edge">
<title>PLDTF07&#45;&gt;PLDTF08</title>
<path fill="none" stroke="black" d="M482.48,-293.65C467.99,-284.12 451.8,-273.48 436.72,-263.56"/>
<polygon fill="black" stroke="black" points="439.04,-260.9 428.76,-258.33 435.19,-266.75 439.04,-260.9"/>
</g>
<!-- PLDTF09 -->
<g id="node9" class="node">
<title>PLDTF09</title>
<polygon fill="none" stroke="black" points="730.62,-257 511.12,-257 511.12,-196 730.62,-196 730.62,-257"/>
<polygon fill="none" stroke="black" points="519.12,-226.5 519.12,-253 722.62,-253 722.62,-226.5 519.12,-226.5"/>
<text text-anchor="start" x="572.5" y="-235.7" font-family="Times,serif" font-size="14.00">PLDTF09: </text>
<text text-anchor="start" x="634.75" y="-235.7" font-family="Times,serif" font-size="14.00" fill="blue">Actor</text>
<text text-anchor="start" x="665.5" y="-235.7" font-family="Times,serif" font-size="14.00">.</text>
<polygon fill="none" stroke="black" points="519.12,-200 519.12,-226.5 722.62,-226.5 722.62,-200 519.12,-200"/>
<text text-anchor="start" x="524.12" y="-209.2" font-family="Times,serif" font-size="14.00" fill="orange">Selecciona: </text>
<text text-anchor="start" x="590.12" y="-209.2" font-family="Times,serif" font-size="14.00">&quot;MessageModal : No&quot;.</text>
</g>
<!-- PLDTF07&#45;&gt;PLDTF09 -->
<g id="edge8" class="edge">
<title>PLDTF07&#45;&gt;PLDTF09</title>
<path fill="none" stroke="black" d="M556.79,-293.65C565.45,-284.71 575.07,-274.79 584.16,-265.4"/>
<polygon fill="black" stroke="black" points="586.48,-268.04 590.92,-258.42 581.45,-263.16 586.48,-268.04"/>
</g>
<!-- PLDTF12 -->
<g id="node12" class="node">
<title>PLDTF12</title>
<polygon fill="none" stroke="black" points="463.5,-159 300.25,-159 300.25,-98 463.5,-98 463.5,-159"/>
<polygon fill="none" stroke="black" points="308.25,-128.5 308.25,-155 455.5,-155 455.5,-128.5 308.25,-128.5"/>
<text text-anchor="start" x="329" y="-137.7" font-family="Times,serif" font-size="14.00">PLDTF12: </text>
<text text-anchor="start" x="391.25" y="-137.7" font-family="Times,serif" font-size="14.00" fill="green">Sistema</text>
<polygon fill="none" stroke="black" points="308.25,-102 308.25,-128.5 455.5,-128.5 455.5,-102 308.25,-102"/>
<text text-anchor="start" x="313.25" y="-111.2" font-family="Times,serif" font-size="14.00" fill="blue">Cierra</text>
<text text-anchor="start" x="347" y="-111.2" font-family="Times,serif" font-size="14.00">: &quot;MessageModal&quot;</text>
</g>
<!-- PLDTF08&#45;&gt;PLDTF12 -->
<g id="edge11" class="edge">
<title>PLDTF08&#45;&gt;PLDTF12</title>
<path fill="none" stroke="black" d="M381.88,-195.65C381.88,-187.79 381.88,-179.18 381.88,-170.83"/>
<polygon fill="black" stroke="black" points="385.38,-170.84 381.88,-160.84 378.38,-170.84 385.38,-170.84"/>
</g>
<!-- PLDTF10 -->
<g id="node10" class="node">
<title>PLDTF10</title>
<polygon fill="none" stroke="black" points="702.5,-159 539.25,-159 539.25,-98 702.5,-98 702.5,-159"/>
<polygon fill="none" stroke="black" points="547.25,-128.5 547.25,-155 694.5,-155 694.5,-128.5 547.25,-128.5"/>
<text text-anchor="start" x="568" y="-137.7" font-family="Times,serif" font-size="14.00">PLDTF10: </text>
<text text-anchor="start" x="630.25" y="-137.7" font-family="Times,serif" font-size="14.00" fill="green">Sistema</text>
<polygon fill="none" stroke="black" points="547.25,-102 547.25,-128.5 694.5,-128.5 694.5,-102 547.25,-102"/>
<text text-anchor="start" x="552.25" y="-111.2" font-family="Times,serif" font-size="14.00" fill="blue">Cierra</text>
<text text-anchor="start" x="586" y="-111.2" font-family="Times,serif" font-size="14.00">: &quot;MessageModal&quot;</text>
</g>
<!-- PLDTF09&#45;&gt;PLDTF10 -->
<g id="edge9" class="edge">
<title>PLDTF09&#45;&gt;PLDTF10</title>
<path fill="none" stroke="black" d="M620.88,-195.65C620.88,-187.79 620.88,-179.18 620.88,-170.83"/>
<polygon fill="black" stroke="black" points="624.38,-170.84 620.88,-160.84 617.38,-170.84 624.38,-170.84"/>
</g>
<!-- PLDTF11 -->
<g id="node11" class="node">
<title>PLDTF11</title>
<polygon fill="none" stroke="black" points="695,-61 546.75,-61 546.75,0 695,0 695,-61"/>
<polygon fill="none" stroke="black" points="554.75,-30.5 554.75,-57 687,-57 687,-30.5 554.75,-30.5"/>
<text text-anchor="start" x="559.75" y="-38.7" font-family="Times,serif" font-size="14.00">PLDTF11: Redirige a:</text>
<polygon fill="none" stroke="black" points="554.75,-4 554.75,-30.5 687,-30.5 687,-4 554.75,-4"/>
<text text-anchor="start" x="598.38" y="-12.2" font-family="Times,serif" font-size="14.00" fill="blue">MPF81.</text>
</g>
<!-- PLDTF10&#45;&gt;PLDTF11 -->
<g id="edge10" class="edge">
<title>PLDTF10&#45;&gt;PLDTF11</title>
<path fill="none" stroke="black" d="M620.88,-97.65C620.88,-89.79 620.88,-81.18 620.88,-72.83"/>
<polygon fill="black" stroke="black" points="624.38,-72.84 620.88,-62.84 617.38,-72.84 624.38,-72.84"/>
</g>
<!-- PLDTF13 -->
<g id="node13" class="node">
<title>PLDTF13</title>
<polygon fill="none" stroke="black" points="456,-61 307.75,-61 307.75,0 456,0 456,-61"/>
<polygon fill="none" stroke="black" points="315.75,-30.5 315.75,-57 448,-57 448,-30.5 315.75,-30.5"/>
<text text-anchor="start" x="320.75" y="-38.7" font-family="Times,serif" font-size="14.00">PLDTF13: Redirige a:</text>
<polygon fill="none" stroke="black" points="315.75,-4 315.75,-30.5 448,-30.5 448,-4 315.75,-4"/>
<text text-anchor="start" x="352.62" y="-12.2" font-family="Times,serif" font-size="14.00" fill="blue">PLDTF02.</text>
</g>
<!-- PLDTF12&#45;&gt;PLDTF13 -->
<g id="edge12" class="edge">
<title>PLDTF12&#45;&gt;PLDTF13</title>
<path fill="none" stroke="black" d="M381.88,-97.65C381.88,-89.79 381.88,-81.18 381.88,-72.83"/>
<polygon fill="black" stroke="black" points="385.38,-72.84 381.88,-62.84 378.38,-72.84 385.38,-72.84"/>
</g>
</g>
</svg>
