<?xml version="1.0" encoding="UTF-8" standalone="no"?>
<!DOCTYPE svg PUBLIC "-//W3C//DTD SVG 1.1//EN"
 "http://www.w3.org/Graphics/SVG/1.1/DTD/svg11.dtd">
<!-- Generated by graphviz version 9.0.0 (20230911.1827)
 -->
<!-- Title: UploadPMGroupsTemplateFlow Pages: 1 -->
<svg width="1203pt" height="922pt"
 viewBox="0.00 0.00 1203.00 921.50" xmlns="http://www.w3.org/2000/svg" xmlns:xlink="http://www.w3.org/1999/xlink">
<g id="graph0" class="graph" transform="scale(1 1) rotate(0) translate(4 917.5)">
<title>UploadPMGroupsTemplateFlow</title>
<polygon fill="white" stroke="none" points="-4,4 -4,-917.5 1199,-917.5 1199,4 -4,4"/>
<!-- PGUTF01 -->
<g id="node1" class="node">
<title>PGUTF01</title>
<polygon fill="none" stroke="black" points="571.25,-913.5 429.75,-913.5 429.75,-852.5 571.25,-852.5 571.25,-913.5"/>
<polygon fill="none" stroke="black" points="437.75,-883 437.75,-909.5 563.25,-909.5 563.25,-883 437.75,-883"/>
<text text-anchor="start" x="442.75" y="-891.2" font-family="Times,serif" font-size="14.00">PGUTF01: Viene de:</text>
<polygon fill="none" stroke="black" points="437.75,-856.5 437.75,-883 563.25,-883 563.25,-856.5 437.75,-856.5"/>
<text text-anchor="start" x="474.62" y="-864.7" font-family="Times,serif" font-size="14.00" fill="orange">MPF128.</text>
</g>
<!-- PGUTF02 -->
<g id="node2" class="node">
<title>PGUTF02</title>
<polygon fill="none" stroke="black" points="632.75,-815.5 368.25,-815.5 368.25,-754.5 632.75,-754.5 632.75,-815.5"/>
<polygon fill="none" stroke="black" points="376.25,-785 376.25,-811.5 624.75,-811.5 624.75,-785 376.25,-785"/>
<text text-anchor="start" x="445" y="-794.2" font-family="Times,serif" font-size="14.00">PGUTF02: </text>
<text text-anchor="start" x="508.75" y="-794.2" font-family="Times,serif" font-size="14.00" fill="green">Sistema</text>
<text text-anchor="start" x="552.25" y="-794.2" font-family="Times,serif" font-size="14.00">.</text>
<polygon fill="none" stroke="black" points="376.25,-758.5 376.25,-785 624.75,-785 624.75,-758.5 376.25,-758.5"/>
<text text-anchor="start" x="381.25" y="-767.7" font-family="Times,serif" font-size="14.00" fill="green">Muestra: </text>
<text text-anchor="start" x="433.75" y="-767.7" font-family="Times,serif" font-size="14.00">&quot;UploadFileModal(&#39;PMGroups&#39;)&quot;.</text>
</g>
<!-- PGUTF01&#45;&gt;PGUTF02 -->
<g id="edge1" class="edge">
<title>PGUTF01&#45;&gt;PGUTF02</title>
<path fill="none" stroke="black" d="M500.5,-852.15C500.5,-844.29 500.5,-835.68 500.5,-827.33"/>
<polygon fill="black" stroke="black" points="504,-827.34 500.5,-817.34 497,-827.34 504,-827.34"/>
</g>
<!-- PGUTF03 -->
<g id="node3" class="node">
<title>PGUTF03</title>
<polygon fill="none" stroke="black" points="643.25,-717.5 357.75,-717.5 357.75,-656.5 643.25,-656.5 643.25,-717.5"/>
<polygon fill="none" stroke="black" points="365.75,-687 365.75,-713.5 635.25,-713.5 635.25,-687 365.75,-687"/>
<text text-anchor="start" x="451.38" y="-696.2" font-family="Times,serif" font-size="14.00">PGUTF03: </text>
<text text-anchor="start" x="515.12" y="-696.2" font-family="Times,serif" font-size="14.00" fill="blue">Actor</text>
<text text-anchor="start" x="545.88" y="-696.2" font-family="Times,serif" font-size="14.00">.</text>
<polygon fill="none" stroke="black" points="365.75,-660.5 365.75,-687 635.25,-687 635.25,-660.5 365.75,-660.5"/>
<text text-anchor="start" x="370.75" y="-669.7" font-family="Times,serif" font-size="14.00" fill="orange">Selecciona: </text>
<text text-anchor="start" x="436.75" y="-669.7" font-family="Times,serif" font-size="14.00">&quot;Cargar Archivo [&#39;pmgroups.csv&#39;]&quot;.</text>
</g>
<!-- PGUTF02&#45;&gt;PGUTF03 -->
<g id="edge2" class="edge">
<title>PGUTF02&#45;&gt;PGUTF03</title>
<path fill="none" stroke="black" d="M500.5,-754.15C500.5,-746.29 500.5,-737.68 500.5,-729.33"/>
<polygon fill="black" stroke="black" points="504,-729.34 500.5,-719.34 497,-729.34 504,-729.34"/>
</g>
<!-- PGUTF04 -->
<g id="node4" class="node">
<title>PGUTF04</title>
<polygon fill="none" stroke="black" points="622.62,-619.5 378.38,-619.5 378.38,-558.5 622.62,-558.5 622.62,-619.5"/>
<polygon fill="none" stroke="black" points="386.38,-589 386.38,-615.5 614.62,-615.5 614.62,-589 386.38,-589"/>
<text text-anchor="start" x="445" y="-598.2" font-family="Times,serif" font-size="14.00">PGUTF04: </text>
<text text-anchor="start" x="508.75" y="-598.2" font-family="Times,serif" font-size="14.00" fill="green">Sistema</text>
<text text-anchor="start" x="552.25" y="-598.2" font-family="Times,serif" font-size="14.00">.</text>
<polygon fill="none" stroke="black" points="386.38,-562.5 386.38,-589 614.62,-589 614.62,-562.5 386.38,-562.5"/>
<text text-anchor="start" x="391.38" y="-571.7" font-family="Times,serif" font-size="14.00" fill="blue">Ejecuta: </text>
<text text-anchor="start" x="439.38" y="-571.7" font-family="Times,serif" font-size="14.00">&quot;Upload File(&#39;pmgroups.csv&#39;)&quot;.</text>
</g>
<!-- PGUTF03&#45;&gt;PGUTF04 -->
<g id="edge3" class="edge">
<title>PGUTF03&#45;&gt;PGUTF04</title>
<path fill="none" stroke="black" d="M500.5,-656.15C500.5,-648.29 500.5,-639.68 500.5,-631.33"/>
<polygon fill="black" stroke="black" points="504,-631.34 500.5,-621.34 497,-631.34 504,-631.34"/>
</g>
<!-- PGUTF05 -->
<g id="node5" class="node">
<title>PGUTF05</title>
<polygon fill="none" stroke="black" points="245,-492.75 0,-492.75 0,-405.25 245,-405.25 245,-492.75"/>
<polygon fill="none" stroke="black" points="8,-462.25 8,-488.75 237,-488.75 237,-462.25 8,-462.25"/>
<text text-anchor="start" x="62.88" y="-471.45" font-family="Times,serif" font-size="14.00">PGUTF05: </text>
<text text-anchor="start" x="126.62" y="-471.45" font-family="Times,serif" font-size="14.00">Response</text>
<text text-anchor="start" x="178.38" y="-471.45" font-family="Times,serif" font-size="14.00">.</text>
<polygon fill="none" stroke="black" points="8,-435.75 8,-462.25 237,-462.25 237,-435.75 8,-435.75"/>
<text text-anchor="start" x="66.62" y="-444.95" font-family="Times,serif" font-size="14.00" fill="purple">res_msg: </text>
<text text-anchor="start" x="119.88" y="-444.95" font-family="Times,serif" font-size="14.00">&quot;Success&quot;.</text>
<polygon fill="none" stroke="black" points="8,-409.25 8,-435.75 237,-435.75 237,-409.25 8,-409.25"/>
<text text-anchor="start" x="13" y="-418.45" font-family="Times,serif" font-size="14.00" fill="purple">res_obj: </text>
<text text-anchor="start" x="60.25" y="-418.45" font-family="Times,serif" font-size="14.00">&quot;PMGroupsUploadResult.csv&quot;.</text>
</g>
<!-- PGUTF04&#45;&gt;PGUTF05 -->
<g id="edge4" class="edge">
<title>PGUTF04&#45;&gt;PGUTF05</title>
<path fill="none" stroke="green" d="M404.67,-558.01C358.91,-543.2 303.56,-524.55 254.5,-506 247.3,-503.28 239.91,-500.4 232.49,-497.43"/>
<polygon fill="green" stroke="green" points="233.97,-494.26 223.39,-493.76 231.35,-500.75 233.97,-494.26"/>
<text text-anchor="middle" x="378.38" y="-527.2" font-family="Times,serif" font-size="14.00">code: &#39;200&#39;</text>
</g>
<!-- PGUTF06 -->
<g id="node6" class="node">
<title>PGUTF06</title>
<polygon fill="none" stroke="black" points="541.5,-506 263.5,-506 263.5,-392 541.5,-392 541.5,-506"/>
<polygon fill="none" stroke="black" points="271.5,-475.5 271.5,-502 533.5,-502 533.5,-475.5 271.5,-475.5"/>
<text text-anchor="start" x="342.88" y="-484.7" font-family="Times,serif" font-size="14.00">PGUTF06: </text>
<text text-anchor="start" x="406.62" y="-484.7" font-family="Times,serif" font-size="14.00">Response</text>
<text text-anchor="start" x="458.38" y="-484.7" font-family="Times,serif" font-size="14.00">.</text>
<polygon fill="none" stroke="black" points="271.5,-449 271.5,-475.5 533.5,-475.5 533.5,-449 271.5,-449"/>
<text text-anchor="start" x="318.5" y="-458.2" font-family="Times,serif" font-size="14.00" fill="purple">res_msg: </text>
<text text-anchor="start" x="371.75" y="-458.2" font-family="Times,serif" font-size="14.00">&quot;Record not found.&quot;.</text>
<polygon fill="none" stroke="black" points="271.5,-422.5 271.5,-449 533.5,-449 533.5,-422.5 271.5,-422.5"/>
<text text-anchor="start" x="276.5" y="-431.7" font-family="Times,serif" font-size="14.00" fill="purple">dis_msg: </text>
<text text-anchor="start" x="329.75" y="-431.7" font-family="Times,serif" font-size="14.00">&quot;Hay un problema con el servidor.&quot;.</text>
<polygon fill="none" stroke="black" points="271.5,-396 271.5,-422.5 533.5,-422.5 533.5,-396 271.5,-396"/>
<text text-anchor="start" x="366.12" y="-405.2" font-family="Times,serif" font-size="14.00" fill="purple">type: </text>
<text text-anchor="start" x="396.88" y="-405.2" font-family="Times,serif" font-size="14.00">&quot;error&quot;.</text>
</g>
<!-- PGUTF04&#45;&gt;PGUTF06 -->
<g id="edge5" class="edge">
<title>PGUTF04&#45;&gt;PGUTF06</title>
<path fill="none" stroke="red" d="M479.24,-558.06C470.33,-545.52 459.61,-530.41 449.03,-515.53"/>
<polygon fill="red" stroke="red" points="452.01,-513.67 443.36,-507.54 446.3,-517.72 452.01,-513.67"/>
<text text-anchor="middle" x="495.38" y="-527.2" font-family="Times,serif" font-size="14.00">code: &#39;404&#39;</text>
</g>
<!-- PGUTF07 -->
<g id="node7" class="node">
<title>PGUTF07</title>
<polygon fill="none" stroke="black" points="871.75,-506 559.25,-506 559.25,-392 871.75,-392 871.75,-506"/>
<polygon fill="none" stroke="black" points="567.25,-475.5 567.25,-502 863.75,-502 863.75,-475.5 567.25,-475.5"/>
<text text-anchor="start" x="655.88" y="-484.7" font-family="Times,serif" font-size="14.00">PGUTF07: </text>
<text text-anchor="start" x="719.62" y="-484.7" font-family="Times,serif" font-size="14.00">Response</text>
<text text-anchor="start" x="771.38" y="-484.7" font-family="Times,serif" font-size="14.00">.</text>
<polygon fill="none" stroke="black" points="567.25,-449 567.25,-475.5 863.75,-475.5 863.75,-449 567.25,-449"/>
<text text-anchor="start" x="618.38" y="-458.2" font-family="Times,serif" font-size="14.00" fill="purple">res_msg: </text>
<text text-anchor="start" x="671.62" y="-458.2" font-family="Times,serif" font-size="14.00">&quot;Invalid request format.&quot;.</text>
<polygon fill="none" stroke="black" points="567.25,-422.5 567.25,-449 863.75,-449 863.75,-422.5 567.25,-422.5"/>
<text text-anchor="start" x="572.25" y="-431.7" font-family="Times,serif" font-size="14.00" fill="purple">dis_msg: </text>
<text text-anchor="start" x="625.5" y="-431.7" font-family="Times,serif" font-size="14.00">&quot;Solicitud incompleta o mal formateada.&quot;.</text>
<polygon fill="none" stroke="black" points="567.25,-396 567.25,-422.5 863.75,-422.5 863.75,-396 567.25,-396"/>
<text text-anchor="start" x="679.12" y="-405.2" font-family="Times,serif" font-size="14.00" fill="purple">type: </text>
<text text-anchor="start" x="709.88" y="-405.2" font-family="Times,serif" font-size="14.00">&quot;error&quot;.</text>
</g>
<!-- PGUTF04&#45;&gt;PGUTF07 -->
<g id="edge6" class="edge">
<title>PGUTF04&#45;&gt;PGUTF07</title>
<path fill="none" stroke="red" d="M547.15,-558.06C568.07,-544.63 593.57,-528.26 618.33,-512.37"/>
<polygon fill="red" stroke="red" points="619.97,-515.47 626.5,-507.13 616.19,-509.58 619.97,-515.47"/>
<text text-anchor="middle" x="624.38" y="-527.2" font-family="Times,serif" font-size="14.00">code: &#39;400&#39;</text>
</g>
<!-- PGUTF08 -->
<g id="node8" class="node">
<title>PGUTF08</title>
<polygon fill="none" stroke="black" points="1195,-506 890,-506 890,-392 1195,-392 1195,-506"/>
<polygon fill="none" stroke="black" points="898,-475.5 898,-502 1187,-502 1187,-475.5 898,-475.5"/>
<text text-anchor="start" x="982.88" y="-484.7" font-family="Times,serif" font-size="14.00">PGUTF08: </text>
<text text-anchor="start" x="1046.62" y="-484.7" font-family="Times,serif" font-size="14.00">Response</text>
<text text-anchor="start" x="1098.38" y="-484.7" font-family="Times,serif" font-size="14.00">.</text>
<polygon fill="none" stroke="black" points="898,-449 898,-475.5 1187,-475.5 1187,-449 898,-449"/>
<text text-anchor="start" x="946.5" y="-458.2" font-family="Times,serif" font-size="14.00" fill="purple">res_msg: </text>
<text text-anchor="start" x="999.75" y="-458.2" font-family="Times,serif" font-size="14.00">&quot;Database not available&quot;.</text>
<polygon fill="none" stroke="black" points="898,-422.5 898,-449 1187,-449 1187,-422.5 898,-422.5"/>
<text text-anchor="start" x="903" y="-431.7" font-family="Times,serif" font-size="14.00" fill="purple">dis_msg: </text>
<text text-anchor="start" x="956.25" y="-431.7" font-family="Times,serif" font-size="14.00">&quot;No hay conexión con la base de datos.&quot;.</text>
<polygon fill="none" stroke="black" points="898,-396 898,-422.5 1187,-422.5 1187,-396 898,-396"/>
<text text-anchor="start" x="1006.12" y="-405.2" font-family="Times,serif" font-size="14.00" fill="purple">type: </text>
<text text-anchor="start" x="1036.88" y="-405.2" font-family="Times,serif" font-size="14.00">&quot;error&quot;.</text>
</g>
<!-- PGUTF04&#45;&gt;PGUTF08 -->
<g id="edge7" class="edge">
<title>PGUTF04&#45;&gt;PGUTF08</title>
<path fill="none" stroke="red" d="M622.92,-565.47C694.92,-551.3 787.77,-531.43 878.54,-506.47"/>
<polygon fill="red" stroke="red" points="879.44,-509.86 888.14,-503.81 877.57,-503.11 879.44,-509.86"/>
<text text-anchor="middle" x="834.75" y="-527.2" font-family="Times,serif" font-size="14.00">code: &#39;E1&#39;</text>
</g>
<!-- PGUTF09 -->
<g id="node9" class="node">
<title>PGUTF09</title>
<polygon fill="none" stroke="black" points="197.38,-355 47.62,-355 47.62,-294 197.38,-294 197.38,-355"/>
<polygon fill="none" stroke="black" points="55.62,-324.5 55.62,-351 189.38,-351 189.38,-324.5 55.62,-324.5"/>
<text text-anchor="start" x="60.62" y="-332.7" font-family="Times,serif" font-size="14.00">PGUTF09: Redirige a:</text>
<polygon fill="none" stroke="black" points="55.62,-298 55.62,-324.5 189.38,-324.5 189.38,-298 55.62,-298"/>
<text text-anchor="start" x="100" y="-306.2" font-family="Times,serif" font-size="14.00" fill="blue">MPF55.</text>
</g>
<!-- PGUTF05&#45;&gt;PGUTF09 -->
<g id="edge11" class="edge">
<title>PGUTF05&#45;&gt;PGUTF09</title>
<path fill="none" stroke="black" d="M122.5,-404.81C122.5,-392.39 122.5,-378.87 122.5,-366.58"/>
<polygon fill="black" stroke="black" points="126,-366.76 122.5,-356.76 119,-366.76 126,-366.76"/>
</g>
<!-- PGUTF10 -->
<g id="node10" class="node">
<title>PGUTF10</title>
<polygon fill="none" stroke="black" points="847.38,-355 583.62,-355 583.62,-294 847.38,-294 847.38,-355"/>
<polygon fill="none" stroke="black" points="591.62,-324.5 591.62,-351 839.38,-351 839.38,-324.5 591.62,-324.5"/>
<text text-anchor="start" x="660" y="-333.7" font-family="Times,serif" font-size="14.00">PGUTF10: </text>
<text text-anchor="start" x="723.75" y="-333.7" font-family="Times,serif" font-size="14.00" fill="green">Sistema</text>
<text text-anchor="start" x="767.25" y="-333.7" font-family="Times,serif" font-size="14.00">.</text>
<polygon fill="none" stroke="black" points="591.62,-298 591.62,-324.5 839.38,-324.5 839.38,-298 591.62,-298"/>
<text text-anchor="start" x="596.62" y="-307.2" font-family="Times,serif" font-size="14.00" fill="green">Muestra: </text>
<text text-anchor="start" x="649.12" y="-307.2" font-family="Times,serif" font-size="14.00">&quot;MessageModal[dis_msg, type]&quot;.</text>
</g>
<!-- PGUTF06&#45;&gt;PGUTF10 -->
<g id="edge8" class="edge">
<title>PGUTF06&#45;&gt;PGUTF10</title>
<path fill="none" stroke="black" d="M541.61,-393.56C571.16,-381.99 601.54,-370.1 628.48,-359.56"/>
<polygon fill="black" stroke="black" points="629.57,-362.89 637.61,-355.98 627.02,-356.37 629.57,-362.89"/>
</g>
<!-- PGUTF07&#45;&gt;PGUTF10 -->
<g id="edge9" class="edge">
<title>PGUTF07&#45;&gt;PGUTF10</title>
<path fill="none" stroke="black" d="M715.5,-391.77C715.5,-383.32 715.5,-374.74 715.5,-366.68"/>
<polygon fill="black" stroke="black" points="719,-366.83 715.5,-356.83 712,-366.83 719,-366.83"/>
</g>
<!-- PGUTF08&#45;&gt;PGUTF10 -->
<g id="edge10" class="edge">
<title>PGUTF08&#45;&gt;PGUTF10</title>
<path fill="none" stroke="black" d="M891.92,-391.59C862.47,-380.56 832.46,-369.32 805.74,-359.31"/>
<polygon fill="black" stroke="black" points="807.3,-356.15 796.7,-355.92 804.84,-362.71 807.3,-356.15"/>
</g>
<!-- PGUTF11 -->
<g id="node11" class="node">
<title>PGUTF11</title>
<polygon fill="none" stroke="black" points="680.38,-257 458.62,-257 458.62,-196 680.38,-196 680.38,-257"/>
<polygon fill="none" stroke="black" points="466.62,-226.5 466.62,-253 672.38,-253 672.38,-226.5 466.62,-226.5"/>
<text text-anchor="start" x="520.38" y="-235.7" font-family="Times,serif" font-size="14.00">PGUTF11: </text>
<text text-anchor="start" x="584.12" y="-235.7" font-family="Times,serif" font-size="14.00" fill="blue">Actor</text>
<text text-anchor="start" x="614.88" y="-235.7" font-family="Times,serif" font-size="14.00">.</text>
<polygon fill="none" stroke="black" points="466.62,-200 466.62,-226.5 672.38,-226.5 672.38,-200 466.62,-200"/>
<text text-anchor="start" x="471.62" y="-209.2" font-family="Times,serif" font-size="14.00" fill="orange">Selecciona: </text>
<text text-anchor="start" x="537.62" y="-209.2" font-family="Times,serif" font-size="14.00">&quot;MessageModal : Yes&quot;.</text>
</g>
<!-- PGUTF10&#45;&gt;PGUTF11 -->
<g id="edge12" class="edge">
<title>PGUTF10&#45;&gt;PGUTF11</title>
<path fill="none" stroke="black" d="M670.11,-293.65C655.62,-284.12 639.43,-273.48 624.34,-263.56"/>
<polygon fill="black" stroke="black" points="626.66,-260.9 616.38,-258.33 622.82,-266.75 626.66,-260.9"/>
</g>
<!-- PGUTF12 -->
<g id="node12" class="node">
<title>PGUTF12</title>
<polygon fill="none" stroke="black" points="918.25,-257 698.75,-257 698.75,-196 918.25,-196 918.25,-257"/>
<polygon fill="none" stroke="black" points="706.75,-226.5 706.75,-253 910.25,-253 910.25,-226.5 706.75,-226.5"/>
<text text-anchor="start" x="759.38" y="-235.7" font-family="Times,serif" font-size="14.00">PGUTF12: </text>
<text text-anchor="start" x="823.12" y="-235.7" font-family="Times,serif" font-size="14.00" fill="blue">Actor</text>
<text text-anchor="start" x="853.88" y="-235.7" font-family="Times,serif" font-size="14.00">.</text>
<polygon fill="none" stroke="black" points="706.75,-200 706.75,-226.5 910.25,-226.5 910.25,-200 706.75,-200"/>
<text text-anchor="start" x="711.75" y="-209.2" font-family="Times,serif" font-size="14.00" fill="orange">Selecciona: </text>
<text text-anchor="start" x="777.75" y="-209.2" font-family="Times,serif" font-size="14.00">&quot;MessageModal : No&quot;.</text>
</g>
<!-- PGUTF10&#45;&gt;PGUTF12 -->
<g id="edge13" class="edge">
<title>PGUTF10&#45;&gt;PGUTF12</title>
<path fill="none" stroke="black" d="M744.42,-293.65C753.08,-284.71 762.69,-274.79 771.78,-265.4"/>
<polygon fill="black" stroke="black" points="774.1,-268.04 778.55,-258.42 769.08,-263.16 774.1,-268.04"/>
</g>
<!-- PGUTF13 -->
<g id="node13" class="node">
<title>PGUTF13</title>
<polygon fill="none" stroke="black" points="651.12,-159 487.88,-159 487.88,-98 651.12,-98 651.12,-159"/>
<polygon fill="none" stroke="black" points="495.88,-128.5 495.88,-155 643.12,-155 643.12,-128.5 495.88,-128.5"/>
<text text-anchor="start" x="515.88" y="-137.7" font-family="Times,serif" font-size="14.00">PGUTF13: </text>
<text text-anchor="start" x="579.62" y="-137.7" font-family="Times,serif" font-size="14.00" fill="green">Sistema</text>
<polygon fill="none" stroke="black" points="495.88,-102 495.88,-128.5 643.12,-128.5 643.12,-102 495.88,-102"/>
<text text-anchor="start" x="500.88" y="-111.2" font-family="Times,serif" font-size="14.00" fill="blue">Cierra</text>
<text text-anchor="start" x="534.62" y="-111.2" font-family="Times,serif" font-size="14.00">: &quot;MessageModal&quot;</text>
</g>
<!-- PGUTF11&#45;&gt;PGUTF13 -->
<g id="edge14" class="edge">
<title>PGUTF11&#45;&gt;PGUTF13</title>
<path fill="none" stroke="black" d="M569.5,-195.65C569.5,-187.79 569.5,-179.18 569.5,-170.83"/>
<polygon fill="black" stroke="black" points="573,-170.84 569.5,-160.84 566,-170.84 573,-170.84"/>
</g>
<!-- PGUTF15 -->
<g id="node15" class="node">
<title>PGUTF15</title>
<polygon fill="none" stroke="black" points="890.12,-159 726.88,-159 726.88,-98 890.12,-98 890.12,-159"/>
<polygon fill="none" stroke="black" points="734.88,-128.5 734.88,-155 882.12,-155 882.12,-128.5 734.88,-128.5"/>
<text text-anchor="start" x="754.88" y="-137.7" font-family="Times,serif" font-size="14.00">PGUTF15: </text>
<text text-anchor="start" x="818.62" y="-137.7" font-family="Times,serif" font-size="14.00" fill="green">Sistema</text>
<polygon fill="none" stroke="black" points="734.88,-102 734.88,-128.5 882.12,-128.5 882.12,-102 734.88,-102"/>
<text text-anchor="start" x="739.88" y="-111.2" font-family="Times,serif" font-size="14.00" fill="blue">Cierra</text>
<text text-anchor="start" x="773.62" y="-111.2" font-family="Times,serif" font-size="14.00">: &quot;MessageModal&quot;</text>
</g>
<!-- PGUTF12&#45;&gt;PGUTF15 -->
<g id="edge16" class="edge">
<title>PGUTF12&#45;&gt;PGUTF15</title>
<path fill="none" stroke="black" d="M808.5,-195.65C808.5,-187.79 808.5,-179.18 808.5,-170.83"/>
<polygon fill="black" stroke="black" points="812,-170.84 808.5,-160.84 805,-170.84 812,-170.84"/>
</g>
<!-- PGUTF14 -->
<g id="node14" class="node">
<title>PGUTF14</title>
<polygon fill="none" stroke="black" points="644.38,-61 494.62,-61 494.62,0 644.38,0 644.38,-61"/>
<polygon fill="none" stroke="black" points="502.62,-30.5 502.62,-57 636.38,-57 636.38,-30.5 502.62,-30.5"/>
<text text-anchor="start" x="507.62" y="-38.7" font-family="Times,serif" font-size="14.00">PGUTF14: Redirige a:</text>
<polygon fill="none" stroke="black" points="502.62,-4 502.62,-30.5 636.38,-30.5 636.38,-4 502.62,-4"/>
<text text-anchor="start" x="539.5" y="-12.2" font-family="Times,serif" font-size="14.00" fill="blue">PGUTF04.</text>
</g>
<!-- PGUTF13&#45;&gt;PGUTF14 -->
<g id="edge15" class="edge">
<title>PGUTF13&#45;&gt;PGUTF14</title>
<path fill="none" stroke="black" d="M569.5,-97.65C569.5,-89.79 569.5,-81.18 569.5,-72.83"/>
<polygon fill="black" stroke="black" points="573,-72.84 569.5,-62.84 566,-72.84 573,-72.84"/>
</g>
<!-- PGUTF16 -->
<g id="node16" class="node">
<title>PGUTF16</title>
<polygon fill="none" stroke="black" points="883.38,-61 733.62,-61 733.62,0 883.38,0 883.38,-61"/>
<polygon fill="none" stroke="black" points="741.62,-30.5 741.62,-57 875.38,-57 875.38,-30.5 741.62,-30.5"/>
<text text-anchor="start" x="746.62" y="-38.7" font-family="Times,serif" font-size="14.00">PGUTF16: Redirige a:</text>
<polygon fill="none" stroke="black" points="741.62,-4 741.62,-30.5 875.38,-30.5 875.38,-4 741.62,-4"/>
<text text-anchor="start" x="786" y="-12.2" font-family="Times,serif" font-size="14.00" fill="blue">MPF55.</text>
</g>
<!-- PGUTF15&#45;&gt;PGUTF16 -->
<g id="edge17" class="edge">
<title>PGUTF15&#45;&gt;PGUTF16</title>
<path fill="none" stroke="black" d="M808.5,-97.65C808.5,-89.79 808.5,-81.18 808.5,-72.83"/>
<polygon fill="black" stroke="black" points="812,-72.84 808.5,-62.84 805,-72.84 812,-72.84"/>
</g>
</g>
</svg>
