<?xml version="1.0" encoding="UTF-8" standalone="no"?>
<!DOCTYPE svg PUBLIC "-//W3C//DTD SVG 1.1//EN"
 "http://www.w3.org/Graphics/SVG/1.1/DTD/svg11.dtd">
<!-- Generated by graphviz version 9.0.0 (20230911.1827)
 -->
<!-- Title: UploadTaxesTemplateFlow Pages: 1 -->
<svg width="1175pt" height="922pt"
 viewBox="0.00 0.00 1175.12 921.50" xmlns="http://www.w3.org/2000/svg" xmlns:xlink="http://www.w3.org/1999/xlink">
<g id="graph0" class="graph" transform="scale(1 1) rotate(0) translate(4 917.5)">
<title>UploadTaxesTemplateFlow</title>
<polygon fill="white" stroke="none" points="-4,4 -4,-917.5 1171.12,-917.5 1171.12,4 -4,4"/>
<!-- TAUTF01 -->
<g id="node1" class="node">
<title>TAUTF01</title>
<polygon fill="none" stroke="black" points="543.75,-913.5 401.5,-913.5 401.5,-852.5 543.75,-852.5 543.75,-913.5"/>
<polygon fill="none" stroke="black" points="409.5,-883 409.5,-909.5 535.75,-909.5 535.75,-883 409.5,-883"/>
<text text-anchor="start" x="414.5" y="-891.2" font-family="Times,serif" font-size="14.00">TAUTF01: Viene de:</text>
<polygon fill="none" stroke="black" points="409.5,-856.5 409.5,-883 535.75,-883 535.75,-856.5 409.5,-856.5"/>
<text text-anchor="start" x="446.75" y="-864.7" font-family="Times,serif" font-size="14.00" fill="orange">MPF128.</text>
</g>
<!-- TAUTF02 -->
<g id="node2" class="node">
<title>TAUTF02</title>
<polygon fill="none" stroke="black" points="591,-815.5 354.25,-815.5 354.25,-754.5 591,-754.5 591,-815.5"/>
<polygon fill="none" stroke="black" points="362.25,-785 362.25,-811.5 583,-811.5 583,-785 362.25,-785"/>
<text text-anchor="start" x="416.75" y="-794.2" font-family="Times,serif" font-size="14.00">TAUTF02: </text>
<text text-anchor="start" x="481.25" y="-794.2" font-family="Times,serif" font-size="14.00" fill="green">Sistema</text>
<text text-anchor="start" x="524.75" y="-794.2" font-family="Times,serif" font-size="14.00">.</text>
<polygon fill="none" stroke="black" points="362.25,-758.5 362.25,-785 583,-785 583,-758.5 362.25,-758.5"/>
<text text-anchor="start" x="367.25" y="-767.7" font-family="Times,serif" font-size="14.00" fill="green">Muestra: </text>
<text text-anchor="start" x="419.75" y="-767.7" font-family="Times,serif" font-size="14.00">&quot;UploadFileModal(&#39;Taxes&#39;)&quot;.</text>
</g>
<!-- TAUTF01&#45;&gt;TAUTF02 -->
<g id="edge1" class="edge">
<title>TAUTF01&#45;&gt;TAUTF02</title>
<path fill="none" stroke="black" d="M472.62,-852.15C472.62,-844.29 472.62,-835.68 472.62,-827.33"/>
<polygon fill="black" stroke="black" points="476.13,-827.34 472.63,-817.34 469.13,-827.34 476.13,-827.34"/>
</g>
<!-- TAUTF03 -->
<g id="node3" class="node">
<title>TAUTF03</title>
<polygon fill="none" stroke="black" points="601.88,-717.5 343.38,-717.5 343.38,-656.5 601.88,-656.5 601.88,-717.5"/>
<polygon fill="none" stroke="black" points="351.38,-687 351.38,-713.5 593.88,-713.5 593.88,-687 351.38,-687"/>
<text text-anchor="start" x="423.12" y="-696.2" font-family="Times,serif" font-size="14.00">TAUTF03: </text>
<text text-anchor="start" x="487.62" y="-696.2" font-family="Times,serif" font-size="14.00" fill="blue">Actor</text>
<text text-anchor="start" x="518.38" y="-696.2" font-family="Times,serif" font-size="14.00">.</text>
<polygon fill="none" stroke="black" points="351.38,-660.5 351.38,-687 593.88,-687 593.88,-660.5 351.38,-660.5"/>
<text text-anchor="start" x="356.38" y="-669.7" font-family="Times,serif" font-size="14.00" fill="orange">Selecciona: </text>
<text text-anchor="start" x="422.38" y="-669.7" font-family="Times,serif" font-size="14.00">&quot;Cargar Archivo [&#39;taxes.csv&#39;]&quot;.</text>
</g>
<!-- TAUTF02&#45;&gt;TAUTF03 -->
<g id="edge2" class="edge">
<title>TAUTF02&#45;&gt;TAUTF03</title>
<path fill="none" stroke="black" d="M472.62,-754.15C472.62,-746.29 472.62,-737.68 472.62,-729.33"/>
<polygon fill="black" stroke="black" points="476.13,-729.34 472.63,-719.34 469.13,-729.34 476.13,-729.34"/>
</g>
<!-- TAUTF04 -->
<g id="node4" class="node">
<title>TAUTF04</title>
<polygon fill="none" stroke="black" points="581.25,-619.5 364,-619.5 364,-558.5 581.25,-558.5 581.25,-619.5"/>
<polygon fill="none" stroke="black" points="372,-589 372,-615.5 573.25,-615.5 573.25,-589 372,-589"/>
<text text-anchor="start" x="416.75" y="-598.2" font-family="Times,serif" font-size="14.00">TAUTF04: </text>
<text text-anchor="start" x="481.25" y="-598.2" font-family="Times,serif" font-size="14.00" fill="green">Sistema</text>
<text text-anchor="start" x="524.75" y="-598.2" font-family="Times,serif" font-size="14.00">.</text>
<polygon fill="none" stroke="black" points="372,-562.5 372,-589 573.25,-589 573.25,-562.5 372,-562.5"/>
<text text-anchor="start" x="377" y="-571.7" font-family="Times,serif" font-size="14.00" fill="blue">Ejecuta: </text>
<text text-anchor="start" x="425" y="-571.7" font-family="Times,serif" font-size="14.00">&quot;Upload File(&#39;taxes.csv&#39;)&quot;.</text>
</g>
<!-- TAUTF03&#45;&gt;TAUTF04 -->
<g id="edge3" class="edge">
<title>TAUTF03&#45;&gt;TAUTF04</title>
<path fill="none" stroke="black" d="M472.62,-656.15C472.62,-648.29 472.62,-639.68 472.62,-631.33"/>
<polygon fill="black" stroke="black" points="476.13,-631.34 472.63,-621.34 469.13,-631.34 476.13,-631.34"/>
</g>
<!-- TAUTF05 -->
<g id="node5" class="node">
<title>TAUTF05</title>
<polygon fill="none" stroke="black" points="217.25,-492.75 0,-492.75 0,-405.25 217.25,-405.25 217.25,-492.75"/>
<polygon fill="none" stroke="black" points="8,-462.25 8,-488.75 209.25,-488.75 209.25,-462.25 8,-462.25"/>
<text text-anchor="start" x="48.62" y="-471.45" font-family="Times,serif" font-size="14.00">TAUTF05: </text>
<text text-anchor="start" x="113.12" y="-471.45" font-family="Times,serif" font-size="14.00">Response</text>
<text text-anchor="start" x="164.88" y="-471.45" font-family="Times,serif" font-size="14.00">.</text>
<polygon fill="none" stroke="black" points="8,-435.75 8,-462.25 209.25,-462.25 209.25,-435.75 8,-435.75"/>
<text text-anchor="start" x="52.75" y="-444.95" font-family="Times,serif" font-size="14.00" fill="purple">res_msg: </text>
<text text-anchor="start" x="106" y="-444.95" font-family="Times,serif" font-size="14.00">&quot;Success&quot;.</text>
<polygon fill="none" stroke="black" points="8,-409.25 8,-435.75 209.25,-435.75 209.25,-409.25 8,-409.25"/>
<text text-anchor="start" x="13" y="-418.45" font-family="Times,serif" font-size="14.00" fill="purple">res_obj: </text>
<text text-anchor="start" x="60.25" y="-418.45" font-family="Times,serif" font-size="14.00">&quot;TaxesUploadResult.csv&quot;.</text>
</g>
<!-- TAUTF04&#45;&gt;TAUTF05 -->
<g id="edge4" class="edge">
<title>TAUTF04&#45;&gt;TAUTF05</title>
<path fill="none" stroke="green" d="M373.77,-558.07C328.47,-543.59 274.34,-525.19 226.62,-506 220.21,-503.42 213.64,-500.66 207.05,-497.79"/>
<polygon fill="green" stroke="green" points="208.65,-494.67 198.09,-493.83 205.82,-501.08 208.65,-494.67"/>
<text text-anchor="middle" x="349.5" y="-527.2" font-family="Times,serif" font-size="14.00">code: &#39;200&#39;</text>
</g>
<!-- TAUTF06 -->
<g id="node6" class="node">
<title>TAUTF06</title>
<polygon fill="none" stroke="black" points="513.62,-506 235.62,-506 235.62,-392 513.62,-392 513.62,-506"/>
<polygon fill="none" stroke="black" points="243.62,-475.5 243.62,-502 505.62,-502 505.62,-475.5 243.62,-475.5"/>
<text text-anchor="start" x="314.62" y="-484.7" font-family="Times,serif" font-size="14.00">TAUTF06: </text>
<text text-anchor="start" x="379.12" y="-484.7" font-family="Times,serif" font-size="14.00">Response</text>
<text text-anchor="start" x="430.88" y="-484.7" font-family="Times,serif" font-size="14.00">.</text>
<polygon fill="none" stroke="black" points="243.62,-449 243.62,-475.5 505.62,-475.5 505.62,-449 243.62,-449"/>
<text text-anchor="start" x="290.62" y="-458.2" font-family="Times,serif" font-size="14.00" fill="purple">res_msg: </text>
<text text-anchor="start" x="343.88" y="-458.2" font-family="Times,serif" font-size="14.00">&quot;Record not found.&quot;.</text>
<polygon fill="none" stroke="black" points="243.62,-422.5 243.62,-449 505.62,-449 505.62,-422.5 243.62,-422.5"/>
<text text-anchor="start" x="248.62" y="-431.7" font-family="Times,serif" font-size="14.00" fill="purple">dis_msg: </text>
<text text-anchor="start" x="301.88" y="-431.7" font-family="Times,serif" font-size="14.00">&quot;Hay un problema con el servidor.&quot;.</text>
<polygon fill="none" stroke="black" points="243.62,-396 243.62,-422.5 505.62,-422.5 505.62,-396 243.62,-396"/>
<text text-anchor="start" x="338.25" y="-405.2" font-family="Times,serif" font-size="14.00" fill="purple">type: </text>
<text text-anchor="start" x="369" y="-405.2" font-family="Times,serif" font-size="14.00">&quot;error&quot;.</text>
</g>
<!-- TAUTF04&#45;&gt;TAUTF06 -->
<g id="edge5" class="edge">
<title>TAUTF04&#45;&gt;TAUTF06</title>
<path fill="none" stroke="red" d="M451.36,-558.06C442.46,-545.52 431.73,-530.41 421.16,-515.53"/>
<polygon fill="red" stroke="red" points="424.13,-513.67 415.49,-507.54 418.43,-517.72 424.13,-513.67"/>
<text text-anchor="middle" x="467.5" y="-527.2" font-family="Times,serif" font-size="14.00">code: &#39;404&#39;</text>
</g>
<!-- TAUTF07 -->
<g id="node7" class="node">
<title>TAUTF07</title>
<polygon fill="none" stroke="black" points="843.88,-506 531.38,-506 531.38,-392 843.88,-392 843.88,-506"/>
<polygon fill="none" stroke="black" points="539.38,-475.5 539.38,-502 835.88,-502 835.88,-475.5 539.38,-475.5"/>
<text text-anchor="start" x="627.62" y="-484.7" font-family="Times,serif" font-size="14.00">TAUTF07: </text>
<text text-anchor="start" x="692.12" y="-484.7" font-family="Times,serif" font-size="14.00">Response</text>
<text text-anchor="start" x="743.88" y="-484.7" font-family="Times,serif" font-size="14.00">.</text>
<polygon fill="none" stroke="black" points="539.38,-449 539.38,-475.5 835.88,-475.5 835.88,-449 539.38,-449"/>
<text text-anchor="start" x="590.5" y="-458.2" font-family="Times,serif" font-size="14.00" fill="purple">res_msg: </text>
<text text-anchor="start" x="643.75" y="-458.2" font-family="Times,serif" font-size="14.00">&quot;Invalid request format.&quot;.</text>
<polygon fill="none" stroke="black" points="539.38,-422.5 539.38,-449 835.88,-449 835.88,-422.5 539.38,-422.5"/>
<text text-anchor="start" x="544.38" y="-431.7" font-family="Times,serif" font-size="14.00" fill="purple">dis_msg: </text>
<text text-anchor="start" x="597.62" y="-431.7" font-family="Times,serif" font-size="14.00">&quot;Solicitud incompleta o mal formateada.&quot;.</text>
<polygon fill="none" stroke="black" points="539.38,-396 539.38,-422.5 835.88,-422.5 835.88,-396 539.38,-396"/>
<text text-anchor="start" x="651.25" y="-405.2" font-family="Times,serif" font-size="14.00" fill="purple">type: </text>
<text text-anchor="start" x="682" y="-405.2" font-family="Times,serif" font-size="14.00">&quot;error&quot;.</text>
</g>
<!-- TAUTF04&#45;&gt;TAUTF07 -->
<g id="edge6" class="edge">
<title>TAUTF04&#45;&gt;TAUTF07</title>
<path fill="none" stroke="red" d="M519.28,-558.06C540.19,-544.63 565.69,-528.26 590.45,-512.37"/>
<polygon fill="red" stroke="red" points="592.1,-515.47 598.62,-507.13 588.32,-509.58 592.1,-515.47"/>
<text text-anchor="middle" x="596.5" y="-527.2" font-family="Times,serif" font-size="14.00">code: &#39;400&#39;</text>
</g>
<!-- TAUTF08 -->
<g id="node8" class="node">
<title>TAUTF08</title>
<polygon fill="none" stroke="black" points="1167.12,-506 862.12,-506 862.12,-392 1167.12,-392 1167.12,-506"/>
<polygon fill="none" stroke="black" points="870.12,-475.5 870.12,-502 1159.12,-502 1159.12,-475.5 870.12,-475.5"/>
<text text-anchor="start" x="954.62" y="-484.7" font-family="Times,serif" font-size="14.00">TAUTF08: </text>
<text text-anchor="start" x="1019.12" y="-484.7" font-family="Times,serif" font-size="14.00">Response</text>
<text text-anchor="start" x="1070.88" y="-484.7" font-family="Times,serif" font-size="14.00">.</text>
<polygon fill="none" stroke="black" points="870.12,-449 870.12,-475.5 1159.12,-475.5 1159.12,-449 870.12,-449"/>
<text text-anchor="start" x="918.62" y="-458.2" font-family="Times,serif" font-size="14.00" fill="purple">res_msg: </text>
<text text-anchor="start" x="971.88" y="-458.2" font-family="Times,serif" font-size="14.00">&quot;Database not available&quot;.</text>
<polygon fill="none" stroke="black" points="870.12,-422.5 870.12,-449 1159.12,-449 1159.12,-422.5 870.12,-422.5"/>
<text text-anchor="start" x="875.12" y="-431.7" font-family="Times,serif" font-size="14.00" fill="purple">dis_msg: </text>
<text text-anchor="start" x="928.38" y="-431.7" font-family="Times,serif" font-size="14.00">&quot;No hay conexión con la base de datos.&quot;.</text>
<polygon fill="none" stroke="black" points="870.12,-396 870.12,-422.5 1159.12,-422.5 1159.12,-396 870.12,-396"/>
<text text-anchor="start" x="978.25" y="-405.2" font-family="Times,serif" font-size="14.00" fill="purple">type: </text>
<text text-anchor="start" x="1009" y="-405.2" font-family="Times,serif" font-size="14.00">&quot;error&quot;.</text>
</g>
<!-- TAUTF04&#45;&gt;TAUTF08 -->
<g id="edge7" class="edge">
<title>TAUTF04&#45;&gt;TAUTF08</title>
<path fill="none" stroke="red" d="M581.58,-568.1C655.18,-553.82 754.58,-532.89 850.63,-506.48"/>
<polygon fill="red" stroke="red" points="851.56,-509.85 860.26,-503.81 849.69,-503.11 851.56,-509.85"/>
<text text-anchor="middle" x="806.88" y="-527.2" font-family="Times,serif" font-size="14.00">code: &#39;E1&#39;</text>
</g>
<!-- TAUTF09 -->
<g id="node9" class="node">
<title>TAUTF09</title>
<polygon fill="none" stroke="black" points="183.88,-355 33.38,-355 33.38,-294 183.88,-294 183.88,-355"/>
<polygon fill="none" stroke="black" points="41.38,-324.5 41.38,-351 175.88,-351 175.88,-324.5 41.38,-324.5"/>
<text text-anchor="start" x="46.38" y="-332.7" font-family="Times,serif" font-size="14.00">TAUTF09: Redirige a:</text>
<polygon fill="none" stroke="black" points="41.38,-298 41.38,-324.5 175.88,-324.5 175.88,-298 41.38,-298"/>
<text text-anchor="start" x="86.12" y="-306.2" font-family="Times,serif" font-size="14.00" fill="blue">MPF68.</text>
</g>
<!-- TAUTF05&#45;&gt;TAUTF09 -->
<g id="edge11" class="edge">
<title>TAUTF05&#45;&gt;TAUTF09</title>
<path fill="none" stroke="black" d="M108.62,-404.81C108.62,-392.39 108.62,-378.87 108.62,-366.58"/>
<polygon fill="black" stroke="black" points="112.13,-366.76 108.63,-356.76 105.13,-366.76 112.13,-366.76"/>
</g>
<!-- TAUTF10 -->
<g id="node10" class="node">
<title>TAUTF10</title>
<polygon fill="none" stroke="black" points="819.5,-355 555.75,-355 555.75,-294 819.5,-294 819.5,-355"/>
<polygon fill="none" stroke="black" points="563.75,-324.5 563.75,-351 811.5,-351 811.5,-324.5 563.75,-324.5"/>
<text text-anchor="start" x="631.75" y="-333.7" font-family="Times,serif" font-size="14.00">TAUTF10: </text>
<text text-anchor="start" x="696.25" y="-333.7" font-family="Times,serif" font-size="14.00" fill="green">Sistema</text>
<text text-anchor="start" x="739.75" y="-333.7" font-family="Times,serif" font-size="14.00">.</text>
<polygon fill="none" stroke="black" points="563.75,-298 563.75,-324.5 811.5,-324.5 811.5,-298 563.75,-298"/>
<text text-anchor="start" x="568.75" y="-307.2" font-family="Times,serif" font-size="14.00" fill="green">Muestra: </text>
<text text-anchor="start" x="621.25" y="-307.2" font-family="Times,serif" font-size="14.00">&quot;MessageModal[dis_msg, type]&quot;.</text>
</g>
<!-- TAUTF06&#45;&gt;TAUTF10 -->
<g id="edge8" class="edge">
<title>TAUTF06&#45;&gt;TAUTF10</title>
<path fill="none" stroke="black" d="M513.73,-393.56C543.28,-381.99 573.67,-370.1 600.61,-359.56"/>
<polygon fill="black" stroke="black" points="601.7,-362.89 609.73,-355.98 599.15,-356.37 601.7,-362.89"/>
</g>
<!-- TAUTF07&#45;&gt;TAUTF10 -->
<g id="edge9" class="edge">
<title>TAUTF07&#45;&gt;TAUTF10</title>
<path fill="none" stroke="black" d="M687.62,-391.77C687.62,-383.32 687.62,-374.74 687.62,-366.68"/>
<polygon fill="black" stroke="black" points="691.13,-366.83 687.63,-356.83 684.13,-366.83 691.13,-366.83"/>
</g>
<!-- TAUTF08&#45;&gt;TAUTF10 -->
<g id="edge10" class="edge">
<title>TAUTF08&#45;&gt;TAUTF10</title>
<path fill="none" stroke="black" d="M864.05,-391.59C834.6,-380.56 804.59,-369.32 777.87,-359.31"/>
<polygon fill="black" stroke="black" points="779.42,-356.15 768.83,-355.92 776.97,-362.71 779.42,-356.15"/>
</g>
<!-- TAUTF11 -->
<g id="node11" class="node">
<title>TAUTF11</title>
<polygon fill="none" stroke="black" points="652.5,-257 430.75,-257 430.75,-196 652.5,-196 652.5,-257"/>
<polygon fill="none" stroke="black" points="438.75,-226.5 438.75,-253 644.5,-253 644.5,-226.5 438.75,-226.5"/>
<text text-anchor="start" x="492.12" y="-235.7" font-family="Times,serif" font-size="14.00">TAUTF11: </text>
<text text-anchor="start" x="556.62" y="-235.7" font-family="Times,serif" font-size="14.00" fill="blue">Actor</text>
<text text-anchor="start" x="587.38" y="-235.7" font-family="Times,serif" font-size="14.00">.</text>
<polygon fill="none" stroke="black" points="438.75,-200 438.75,-226.5 644.5,-226.5 644.5,-200 438.75,-200"/>
<text text-anchor="start" x="443.75" y="-209.2" font-family="Times,serif" font-size="14.00" fill="orange">Selecciona: </text>
<text text-anchor="start" x="509.75" y="-209.2" font-family="Times,serif" font-size="14.00">&quot;MessageModal : Yes&quot;.</text>
</g>
<!-- TAUTF10&#45;&gt;TAUTF11 -->
<g id="edge12" class="edge">
<title>TAUTF10&#45;&gt;TAUTF11</title>
<path fill="none" stroke="black" d="M642.23,-293.65C627.74,-284.12 611.55,-273.48 596.47,-263.56"/>
<polygon fill="black" stroke="black" points="598.79,-260.9 588.51,-258.33 594.94,-266.75 598.79,-260.9"/>
</g>
<!-- TAUTF12 -->
<g id="node12" class="node">
<title>TAUTF12</title>
<polygon fill="none" stroke="black" points="890.38,-257 670.88,-257 670.88,-196 890.38,-196 890.38,-257"/>
<polygon fill="none" stroke="black" points="678.88,-226.5 678.88,-253 882.38,-253 882.38,-226.5 678.88,-226.5"/>
<text text-anchor="start" x="731.12" y="-235.7" font-family="Times,serif" font-size="14.00">TAUTF12: </text>
<text text-anchor="start" x="795.62" y="-235.7" font-family="Times,serif" font-size="14.00" fill="blue">Actor</text>
<text text-anchor="start" x="826.38" y="-235.7" font-family="Times,serif" font-size="14.00">.</text>
<polygon fill="none" stroke="black" points="678.88,-200 678.88,-226.5 882.38,-226.5 882.38,-200 678.88,-200"/>
<text text-anchor="start" x="683.88" y="-209.2" font-family="Times,serif" font-size="14.00" fill="orange">Selecciona: </text>
<text text-anchor="start" x="749.88" y="-209.2" font-family="Times,serif" font-size="14.00">&quot;MessageModal : No&quot;.</text>
</g>
<!-- TAUTF10&#45;&gt;TAUTF12 -->
<g id="edge13" class="edge">
<title>TAUTF10&#45;&gt;TAUTF12</title>
<path fill="none" stroke="black" d="M716.54,-293.65C725.2,-284.71 734.82,-274.79 743.91,-265.4"/>
<polygon fill="black" stroke="black" points="746.23,-268.04 750.67,-258.42 741.2,-263.16 746.23,-268.04"/>
</g>
<!-- TAUTF13 -->
<g id="node13" class="node">
<title>TAUTF13</title>
<polygon fill="none" stroke="black" points="623.25,-159 460,-159 460,-98 623.25,-98 623.25,-159"/>
<polygon fill="none" stroke="black" points="468,-128.5 468,-155 615.25,-155 615.25,-128.5 468,-128.5"/>
<text text-anchor="start" x="487.62" y="-137.7" font-family="Times,serif" font-size="14.00">TAUTF13: </text>
<text text-anchor="start" x="552.12" y="-137.7" font-family="Times,serif" font-size="14.00" fill="green">Sistema</text>
<polygon fill="none" stroke="black" points="468,-102 468,-128.5 615.25,-128.5 615.25,-102 468,-102"/>
<text text-anchor="start" x="473" y="-111.2" font-family="Times,serif" font-size="14.00" fill="blue">Cierra</text>
<text text-anchor="start" x="506.75" y="-111.2" font-family="Times,serif" font-size="14.00">: &quot;MessageModal&quot;</text>
</g>
<!-- TAUTF11&#45;&gt;TAUTF13 -->
<g id="edge14" class="edge">
<title>TAUTF11&#45;&gt;TAUTF13</title>
<path fill="none" stroke="black" d="M541.62,-195.65C541.62,-187.79 541.62,-179.18 541.62,-170.83"/>
<polygon fill="black" stroke="black" points="545.13,-170.84 541.63,-160.84 538.13,-170.84 545.13,-170.84"/>
</g>
<!-- TAUTF15 -->
<g id="node15" class="node">
<title>TAUTF15</title>
<polygon fill="none" stroke="black" points="862.25,-159 699,-159 699,-98 862.25,-98 862.25,-159"/>
<polygon fill="none" stroke="black" points="707,-128.5 707,-155 854.25,-155 854.25,-128.5 707,-128.5"/>
<text text-anchor="start" x="726.62" y="-137.7" font-family="Times,serif" font-size="14.00">TAUTF15: </text>
<text text-anchor="start" x="791.12" y="-137.7" font-family="Times,serif" font-size="14.00" fill="green">Sistema</text>
<polygon fill="none" stroke="black" points="707,-102 707,-128.5 854.25,-128.5 854.25,-102 707,-102"/>
<text text-anchor="start" x="712" y="-111.2" font-family="Times,serif" font-size="14.00" fill="blue">Cierra</text>
<text text-anchor="start" x="745.75" y="-111.2" font-family="Times,serif" font-size="14.00">: &quot;MessageModal&quot;</text>
</g>
<!-- TAUTF12&#45;&gt;TAUTF15 -->
<g id="edge16" class="edge">
<title>TAUTF12&#45;&gt;TAUTF15</title>
<path fill="none" stroke="black" d="M780.62,-195.65C780.62,-187.79 780.62,-179.18 780.62,-170.83"/>
<polygon fill="black" stroke="black" points="784.13,-170.84 780.63,-160.84 777.13,-170.84 784.13,-170.84"/>
</g>
<!-- TAUTF14 -->
<g id="node14" class="node">
<title>TAUTF14</title>
<polygon fill="none" stroke="black" points="616.88,-61 466.38,-61 466.38,0 616.88,0 616.88,-61"/>
<polygon fill="none" stroke="black" points="474.38,-30.5 474.38,-57 608.88,-57 608.88,-30.5 474.38,-30.5"/>
<text text-anchor="start" x="479.38" y="-38.7" font-family="Times,serif" font-size="14.00">TAUTF14: Redirige a:</text>
<polygon fill="none" stroke="black" points="474.38,-4 474.38,-30.5 608.88,-30.5 608.88,-4 474.38,-4"/>
<text text-anchor="start" x="511.25" y="-12.2" font-family="Times,serif" font-size="14.00" fill="blue">TAUTF04.</text>
</g>
<!-- TAUTF13&#45;&gt;TAUTF14 -->
<g id="edge15" class="edge">
<title>TAUTF13&#45;&gt;TAUTF14</title>
<path fill="none" stroke="black" d="M541.62,-97.65C541.62,-89.79 541.62,-81.18 541.62,-72.83"/>
<polygon fill="black" stroke="black" points="545.13,-72.84 541.63,-62.84 538.13,-72.84 545.13,-72.84"/>
</g>
<!-- TAUTF16 -->
<g id="node16" class="node">
<title>TAUTF16</title>
<polygon fill="none" stroke="black" points="855.88,-61 705.38,-61 705.38,0 855.88,0 855.88,-61"/>
<polygon fill="none" stroke="black" points="713.38,-30.5 713.38,-57 847.88,-57 847.88,-30.5 713.38,-30.5"/>
<text text-anchor="start" x="718.38" y="-38.7" font-family="Times,serif" font-size="14.00">TAUTF16: Redirige a:</text>
<polygon fill="none" stroke="black" points="713.38,-4 713.38,-30.5 847.88,-30.5 847.88,-4 713.38,-4"/>
<text text-anchor="start" x="758.12" y="-12.2" font-family="Times,serif" font-size="14.00" fill="blue">MPF68.</text>
</g>
<!-- TAUTF15&#45;&gt;TAUTF16 -->
<g id="edge17" class="edge">
<title>TAUTF15&#45;&gt;TAUTF16</title>
<path fill="none" stroke="black" d="M780.62,-97.65C780.62,-89.79 780.62,-81.18 780.62,-72.83"/>
<polygon fill="black" stroke="black" points="784.13,-72.84 780.63,-62.84 777.13,-72.84 784.13,-72.84"/>
</g>
</g>
</svg>
