<?xml version="1.0" encoding="UTF-8" standalone="no"?>
<!DOCTYPE svg PUBLIC "-//W3C//DTD SVG 1.1//EN"
 "http://www.w3.org/Graphics/SVG/1.1/DTD/svg11.dtd">
<!-- Generated by graphviz version 9.0.0 (20230911.1827)
 -->
<!-- Title: UploadCategoriesTemplateFlow Pages: 1 -->
<svg width="1200pt" height="922pt"
 viewBox="0.00 0.00 1199.88 921.50" xmlns="http://www.w3.org/2000/svg" xmlns:xlink="http://www.w3.org/1999/xlink">
<g id="graph0" class="graph" transform="scale(1 1) rotate(0) translate(4 917.5)">
<title>UploadCategoriesTemplateFlow</title>
<polygon fill="white" stroke="none" points="-4,4 -4,-917.5 1195.88,-917.5 1195.88,4 -4,4"/>
<!-- CAUTF01 -->
<g id="node1" class="node">
<title>CAUTF01</title>
<polygon fill="none" stroke="black" points="568.88,-913.5 425.88,-913.5 425.88,-852.5 568.88,-852.5 568.88,-913.5"/>
<polygon fill="none" stroke="black" points="433.88,-883 433.88,-909.5 560.88,-909.5 560.88,-883 433.88,-883"/>
<text text-anchor="start" x="438.88" y="-891.2" font-family="Times,serif" font-size="14.00">CAUTF01: Viene de:</text>
<polygon fill="none" stroke="black" points="433.88,-856.5 433.88,-883 560.88,-883 560.88,-856.5 433.88,-856.5"/>
<text text-anchor="start" x="471.5" y="-864.7" font-family="Times,serif" font-size="14.00" fill="orange">MPF128.</text>
</g>
<!-- CAUTF02 -->
<g id="node2" class="node">
<title>CAUTF02</title>
<polygon fill="none" stroke="black" points="628.5,-815.5 366.25,-815.5 366.25,-754.5 628.5,-754.5 628.5,-815.5"/>
<polygon fill="none" stroke="black" points="374.25,-785 374.25,-811.5 620.5,-811.5 620.5,-785 374.25,-785"/>
<text text-anchor="start" x="441.12" y="-794.2" font-family="Times,serif" font-size="14.00">CAUTF02: </text>
<text text-anchor="start" x="506.38" y="-794.2" font-family="Times,serif" font-size="14.00" fill="green">Sistema</text>
<text text-anchor="start" x="549.88" y="-794.2" font-family="Times,serif" font-size="14.00">.</text>
<polygon fill="none" stroke="black" points="374.25,-758.5 374.25,-785 620.5,-785 620.5,-758.5 374.25,-758.5"/>
<text text-anchor="start" x="379.25" y="-767.7" font-family="Times,serif" font-size="14.00" fill="green">Muestra: </text>
<text text-anchor="start" x="431.75" y="-767.7" font-family="Times,serif" font-size="14.00">&quot;UploadFileModal(&#39;Categories&#39;)&quot;.</text>
</g>
<!-- CAUTF01&#45;&gt;CAUTF02 -->
<g id="edge1" class="edge">
<title>CAUTF01&#45;&gt;CAUTF02</title>
<path fill="none" stroke="black" d="M497.38,-852.15C497.38,-844.29 497.38,-835.68 497.38,-827.33"/>
<polygon fill="black" stroke="black" points="500.88,-827.34 497.38,-817.34 493.88,-827.34 500.88,-827.34"/>
</g>
<!-- CAUTF03 -->
<g id="node3" class="node">
<title>CAUTF03</title>
<polygon fill="none" stroke="black" points="640.12,-717.5 354.62,-717.5 354.62,-656.5 640.12,-656.5 640.12,-717.5"/>
<polygon fill="none" stroke="black" points="362.62,-687 362.62,-713.5 632.12,-713.5 632.12,-687 362.62,-687"/>
<text text-anchor="start" x="447.5" y="-696.2" font-family="Times,serif" font-size="14.00">CAUTF03: </text>
<text text-anchor="start" x="512.75" y="-696.2" font-family="Times,serif" font-size="14.00" fill="blue">Actor</text>
<text text-anchor="start" x="543.5" y="-696.2" font-family="Times,serif" font-size="14.00">.</text>
<polygon fill="none" stroke="black" points="362.62,-660.5 362.62,-687 632.12,-687 632.12,-660.5 362.62,-660.5"/>
<text text-anchor="start" x="367.62" y="-669.7" font-family="Times,serif" font-size="14.00" fill="orange">Selecciona: </text>
<text text-anchor="start" x="433.62" y="-669.7" font-family="Times,serif" font-size="14.00">&quot;Cargar Archivo [&#39;categories.csv&#39;]&quot;.</text>
</g>
<!-- CAUTF02&#45;&gt;CAUTF03 -->
<g id="edge2" class="edge">
<title>CAUTF02&#45;&gt;CAUTF03</title>
<path fill="none" stroke="black" d="M497.38,-754.15C497.38,-746.29 497.38,-737.68 497.38,-729.33"/>
<polygon fill="black" stroke="black" points="500.88,-729.34 497.38,-719.34 493.88,-729.34 500.88,-729.34"/>
</g>
<!-- CAUTF04 -->
<g id="node4" class="node">
<title>CAUTF04</title>
<polygon fill="none" stroke="black" points="619.5,-619.5 375.25,-619.5 375.25,-558.5 619.5,-558.5 619.5,-619.5"/>
<polygon fill="none" stroke="black" points="383.25,-589 383.25,-615.5 611.5,-615.5 611.5,-589 383.25,-589"/>
<text text-anchor="start" x="441.12" y="-598.2" font-family="Times,serif" font-size="14.00">CAUTF04: </text>
<text text-anchor="start" x="506.38" y="-598.2" font-family="Times,serif" font-size="14.00" fill="green">Sistema</text>
<text text-anchor="start" x="549.88" y="-598.2" font-family="Times,serif" font-size="14.00">.</text>
<polygon fill="none" stroke="black" points="383.25,-562.5 383.25,-589 611.5,-589 611.5,-562.5 383.25,-562.5"/>
<text text-anchor="start" x="388.25" y="-571.7" font-family="Times,serif" font-size="14.00" fill="blue">Ejecuta: </text>
<text text-anchor="start" x="436.25" y="-571.7" font-family="Times,serif" font-size="14.00">&quot;Upload File(&#39;categories.csv&#39;)&quot;.</text>
</g>
<!-- CAUTF03&#45;&gt;CAUTF04 -->
<g id="edge3" class="edge">
<title>CAUTF03&#45;&gt;CAUTF04</title>
<path fill="none" stroke="black" d="M497.38,-656.15C497.38,-648.29 497.38,-639.68 497.38,-631.33"/>
<polygon fill="black" stroke="black" points="500.88,-631.34 497.38,-621.34 493.88,-631.34 500.88,-631.34"/>
</g>
<!-- CAUTF05 -->
<g id="node5" class="node">
<title>CAUTF05</title>
<polygon fill="none" stroke="black" points="242.75,-492.75 0,-492.75 0,-405.25 242.75,-405.25 242.75,-492.75"/>
<polygon fill="none" stroke="black" points="8,-462.25 8,-488.75 234.75,-488.75 234.75,-462.25 8,-462.25"/>
<text text-anchor="start" x="61" y="-471.45" font-family="Times,serif" font-size="14.00">CAUTF05: </text>
<text text-anchor="start" x="126.25" y="-471.45" font-family="Times,serif" font-size="14.00">Response</text>
<text text-anchor="start" x="178" y="-471.45" font-family="Times,serif" font-size="14.00">.</text>
<polygon fill="none" stroke="black" points="8,-435.75 8,-462.25 234.75,-462.25 234.75,-435.75 8,-435.75"/>
<text text-anchor="start" x="65.5" y="-444.95" font-family="Times,serif" font-size="14.00" fill="purple">res_msg: </text>
<text text-anchor="start" x="118.75" y="-444.95" font-family="Times,serif" font-size="14.00">&quot;Success&quot;.</text>
<polygon fill="none" stroke="black" points="8,-409.25 8,-435.75 234.75,-435.75 234.75,-409.25 8,-409.25"/>
<text text-anchor="start" x="13" y="-418.45" font-family="Times,serif" font-size="14.00" fill="purple">res_obj: </text>
<text text-anchor="start" x="60.25" y="-418.45" font-family="Times,serif" font-size="14.00">&quot;CategoriesUploadResult.csv&quot;.</text>
</g>
<!-- CAUTF04&#45;&gt;CAUTF05 -->
<g id="edge4" class="edge">
<title>CAUTF04&#45;&gt;CAUTF05</title>
<path fill="none" stroke="green" d="M401.2,-558.04C355.49,-543.26 300.28,-524.64 251.38,-506 244.36,-503.32 237.16,-500.49 229.93,-497.57"/>
<polygon fill="green" stroke="green" points="231.31,-494.35 220.72,-493.81 228.66,-500.83 231.31,-494.35"/>
<text text-anchor="middle" x="374.25" y="-527.2" font-family="Times,serif" font-size="14.00">code: &#39;200&#39;</text>
</g>
<!-- CAUTF06 -->
<g id="node6" class="node">
<title>CAUTF06</title>
<polygon fill="none" stroke="black" points="538.38,-506 260.38,-506 260.38,-392 538.38,-392 538.38,-506"/>
<polygon fill="none" stroke="black" points="268.38,-475.5 268.38,-502 530.38,-502 530.38,-475.5 268.38,-475.5"/>
<text text-anchor="start" x="339" y="-484.7" font-family="Times,serif" font-size="14.00">CAUTF06: </text>
<text text-anchor="start" x="404.25" y="-484.7" font-family="Times,serif" font-size="14.00">Response</text>
<text text-anchor="start" x="456" y="-484.7" font-family="Times,serif" font-size="14.00">.</text>
<polygon fill="none" stroke="black" points="268.38,-449 268.38,-475.5 530.38,-475.5 530.38,-449 268.38,-449"/>
<text text-anchor="start" x="315.38" y="-458.2" font-family="Times,serif" font-size="14.00" fill="purple">res_msg: </text>
<text text-anchor="start" x="368.62" y="-458.2" font-family="Times,serif" font-size="14.00">&quot;Record not found.&quot;.</text>
<polygon fill="none" stroke="black" points="268.38,-422.5 268.38,-449 530.38,-449 530.38,-422.5 268.38,-422.5"/>
<text text-anchor="start" x="273.38" y="-431.7" font-family="Times,serif" font-size="14.00" fill="purple">dis_msg: </text>
<text text-anchor="start" x="326.62" y="-431.7" font-family="Times,serif" font-size="14.00">&quot;Hay un problema con el servidor.&quot;.</text>
<polygon fill="none" stroke="black" points="268.38,-396 268.38,-422.5 530.38,-422.5 530.38,-396 268.38,-396"/>
<text text-anchor="start" x="363" y="-405.2" font-family="Times,serif" font-size="14.00" fill="purple">type: </text>
<text text-anchor="start" x="393.75" y="-405.2" font-family="Times,serif" font-size="14.00">&quot;error&quot;.</text>
</g>
<!-- CAUTF04&#45;&gt;CAUTF06 -->
<g id="edge5" class="edge">
<title>CAUTF04&#45;&gt;CAUTF06</title>
<path fill="none" stroke="red" d="M476.11,-558.06C467.21,-545.52 456.48,-530.41 445.91,-515.53"/>
<polygon fill="red" stroke="red" points="448.88,-513.67 440.24,-507.54 443.18,-517.72 448.88,-513.67"/>
<text text-anchor="middle" x="492.25" y="-527.2" font-family="Times,serif" font-size="14.00">code: &#39;404&#39;</text>
</g>
<!-- CAUTF07 -->
<g id="node7" class="node">
<title>CAUTF07</title>
<polygon fill="none" stroke="black" points="868.62,-506 556.12,-506 556.12,-392 868.62,-392 868.62,-506"/>
<polygon fill="none" stroke="black" points="564.12,-475.5 564.12,-502 860.62,-502 860.62,-475.5 564.12,-475.5"/>
<text text-anchor="start" x="652" y="-484.7" font-family="Times,serif" font-size="14.00">CAUTF07: </text>
<text text-anchor="start" x="717.25" y="-484.7" font-family="Times,serif" font-size="14.00">Response</text>
<text text-anchor="start" x="769" y="-484.7" font-family="Times,serif" font-size="14.00">.</text>
<polygon fill="none" stroke="black" points="564.12,-449 564.12,-475.5 860.62,-475.5 860.62,-449 564.12,-449"/>
<text text-anchor="start" x="615.25" y="-458.2" font-family="Times,serif" font-size="14.00" fill="purple">res_msg: </text>
<text text-anchor="start" x="668.5" y="-458.2" font-family="Times,serif" font-size="14.00">&quot;Invalid request format.&quot;.</text>
<polygon fill="none" stroke="black" points="564.12,-422.5 564.12,-449 860.62,-449 860.62,-422.5 564.12,-422.5"/>
<text text-anchor="start" x="569.12" y="-431.7" font-family="Times,serif" font-size="14.00" fill="purple">dis_msg: </text>
<text text-anchor="start" x="622.38" y="-431.7" font-family="Times,serif" font-size="14.00">&quot;Solicitud incompleta o mal formateada.&quot;.</text>
<polygon fill="none" stroke="black" points="564.12,-396 564.12,-422.5 860.62,-422.5 860.62,-396 564.12,-396"/>
<text text-anchor="start" x="676" y="-405.2" font-family="Times,serif" font-size="14.00" fill="purple">type: </text>
<text text-anchor="start" x="706.75" y="-405.2" font-family="Times,serif" font-size="14.00">&quot;error&quot;.</text>
</g>
<!-- CAUTF04&#45;&gt;CAUTF07 -->
<g id="edge6" class="edge">
<title>CAUTF04&#45;&gt;CAUTF07</title>
<path fill="none" stroke="red" d="M544.03,-558.06C564.94,-544.63 590.44,-528.26 615.2,-512.37"/>
<polygon fill="red" stroke="red" points="616.85,-515.47 623.37,-507.13 613.07,-509.58 616.85,-515.47"/>
<text text-anchor="middle" x="621.25" y="-527.2" font-family="Times,serif" font-size="14.00">code: &#39;400&#39;</text>
</g>
<!-- CAUTF08 -->
<g id="node8" class="node">
<title>CAUTF08</title>
<polygon fill="none" stroke="black" points="1191.88,-506 886.88,-506 886.88,-392 1191.88,-392 1191.88,-506"/>
<polygon fill="none" stroke="black" points="894.88,-475.5 894.88,-502 1183.88,-502 1183.88,-475.5 894.88,-475.5"/>
<text text-anchor="start" x="979" y="-484.7" font-family="Times,serif" font-size="14.00">CAUTF08: </text>
<text text-anchor="start" x="1044.25" y="-484.7" font-family="Times,serif" font-size="14.00">Response</text>
<text text-anchor="start" x="1096" y="-484.7" font-family="Times,serif" font-size="14.00">.</text>
<polygon fill="none" stroke="black" points="894.88,-449 894.88,-475.5 1183.88,-475.5 1183.88,-449 894.88,-449"/>
<text text-anchor="start" x="943.38" y="-458.2" font-family="Times,serif" font-size="14.00" fill="purple">res_msg: </text>
<text text-anchor="start" x="996.62" y="-458.2" font-family="Times,serif" font-size="14.00">&quot;Database not available&quot;.</text>
<polygon fill="none" stroke="black" points="894.88,-422.5 894.88,-449 1183.88,-449 1183.88,-422.5 894.88,-422.5"/>
<text text-anchor="start" x="899.88" y="-431.7" font-family="Times,serif" font-size="14.00" fill="purple">dis_msg: </text>
<text text-anchor="start" x="953.12" y="-431.7" font-family="Times,serif" font-size="14.00">&quot;No hay conexión con la base de datos.&quot;.</text>
<polygon fill="none" stroke="black" points="894.88,-396 894.88,-422.5 1183.88,-422.5 1183.88,-396 894.88,-396"/>
<text text-anchor="start" x="1003" y="-405.2" font-family="Times,serif" font-size="14.00" fill="purple">type: </text>
<text text-anchor="start" x="1033.75" y="-405.2" font-family="Times,serif" font-size="14.00">&quot;error&quot;.</text>
</g>
<!-- CAUTF04&#45;&gt;CAUTF08 -->
<g id="edge7" class="edge">
<title>CAUTF04&#45;&gt;CAUTF08</title>
<path fill="none" stroke="red" d="M619.8,-565.47C691.79,-551.3 784.65,-531.43 875.41,-506.47"/>
<polygon fill="red" stroke="red" points="876.31,-509.86 885.01,-503.81 874.44,-503.11 876.31,-509.86"/>
<text text-anchor="middle" x="831.62" y="-527.2" font-family="Times,serif" font-size="14.00">code: &#39;E1&#39;</text>
</g>
<!-- CAUTF09 -->
<g id="node9" class="node">
<title>CAUTF09</title>
<polygon fill="none" stroke="black" points="197,-355 45.75,-355 45.75,-294 197,-294 197,-355"/>
<polygon fill="none" stroke="black" points="53.75,-324.5 53.75,-351 189,-351 189,-324.5 53.75,-324.5"/>
<text text-anchor="start" x="58.75" y="-332.7" font-family="Times,serif" font-size="14.00">CAUTF09: Redirige a:</text>
<polygon fill="none" stroke="black" points="53.75,-298 53.75,-324.5 189,-324.5 189,-298 53.75,-298"/>
<text text-anchor="start" x="98.88" y="-306.2" font-family="Times,serif" font-size="14.00" fill="blue">MPF29.</text>
</g>
<!-- CAUTF05&#45;&gt;CAUTF09 -->
<g id="edge11" class="edge">
<title>CAUTF05&#45;&gt;CAUTF09</title>
<path fill="none" stroke="black" d="M121.38,-404.81C121.38,-392.39 121.38,-378.87 121.38,-366.58"/>
<polygon fill="black" stroke="black" points="124.88,-366.76 121.38,-356.76 117.88,-366.76 124.88,-366.76"/>
</g>
<!-- CAUTF10 -->
<g id="node10" class="node">
<title>CAUTF10</title>
<polygon fill="none" stroke="black" points="844.25,-355 580.5,-355 580.5,-294 844.25,-294 844.25,-355"/>
<polygon fill="none" stroke="black" points="588.5,-324.5 588.5,-351 836.25,-351 836.25,-324.5 588.5,-324.5"/>
<text text-anchor="start" x="656.12" y="-333.7" font-family="Times,serif" font-size="14.00">CAUTF10: </text>
<text text-anchor="start" x="721.38" y="-333.7" font-family="Times,serif" font-size="14.00" fill="green">Sistema</text>
<text text-anchor="start" x="764.88" y="-333.7" font-family="Times,serif" font-size="14.00">.</text>
<polygon fill="none" stroke="black" points="588.5,-298 588.5,-324.5 836.25,-324.5 836.25,-298 588.5,-298"/>
<text text-anchor="start" x="593.5" y="-307.2" font-family="Times,serif" font-size="14.00" fill="green">Muestra: </text>
<text text-anchor="start" x="646" y="-307.2" font-family="Times,serif" font-size="14.00">&quot;MessageModal[dis_msg, type]&quot;.</text>
</g>
<!-- CAUTF06&#45;&gt;CAUTF10 -->
<g id="edge8" class="edge">
<title>CAUTF06&#45;&gt;CAUTF10</title>
<path fill="none" stroke="black" d="M538.48,-393.56C568.03,-381.99 598.42,-370.1 625.36,-359.56"/>
<polygon fill="black" stroke="black" points="626.45,-362.89 634.48,-355.98 623.9,-356.37 626.45,-362.89"/>
</g>
<!-- CAUTF07&#45;&gt;CAUTF10 -->
<g id="edge9" class="edge">
<title>CAUTF07&#45;&gt;CAUTF10</title>
<path fill="none" stroke="black" d="M712.38,-391.77C712.38,-383.32 712.38,-374.74 712.38,-366.68"/>
<polygon fill="black" stroke="black" points="715.88,-366.83 712.38,-356.83 708.88,-366.83 715.88,-366.83"/>
</g>
<!-- CAUTF08&#45;&gt;CAUTF10 -->
<g id="edge10" class="edge">
<title>CAUTF08&#45;&gt;CAUTF10</title>
<path fill="none" stroke="black" d="M888.8,-391.59C859.35,-380.56 829.34,-369.32 802.62,-359.31"/>
<polygon fill="black" stroke="black" points="804.17,-356.15 793.58,-355.92 801.72,-362.71 804.17,-356.15"/>
</g>
<!-- CAUTF11 -->
<g id="node11" class="node">
<title>CAUTF11</title>
<polygon fill="none" stroke="black" points="677.25,-257 455.5,-257 455.5,-196 677.25,-196 677.25,-257"/>
<polygon fill="none" stroke="black" points="463.5,-226.5 463.5,-253 669.25,-253 669.25,-226.5 463.5,-226.5"/>
<text text-anchor="start" x="516.5" y="-235.7" font-family="Times,serif" font-size="14.00">CAUTF11: </text>
<text text-anchor="start" x="581.75" y="-235.7" font-family="Times,serif" font-size="14.00" fill="blue">Actor</text>
<text text-anchor="start" x="612.5" y="-235.7" font-family="Times,serif" font-size="14.00">.</text>
<polygon fill="none" stroke="black" points="463.5,-200 463.5,-226.5 669.25,-226.5 669.25,-200 463.5,-200"/>
<text text-anchor="start" x="468.5" y="-209.2" font-family="Times,serif" font-size="14.00" fill="orange">Selecciona: </text>
<text text-anchor="start" x="534.5" y="-209.2" font-family="Times,serif" font-size="14.00">&quot;MessageModal : Yes&quot;.</text>
</g>
<!-- CAUTF10&#45;&gt;CAUTF11 -->
<g id="edge12" class="edge">
<title>CAUTF10&#45;&gt;CAUTF11</title>
<path fill="none" stroke="black" d="M666.98,-293.65C652.49,-284.12 636.3,-273.48 621.22,-263.56"/>
<polygon fill="black" stroke="black" points="623.54,-260.9 613.26,-258.33 619.69,-266.75 623.54,-260.9"/>
</g>
<!-- CAUTF12 -->
<g id="node12" class="node">
<title>CAUTF12</title>
<polygon fill="none" stroke="black" points="915.12,-257 695.62,-257 695.62,-196 915.12,-196 915.12,-257"/>
<polygon fill="none" stroke="black" points="703.62,-226.5 703.62,-253 907.12,-253 907.12,-226.5 703.62,-226.5"/>
<text text-anchor="start" x="755.5" y="-235.7" font-family="Times,serif" font-size="14.00">CAUTF12: </text>
<text text-anchor="start" x="820.75" y="-235.7" font-family="Times,serif" font-size="14.00" fill="blue">Actor</text>
<text text-anchor="start" x="851.5" y="-235.7" font-family="Times,serif" font-size="14.00">.</text>
<polygon fill="none" stroke="black" points="703.62,-200 703.62,-226.5 907.12,-226.5 907.12,-200 703.62,-200"/>
<text text-anchor="start" x="708.62" y="-209.2" font-family="Times,serif" font-size="14.00" fill="orange">Selecciona: </text>
<text text-anchor="start" x="774.62" y="-209.2" font-family="Times,serif" font-size="14.00">&quot;MessageModal : No&quot;.</text>
</g>
<!-- CAUTF10&#45;&gt;CAUTF12 -->
<g id="edge13" class="edge">
<title>CAUTF10&#45;&gt;CAUTF12</title>
<path fill="none" stroke="black" d="M741.29,-293.65C749.95,-284.71 759.57,-274.79 768.66,-265.4"/>
<polygon fill="black" stroke="black" points="770.98,-268.04 775.42,-258.42 765.95,-263.16 770.98,-268.04"/>
</g>
<!-- CAUTF13 -->
<g id="node13" class="node">
<title>CAUTF13</title>
<polygon fill="none" stroke="black" points="648,-159 484.75,-159 484.75,-98 648,-98 648,-159"/>
<polygon fill="none" stroke="black" points="492.75,-128.5 492.75,-155 640,-155 640,-128.5 492.75,-128.5"/>
<text text-anchor="start" x="512" y="-137.7" font-family="Times,serif" font-size="14.00">CAUTF13: </text>
<text text-anchor="start" x="577.25" y="-137.7" font-family="Times,serif" font-size="14.00" fill="green">Sistema</text>
<polygon fill="none" stroke="black" points="492.75,-102 492.75,-128.5 640,-128.5 640,-102 492.75,-102"/>
<text text-anchor="start" x="497.75" y="-111.2" font-family="Times,serif" font-size="14.00" fill="blue">Cierra</text>
<text text-anchor="start" x="531.5" y="-111.2" font-family="Times,serif" font-size="14.00">: &quot;MessageModal&quot;</text>
</g>
<!-- CAUTF11&#45;&gt;CAUTF13 -->
<g id="edge14" class="edge">
<title>CAUTF11&#45;&gt;CAUTF13</title>
<path fill="none" stroke="black" d="M566.38,-195.65C566.38,-187.79 566.38,-179.18 566.38,-170.83"/>
<polygon fill="black" stroke="black" points="569.88,-170.84 566.38,-160.84 562.88,-170.84 569.88,-170.84"/>
</g>
<!-- CAUTF15 -->
<g id="node15" class="node">
<title>CAUTF15</title>
<polygon fill="none" stroke="black" points="887,-159 723.75,-159 723.75,-98 887,-98 887,-159"/>
<polygon fill="none" stroke="black" points="731.75,-128.5 731.75,-155 879,-155 879,-128.5 731.75,-128.5"/>
<text text-anchor="start" x="751" y="-137.7" font-family="Times,serif" font-size="14.00">CAUTF15: </text>
<text text-anchor="start" x="816.25" y="-137.7" font-family="Times,serif" font-size="14.00" fill="green">Sistema</text>
<polygon fill="none" stroke="black" points="731.75,-102 731.75,-128.5 879,-128.5 879,-102 731.75,-102"/>
<text text-anchor="start" x="736.75" y="-111.2" font-family="Times,serif" font-size="14.00" fill="blue">Cierra</text>
<text text-anchor="start" x="770.5" y="-111.2" font-family="Times,serif" font-size="14.00">: &quot;MessageModal&quot;</text>
</g>
<!-- CAUTF12&#45;&gt;CAUTF15 -->
<g id="edge16" class="edge">
<title>CAUTF12&#45;&gt;CAUTF15</title>
<path fill="none" stroke="black" d="M805.38,-195.65C805.38,-187.79 805.38,-179.18 805.38,-170.83"/>
<polygon fill="black" stroke="black" points="808.88,-170.84 805.38,-160.84 801.88,-170.84 808.88,-170.84"/>
</g>
<!-- CAUTF14 -->
<g id="node14" class="node">
<title>CAUTF14</title>
<polygon fill="none" stroke="black" points="642,-61 490.75,-61 490.75,0 642,0 642,-61"/>
<polygon fill="none" stroke="black" points="498.75,-30.5 498.75,-57 634,-57 634,-30.5 498.75,-30.5"/>
<text text-anchor="start" x="503.75" y="-38.7" font-family="Times,serif" font-size="14.00">CAUTF14: Redirige a:</text>
<polygon fill="none" stroke="black" points="498.75,-4 498.75,-30.5 634,-30.5 634,-4 498.75,-4"/>
<text text-anchor="start" x="535.62" y="-12.2" font-family="Times,serif" font-size="14.00" fill="blue">CAUTF04.</text>
</g>
<!-- CAUTF13&#45;&gt;CAUTF14 -->
<g id="edge15" class="edge">
<title>CAUTF13&#45;&gt;CAUTF14</title>
<path fill="none" stroke="black" d="M566.38,-97.65C566.38,-89.79 566.38,-81.18 566.38,-72.83"/>
<polygon fill="black" stroke="black" points="569.88,-72.84 566.38,-62.84 562.88,-72.84 569.88,-72.84"/>
</g>
<!-- CAUTF16 -->
<g id="node16" class="node">
<title>CAUTF16</title>
<polygon fill="none" stroke="black" points="881,-61 729.75,-61 729.75,0 881,0 881,-61"/>
<polygon fill="none" stroke="black" points="737.75,-30.5 737.75,-57 873,-57 873,-30.5 737.75,-30.5"/>
<text text-anchor="start" x="742.75" y="-38.7" font-family="Times,serif" font-size="14.00">CAUTF16: Redirige a:</text>
<polygon fill="none" stroke="black" points="737.75,-4 737.75,-30.5 873,-30.5 873,-4 737.75,-4"/>
<text text-anchor="start" x="782.88" y="-12.2" font-family="Times,serif" font-size="14.00" fill="blue">MPF29.</text>
</g>
<!-- CAUTF15&#45;&gt;CAUTF16 -->
<g id="edge17" class="edge">
<title>CAUTF15&#45;&gt;CAUTF16</title>
<path fill="none" stroke="black" d="M805.38,-97.65C805.38,-89.79 805.38,-81.18 805.38,-72.83"/>
<polygon fill="black" stroke="black" points="808.88,-72.84 805.38,-62.84 801.88,-72.84 808.88,-72.84"/>
</g>
</g>
</svg>
