<?xml version="1.0" encoding="UTF-8" standalone="no"?>
<!DOCTYPE svg PUBLIC "-//W3C//DTD SVG 1.1//EN"
 "http://www.w3.org/Graphics/SVG/1.1/DTD/svg11.dtd">
<!-- Generated by graphviz version 9.0.0 (20230911.1827)
 -->
<!-- Title: DownloadPaymentMethodsTemplateFlow Pages: 1 -->
<svg width="886pt" height="726pt"
 viewBox="0.00 0.00 885.75 725.50" xmlns="http://www.w3.org/2000/svg" xmlns:xlink="http://www.w3.org/1999/xlink">
<g id="graph0" class="graph" transform="scale(1 1) rotate(0) translate(4 721.5)">
<title>DownloadPaymentMethodsTemplateFlow</title>
<polygon fill="white" stroke="none" points="-4,4 -4,-721.5 881.75,-721.5 881.75,4 -4,4"/>
<!-- PMDTF01 -->
<g id="node1" class="node">
<title>PMDTF01</title>
<polygon fill="none" stroke="black" points="487.5,-717.5 343,-717.5 343,-656.5 487.5,-656.5 487.5,-717.5"/>
<polygon fill="none" stroke="black" points="351,-687 351,-713.5 479.5,-713.5 479.5,-687 351,-687"/>
<text text-anchor="start" x="356" y="-695.2" font-family="Times,serif" font-size="14.00">PMDTF01: Viene de:</text>
<polygon fill="none" stroke="black" points="351,-660.5 351,-687 479.5,-687 479.5,-660.5 351,-660.5"/>
<text text-anchor="start" x="392.75" y="-668.7" font-family="Times,serif" font-size="14.00" fill="orange">MPF23.</text>
</g>
<!-- PMDTF02 -->
<g id="node2" class="node">
<title>PMDTF02</title>
<polygon fill="none" stroke="black" points="570,-619.5 260.5,-619.5 260.5,-558.5 570,-558.5 570,-619.5"/>
<polygon fill="none" stroke="black" points="268.5,-589 268.5,-615.5 562,-615.5 562,-589 268.5,-589"/>
<text text-anchor="start" x="358.25" y="-598.2" font-family="Times,serif" font-size="14.00">PMDTF02: </text>
<text text-anchor="start" x="425" y="-598.2" font-family="Times,serif" font-size="14.00" fill="green">Sistema</text>
<text text-anchor="start" x="468.5" y="-598.2" font-family="Times,serif" font-size="14.00">.</text>
<polygon fill="none" stroke="black" points="268.5,-562.5 268.5,-589 562,-589 562,-562.5 268.5,-562.5"/>
<text text-anchor="start" x="273.5" y="-571.7" font-family="Times,serif" font-size="14.00" fill="blue">Ejecuta: </text>
<text text-anchor="start" x="321.5" y="-571.7" font-family="Times,serif" font-size="14.00">&quot;Download Template(Payment Methods)&quot;.</text>
</g>
<!-- PMDTF01&#45;&gt;PMDTF02 -->
<g id="edge1" class="edge">
<title>PMDTF01&#45;&gt;PMDTF02</title>
<path fill="none" stroke="black" d="M415.25,-656.15C415.25,-648.29 415.25,-639.68 415.25,-631.33"/>
<polygon fill="black" stroke="black" points="418.75,-631.34 415.25,-621.34 411.75,-631.34 418.75,-631.34"/>
</g>
<!-- PMDTF03 -->
<g id="node3" class="node">
<title>PMDTF03</title>
<polygon fill="none" stroke="black" points="258.5,-492.75 0,-492.75 0,-405.25 258.5,-405.25 258.5,-492.75"/>
<polygon fill="none" stroke="black" points="8,-462.25 8,-488.75 250.5,-488.75 250.5,-462.25 8,-462.25"/>
<text text-anchor="start" x="68.12" y="-471.45" font-family="Times,serif" font-size="14.00">PMDTF03: </text>
<text text-anchor="start" x="134.88" y="-471.45" font-family="Times,serif" font-size="14.00">Response</text>
<text text-anchor="start" x="186.62" y="-471.45" font-family="Times,serif" font-size="14.00">.</text>
<polygon fill="none" stroke="black" points="8,-435.75 8,-462.25 250.5,-462.25 250.5,-435.75 8,-435.75"/>
<text text-anchor="start" x="73.38" y="-444.95" font-family="Times,serif" font-size="14.00" fill="purple">res_msg: </text>
<text text-anchor="start" x="126.62" y="-444.95" font-family="Times,serif" font-size="14.00">&quot;Success&quot;.</text>
<polygon fill="none" stroke="black" points="8,-409.25 8,-435.75 250.5,-435.75 250.5,-409.25 8,-409.25"/>
<text text-anchor="start" x="13" y="-418.45" font-family="Times,serif" font-size="14.00" fill="purple">res_obj: </text>
<text text-anchor="start" x="60.25" y="-418.45" font-family="Times,serif" font-size="14.00">&quot;PaymentMethodsTemplate.csv&quot;.</text>
</g>
<!-- PMDTF02&#45;&gt;PMDTF03 -->
<g id="edge2" class="edge">
<title>PMDTF02&#45;&gt;PMDTF03</title>
<path fill="none" stroke="green" d="M353.19,-558.06C317,-540.59 270.48,-518.15 229.23,-498.24"/>
<polygon fill="green" stroke="green" points="230.76,-495.09 220.23,-493.9 227.72,-501.4 230.76,-495.09"/>
<text text-anchor="middle" x="344.12" y="-527.2" font-family="Times,serif" font-size="14.00">code: &#39;200&#39;</text>
</g>
<!-- PMDTF04 -->
<g id="node4" class="node">
<title>PMDTF04</title>
<polygon fill="none" stroke="black" points="554.25,-506 276.25,-506 276.25,-392 554.25,-392 554.25,-506"/>
<polygon fill="none" stroke="black" points="284.25,-475.5 284.25,-502 546.25,-502 546.25,-475.5 284.25,-475.5"/>
<text text-anchor="start" x="354.12" y="-484.7" font-family="Times,serif" font-size="14.00">PMDTF04: </text>
<text text-anchor="start" x="420.88" y="-484.7" font-family="Times,serif" font-size="14.00">Response</text>
<text text-anchor="start" x="472.62" y="-484.7" font-family="Times,serif" font-size="14.00">.</text>
<polygon fill="none" stroke="black" points="284.25,-449 284.25,-475.5 546.25,-475.5 546.25,-449 284.25,-449"/>
<text text-anchor="start" x="331.25" y="-458.2" font-family="Times,serif" font-size="14.00" fill="purple">res_msg: </text>
<text text-anchor="start" x="384.5" y="-458.2" font-family="Times,serif" font-size="14.00">&quot;Record not found.&quot;.</text>
<polygon fill="none" stroke="black" points="284.25,-422.5 284.25,-449 546.25,-449 546.25,-422.5 284.25,-422.5"/>
<text text-anchor="start" x="289.25" y="-431.7" font-family="Times,serif" font-size="14.00" fill="purple">dis_msg: </text>
<text text-anchor="start" x="342.5" y="-431.7" font-family="Times,serif" font-size="14.00">&quot;Hay un problema con el servidor.&quot;.</text>
<polygon fill="none" stroke="black" points="284.25,-396 284.25,-422.5 546.25,-422.5 546.25,-396 284.25,-396"/>
<text text-anchor="start" x="378.88" y="-405.2" font-family="Times,serif" font-size="14.00" fill="purple">type: </text>
<text text-anchor="start" x="409.62" y="-405.2" font-family="Times,serif" font-size="14.00">&quot;error&quot;.</text>
</g>
<!-- PMDTF02&#45;&gt;PMDTF04 -->
<g id="edge3" class="edge">
<title>PMDTF02&#45;&gt;PMDTF04</title>
<path fill="none" stroke="red" d="M415.25,-558.06C415.25,-546.11 415.25,-531.83 415.25,-517.63"/>
<polygon fill="red" stroke="red" points="418.75,-517.82 415.25,-507.82 411.75,-517.82 418.75,-517.82"/>
<text text-anchor="middle" x="444.12" y="-527.2" font-family="Times,serif" font-size="14.00">code: &#39;404&#39;</text>
</g>
<!-- PMDTF05 -->
<g id="node5" class="node">
<title>PMDTF05</title>
<polygon fill="none" stroke="black" points="877.75,-506 572.75,-506 572.75,-392 877.75,-392 877.75,-506"/>
<polygon fill="none" stroke="black" points="580.75,-475.5 580.75,-502 869.75,-502 869.75,-475.5 580.75,-475.5"/>
<text text-anchor="start" x="664.12" y="-484.7" font-family="Times,serif" font-size="14.00">PMDTF05: </text>
<text text-anchor="start" x="730.88" y="-484.7" font-family="Times,serif" font-size="14.00">Response</text>
<text text-anchor="start" x="782.62" y="-484.7" font-family="Times,serif" font-size="14.00">.</text>
<polygon fill="none" stroke="black" points="580.75,-449 580.75,-475.5 869.75,-475.5 869.75,-449 580.75,-449"/>
<text text-anchor="start" x="629.25" y="-458.2" font-family="Times,serif" font-size="14.00" fill="purple">res_msg: </text>
<text text-anchor="start" x="682.5" y="-458.2" font-family="Times,serif" font-size="14.00">&quot;Database not available&quot;.</text>
<polygon fill="none" stroke="black" points="580.75,-422.5 580.75,-449 869.75,-449 869.75,-422.5 580.75,-422.5"/>
<text text-anchor="start" x="585.75" y="-431.7" font-family="Times,serif" font-size="14.00" fill="purple">dis_msg: </text>
<text text-anchor="start" x="639" y="-431.7" font-family="Times,serif" font-size="14.00">&quot;No hay conexión con la base de datos.&quot;.</text>
<polygon fill="none" stroke="black" points="580.75,-396 580.75,-422.5 869.75,-422.5 869.75,-396 580.75,-396"/>
<text text-anchor="start" x="688.88" y="-405.2" font-family="Times,serif" font-size="14.00" fill="purple">type: </text>
<text text-anchor="start" x="719.62" y="-405.2" font-family="Times,serif" font-size="14.00">&quot;error&quot;.</text>
</g>
<!-- PMDTF02&#45;&gt;PMDTF05 -->
<g id="edge4" class="edge">
<title>PMDTF02&#45;&gt;PMDTF05</title>
<path fill="none" stroke="red" d="M482.52,-558.06C513.52,-544.25 551.52,-527.34 588.16,-511.03"/>
<polygon fill="red" stroke="red" points="589.35,-514.33 597.06,-507.06 586.5,-507.93 589.35,-514.33"/>
<text text-anchor="middle" x="577.5" y="-527.2" font-family="Times,serif" font-size="14.00">code: &#39;E1&#39;</text>
</g>
<!-- PMDTF06 -->
<g id="node6" class="node">
<title>PMDTF06</title>
<polygon fill="none" stroke="black" points="205.62,-355 52.88,-355 52.88,-294 205.62,-294 205.62,-355"/>
<polygon fill="none" stroke="black" points="60.88,-324.5 60.88,-351 197.62,-351 197.62,-324.5 60.88,-324.5"/>
<text text-anchor="start" x="65.88" y="-332.7" font-family="Times,serif" font-size="14.00">PMDTF06: Redirige a:</text>
<polygon fill="none" stroke="black" points="60.88,-298 60.88,-324.5 197.62,-324.5 197.62,-298 60.88,-298"/>
<text text-anchor="start" x="106.75" y="-306.2" font-family="Times,serif" font-size="14.00" fill="blue">MPF48.</text>
</g>
<!-- PMDTF03&#45;&gt;PMDTF06 -->
<g id="edge5" class="edge">
<title>PMDTF03&#45;&gt;PMDTF06</title>
<path fill="none" stroke="black" d="M129.25,-404.81C129.25,-392.39 129.25,-378.87 129.25,-366.58"/>
<polygon fill="black" stroke="black" points="132.75,-366.76 129.25,-356.76 125.75,-366.76 132.75,-366.76"/>
</g>
<!-- PMDTF07 -->
<g id="node7" class="node">
<title>PMDTF07</title>
<polygon fill="none" stroke="black" points="702.12,-355 438.38,-355 438.38,-294 702.12,-294 702.12,-355"/>
<polygon fill="none" stroke="black" points="446.38,-324.5 446.38,-351 694.12,-351 694.12,-324.5 446.38,-324.5"/>
<text text-anchor="start" x="513.25" y="-333.7" font-family="Times,serif" font-size="14.00">PMDTF07: </text>
<text text-anchor="start" x="580" y="-333.7" font-family="Times,serif" font-size="14.00" fill="green">Sistema</text>
<text text-anchor="start" x="623.5" y="-333.7" font-family="Times,serif" font-size="14.00">.</text>
<polygon fill="none" stroke="black" points="446.38,-298 446.38,-324.5 694.12,-324.5 694.12,-298 446.38,-298"/>
<text text-anchor="start" x="451.38" y="-307.2" font-family="Times,serif" font-size="14.00" fill="green">Muestra: </text>
<text text-anchor="start" x="503.88" y="-307.2" font-family="Times,serif" font-size="14.00">&quot;MessageModal[dis_msg, type]&quot;.</text>
</g>
<!-- PMDTF04&#45;&gt;PMDTF07 -->
<g id="edge6" class="edge">
<title>PMDTF04&#45;&gt;PMDTF07</title>
<path fill="none" stroke="black" d="M486.4,-391.77C499.08,-381.75 511.99,-371.54 523.76,-362.24"/>
<polygon fill="black" stroke="black" points="525.66,-365.21 531.33,-356.26 521.32,-359.71 525.66,-365.21"/>
</g>
<!-- PMDTF05&#45;&gt;PMDTF07 -->
<g id="edge13" class="edge">
<title>PMDTF05&#45;&gt;PMDTF07</title>
<path fill="none" stroke="black" d="M654.1,-391.77C641.42,-381.75 628.51,-371.54 616.74,-362.24"/>
<polygon fill="black" stroke="black" points="619.18,-359.71 609.17,-356.26 614.84,-365.21 619.18,-359.71"/>
</g>
<!-- PMDTF08 -->
<g id="node8" class="node">
<title>PMDTF08</title>
<polygon fill="none" stroke="black" points="535.12,-257 313.38,-257 313.38,-196 535.12,-196 535.12,-257"/>
<polygon fill="none" stroke="black" points="321.38,-226.5 321.38,-253 527.12,-253 527.12,-226.5 321.38,-226.5"/>
<text text-anchor="start" x="373.62" y="-235.7" font-family="Times,serif" font-size="14.00">PMDTF08: </text>
<text text-anchor="start" x="440.38" y="-235.7" font-family="Times,serif" font-size="14.00" fill="blue">Actor</text>
<text text-anchor="start" x="471.12" y="-235.7" font-family="Times,serif" font-size="14.00">.</text>
<polygon fill="none" stroke="black" points="321.38,-200 321.38,-226.5 527.12,-226.5 527.12,-200 321.38,-200"/>
<text text-anchor="start" x="326.38" y="-209.2" font-family="Times,serif" font-size="14.00" fill="orange">Selecciona: </text>
<text text-anchor="start" x="392.38" y="-209.2" font-family="Times,serif" font-size="14.00">&quot;MessageModal : Yes&quot;.</text>
</g>
<!-- PMDTF07&#45;&gt;PMDTF08 -->
<g id="edge7" class="edge">
<title>PMDTF07&#45;&gt;PMDTF08</title>
<path fill="none" stroke="black" d="M524.86,-293.65C510.37,-284.12 494.18,-273.48 479.09,-263.56"/>
<polygon fill="black" stroke="black" points="481.41,-260.9 471.13,-258.33 477.57,-266.75 481.41,-260.9"/>
</g>
<!-- PMDTF09 -->
<g id="node9" class="node">
<title>PMDTF09</title>
<polygon fill="none" stroke="black" points="773,-257 553.5,-257 553.5,-196 773,-196 773,-257"/>
<polygon fill="none" stroke="black" points="561.5,-226.5 561.5,-253 765,-253 765,-226.5 561.5,-226.5"/>
<text text-anchor="start" x="612.62" y="-235.7" font-family="Times,serif" font-size="14.00">PMDTF09: </text>
<text text-anchor="start" x="679.38" y="-235.7" font-family="Times,serif" font-size="14.00" fill="blue">Actor</text>
<text text-anchor="start" x="710.12" y="-235.7" font-family="Times,serif" font-size="14.00">.</text>
<polygon fill="none" stroke="black" points="561.5,-200 561.5,-226.5 765,-226.5 765,-200 561.5,-200"/>
<text text-anchor="start" x="566.5" y="-209.2" font-family="Times,serif" font-size="14.00" fill="orange">Selecciona: </text>
<text text-anchor="start" x="632.5" y="-209.2" font-family="Times,serif" font-size="14.00">&quot;MessageModal : No&quot;.</text>
</g>
<!-- PMDTF07&#45;&gt;PMDTF09 -->
<g id="edge8" class="edge">
<title>PMDTF07&#45;&gt;PMDTF09</title>
<path fill="none" stroke="black" d="M599.17,-293.65C607.83,-284.71 617.44,-274.79 626.53,-265.4"/>
<polygon fill="black" stroke="black" points="628.85,-268.04 633.3,-258.42 623.83,-263.16 628.85,-268.04"/>
</g>
<!-- PMDTF12 -->
<g id="node12" class="node">
<title>PMDTF12</title>
<polygon fill="none" stroke="black" points="505.88,-159 342.62,-159 342.62,-98 505.88,-98 505.88,-159"/>
<polygon fill="none" stroke="black" points="350.62,-128.5 350.62,-155 497.88,-155 497.88,-128.5 350.62,-128.5"/>
<text text-anchor="start" x="369.12" y="-137.7" font-family="Times,serif" font-size="14.00">PMDTF12: </text>
<text text-anchor="start" x="435.88" y="-137.7" font-family="Times,serif" font-size="14.00" fill="green">Sistema</text>
<polygon fill="none" stroke="black" points="350.62,-102 350.62,-128.5 497.88,-128.5 497.88,-102 350.62,-102"/>
<text text-anchor="start" x="355.62" y="-111.2" font-family="Times,serif" font-size="14.00" fill="blue">Cierra</text>
<text text-anchor="start" x="389.38" y="-111.2" font-family="Times,serif" font-size="14.00">: &quot;MessageModal&quot;</text>
</g>
<!-- PMDTF08&#45;&gt;PMDTF12 -->
<g id="edge11" class="edge">
<title>PMDTF08&#45;&gt;PMDTF12</title>
<path fill="none" stroke="black" d="M424.25,-195.65C424.25,-187.79 424.25,-179.18 424.25,-170.83"/>
<polygon fill="black" stroke="black" points="427.75,-170.84 424.25,-160.84 420.75,-170.84 427.75,-170.84"/>
</g>
<!-- PMDTF10 -->
<g id="node10" class="node">
<title>PMDTF10</title>
<polygon fill="none" stroke="black" points="744.88,-159 581.62,-159 581.62,-98 744.88,-98 744.88,-159"/>
<polygon fill="none" stroke="black" points="589.62,-128.5 589.62,-155 736.88,-155 736.88,-128.5 589.62,-128.5"/>
<text text-anchor="start" x="608.12" y="-137.7" font-family="Times,serif" font-size="14.00">PMDTF10: </text>
<text text-anchor="start" x="674.88" y="-137.7" font-family="Times,serif" font-size="14.00" fill="green">Sistema</text>
<polygon fill="none" stroke="black" points="589.62,-102 589.62,-128.5 736.88,-128.5 736.88,-102 589.62,-102"/>
<text text-anchor="start" x="594.62" y="-111.2" font-family="Times,serif" font-size="14.00" fill="blue">Cierra</text>
<text text-anchor="start" x="628.38" y="-111.2" font-family="Times,serif" font-size="14.00">: &quot;MessageModal&quot;</text>
</g>
<!-- PMDTF09&#45;&gt;PMDTF10 -->
<g id="edge9" class="edge">
<title>PMDTF09&#45;&gt;PMDTF10</title>
<path fill="none" stroke="black" d="M663.25,-195.65C663.25,-187.79 663.25,-179.18 663.25,-170.83"/>
<polygon fill="black" stroke="black" points="666.75,-170.84 663.25,-160.84 659.75,-170.84 666.75,-170.84"/>
</g>
<!-- PMDTF11 -->
<g id="node11" class="node">
<title>PMDTF11</title>
<polygon fill="none" stroke="black" points="739.62,-61 586.88,-61 586.88,0 739.62,0 739.62,-61"/>
<polygon fill="none" stroke="black" points="594.88,-30.5 594.88,-57 731.62,-57 731.62,-30.5 594.88,-30.5"/>
<text text-anchor="start" x="599.88" y="-38.7" font-family="Times,serif" font-size="14.00">PMDTF11: Redirige a:</text>
<polygon fill="none" stroke="black" points="594.88,-4 594.88,-30.5 731.62,-30.5 731.62,-4 594.88,-4"/>
<text text-anchor="start" x="640.75" y="-12.2" font-family="Times,serif" font-size="14.00" fill="blue">MPF42.</text>
</g>
<!-- PMDTF10&#45;&gt;PMDTF11 -->
<g id="edge10" class="edge">
<title>PMDTF10&#45;&gt;PMDTF11</title>
<path fill="none" stroke="black" d="M663.25,-97.65C663.25,-89.79 663.25,-81.18 663.25,-72.83"/>
<polygon fill="black" stroke="black" points="666.75,-72.84 663.25,-62.84 659.75,-72.84 666.75,-72.84"/>
</g>
<!-- PMDTF13 -->
<g id="node13" class="node">
<title>PMDTF13</title>
<polygon fill="none" stroke="black" points="500.62,-61 347.88,-61 347.88,0 500.62,0 500.62,-61"/>
<polygon fill="none" stroke="black" points="355.88,-30.5 355.88,-57 492.62,-57 492.62,-30.5 355.88,-30.5"/>
<text text-anchor="start" x="360.88" y="-38.7" font-family="Times,serif" font-size="14.00">PMDTF13: Redirige a:</text>
<polygon fill="none" stroke="black" points="355.88,-4 355.88,-30.5 492.62,-30.5 492.62,-4 355.88,-4"/>
<text text-anchor="start" x="392.75" y="-12.2" font-family="Times,serif" font-size="14.00" fill="blue">PMDTF02.</text>
</g>
<!-- PMDTF12&#45;&gt;PMDTF13 -->
<g id="edge12" class="edge">
<title>PMDTF12&#45;&gt;PMDTF13</title>
<path fill="none" stroke="black" d="M424.25,-97.65C424.25,-89.79 424.25,-81.18 424.25,-72.83"/>
<polygon fill="black" stroke="black" points="427.75,-72.84 424.25,-62.84 420.75,-72.84 427.75,-72.84"/>
</g>
</g>
</svg>
