<?xml version="1.0" encoding="UTF-8" standalone="no"?>
<!DOCTYPE svg PUBLIC "-//W3C//DTD SVG 1.1//EN"
 "http://www.w3.org/Graphics/SVG/1.1/DTD/svg11.dtd">
<!-- Generated by graphviz version 9.0.0 (20230911.1827)
 -->
<!-- Title: DownloadCategoriesTemplateFlow Pages: 1 -->
<svg width="848pt" height="726pt"
 viewBox="0.00 0.00 847.62 725.50" xmlns="http://www.w3.org/2000/svg" xmlns:xlink="http://www.w3.org/1999/xlink">
<g id="graph0" class="graph" transform="scale(1 1) rotate(0) translate(4 721.5)">
<title>DownloadCategoriesTemplateFlow</title>
<polygon fill="white" stroke="none" points="-4,4 -4,-721.5 843.62,-721.5 843.62,4 -4,4"/>
<!-- CADTF01 -->
<g id="node1" class="node">
<title>CADTF01</title>
<polygon fill="none" stroke="black" points="448.62,-717.5 305.62,-717.5 305.62,-656.5 448.62,-656.5 448.62,-717.5"/>
<polygon fill="none" stroke="black" points="313.62,-687 313.62,-713.5 440.62,-713.5 440.62,-687 313.62,-687"/>
<text text-anchor="start" x="318.62" y="-695.2" font-family="Times,serif" font-size="14.00">CADTF01: Viene de:</text>
<polygon fill="none" stroke="black" points="313.62,-660.5 313.62,-687 440.62,-687 440.62,-660.5 313.62,-660.5"/>
<text text-anchor="start" x="354.62" y="-668.7" font-family="Times,serif" font-size="14.00" fill="orange">MPF23.</text>
</g>
<!-- CADTF02 -->
<g id="node2" class="node">
<title>CADTF02</title>
<polygon fill="none" stroke="black" points="510.88,-619.5 243.38,-619.5 243.38,-558.5 510.88,-558.5 510.88,-619.5"/>
<polygon fill="none" stroke="black" points="251.38,-589 251.38,-615.5 502.88,-615.5 502.88,-589 251.38,-589"/>
<text text-anchor="start" x="320.88" y="-598.2" font-family="Times,serif" font-size="14.00">CADTF02: </text>
<text text-anchor="start" x="386.12" y="-598.2" font-family="Times,serif" font-size="14.00" fill="green">Sistema</text>
<text text-anchor="start" x="429.62" y="-598.2" font-family="Times,serif" font-size="14.00">.</text>
<polygon fill="none" stroke="black" points="251.38,-562.5 251.38,-589 502.88,-589 502.88,-562.5 251.38,-562.5"/>
<text text-anchor="start" x="256.38" y="-571.7" font-family="Times,serif" font-size="14.00" fill="blue">Ejecuta: </text>
<text text-anchor="start" x="304.38" y="-571.7" font-family="Times,serif" font-size="14.00">&quot;Download Template(Categories)&quot;.</text>
</g>
<!-- CADTF01&#45;&gt;CADTF02 -->
<g id="edge1" class="edge">
<title>CADTF01&#45;&gt;CADTF02</title>
<path fill="none" stroke="black" d="M377.12,-656.15C377.12,-648.29 377.12,-639.68 377.12,-631.33"/>
<polygon fill="black" stroke="black" points="380.63,-631.34 377.13,-621.34 373.63,-631.34 380.63,-631.34"/>
</g>
<!-- CADTF03 -->
<g id="node3" class="node">
<title>CADTF03</title>
<polygon fill="none" stroke="black" points="220.25,-492.75 0,-492.75 0,-405.25 220.25,-405.25 220.25,-492.75"/>
<polygon fill="none" stroke="black" points="8,-462.25 8,-488.75 212.25,-488.75 212.25,-462.25 8,-462.25"/>
<text text-anchor="start" x="49.75" y="-471.45" font-family="Times,serif" font-size="14.00">CADTF03: </text>
<text text-anchor="start" x="115" y="-471.45" font-family="Times,serif" font-size="14.00">Response</text>
<text text-anchor="start" x="166.75" y="-471.45" font-family="Times,serif" font-size="14.00">.</text>
<polygon fill="none" stroke="black" points="8,-435.75 8,-462.25 212.25,-462.25 212.25,-435.75 8,-435.75"/>
<text text-anchor="start" x="54.25" y="-444.95" font-family="Times,serif" font-size="14.00" fill="purple">res_msg: </text>
<text text-anchor="start" x="107.5" y="-444.95" font-family="Times,serif" font-size="14.00">&quot;Success&quot;.</text>
<polygon fill="none" stroke="black" points="8,-409.25 8,-435.75 212.25,-435.75 212.25,-409.25 8,-409.25"/>
<text text-anchor="start" x="13" y="-418.45" font-family="Times,serif" font-size="14.00" fill="purple">res_obj: </text>
<text text-anchor="start" x="60.25" y="-418.45" font-family="Times,serif" font-size="14.00">&quot;CategoriesTemplate.csv&quot;.</text>
</g>
<!-- CADTF02&#45;&gt;CADTF03 -->
<g id="edge2" class="edge">
<title>CADTF02&#45;&gt;CADTF03</title>
<path fill="none" stroke="green" d="M319.19,-558.06C285.54,-540.66 242.34,-518.34 203.96,-498.5"/>
<polygon fill="green" stroke="green" points="205.63,-495.42 195.13,-493.94 202.41,-501.64 205.63,-495.42"/>
<text text-anchor="middle" x="313" y="-527.2" font-family="Times,serif" font-size="14.00">code: &#39;200&#39;</text>
</g>
<!-- CADTF04 -->
<g id="node4" class="node">
<title>CADTF04</title>
<polygon fill="none" stroke="black" points="516.12,-506 238.12,-506 238.12,-392 516.12,-392 516.12,-506"/>
<polygon fill="none" stroke="black" points="246.12,-475.5 246.12,-502 508.12,-502 508.12,-475.5 246.12,-475.5"/>
<text text-anchor="start" x="316.75" y="-484.7" font-family="Times,serif" font-size="14.00">CADTF04: </text>
<text text-anchor="start" x="382" y="-484.7" font-family="Times,serif" font-size="14.00">Response</text>
<text text-anchor="start" x="433.75" y="-484.7" font-family="Times,serif" font-size="14.00">.</text>
<polygon fill="none" stroke="black" points="246.12,-449 246.12,-475.5 508.12,-475.5 508.12,-449 246.12,-449"/>
<text text-anchor="start" x="293.12" y="-458.2" font-family="Times,serif" font-size="14.00" fill="purple">res_msg: </text>
<text text-anchor="start" x="346.38" y="-458.2" font-family="Times,serif" font-size="14.00">&quot;Record not found.&quot;.</text>
<polygon fill="none" stroke="black" points="246.12,-422.5 246.12,-449 508.12,-449 508.12,-422.5 246.12,-422.5"/>
<text text-anchor="start" x="251.12" y="-431.7" font-family="Times,serif" font-size="14.00" fill="purple">dis_msg: </text>
<text text-anchor="start" x="304.38" y="-431.7" font-family="Times,serif" font-size="14.00">&quot;Hay un problema con el servidor.&quot;.</text>
<polygon fill="none" stroke="black" points="246.12,-396 246.12,-422.5 508.12,-422.5 508.12,-396 246.12,-396"/>
<text text-anchor="start" x="340.75" y="-405.2" font-family="Times,serif" font-size="14.00" fill="purple">type: </text>
<text text-anchor="start" x="371.5" y="-405.2" font-family="Times,serif" font-size="14.00">&quot;error&quot;.</text>
</g>
<!-- CADTF02&#45;&gt;CADTF04 -->
<g id="edge3" class="edge">
<title>CADTF02&#45;&gt;CADTF04</title>
<path fill="none" stroke="red" d="M377.12,-558.06C377.12,-546.11 377.12,-531.83 377.12,-517.63"/>
<polygon fill="red" stroke="red" points="380.63,-517.82 377.13,-507.82 373.63,-517.82 380.63,-517.82"/>
<text text-anchor="middle" x="406" y="-527.2" font-family="Times,serif" font-size="14.00">code: &#39;404&#39;</text>
</g>
<!-- CADTF05 -->
<g id="node5" class="node">
<title>CADTF05</title>
<polygon fill="none" stroke="black" points="839.62,-506 534.62,-506 534.62,-392 839.62,-392 839.62,-506"/>
<polygon fill="none" stroke="black" points="542.62,-475.5 542.62,-502 831.62,-502 831.62,-475.5 542.62,-475.5"/>
<text text-anchor="start" x="626.75" y="-484.7" font-family="Times,serif" font-size="14.00">CADTF05: </text>
<text text-anchor="start" x="692" y="-484.7" font-family="Times,serif" font-size="14.00">Response</text>
<text text-anchor="start" x="743.75" y="-484.7" font-family="Times,serif" font-size="14.00">.</text>
<polygon fill="none" stroke="black" points="542.62,-449 542.62,-475.5 831.62,-475.5 831.62,-449 542.62,-449"/>
<text text-anchor="start" x="591.12" y="-458.2" font-family="Times,serif" font-size="14.00" fill="purple">res_msg: </text>
<text text-anchor="start" x="644.38" y="-458.2" font-family="Times,serif" font-size="14.00">&quot;Database not available&quot;.</text>
<polygon fill="none" stroke="black" points="542.62,-422.5 542.62,-449 831.62,-449 831.62,-422.5 542.62,-422.5"/>
<text text-anchor="start" x="547.62" y="-431.7" font-family="Times,serif" font-size="14.00" fill="purple">dis_msg: </text>
<text text-anchor="start" x="600.88" y="-431.7" font-family="Times,serif" font-size="14.00">&quot;No hay conexión con la base de datos.&quot;.</text>
<polygon fill="none" stroke="black" points="542.62,-396 542.62,-422.5 831.62,-422.5 831.62,-396 542.62,-396"/>
<text text-anchor="start" x="650.75" y="-405.2" font-family="Times,serif" font-size="14.00" fill="purple">type: </text>
<text text-anchor="start" x="681.5" y="-405.2" font-family="Times,serif" font-size="14.00">&quot;error&quot;.</text>
</g>
<!-- CADTF02&#45;&gt;CADTF05 -->
<g id="edge4" class="edge">
<title>CADTF02&#45;&gt;CADTF05</title>
<path fill="none" stroke="red" d="M444.39,-558.06C475.4,-544.25 513.39,-527.34 550.03,-511.03"/>
<polygon fill="red" stroke="red" points="551.23,-514.33 558.94,-507.06 548.38,-507.93 551.23,-514.33"/>
<text text-anchor="middle" x="539.38" y="-527.2" font-family="Times,serif" font-size="14.00">code: &#39;E1&#39;</text>
</g>
<!-- CADTF06 -->
<g id="node6" class="node">
<title>CADTF06</title>
<polygon fill="none" stroke="black" points="185.75,-355 34.5,-355 34.5,-294 185.75,-294 185.75,-355"/>
<polygon fill="none" stroke="black" points="42.5,-324.5 42.5,-351 177.75,-351 177.75,-324.5 42.5,-324.5"/>
<text text-anchor="start" x="47.5" y="-332.7" font-family="Times,serif" font-size="14.00">CADTF06: Redirige a:</text>
<polygon fill="none" stroke="black" points="42.5,-298 42.5,-324.5 177.75,-324.5 177.75,-298 42.5,-298"/>
<text text-anchor="start" x="87.62" y="-306.2" font-family="Times,serif" font-size="14.00" fill="blue">MPF35.</text>
</g>
<!-- CADTF03&#45;&gt;CADTF06 -->
<g id="edge5" class="edge">
<title>CADTF03&#45;&gt;CADTF06</title>
<path fill="none" stroke="black" d="M110.12,-404.81C110.12,-392.39 110.12,-378.87 110.12,-366.58"/>
<polygon fill="black" stroke="black" points="113.63,-366.76 110.13,-356.76 106.63,-366.76 113.63,-366.76"/>
</g>
<!-- CADTF07 -->
<g id="node7" class="node">
<title>CADTF07</title>
<polygon fill="none" stroke="black" points="664,-355 400.25,-355 400.25,-294 664,-294 664,-355"/>
<polygon fill="none" stroke="black" points="408.25,-324.5 408.25,-351 656,-351 656,-324.5 408.25,-324.5"/>
<text text-anchor="start" x="475.88" y="-333.7" font-family="Times,serif" font-size="14.00">CADTF07: </text>
<text text-anchor="start" x="541.12" y="-333.7" font-family="Times,serif" font-size="14.00" fill="green">Sistema</text>
<text text-anchor="start" x="584.62" y="-333.7" font-family="Times,serif" font-size="14.00">.</text>
<polygon fill="none" stroke="black" points="408.25,-298 408.25,-324.5 656,-324.5 656,-298 408.25,-298"/>
<text text-anchor="start" x="413.25" y="-307.2" font-family="Times,serif" font-size="14.00" fill="green">Muestra: </text>
<text text-anchor="start" x="465.75" y="-307.2" font-family="Times,serif" font-size="14.00">&quot;MessageModal[dis_msg, type]&quot;.</text>
</g>
<!-- CADTF04&#45;&gt;CADTF07 -->
<g id="edge6" class="edge">
<title>CADTF04&#45;&gt;CADTF07</title>
<path fill="none" stroke="black" d="M448.27,-391.77C460.96,-381.75 473.87,-371.54 485.64,-362.24"/>
<polygon fill="black" stroke="black" points="487.53,-365.21 493.21,-356.26 483.19,-359.71 487.53,-365.21"/>
</g>
<!-- CADTF05&#45;&gt;CADTF07 -->
<g id="edge13" class="edge">
<title>CADTF05&#45;&gt;CADTF07</title>
<path fill="none" stroke="black" d="M615.98,-391.77C603.29,-381.75 590.38,-371.54 578.61,-362.24"/>
<polygon fill="black" stroke="black" points="581.06,-359.71 571.04,-356.26 576.72,-365.21 581.06,-359.71"/>
</g>
<!-- CADTF08 -->
<g id="node8" class="node">
<title>CADTF08</title>
<polygon fill="none" stroke="black" points="497,-257 275.25,-257 275.25,-196 497,-196 497,-257"/>
<polygon fill="none" stroke="black" points="283.25,-226.5 283.25,-253 489,-253 489,-226.5 283.25,-226.5"/>
<text text-anchor="start" x="336.25" y="-235.7" font-family="Times,serif" font-size="14.00">CADTF08: </text>
<text text-anchor="start" x="401.5" y="-235.7" font-family="Times,serif" font-size="14.00" fill="blue">Actor</text>
<text text-anchor="start" x="432.25" y="-235.7" font-family="Times,serif" font-size="14.00">.</text>
<polygon fill="none" stroke="black" points="283.25,-200 283.25,-226.5 489,-226.5 489,-200 283.25,-200"/>
<text text-anchor="start" x="288.25" y="-209.2" font-family="Times,serif" font-size="14.00" fill="orange">Selecciona: </text>
<text text-anchor="start" x="354.25" y="-209.2" font-family="Times,serif" font-size="14.00">&quot;MessageModal : Yes&quot;.</text>
</g>
<!-- CADTF07&#45;&gt;CADTF08 -->
<g id="edge7" class="edge">
<title>CADTF07&#45;&gt;CADTF08</title>
<path fill="none" stroke="black" d="M486.73,-293.65C472.24,-284.12 456.05,-273.48 440.97,-263.56"/>
<polygon fill="black" stroke="black" points="443.29,-260.9 433.01,-258.33 439.44,-266.75 443.29,-260.9"/>
</g>
<!-- CADTF09 -->
<g id="node9" class="node">
<title>CADTF09</title>
<polygon fill="none" stroke="black" points="734.88,-257 515.38,-257 515.38,-196 734.88,-196 734.88,-257"/>
<polygon fill="none" stroke="black" points="523.38,-226.5 523.38,-253 726.88,-253 726.88,-226.5 523.38,-226.5"/>
<text text-anchor="start" x="575.25" y="-235.7" font-family="Times,serif" font-size="14.00">CADTF09: </text>
<text text-anchor="start" x="640.5" y="-235.7" font-family="Times,serif" font-size="14.00" fill="blue">Actor</text>
<text text-anchor="start" x="671.25" y="-235.7" font-family="Times,serif" font-size="14.00">.</text>
<polygon fill="none" stroke="black" points="523.38,-200 523.38,-226.5 726.88,-226.5 726.88,-200 523.38,-200"/>
<text text-anchor="start" x="528.38" y="-209.2" font-family="Times,serif" font-size="14.00" fill="orange">Selecciona: </text>
<text text-anchor="start" x="594.38" y="-209.2" font-family="Times,serif" font-size="14.00">&quot;MessageModal : No&quot;.</text>
</g>
<!-- CADTF07&#45;&gt;CADTF09 -->
<g id="edge8" class="edge">
<title>CADTF07&#45;&gt;CADTF09</title>
<path fill="none" stroke="black" d="M561.04,-293.65C569.7,-284.71 579.32,-274.79 588.41,-265.4"/>
<polygon fill="black" stroke="black" points="590.73,-268.04 595.17,-258.42 585.7,-263.16 590.73,-268.04"/>
</g>
<!-- CADTF12 -->
<g id="node12" class="node">
<title>CADTF12</title>
<polygon fill="none" stroke="black" points="467.75,-159 304.5,-159 304.5,-98 467.75,-98 467.75,-159"/>
<polygon fill="none" stroke="black" points="312.5,-128.5 312.5,-155 459.75,-155 459.75,-128.5 312.5,-128.5"/>
<text text-anchor="start" x="331.75" y="-137.7" font-family="Times,serif" font-size="14.00">CADTF12: </text>
<text text-anchor="start" x="397" y="-137.7" font-family="Times,serif" font-size="14.00" fill="green">Sistema</text>
<polygon fill="none" stroke="black" points="312.5,-102 312.5,-128.5 459.75,-128.5 459.75,-102 312.5,-102"/>
<text text-anchor="start" x="317.5" y="-111.2" font-family="Times,serif" font-size="14.00" fill="blue">Cierra</text>
<text text-anchor="start" x="351.25" y="-111.2" font-family="Times,serif" font-size="14.00">: &quot;MessageModal&quot;</text>
</g>
<!-- CADTF08&#45;&gt;CADTF12 -->
<g id="edge11" class="edge">
<title>CADTF08&#45;&gt;CADTF12</title>
<path fill="none" stroke="black" d="M386.12,-195.65C386.12,-187.79 386.12,-179.18 386.12,-170.83"/>
<polygon fill="black" stroke="black" points="389.63,-170.84 386.13,-160.84 382.63,-170.84 389.63,-170.84"/>
</g>
<!-- CADTF10 -->
<g id="node10" class="node">
<title>CADTF10</title>
<polygon fill="none" stroke="black" points="706.75,-159 543.5,-159 543.5,-98 706.75,-98 706.75,-159"/>
<polygon fill="none" stroke="black" points="551.5,-128.5 551.5,-155 698.75,-155 698.75,-128.5 551.5,-128.5"/>
<text text-anchor="start" x="570.75" y="-137.7" font-family="Times,serif" font-size="14.00">CADTF10: </text>
<text text-anchor="start" x="636" y="-137.7" font-family="Times,serif" font-size="14.00" fill="green">Sistema</text>
<polygon fill="none" stroke="black" points="551.5,-102 551.5,-128.5 698.75,-128.5 698.75,-102 551.5,-102"/>
<text text-anchor="start" x="556.5" y="-111.2" font-family="Times,serif" font-size="14.00" fill="blue">Cierra</text>
<text text-anchor="start" x="590.25" y="-111.2" font-family="Times,serif" font-size="14.00">: &quot;MessageModal&quot;</text>
</g>
<!-- CADTF09&#45;&gt;CADTF10 -->
<g id="edge9" class="edge">
<title>CADTF09&#45;&gt;CADTF10</title>
<path fill="none" stroke="black" d="M625.12,-195.65C625.12,-187.79 625.12,-179.18 625.12,-170.83"/>
<polygon fill="black" stroke="black" points="628.63,-170.84 625.13,-160.84 621.63,-170.84 628.63,-170.84"/>
</g>
<!-- CADTF11 -->
<g id="node11" class="node">
<title>CADTF11</title>
<polygon fill="none" stroke="black" points="700.75,-61 549.5,-61 549.5,0 700.75,0 700.75,-61"/>
<polygon fill="none" stroke="black" points="557.5,-30.5 557.5,-57 692.75,-57 692.75,-30.5 557.5,-30.5"/>
<text text-anchor="start" x="562.5" y="-38.7" font-family="Times,serif" font-size="14.00">CADTF11: Redirige a:</text>
<polygon fill="none" stroke="black" points="557.5,-4 557.5,-30.5 692.75,-30.5 692.75,-4 557.5,-4"/>
<text text-anchor="start" x="602.62" y="-12.2" font-family="Times,serif" font-size="14.00" fill="blue">MPF29.</text>
</g>
<!-- CADTF10&#45;&gt;CADTF11 -->
<g id="edge10" class="edge">
<title>CADTF10&#45;&gt;CADTF11</title>
<path fill="none" stroke="black" d="M625.12,-97.65C625.12,-89.79 625.12,-81.18 625.12,-72.83"/>
<polygon fill="black" stroke="black" points="628.63,-72.84 625.13,-62.84 621.63,-72.84 628.63,-72.84"/>
</g>
<!-- CADTF13 -->
<g id="node13" class="node">
<title>CADTF13</title>
<polygon fill="none" stroke="black" points="461.75,-61 310.5,-61 310.5,0 461.75,0 461.75,-61"/>
<polygon fill="none" stroke="black" points="318.5,-30.5 318.5,-57 453.75,-57 453.75,-30.5 318.5,-30.5"/>
<text text-anchor="start" x="323.5" y="-38.7" font-family="Times,serif" font-size="14.00">CADTF13: Redirige a:</text>
<polygon fill="none" stroke="black" points="318.5,-4 318.5,-30.5 453.75,-30.5 453.75,-4 318.5,-4"/>
<text text-anchor="start" x="355.38" y="-12.2" font-family="Times,serif" font-size="14.00" fill="blue">CADTF02.</text>
</g>
<!-- CADTF12&#45;&gt;CADTF13 -->
<g id="edge12" class="edge">
<title>CADTF12&#45;&gt;CADTF13</title>
<path fill="none" stroke="black" d="M386.12,-97.65C386.12,-89.79 386.12,-81.18 386.12,-72.83"/>
<polygon fill="black" stroke="black" points="389.63,-72.84 386.13,-62.84 382.63,-72.84 389.63,-72.84"/>
</g>
</g>
</svg>
