<?xml version="1.0" encoding="UTF-8" standalone="no"?>
<!DOCTYPE svg PUBLIC "-//W3C//DTD SVG 1.1//EN"
 "http://www.w3.org/Graphics/SVG/1.1/DTD/svg11.dtd">
<!-- Generated by graphviz version 9.0.0 (20230911.1827)
 -->
<!-- Title: DownloadRolesTemplateFlow Pages: 1 -->
<svg width="821pt" height="726pt"
 viewBox="0.00 0.00 821.12 725.50" xmlns="http://www.w3.org/2000/svg" xmlns:xlink="http://www.w3.org/1999/xlink">
<g id="graph0" class="graph" transform="scale(1 1) rotate(0) translate(4 721.5)">
<title>DownloadRolesTemplateFlow</title>
<polygon fill="white" stroke="none" points="-4,4 -4,-721.5 817.12,-721.5 817.12,4 -4,4"/>
<!-- RODTF01 -->
<g id="node1" class="node">
<title>RODTF01</title>
<polygon fill="none" stroke="black" points="422.12,-717.5 279.12,-717.5 279.12,-656.5 422.12,-656.5 422.12,-717.5"/>
<polygon fill="none" stroke="black" points="287.12,-687 287.12,-713.5 414.12,-713.5 414.12,-687 287.12,-687"/>
<text text-anchor="start" x="292.12" y="-695.2" font-family="Times,serif" font-size="14.00">RODTF01: Viene de:</text>
<polygon fill="none" stroke="black" points="287.12,-660.5 287.12,-687 414.12,-687 414.12,-660.5 287.12,-660.5"/>
<text text-anchor="start" x="328.12" y="-668.7" font-family="Times,serif" font-size="14.00" fill="orange">MPF23.</text>
</g>
<!-- RODTF02 -->
<g id="node2" class="node">
<title>RODTF02</title>
<polygon fill="none" stroke="black" points="470.88,-619.5 230.38,-619.5 230.38,-558.5 470.88,-558.5 470.88,-619.5"/>
<polygon fill="none" stroke="black" points="238.38,-589 238.38,-615.5 462.88,-615.5 462.88,-589 238.38,-589"/>
<text text-anchor="start" x="294.38" y="-598.2" font-family="Times,serif" font-size="14.00">RODTF02: </text>
<text text-anchor="start" x="359.62" y="-598.2" font-family="Times,serif" font-size="14.00" fill="green">Sistema</text>
<text text-anchor="start" x="403.12" y="-598.2" font-family="Times,serif" font-size="14.00">.</text>
<polygon fill="none" stroke="black" points="238.38,-562.5 238.38,-589 462.88,-589 462.88,-562.5 238.38,-562.5"/>
<text text-anchor="start" x="243.38" y="-571.7" font-family="Times,serif" font-size="14.00" fill="blue">Ejecuta: </text>
<text text-anchor="start" x="291.38" y="-571.7" font-family="Times,serif" font-size="14.00">&quot;Download Template(Roles)&quot;.</text>
</g>
<!-- RODTF01&#45;&gt;RODTF02 -->
<g id="edge1" class="edge">
<title>RODTF01&#45;&gt;RODTF02</title>
<path fill="none" stroke="black" d="M350.62,-656.15C350.62,-648.29 350.62,-639.68 350.62,-631.33"/>
<polygon fill="black" stroke="black" points="354.13,-631.34 350.63,-621.34 347.13,-631.34 354.13,-631.34"/>
</g>
<!-- RODTF03 -->
<g id="node3" class="node">
<title>RODTF03</title>
<polygon fill="none" stroke="black" points="193.25,-492.75 0,-492.75 0,-405.25 193.25,-405.25 193.25,-492.75"/>
<polygon fill="none" stroke="black" points="8,-462.25 8,-488.75 185.25,-488.75 185.25,-462.25 8,-462.25"/>
<text text-anchor="start" x="36.25" y="-471.45" font-family="Times,serif" font-size="14.00">RODTF03: </text>
<text text-anchor="start" x="101.5" y="-471.45" font-family="Times,serif" font-size="14.00">Response</text>
<text text-anchor="start" x="153.25" y="-471.45" font-family="Times,serif" font-size="14.00">.</text>
<polygon fill="none" stroke="black" points="8,-435.75 8,-462.25 185.25,-462.25 185.25,-435.75 8,-435.75"/>
<text text-anchor="start" x="40.75" y="-444.95" font-family="Times,serif" font-size="14.00" fill="purple">res_msg: </text>
<text text-anchor="start" x="94" y="-444.95" font-family="Times,serif" font-size="14.00">&quot;Success&quot;.</text>
<polygon fill="none" stroke="black" points="8,-409.25 8,-435.75 185.25,-435.75 185.25,-409.25 8,-409.25"/>
<text text-anchor="start" x="13" y="-418.45" font-family="Times,serif" font-size="14.00" fill="purple">res_obj: </text>
<text text-anchor="start" x="60.25" y="-418.45" font-family="Times,serif" font-size="14.00">&quot;RolesTemplate.csv&quot;.</text>
</g>
<!-- RODTF02&#45;&gt;RODTF03 -->
<g id="edge2" class="edge">
<title>RODTF02&#45;&gt;RODTF03</title>
<path fill="none" stroke="green" d="M295.51,-558.06C263.5,-540.66 222.4,-518.34 185.89,-498.5"/>
<polygon fill="green" stroke="green" points="188,-495.66 177.55,-493.97 184.66,-501.81 188,-495.66"/>
<text text-anchor="middle" x="290.5" y="-527.2" font-family="Times,serif" font-size="14.00">code: &#39;200&#39;</text>
</g>
<!-- RODTF04 -->
<g id="node4" class="node">
<title>RODTF04</title>
<polygon fill="none" stroke="black" points="489.62,-506 211.62,-506 211.62,-392 489.62,-392 489.62,-506"/>
<polygon fill="none" stroke="black" points="219.62,-475.5 219.62,-502 481.62,-502 481.62,-475.5 219.62,-475.5"/>
<text text-anchor="start" x="290.25" y="-484.7" font-family="Times,serif" font-size="14.00">RODTF04: </text>
<text text-anchor="start" x="355.5" y="-484.7" font-family="Times,serif" font-size="14.00">Response</text>
<text text-anchor="start" x="407.25" y="-484.7" font-family="Times,serif" font-size="14.00">.</text>
<polygon fill="none" stroke="black" points="219.62,-449 219.62,-475.5 481.62,-475.5 481.62,-449 219.62,-449"/>
<text text-anchor="start" x="266.62" y="-458.2" font-family="Times,serif" font-size="14.00" fill="purple">res_msg: </text>
<text text-anchor="start" x="319.88" y="-458.2" font-family="Times,serif" font-size="14.00">&quot;Record not found.&quot;.</text>
<polygon fill="none" stroke="black" points="219.62,-422.5 219.62,-449 481.62,-449 481.62,-422.5 219.62,-422.5"/>
<text text-anchor="start" x="224.62" y="-431.7" font-family="Times,serif" font-size="14.00" fill="purple">dis_msg: </text>
<text text-anchor="start" x="277.88" y="-431.7" font-family="Times,serif" font-size="14.00">&quot;Hay un problema con el servidor.&quot;.</text>
<polygon fill="none" stroke="black" points="219.62,-396 219.62,-422.5 481.62,-422.5 481.62,-396 219.62,-396"/>
<text text-anchor="start" x="314.25" y="-405.2" font-family="Times,serif" font-size="14.00" fill="purple">type: </text>
<text text-anchor="start" x="345" y="-405.2" font-family="Times,serif" font-size="14.00">&quot;error&quot;.</text>
</g>
<!-- RODTF02&#45;&gt;RODTF04 -->
<g id="edge3" class="edge">
<title>RODTF02&#45;&gt;RODTF04</title>
<path fill="none" stroke="red" d="M350.62,-558.06C350.62,-546.11 350.62,-531.83 350.62,-517.63"/>
<polygon fill="red" stroke="red" points="354.13,-517.82 350.63,-507.82 347.13,-517.82 354.13,-517.82"/>
<text text-anchor="middle" x="379.5" y="-527.2" font-family="Times,serif" font-size="14.00">code: &#39;404&#39;</text>
</g>
<!-- RODTF05 -->
<g id="node5" class="node">
<title>RODTF05</title>
<polygon fill="none" stroke="black" points="813.12,-506 508.12,-506 508.12,-392 813.12,-392 813.12,-506"/>
<polygon fill="none" stroke="black" points="516.12,-475.5 516.12,-502 805.12,-502 805.12,-475.5 516.12,-475.5"/>
<text text-anchor="start" x="600.25" y="-484.7" font-family="Times,serif" font-size="14.00">RODTF05: </text>
<text text-anchor="start" x="665.5" y="-484.7" font-family="Times,serif" font-size="14.00">Response</text>
<text text-anchor="start" x="717.25" y="-484.7" font-family="Times,serif" font-size="14.00">.</text>
<polygon fill="none" stroke="black" points="516.12,-449 516.12,-475.5 805.12,-475.5 805.12,-449 516.12,-449"/>
<text text-anchor="start" x="564.62" y="-458.2" font-family="Times,serif" font-size="14.00" fill="purple">res_msg: </text>
<text text-anchor="start" x="617.88" y="-458.2" font-family="Times,serif" font-size="14.00">&quot;Database not available&quot;.</text>
<polygon fill="none" stroke="black" points="516.12,-422.5 516.12,-449 805.12,-449 805.12,-422.5 516.12,-422.5"/>
<text text-anchor="start" x="521.12" y="-431.7" font-family="Times,serif" font-size="14.00" fill="purple">dis_msg: </text>
<text text-anchor="start" x="574.38" y="-431.7" font-family="Times,serif" font-size="14.00">&quot;No hay conexión con la base de datos.&quot;.</text>
<polygon fill="none" stroke="black" points="516.12,-396 516.12,-422.5 805.12,-422.5 805.12,-396 516.12,-396"/>
<text text-anchor="start" x="624.25" y="-405.2" font-family="Times,serif" font-size="14.00" fill="purple">type: </text>
<text text-anchor="start" x="655" y="-405.2" font-family="Times,serif" font-size="14.00">&quot;error&quot;.</text>
</g>
<!-- RODTF02&#45;&gt;RODTF05 -->
<g id="edge4" class="edge">
<title>RODTF02&#45;&gt;RODTF05</title>
<path fill="none" stroke="red" d="M417.89,-558.06C448.9,-544.25 486.89,-527.34 523.53,-511.03"/>
<polygon fill="red" stroke="red" points="524.73,-514.33 532.44,-507.06 521.88,-507.93 524.73,-514.33"/>
<text text-anchor="middle" x="512.88" y="-527.2" font-family="Times,serif" font-size="14.00">code: &#39;E1&#39;</text>
</g>
<!-- RODTF06 -->
<g id="node6" class="node">
<title>RODTF06</title>
<polygon fill="none" stroke="black" points="172.25,-355 21,-355 21,-294 172.25,-294 172.25,-355"/>
<polygon fill="none" stroke="black" points="29,-324.5 29,-351 164.25,-351 164.25,-324.5 29,-324.5"/>
<text text-anchor="start" x="34" y="-332.7" font-family="Times,serif" font-size="14.00">RODTF06: Redirige a:</text>
<polygon fill="none" stroke="black" points="29,-298 29,-324.5 164.25,-324.5 164.25,-298 29,-298"/>
<text text-anchor="start" x="70.75" y="-306.2" font-family="Times,serif" font-size="14.00" fill="blue">MPF139.</text>
</g>
<!-- RODTF03&#45;&gt;RODTF06 -->
<g id="edge5" class="edge">
<title>RODTF03&#45;&gt;RODTF06</title>
<path fill="none" stroke="black" d="M96.62,-404.81C96.62,-392.39 96.62,-378.87 96.62,-366.58"/>
<polygon fill="black" stroke="black" points="100.13,-366.76 96.63,-356.76 93.13,-366.76 100.13,-366.76"/>
</g>
<!-- RODTF07 -->
<g id="node7" class="node">
<title>RODTF07</title>
<polygon fill="none" stroke="black" points="637.5,-355 373.75,-355 373.75,-294 637.5,-294 637.5,-355"/>
<polygon fill="none" stroke="black" points="381.75,-324.5 381.75,-351 629.5,-351 629.5,-324.5 381.75,-324.5"/>
<text text-anchor="start" x="449.38" y="-333.7" font-family="Times,serif" font-size="14.00">RODTF07: </text>
<text text-anchor="start" x="514.62" y="-333.7" font-family="Times,serif" font-size="14.00" fill="green">Sistema</text>
<text text-anchor="start" x="558.12" y="-333.7" font-family="Times,serif" font-size="14.00">.</text>
<polygon fill="none" stroke="black" points="381.75,-298 381.75,-324.5 629.5,-324.5 629.5,-298 381.75,-298"/>
<text text-anchor="start" x="386.75" y="-307.2" font-family="Times,serif" font-size="14.00" fill="green">Muestra: </text>
<text text-anchor="start" x="439.25" y="-307.2" font-family="Times,serif" font-size="14.00">&quot;MessageModal[dis_msg, type]&quot;.</text>
</g>
<!-- RODTF04&#45;&gt;RODTF07 -->
<g id="edge6" class="edge">
<title>RODTF04&#45;&gt;RODTF07</title>
<path fill="none" stroke="black" d="M421.77,-391.77C434.46,-381.75 447.37,-371.54 459.14,-362.24"/>
<polygon fill="black" stroke="black" points="461.03,-365.21 466.71,-356.26 456.69,-359.71 461.03,-365.21"/>
</g>
<!-- RODTF05&#45;&gt;RODTF07 -->
<g id="edge13" class="edge">
<title>RODTF05&#45;&gt;RODTF07</title>
<path fill="none" stroke="black" d="M589.48,-391.77C576.79,-381.75 563.88,-371.54 552.11,-362.24"/>
<polygon fill="black" stroke="black" points="554.56,-359.71 544.54,-356.26 550.22,-365.21 554.56,-359.71"/>
</g>
<!-- RODTF08 -->
<g id="node8" class="node">
<title>RODTF08</title>
<polygon fill="none" stroke="black" points="470.5,-257 248.75,-257 248.75,-196 470.5,-196 470.5,-257"/>
<polygon fill="none" stroke="black" points="256.75,-226.5 256.75,-253 462.5,-253 462.5,-226.5 256.75,-226.5"/>
<text text-anchor="start" x="309.75" y="-235.7" font-family="Times,serif" font-size="14.00">RODTF08: </text>
<text text-anchor="start" x="375" y="-235.7" font-family="Times,serif" font-size="14.00" fill="blue">Actor</text>
<text text-anchor="start" x="405.75" y="-235.7" font-family="Times,serif" font-size="14.00">.</text>
<polygon fill="none" stroke="black" points="256.75,-200 256.75,-226.5 462.5,-226.5 462.5,-200 256.75,-200"/>
<text text-anchor="start" x="261.75" y="-209.2" font-family="Times,serif" font-size="14.00" fill="orange">Selecciona: </text>
<text text-anchor="start" x="327.75" y="-209.2" font-family="Times,serif" font-size="14.00">&quot;MessageModal : Yes&quot;.</text>
</g>
<!-- RODTF07&#45;&gt;RODTF08 -->
<g id="edge7" class="edge">
<title>RODTF07&#45;&gt;RODTF08</title>
<path fill="none" stroke="black" d="M460.23,-293.65C445.74,-284.12 429.55,-273.48 414.47,-263.56"/>
<polygon fill="black" stroke="black" points="416.79,-260.9 406.51,-258.33 412.94,-266.75 416.79,-260.9"/>
</g>
<!-- RODTF09 -->
<g id="node9" class="node">
<title>RODTF09</title>
<polygon fill="none" stroke="black" points="708.38,-257 488.88,-257 488.88,-196 708.38,-196 708.38,-257"/>
<polygon fill="none" stroke="black" points="496.88,-226.5 496.88,-253 700.38,-253 700.38,-226.5 496.88,-226.5"/>
<text text-anchor="start" x="548.75" y="-235.7" font-family="Times,serif" font-size="14.00">RODTF09: </text>
<text text-anchor="start" x="614" y="-235.7" font-family="Times,serif" font-size="14.00" fill="blue">Actor</text>
<text text-anchor="start" x="644.75" y="-235.7" font-family="Times,serif" font-size="14.00">.</text>
<polygon fill="none" stroke="black" points="496.88,-200 496.88,-226.5 700.38,-226.5 700.38,-200 496.88,-200"/>
<text text-anchor="start" x="501.88" y="-209.2" font-family="Times,serif" font-size="14.00" fill="orange">Selecciona: </text>
<text text-anchor="start" x="567.88" y="-209.2" font-family="Times,serif" font-size="14.00">&quot;MessageModal : No&quot;.</text>
</g>
<!-- RODTF07&#45;&gt;RODTF09 -->
<g id="edge8" class="edge">
<title>RODTF07&#45;&gt;RODTF09</title>
<path fill="none" stroke="black" d="M534.54,-293.65C543.2,-284.71 552.82,-274.79 561.91,-265.4"/>
<polygon fill="black" stroke="black" points="564.23,-268.04 568.67,-258.42 559.2,-263.16 564.23,-268.04"/>
</g>
<!-- RODTF12 -->
<g id="node12" class="node">
<title>RODTF12</title>
<polygon fill="none" stroke="black" points="441.25,-159 278,-159 278,-98 441.25,-98 441.25,-159"/>
<polygon fill="none" stroke="black" points="286,-128.5 286,-155 433.25,-155 433.25,-128.5 286,-128.5"/>
<text text-anchor="start" x="305.25" y="-137.7" font-family="Times,serif" font-size="14.00">RODTF12: </text>
<text text-anchor="start" x="370.5" y="-137.7" font-family="Times,serif" font-size="14.00" fill="green">Sistema</text>
<polygon fill="none" stroke="black" points="286,-102 286,-128.5 433.25,-128.5 433.25,-102 286,-102"/>
<text text-anchor="start" x="291" y="-111.2" font-family="Times,serif" font-size="14.00" fill="blue">Cierra</text>
<text text-anchor="start" x="324.75" y="-111.2" font-family="Times,serif" font-size="14.00">: &quot;MessageModal&quot;</text>
</g>
<!-- RODTF08&#45;&gt;RODTF12 -->
<g id="edge11" class="edge">
<title>RODTF08&#45;&gt;RODTF12</title>
<path fill="none" stroke="black" d="M359.62,-195.65C359.62,-187.79 359.62,-179.18 359.62,-170.83"/>
<polygon fill="black" stroke="black" points="363.13,-170.84 359.63,-160.84 356.13,-170.84 363.13,-170.84"/>
</g>
<!-- RODTF10 -->
<g id="node10" class="node">
<title>RODTF10</title>
<polygon fill="none" stroke="black" points="680.25,-159 517,-159 517,-98 680.25,-98 680.25,-159"/>
<polygon fill="none" stroke="black" points="525,-128.5 525,-155 672.25,-155 672.25,-128.5 525,-128.5"/>
<text text-anchor="start" x="544.25" y="-137.7" font-family="Times,serif" font-size="14.00">RODTF10: </text>
<text text-anchor="start" x="609.5" y="-137.7" font-family="Times,serif" font-size="14.00" fill="green">Sistema</text>
<polygon fill="none" stroke="black" points="525,-102 525,-128.5 672.25,-128.5 672.25,-102 525,-102"/>
<text text-anchor="start" x="530" y="-111.2" font-family="Times,serif" font-size="14.00" fill="blue">Cierra</text>
<text text-anchor="start" x="563.75" y="-111.2" font-family="Times,serif" font-size="14.00">: &quot;MessageModal&quot;</text>
</g>
<!-- RODTF09&#45;&gt;RODTF10 -->
<g id="edge9" class="edge">
<title>RODTF09&#45;&gt;RODTF10</title>
<path fill="none" stroke="black" d="M598.62,-195.65C598.62,-187.79 598.62,-179.18 598.62,-170.83"/>
<polygon fill="black" stroke="black" points="602.13,-170.84 598.63,-160.84 595.13,-170.84 602.13,-170.84"/>
</g>
<!-- RODTF11 -->
<g id="node11" class="node">
<title>RODTF11</title>
<polygon fill="none" stroke="black" points="674.25,-61 523,-61 523,0 674.25,0 674.25,-61"/>
<polygon fill="none" stroke="black" points="531,-30.5 531,-57 666.25,-57 666.25,-30.5 531,-30.5"/>
<text text-anchor="start" x="536" y="-38.7" font-family="Times,serif" font-size="14.00">RODTF11: Redirige a:</text>
<polygon fill="none" stroke="black" points="531,-4 531,-30.5 666.25,-30.5 666.25,-4 531,-4"/>
<text text-anchor="start" x="572.75" y="-12.2" font-family="Times,serif" font-size="14.00" fill="blue">MPF133.</text>
</g>
<!-- RODTF10&#45;&gt;RODTF11 -->
<g id="edge10" class="edge">
<title>RODTF10&#45;&gt;RODTF11</title>
<path fill="none" stroke="black" d="M598.62,-97.65C598.62,-89.79 598.62,-81.18 598.62,-72.83"/>
<polygon fill="black" stroke="black" points="602.13,-72.84 598.63,-62.84 595.13,-72.84 602.13,-72.84"/>
</g>
<!-- RODTF13 -->
<g id="node13" class="node">
<title>RODTF13</title>
<polygon fill="none" stroke="black" points="435.25,-61 284,-61 284,0 435.25,0 435.25,-61"/>
<polygon fill="none" stroke="black" points="292,-30.5 292,-57 427.25,-57 427.25,-30.5 292,-30.5"/>
<text text-anchor="start" x="297" y="-38.7" font-family="Times,serif" font-size="14.00">RODTF13: Redirige a:</text>
<polygon fill="none" stroke="black" points="292,-4 292,-30.5 427.25,-30.5 427.25,-4 292,-4"/>
<text text-anchor="start" x="328.88" y="-12.2" font-family="Times,serif" font-size="14.00" fill="blue">RODTF02.</text>
</g>
<!-- RODTF12&#45;&gt;RODTF13 -->
<g id="edge12" class="edge">
<title>RODTF12&#45;&gt;RODTF13</title>
<path fill="none" stroke="black" d="M359.62,-97.65C359.62,-89.79 359.62,-81.18 359.62,-72.83"/>
<polygon fill="black" stroke="black" points="363.13,-72.84 359.63,-62.84 356.13,-72.84 363.13,-72.84"/>
</g>
</g>
</svg>
