<?xml version="1.0" encoding="UTF-8" standalone="no"?>
<!DOCTYPE svg PUBLIC "-//W3C//DTD SVG 1.1//EN"
 "http://www.w3.org/Graphics/SVG/1.1/DTD/svg11.dtd">
<!-- Generated by graphviz version 9.0.0 (20230911.1827)
 -->
<!-- Title: DownloadProductsTemplateFlow Pages: 1 -->
<svg width="837pt" height="726pt"
 viewBox="0.00 0.00 837.38 725.50" xmlns="http://www.w3.org/2000/svg" xmlns:xlink="http://www.w3.org/1999/xlink">
<g id="graph0" class="graph" transform="scale(1 1) rotate(0) translate(4 721.5)">
<title>DownloadProductsTemplateFlow</title>
<polygon fill="white" stroke="none" points="-4,4 -4,-721.5 833.38,-721.5 833.38,4 -4,4"/>
<!-- PIDTF01 -->
<g id="node1" class="node">
<title>PIDTF01</title>
<polygon fill="none" stroke="black" points="435,-717.5 298.75,-717.5 298.75,-656.5 435,-656.5 435,-717.5"/>
<polygon fill="none" stroke="black" points="306.75,-687 306.75,-713.5 427,-713.5 427,-687 306.75,-687"/>
<text text-anchor="start" x="311.75" y="-695.2" font-family="Times,serif" font-size="14.00">PIDTF01: Viene de:</text>
<polygon fill="none" stroke="black" points="306.75,-660.5 306.75,-687 427,-687 427,-660.5 306.75,-660.5"/>
<text text-anchor="start" x="344.38" y="-668.7" font-family="Times,serif" font-size="14.00" fill="orange">MPF23.</text>
</g>
<!-- PIDTF02 -->
<g id="node2" class="node">
<title>PIDTF02</title>
<polygon fill="none" stroke="black" points="495.38,-619.5 238.38,-619.5 238.38,-558.5 495.38,-558.5 495.38,-619.5"/>
<polygon fill="none" stroke="black" points="246.38,-589 246.38,-615.5 487.38,-615.5 487.38,-589 246.38,-589"/>
<text text-anchor="start" x="314" y="-598.2" font-family="Times,serif" font-size="14.00">PIDTF02: </text>
<text text-anchor="start" x="372.5" y="-598.2" font-family="Times,serif" font-size="14.00" fill="green">Sistema</text>
<text text-anchor="start" x="416" y="-598.2" font-family="Times,serif" font-size="14.00">.</text>
<polygon fill="none" stroke="black" points="246.38,-562.5 246.38,-589 487.38,-589 487.38,-562.5 246.38,-562.5"/>
<text text-anchor="start" x="251.38" y="-571.7" font-family="Times,serif" font-size="14.00" fill="blue">Ejecuta: </text>
<text text-anchor="start" x="299.38" y="-571.7" font-family="Times,serif" font-size="14.00">&quot;Download Template(Products)&quot;.</text>
</g>
<!-- PIDTF01&#45;&gt;PIDTF02 -->
<g id="edge1" class="edge">
<title>PIDTF01&#45;&gt;PIDTF02</title>
<path fill="none" stroke="black" d="M366.88,-656.15C366.88,-648.29 366.88,-639.68 366.88,-631.33"/>
<polygon fill="black" stroke="black" points="370.38,-631.34 366.88,-621.34 363.38,-631.34 370.38,-631.34"/>
</g>
<!-- PIDTF03 -->
<g id="node3" class="node">
<title>PIDTF03</title>
<polygon fill="none" stroke="black" points="209.75,-492.75 0,-492.75 0,-405.25 209.75,-405.25 209.75,-492.75"/>
<polygon fill="none" stroke="black" points="8,-462.25 8,-488.75 201.75,-488.75 201.75,-462.25 8,-462.25"/>
<text text-anchor="start" x="47.88" y="-471.45" font-family="Times,serif" font-size="14.00">PIDTF03: </text>
<text text-anchor="start" x="106.38" y="-471.45" font-family="Times,serif" font-size="14.00">Response</text>
<text text-anchor="start" x="158.12" y="-471.45" font-family="Times,serif" font-size="14.00">.</text>
<polygon fill="none" stroke="black" points="8,-435.75 8,-462.25 201.75,-462.25 201.75,-435.75 8,-435.75"/>
<text text-anchor="start" x="49" y="-444.95" font-family="Times,serif" font-size="14.00" fill="purple">res_msg: </text>
<text text-anchor="start" x="102.25" y="-444.95" font-family="Times,serif" font-size="14.00">&quot;Success&quot;.</text>
<polygon fill="none" stroke="black" points="8,-409.25 8,-435.75 201.75,-435.75 201.75,-409.25 8,-409.25"/>
<text text-anchor="start" x="13" y="-418.45" font-family="Times,serif" font-size="14.00" fill="purple">res_obj: </text>
<text text-anchor="start" x="60.25" y="-418.45" font-family="Times,serif" font-size="14.00">&quot;ProductsTemplate.csv&quot;.</text>
</g>
<!-- PIDTF02&#45;&gt;PIDTF03 -->
<g id="edge2" class="edge">
<title>PIDTF02&#45;&gt;PIDTF03</title>
<path fill="none" stroke="green" d="M310.02,-558.06C277.01,-540.66 234.62,-518.34 196.95,-498.5"/>
<polygon fill="green" stroke="green" points="198.79,-495.51 188.31,-493.95 195.53,-501.7 198.79,-495.51"/>
<text text-anchor="middle" x="303.75" y="-527.2" font-family="Times,serif" font-size="14.00">code: &#39;200&#39;</text>
</g>
<!-- PIDTF04 -->
<g id="node4" class="node">
<title>PIDTF04</title>
<polygon fill="none" stroke="black" points="505.88,-506 227.88,-506 227.88,-392 505.88,-392 505.88,-506"/>
<polygon fill="none" stroke="black" points="235.88,-475.5 235.88,-502 497.88,-502 497.88,-475.5 235.88,-475.5"/>
<text text-anchor="start" x="309.88" y="-484.7" font-family="Times,serif" font-size="14.00">PIDTF04: </text>
<text text-anchor="start" x="368.38" y="-484.7" font-family="Times,serif" font-size="14.00">Response</text>
<text text-anchor="start" x="420.12" y="-484.7" font-family="Times,serif" font-size="14.00">.</text>
<polygon fill="none" stroke="black" points="235.88,-449 235.88,-475.5 497.88,-475.5 497.88,-449 235.88,-449"/>
<text text-anchor="start" x="282.88" y="-458.2" font-family="Times,serif" font-size="14.00" fill="purple">res_msg: </text>
<text text-anchor="start" x="336.12" y="-458.2" font-family="Times,serif" font-size="14.00">&quot;Record not found.&quot;.</text>
<polygon fill="none" stroke="black" points="235.88,-422.5 235.88,-449 497.88,-449 497.88,-422.5 235.88,-422.5"/>
<text text-anchor="start" x="240.88" y="-431.7" font-family="Times,serif" font-size="14.00" fill="purple">dis_msg: </text>
<text text-anchor="start" x="294.12" y="-431.7" font-family="Times,serif" font-size="14.00">&quot;Hay un problema con el servidor.&quot;.</text>
<polygon fill="none" stroke="black" points="235.88,-396 235.88,-422.5 497.88,-422.5 497.88,-396 235.88,-396"/>
<text text-anchor="start" x="330.5" y="-405.2" font-family="Times,serif" font-size="14.00" fill="purple">type: </text>
<text text-anchor="start" x="361.25" y="-405.2" font-family="Times,serif" font-size="14.00">&quot;error&quot;.</text>
</g>
<!-- PIDTF02&#45;&gt;PIDTF04 -->
<g id="edge3" class="edge">
<title>PIDTF02&#45;&gt;PIDTF04</title>
<path fill="none" stroke="red" d="M366.88,-558.06C366.88,-546.11 366.88,-531.83 366.88,-517.63"/>
<polygon fill="red" stroke="red" points="370.38,-517.82 366.88,-507.82 363.38,-517.82 370.38,-517.82"/>
<text text-anchor="middle" x="395.75" y="-527.2" font-family="Times,serif" font-size="14.00">code: &#39;404&#39;</text>
</g>
<!-- PIDTF05 -->
<g id="node5" class="node">
<title>PIDTF05</title>
<polygon fill="none" stroke="black" points="829.38,-506 524.38,-506 524.38,-392 829.38,-392 829.38,-506"/>
<polygon fill="none" stroke="black" points="532.38,-475.5 532.38,-502 821.38,-502 821.38,-475.5 532.38,-475.5"/>
<text text-anchor="start" x="619.88" y="-484.7" font-family="Times,serif" font-size="14.00">PIDTF05: </text>
<text text-anchor="start" x="678.38" y="-484.7" font-family="Times,serif" font-size="14.00">Response</text>
<text text-anchor="start" x="730.12" y="-484.7" font-family="Times,serif" font-size="14.00">.</text>
<polygon fill="none" stroke="black" points="532.38,-449 532.38,-475.5 821.38,-475.5 821.38,-449 532.38,-449"/>
<text text-anchor="start" x="580.88" y="-458.2" font-family="Times,serif" font-size="14.00" fill="purple">res_msg: </text>
<text text-anchor="start" x="634.12" y="-458.2" font-family="Times,serif" font-size="14.00">&quot;Database not available&quot;.</text>
<polygon fill="none" stroke="black" points="532.38,-422.5 532.38,-449 821.38,-449 821.38,-422.5 532.38,-422.5"/>
<text text-anchor="start" x="537.38" y="-431.7" font-family="Times,serif" font-size="14.00" fill="purple">dis_msg: </text>
<text text-anchor="start" x="590.62" y="-431.7" font-family="Times,serif" font-size="14.00">&quot;No hay conexión con la base de datos.&quot;.</text>
<polygon fill="none" stroke="black" points="532.38,-396 532.38,-422.5 821.38,-422.5 821.38,-396 532.38,-396"/>
<text text-anchor="start" x="640.5" y="-405.2" font-family="Times,serif" font-size="14.00" fill="purple">type: </text>
<text text-anchor="start" x="671.25" y="-405.2" font-family="Times,serif" font-size="14.00">&quot;error&quot;.</text>
</g>
<!-- PIDTF02&#45;&gt;PIDTF05 -->
<g id="edge4" class="edge">
<title>PIDTF02&#45;&gt;PIDTF05</title>
<path fill="none" stroke="red" d="M434.14,-558.06C465.15,-544.25 503.14,-527.34 539.78,-511.03"/>
<polygon fill="red" stroke="red" points="540.98,-514.33 548.69,-507.06 538.13,-507.93 540.98,-514.33"/>
<text text-anchor="middle" x="529.12" y="-527.2" font-family="Times,serif" font-size="14.00">code: &#39;E1&#39;</text>
</g>
<!-- PIDTF06 -->
<g id="node6" class="node">
<title>PIDTF06</title>
<polygon fill="none" stroke="black" points="177.12,-355 32.62,-355 32.62,-294 177.12,-294 177.12,-355"/>
<polygon fill="none" stroke="black" points="40.62,-324.5 40.62,-351 169.12,-351 169.12,-324.5 40.62,-324.5"/>
<text text-anchor="start" x="45.62" y="-332.7" font-family="Times,serif" font-size="14.00">PIDTF06: Redirige a:</text>
<polygon fill="none" stroke="black" points="40.62,-298 40.62,-324.5 169.12,-324.5 169.12,-298 40.62,-298"/>
<text text-anchor="start" x="82.38" y="-306.2" font-family="Times,serif" font-size="14.00" fill="blue">MPF22.</text>
</g>
<!-- PIDTF03&#45;&gt;PIDTF06 -->
<g id="edge5" class="edge">
<title>PIDTF03&#45;&gt;PIDTF06</title>
<path fill="none" stroke="black" d="M104.88,-404.81C104.88,-392.39 104.88,-378.87 104.88,-366.58"/>
<polygon fill="black" stroke="black" points="108.38,-366.76 104.88,-356.76 101.38,-366.76 108.38,-366.76"/>
</g>
<!-- PIDTF07 -->
<g id="node7" class="node">
<title>PIDTF07</title>
<polygon fill="none" stroke="black" points="653.75,-355 390,-355 390,-294 653.75,-294 653.75,-355"/>
<polygon fill="none" stroke="black" points="398,-324.5 398,-351 645.75,-351 645.75,-324.5 398,-324.5"/>
<text text-anchor="start" x="469" y="-333.7" font-family="Times,serif" font-size="14.00">PIDTF07: </text>
<text text-anchor="start" x="527.5" y="-333.7" font-family="Times,serif" font-size="14.00" fill="green">Sistema</text>
<text text-anchor="start" x="571" y="-333.7" font-family="Times,serif" font-size="14.00">.</text>
<polygon fill="none" stroke="black" points="398,-298 398,-324.5 645.75,-324.5 645.75,-298 398,-298"/>
<text text-anchor="start" x="403" y="-307.2" font-family="Times,serif" font-size="14.00" fill="green">Muestra: </text>
<text text-anchor="start" x="455.5" y="-307.2" font-family="Times,serif" font-size="14.00">&quot;MessageModal[dis_msg, type]&quot;.</text>
</g>
<!-- PIDTF04&#45;&gt;PIDTF07 -->
<g id="edge6" class="edge">
<title>PIDTF04&#45;&gt;PIDTF07</title>
<path fill="none" stroke="black" d="M438.02,-391.77C450.71,-381.75 463.62,-371.54 475.39,-362.24"/>
<polygon fill="black" stroke="black" points="477.28,-365.21 482.96,-356.26 472.94,-359.71 477.28,-365.21"/>
</g>
<!-- PIDTF05&#45;&gt;PIDTF07 -->
<g id="edge13" class="edge">
<title>PIDTF05&#45;&gt;PIDTF07</title>
<path fill="none" stroke="black" d="M605.73,-391.77C593.04,-381.75 580.13,-371.54 568.36,-362.24"/>
<polygon fill="black" stroke="black" points="570.81,-359.71 560.79,-356.26 566.47,-365.21 570.81,-359.71"/>
</g>
<!-- PIDTF08 -->
<g id="node8" class="node">
<title>PIDTF08</title>
<polygon fill="none" stroke="black" points="486.75,-257 265,-257 265,-196 486.75,-196 486.75,-257"/>
<polygon fill="none" stroke="black" points="273,-226.5 273,-253 478.75,-253 478.75,-226.5 273,-226.5"/>
<text text-anchor="start" x="329.38" y="-235.7" font-family="Times,serif" font-size="14.00">PIDTF08: </text>
<text text-anchor="start" x="387.88" y="-235.7" font-family="Times,serif" font-size="14.00" fill="blue">Actor</text>
<text text-anchor="start" x="418.62" y="-235.7" font-family="Times,serif" font-size="14.00">.</text>
<polygon fill="none" stroke="black" points="273,-200 273,-226.5 478.75,-226.5 478.75,-200 273,-200"/>
<text text-anchor="start" x="278" y="-209.2" font-family="Times,serif" font-size="14.00" fill="orange">Selecciona: </text>
<text text-anchor="start" x="344" y="-209.2" font-family="Times,serif" font-size="14.00">&quot;MessageModal : Yes&quot;.</text>
</g>
<!-- PIDTF07&#45;&gt;PIDTF08 -->
<g id="edge7" class="edge">
<title>PIDTF07&#45;&gt;PIDTF08</title>
<path fill="none" stroke="black" d="M476.48,-293.65C461.99,-284.12 445.8,-273.48 430.72,-263.56"/>
<polygon fill="black" stroke="black" points="433.04,-260.9 422.76,-258.33 429.19,-266.75 433.04,-260.9"/>
</g>
<!-- PIDTF09 -->
<g id="node9" class="node">
<title>PIDTF09</title>
<polygon fill="none" stroke="black" points="724.62,-257 505.12,-257 505.12,-196 724.62,-196 724.62,-257"/>
<polygon fill="none" stroke="black" points="513.12,-226.5 513.12,-253 716.62,-253 716.62,-226.5 513.12,-226.5"/>
<text text-anchor="start" x="568.38" y="-235.7" font-family="Times,serif" font-size="14.00">PIDTF09: </text>
<text text-anchor="start" x="626.88" y="-235.7" font-family="Times,serif" font-size="14.00" fill="blue">Actor</text>
<text text-anchor="start" x="657.62" y="-235.7" font-family="Times,serif" font-size="14.00">.</text>
<polygon fill="none" stroke="black" points="513.12,-200 513.12,-226.5 716.62,-226.5 716.62,-200 513.12,-200"/>
<text text-anchor="start" x="518.12" y="-209.2" font-family="Times,serif" font-size="14.00" fill="orange">Selecciona: </text>
<text text-anchor="start" x="584.12" y="-209.2" font-family="Times,serif" font-size="14.00">&quot;MessageModal : No&quot;.</text>
</g>
<!-- PIDTF07&#45;&gt;PIDTF09 -->
<g id="edge8" class="edge">
<title>PIDTF07&#45;&gt;PIDTF09</title>
<path fill="none" stroke="black" d="M550.79,-293.65C559.45,-284.71 569.07,-274.79 578.16,-265.4"/>
<polygon fill="black" stroke="black" points="580.48,-268.04 584.92,-258.42 575.45,-263.16 580.48,-268.04"/>
</g>
<!-- PIDTF12 -->
<g id="node12" class="node">
<title>PIDTF12</title>
<polygon fill="none" stroke="black" points="457.5,-159 294.25,-159 294.25,-98 457.5,-98 457.5,-159"/>
<polygon fill="none" stroke="black" points="302.25,-128.5 302.25,-155 449.5,-155 449.5,-128.5 302.25,-128.5"/>
<text text-anchor="start" x="324.88" y="-137.7" font-family="Times,serif" font-size="14.00">PIDTF12: </text>
<text text-anchor="start" x="383.38" y="-137.7" font-family="Times,serif" font-size="14.00" fill="green">Sistema</text>
<polygon fill="none" stroke="black" points="302.25,-102 302.25,-128.5 449.5,-128.5 449.5,-102 302.25,-102"/>
<text text-anchor="start" x="307.25" y="-111.2" font-family="Times,serif" font-size="14.00" fill="blue">Cierra</text>
<text text-anchor="start" x="341" y="-111.2" font-family="Times,serif" font-size="14.00">: &quot;MessageModal&quot;</text>
</g>
<!-- PIDTF08&#45;&gt;PIDTF12 -->
<g id="edge11" class="edge">
<title>PIDTF08&#45;&gt;PIDTF12</title>
<path fill="none" stroke="black" d="M375.88,-195.65C375.88,-187.79 375.88,-179.18 375.88,-170.83"/>
<polygon fill="black" stroke="black" points="379.38,-170.84 375.88,-160.84 372.38,-170.84 379.38,-170.84"/>
</g>
<!-- PIDTF10 -->
<g id="node10" class="node">
<title>PIDTF10</title>
<polygon fill="none" stroke="black" points="696.5,-159 533.25,-159 533.25,-98 696.5,-98 696.5,-159"/>
<polygon fill="none" stroke="black" points="541.25,-128.5 541.25,-155 688.5,-155 688.5,-128.5 541.25,-128.5"/>
<text text-anchor="start" x="563.88" y="-137.7" font-family="Times,serif" font-size="14.00">PIDTF10: </text>
<text text-anchor="start" x="622.38" y="-137.7" font-family="Times,serif" font-size="14.00" fill="green">Sistema</text>
<polygon fill="none" stroke="black" points="541.25,-102 541.25,-128.5 688.5,-128.5 688.5,-102 541.25,-102"/>
<text text-anchor="start" x="546.25" y="-111.2" font-family="Times,serif" font-size="14.00" fill="blue">Cierra</text>
<text text-anchor="start" x="580" y="-111.2" font-family="Times,serif" font-size="14.00">: &quot;MessageModal&quot;</text>
</g>
<!-- PIDTF09&#45;&gt;PIDTF10 -->
<g id="edge9" class="edge">
<title>PIDTF09&#45;&gt;PIDTF10</title>
<path fill="none" stroke="black" d="M614.88,-195.65C614.88,-187.79 614.88,-179.18 614.88,-170.83"/>
<polygon fill="black" stroke="black" points="618.38,-170.84 614.88,-160.84 611.38,-170.84 618.38,-170.84"/>
</g>
<!-- PIDTF11 -->
<g id="node11" class="node">
<title>PIDTF11</title>
<polygon fill="none" stroke="black" points="687.12,-61 542.62,-61 542.62,0 687.12,0 687.12,-61"/>
<polygon fill="none" stroke="black" points="550.62,-30.5 550.62,-57 679.12,-57 679.12,-30.5 550.62,-30.5"/>
<text text-anchor="start" x="555.62" y="-38.7" font-family="Times,serif" font-size="14.00">PIDTF11: Redirige a:</text>
<polygon fill="none" stroke="black" points="550.62,-4 550.62,-30.5 679.12,-30.5 679.12,-4 550.62,-4"/>
<text text-anchor="start" x="592.38" y="-12.2" font-family="Times,serif" font-size="14.00" fill="blue">MPF16.</text>
</g>
<!-- PIDTF10&#45;&gt;PIDTF11 -->
<g id="edge10" class="edge">
<title>PIDTF10&#45;&gt;PIDTF11</title>
<path fill="none" stroke="black" d="M614.88,-97.65C614.88,-89.79 614.88,-81.18 614.88,-72.83"/>
<polygon fill="black" stroke="black" points="618.38,-72.84 614.88,-62.84 611.38,-72.84 618.38,-72.84"/>
</g>
<!-- PIDTF13 -->
<g id="node13" class="node">
<title>PIDTF13</title>
<polygon fill="none" stroke="black" points="448.12,-61 303.62,-61 303.62,0 448.12,0 448.12,-61"/>
<polygon fill="none" stroke="black" points="311.62,-30.5 311.62,-57 440.12,-57 440.12,-30.5 311.62,-30.5"/>
<text text-anchor="start" x="316.62" y="-38.7" font-family="Times,serif" font-size="14.00">PIDTF13: Redirige a:</text>
<polygon fill="none" stroke="black" points="311.62,-4 311.62,-30.5 440.12,-30.5 440.12,-4 311.62,-4"/>
<text text-anchor="start" x="345.88" y="-12.2" font-family="Times,serif" font-size="14.00" fill="blue">PDDTF02.</text>
</g>
<!-- PIDTF12&#45;&gt;PIDTF13 -->
<g id="edge12" class="edge">
<title>PIDTF12&#45;&gt;PIDTF13</title>
<path fill="none" stroke="black" d="M375.88,-97.65C375.88,-89.79 375.88,-81.18 375.88,-72.83"/>
<polygon fill="black" stroke="black" points="379.38,-72.84 375.88,-62.84 372.38,-72.84 379.38,-72.84"/>
</g>
</g>
</svg>
