<?xml version="1.0" encoding="UTF-8" standalone="no"?>
<!DOCTYPE svg PUBLIC "-//W3C//DTD SVG 1.1//EN"
 "http://www.w3.org/Graphics/SVG/1.1/DTD/svg11.dtd">
<!-- Generated by graphviz version 9.0.0 (20230911.1827)
 -->
<!-- Title: DownloadUserTemplateFlow Pages: 1 -->
<svg width="816pt" height="726pt"
 viewBox="0.00 0.00 815.50 725.50" xmlns="http://www.w3.org/2000/svg" xmlns:xlink="http://www.w3.org/1999/xlink">
<g id="graph0" class="graph" transform="scale(1 1) rotate(0) translate(4 721.5)">
<title>DownloadUserTemplateFlow</title>
<polygon fill="white" stroke="none" points="-4,4 -4,-721.5 811.5,-721.5 811.5,4 -4,4"/>
<!-- UDTF01 -->
<g id="node1" class="node">
<title>UDTF01</title>
<polygon fill="none" stroke="black" points="412,-717.5 278,-717.5 278,-656.5 412,-656.5 412,-717.5"/>
<polygon fill="none" stroke="black" points="286,-687 286,-713.5 404,-713.5 404,-687 286,-687"/>
<text text-anchor="start" x="291" y="-695.2" font-family="Times,serif" font-size="14.00">UDTF01: Viene de:</text>
<polygon fill="none" stroke="black" points="286,-660.5 286,-687 404,-687 404,-660.5 286,-660.5"/>
<text text-anchor="start" x="322.5" y="-668.7" font-family="Times,serif" font-size="14.00" fill="orange">MPF23.</text>
</g>
<!-- UDTF02 -->
<g id="node2" class="node">
<title>UDTF02</title>
<polygon fill="none" stroke="black" points="462.62,-619.5 227.38,-619.5 227.38,-558.5 462.62,-558.5 462.62,-619.5"/>
<polygon fill="none" stroke="black" points="235.38,-589 235.38,-615.5 454.62,-615.5 454.62,-589 235.38,-589"/>
<text text-anchor="start" x="293.25" y="-598.2" font-family="Times,serif" font-size="14.00">UDTF02: </text>
<text text-anchor="start" x="349.5" y="-598.2" font-family="Times,serif" font-size="14.00" fill="green">Sistema</text>
<text text-anchor="start" x="393" y="-598.2" font-family="Times,serif" font-size="14.00">.</text>
<polygon fill="none" stroke="black" points="235.38,-562.5 235.38,-589 454.62,-589 454.62,-562.5 235.38,-562.5"/>
<text text-anchor="start" x="240.38" y="-571.7" font-family="Times,serif" font-size="14.00" fill="blue">Ejecuta: </text>
<text text-anchor="start" x="288.38" y="-571.7" font-family="Times,serif" font-size="14.00">&quot;Download Template(User)&quot;.</text>
</g>
<!-- UDTF01&#45;&gt;UDTF02 -->
<g id="edge1" class="edge">
<title>UDTF01&#45;&gt;UDTF02</title>
<path fill="none" stroke="black" d="M345,-656.15C345,-648.29 345,-639.68 345,-631.33"/>
<polygon fill="black" stroke="black" points="348.5,-631.34 345,-621.34 341.5,-631.34 348.5,-631.34"/>
</g>
<!-- UDTF03 -->
<g id="node3" class="node">
<title>UDTF03</title>
<polygon fill="none" stroke="black" points="188,-492.75 0,-492.75 0,-405.25 188,-405.25 188,-492.75"/>
<polygon fill="none" stroke="black" points="8,-462.25 8,-488.75 180,-488.75 180,-462.25 8,-462.25"/>
<text text-anchor="start" x="38.12" y="-471.45" font-family="Times,serif" font-size="14.00">UDTF03: </text>
<text text-anchor="start" x="94.38" y="-471.45" font-family="Times,serif" font-size="14.00">Response</text>
<text text-anchor="start" x="146.12" y="-471.45" font-family="Times,serif" font-size="14.00">.</text>
<polygon fill="none" stroke="black" points="8,-435.75 8,-462.25 180,-462.25 180,-435.75 8,-435.75"/>
<text text-anchor="start" x="38.12" y="-444.95" font-family="Times,serif" font-size="14.00" fill="purple">res_msg: </text>
<text text-anchor="start" x="91.38" y="-444.95" font-family="Times,serif" font-size="14.00">&quot;Success&quot;.</text>
<polygon fill="none" stroke="black" points="8,-409.25 8,-435.75 180,-435.75 180,-409.25 8,-409.25"/>
<text text-anchor="start" x="13" y="-418.45" font-family="Times,serif" font-size="14.00" fill="purple">res_obj: </text>
<text text-anchor="start" x="60.25" y="-418.45" font-family="Times,serif" font-size="14.00">&quot;UserTemplate.csv&quot;.</text>
</g>
<!-- UDTF02&#45;&gt;UDTF03 -->
<g id="edge2" class="edge">
<title>UDTF02&#45;&gt;UDTF03</title>
<path fill="none" stroke="green" d="M290.54,-558.06C259.04,-540.74 218.64,-518.53 182.67,-498.75"/>
<polygon fill="green" stroke="green" points="184.43,-495.72 173.98,-493.97 181.05,-501.86 184.43,-495.72"/>
<text text-anchor="middle" x="285.88" y="-527.2" font-family="Times,serif" font-size="14.00">code: &#39;200&#39;</text>
</g>
<!-- UDTF04 -->
<g id="node4" class="node">
<title>UDTF04</title>
<polygon fill="none" stroke="black" points="484,-506 206,-506 206,-392 484,-392 484,-506"/>
<polygon fill="none" stroke="black" points="214,-475.5 214,-502 476,-502 476,-475.5 214,-475.5"/>
<text text-anchor="start" x="289.12" y="-484.7" font-family="Times,serif" font-size="14.00">UDTF04: </text>
<text text-anchor="start" x="345.38" y="-484.7" font-family="Times,serif" font-size="14.00">Response</text>
<text text-anchor="start" x="397.12" y="-484.7" font-family="Times,serif" font-size="14.00">.</text>
<polygon fill="none" stroke="black" points="214,-449 214,-475.5 476,-475.5 476,-449 214,-449"/>
<text text-anchor="start" x="261" y="-458.2" font-family="Times,serif" font-size="14.00" fill="purple">res_msg: </text>
<text text-anchor="start" x="314.25" y="-458.2" font-family="Times,serif" font-size="14.00">&quot;Record not found.&quot;.</text>
<polygon fill="none" stroke="black" points="214,-422.5 214,-449 476,-449 476,-422.5 214,-422.5"/>
<text text-anchor="start" x="219" y="-431.7" font-family="Times,serif" font-size="14.00" fill="purple">dis_msg: </text>
<text text-anchor="start" x="272.25" y="-431.7" font-family="Times,serif" font-size="14.00">&quot;Hay un problema con el servidor.&quot;.</text>
<polygon fill="none" stroke="black" points="214,-396 214,-422.5 476,-422.5 476,-396 214,-396"/>
<text text-anchor="start" x="308.62" y="-405.2" font-family="Times,serif" font-size="14.00" fill="purple">type: </text>
<text text-anchor="start" x="339.38" y="-405.2" font-family="Times,serif" font-size="14.00">&quot;error&quot;.</text>
</g>
<!-- UDTF02&#45;&gt;UDTF04 -->
<g id="edge3" class="edge">
<title>UDTF02&#45;&gt;UDTF04</title>
<path fill="none" stroke="red" d="M345,-558.06C345,-546.11 345,-531.83 345,-517.63"/>
<polygon fill="red" stroke="red" points="348.5,-517.82 345,-507.82 341.5,-517.82 348.5,-517.82"/>
<text text-anchor="middle" x="373.88" y="-527.2" font-family="Times,serif" font-size="14.00">code: &#39;404&#39;</text>
</g>
<!-- UDTF05 -->
<g id="node5" class="node">
<title>UDTF05</title>
<polygon fill="none" stroke="black" points="807.5,-506 502.5,-506 502.5,-392 807.5,-392 807.5,-506"/>
<polygon fill="none" stroke="black" points="510.5,-475.5 510.5,-502 799.5,-502 799.5,-475.5 510.5,-475.5"/>
<text text-anchor="start" x="599.12" y="-484.7" font-family="Times,serif" font-size="14.00">UDTF05: </text>
<text text-anchor="start" x="655.38" y="-484.7" font-family="Times,serif" font-size="14.00">Response</text>
<text text-anchor="start" x="707.12" y="-484.7" font-family="Times,serif" font-size="14.00">.</text>
<polygon fill="none" stroke="black" points="510.5,-449 510.5,-475.5 799.5,-475.5 799.5,-449 510.5,-449"/>
<text text-anchor="start" x="559" y="-458.2" font-family="Times,serif" font-size="14.00" fill="purple">res_msg: </text>
<text text-anchor="start" x="612.25" y="-458.2" font-family="Times,serif" font-size="14.00">&quot;Database not available&quot;.</text>
<polygon fill="none" stroke="black" points="510.5,-422.5 510.5,-449 799.5,-449 799.5,-422.5 510.5,-422.5"/>
<text text-anchor="start" x="515.5" y="-431.7" font-family="Times,serif" font-size="14.00" fill="purple">dis_msg: </text>
<text text-anchor="start" x="568.75" y="-431.7" font-family="Times,serif" font-size="14.00">&quot;No hay conexión con la base de datos.&quot;.</text>
<polygon fill="none" stroke="black" points="510.5,-396 510.5,-422.5 799.5,-422.5 799.5,-396 510.5,-396"/>
<text text-anchor="start" x="618.62" y="-405.2" font-family="Times,serif" font-size="14.00" fill="purple">type: </text>
<text text-anchor="start" x="649.38" y="-405.2" font-family="Times,serif" font-size="14.00">&quot;error&quot;.</text>
</g>
<!-- UDTF02&#45;&gt;UDTF05 -->
<g id="edge4" class="edge">
<title>UDTF02&#45;&gt;UDTF05</title>
<path fill="none" stroke="red" d="M412.27,-558.06C443.27,-544.25 481.27,-527.34 517.91,-511.03"/>
<polygon fill="red" stroke="red" points="519.1,-514.33 526.81,-507.06 516.25,-507.93 519.1,-514.33"/>
<text text-anchor="middle" x="507.25" y="-527.2" font-family="Times,serif" font-size="14.00">code: &#39;E1&#39;</text>
</g>
<!-- UDTF06 -->
<g id="node6" class="node">
<title>UDTF06</title>
<polygon fill="none" stroke="black" points="165.12,-355 22.88,-355 22.88,-294 165.12,-294 165.12,-355"/>
<polygon fill="none" stroke="black" points="30.88,-324.5 30.88,-351 157.12,-351 157.12,-324.5 30.88,-324.5"/>
<text text-anchor="start" x="35.88" y="-332.7" font-family="Times,serif" font-size="14.00">UDTF06: Redirige a:</text>
<polygon fill="none" stroke="black" points="30.88,-298 30.88,-324.5 157.12,-324.5 157.12,-298 30.88,-298"/>
<text text-anchor="start" x="68.12" y="-306.2" font-family="Times,serif" font-size="14.00" fill="blue">MPF126.</text>
</g>
<!-- UDTF03&#45;&gt;UDTF06 -->
<g id="edge5" class="edge">
<title>UDTF03&#45;&gt;UDTF06</title>
<path fill="none" stroke="black" d="M94,-404.81C94,-392.39 94,-378.87 94,-366.58"/>
<polygon fill="black" stroke="black" points="97.5,-366.76 94,-356.76 90.5,-366.76 97.5,-366.76"/>
</g>
<!-- UDTF07 -->
<g id="node7" class="node">
<title>UDTF07</title>
<polygon fill="none" stroke="black" points="631.88,-355 368.12,-355 368.12,-294 631.88,-294 631.88,-355"/>
<polygon fill="none" stroke="black" points="376.12,-324.5 376.12,-351 623.88,-351 623.88,-324.5 376.12,-324.5"/>
<text text-anchor="start" x="448.25" y="-333.7" font-family="Times,serif" font-size="14.00">UDTF07: </text>
<text text-anchor="start" x="504.5" y="-333.7" font-family="Times,serif" font-size="14.00" fill="green">Sistema</text>
<text text-anchor="start" x="548" y="-333.7" font-family="Times,serif" font-size="14.00">.</text>
<polygon fill="none" stroke="black" points="376.12,-298 376.12,-324.5 623.88,-324.5 623.88,-298 376.12,-298"/>
<text text-anchor="start" x="381.12" y="-307.2" font-family="Times,serif" font-size="14.00" fill="green">Muestra: </text>
<text text-anchor="start" x="433.62" y="-307.2" font-family="Times,serif" font-size="14.00">&quot;MessageModal[dis_msg, type]&quot;.</text>
</g>
<!-- UDTF04&#45;&gt;UDTF07 -->
<g id="edge6" class="edge">
<title>UDTF04&#45;&gt;UDTF07</title>
<path fill="none" stroke="black" d="M416.15,-391.77C428.83,-381.75 441.74,-371.54 453.51,-362.24"/>
<polygon fill="black" stroke="black" points="455.41,-365.21 461.08,-356.26 451.07,-359.71 455.41,-365.21"/>
</g>
<!-- UDTF05&#45;&gt;UDTF07 -->
<g id="edge13" class="edge">
<title>UDTF05&#45;&gt;UDTF07</title>
<path fill="none" stroke="black" d="M583.85,-391.77C571.17,-381.75 558.26,-371.54 546.49,-362.24"/>
<polygon fill="black" stroke="black" points="548.93,-359.71 538.92,-356.26 544.59,-365.21 548.93,-359.71"/>
</g>
<!-- UDTF08 -->
<g id="node8" class="node">
<title>UDTF08</title>
<polygon fill="none" stroke="black" points="464.88,-257 243.12,-257 243.12,-196 464.88,-196 464.88,-257"/>
<polygon fill="none" stroke="black" points="251.12,-226.5 251.12,-253 456.88,-253 456.88,-226.5 251.12,-226.5"/>
<text text-anchor="start" x="308.62" y="-235.7" font-family="Times,serif" font-size="14.00">UDTF08: </text>
<text text-anchor="start" x="364.88" y="-235.7" font-family="Times,serif" font-size="14.00" fill="blue">Actor</text>
<text text-anchor="start" x="395.62" y="-235.7" font-family="Times,serif" font-size="14.00">.</text>
<polygon fill="none" stroke="black" points="251.12,-200 251.12,-226.5 456.88,-226.5 456.88,-200 251.12,-200"/>
<text text-anchor="start" x="256.12" y="-209.2" font-family="Times,serif" font-size="14.00" fill="orange">Selecciona: </text>
<text text-anchor="start" x="322.12" y="-209.2" font-family="Times,serif" font-size="14.00">&quot;MessageModal : Yes&quot;.</text>
</g>
<!-- UDTF07&#45;&gt;UDTF08 -->
<g id="edge7" class="edge">
<title>UDTF07&#45;&gt;UDTF08</title>
<path fill="none" stroke="black" d="M454.61,-293.65C440.12,-284.12 423.93,-273.48 408.84,-263.56"/>
<polygon fill="black" stroke="black" points="411.16,-260.9 400.88,-258.33 407.32,-266.75 411.16,-260.9"/>
</g>
<!-- UDTF09 -->
<g id="node9" class="node">
<title>UDTF09</title>
<polygon fill="none" stroke="black" points="702.75,-257 483.25,-257 483.25,-196 702.75,-196 702.75,-257"/>
<polygon fill="none" stroke="black" points="491.25,-226.5 491.25,-253 694.75,-253 694.75,-226.5 491.25,-226.5"/>
<text text-anchor="start" x="547.62" y="-235.7" font-family="Times,serif" font-size="14.00">UDTF09: </text>
<text text-anchor="start" x="603.88" y="-235.7" font-family="Times,serif" font-size="14.00" fill="blue">Actor</text>
<text text-anchor="start" x="634.62" y="-235.7" font-family="Times,serif" font-size="14.00">.</text>
<polygon fill="none" stroke="black" points="491.25,-200 491.25,-226.5 694.75,-226.5 694.75,-200 491.25,-200"/>
<text text-anchor="start" x="496.25" y="-209.2" font-family="Times,serif" font-size="14.00" fill="orange">Selecciona: </text>
<text text-anchor="start" x="562.25" y="-209.2" font-family="Times,serif" font-size="14.00">&quot;MessageModal : No&quot;.</text>
</g>
<!-- UDTF07&#45;&gt;UDTF09 -->
<g id="edge8" class="edge">
<title>UDTF07&#45;&gt;UDTF09</title>
<path fill="none" stroke="black" d="M528.92,-293.65C537.58,-284.71 547.19,-274.79 556.28,-265.4"/>
<polygon fill="black" stroke="black" points="558.6,-268.04 563.05,-258.42 553.58,-263.16 558.6,-268.04"/>
</g>
<!-- UDTF12 -->
<g id="node12" class="node">
<title>UDTF12</title>
<polygon fill="none" stroke="black" points="435.62,-159 272.38,-159 272.38,-98 435.62,-98 435.62,-159"/>
<polygon fill="none" stroke="black" points="280.38,-128.5 280.38,-155 427.62,-155 427.62,-128.5 280.38,-128.5"/>
<text text-anchor="start" x="304.12" y="-137.7" font-family="Times,serif" font-size="14.00">UDTF12: </text>
<text text-anchor="start" x="360.38" y="-137.7" font-family="Times,serif" font-size="14.00" fill="green">Sistema</text>
<polygon fill="none" stroke="black" points="280.38,-102 280.38,-128.5 427.62,-128.5 427.62,-102 280.38,-102"/>
<text text-anchor="start" x="285.38" y="-111.2" font-family="Times,serif" font-size="14.00" fill="blue">Cierra</text>
<text text-anchor="start" x="319.12" y="-111.2" font-family="Times,serif" font-size="14.00">: &quot;MessageModal&quot;</text>
</g>
<!-- UDTF08&#45;&gt;UDTF12 -->
<g id="edge11" class="edge">
<title>UDTF08&#45;&gt;UDTF12</title>
<path fill="none" stroke="black" d="M354,-195.65C354,-187.79 354,-179.18 354,-170.83"/>
<polygon fill="black" stroke="black" points="357.5,-170.84 354,-160.84 350.5,-170.84 357.5,-170.84"/>
</g>
<!-- UDTF10 -->
<g id="node10" class="node">
<title>UDTF10</title>
<polygon fill="none" stroke="black" points="674.62,-159 511.38,-159 511.38,-98 674.62,-98 674.62,-159"/>
<polygon fill="none" stroke="black" points="519.38,-128.5 519.38,-155 666.62,-155 666.62,-128.5 519.38,-128.5"/>
<text text-anchor="start" x="543.12" y="-137.7" font-family="Times,serif" font-size="14.00">UDTF10: </text>
<text text-anchor="start" x="599.38" y="-137.7" font-family="Times,serif" font-size="14.00" fill="green">Sistema</text>
<polygon fill="none" stroke="black" points="519.38,-102 519.38,-128.5 666.62,-128.5 666.62,-102 519.38,-102"/>
<text text-anchor="start" x="524.38" y="-111.2" font-family="Times,serif" font-size="14.00" fill="blue">Cierra</text>
<text text-anchor="start" x="558.12" y="-111.2" font-family="Times,serif" font-size="14.00">: &quot;MessageModal&quot;</text>
</g>
<!-- UDTF09&#45;&gt;UDTF10 -->
<g id="edge9" class="edge">
<title>UDTF09&#45;&gt;UDTF10</title>
<path fill="none" stroke="black" d="M593,-195.65C593,-187.79 593,-179.18 593,-170.83"/>
<polygon fill="black" stroke="black" points="596.5,-170.84 593,-160.84 589.5,-170.84 596.5,-170.84"/>
</g>
<!-- UDTF11 -->
<g id="node11" class="node">
<title>UDTF11</title>
<polygon fill="none" stroke="black" points="664.12,-61 521.88,-61 521.88,0 664.12,0 664.12,-61"/>
<polygon fill="none" stroke="black" points="529.88,-30.5 529.88,-57 656.12,-57 656.12,-30.5 529.88,-30.5"/>
<text text-anchor="start" x="534.88" y="-38.7" font-family="Times,serif" font-size="14.00">UDTF11: Redirige a:</text>
<polygon fill="none" stroke="black" points="529.88,-4 529.88,-30.5 656.12,-30.5 656.12,-4 529.88,-4"/>
<text text-anchor="start" x="567.12" y="-12.2" font-family="Times,serif" font-size="14.00" fill="blue">MPF120.</text>
</g>
<!-- UDTF10&#45;&gt;UDTF11 -->
<g id="edge10" class="edge">
<title>UDTF10&#45;&gt;UDTF11</title>
<path fill="none" stroke="black" d="M593,-97.65C593,-89.79 593,-81.18 593,-72.83"/>
<polygon fill="black" stroke="black" points="596.5,-72.84 593,-62.84 589.5,-72.84 596.5,-72.84"/>
</g>
<!-- UDTF13 -->
<g id="node13" class="node">
<title>UDTF13</title>
<polygon fill="none" stroke="black" points="425.12,-61 282.88,-61 282.88,0 425.12,0 425.12,-61"/>
<polygon fill="none" stroke="black" points="290.88,-30.5 290.88,-57 417.12,-57 417.12,-30.5 290.88,-30.5"/>
<text text-anchor="start" x="295.88" y="-38.7" font-family="Times,serif" font-size="14.00">UDTF13: Redirige a:</text>
<polygon fill="none" stroke="black" points="290.88,-4 290.88,-30.5 417.12,-30.5 417.12,-4 290.88,-4"/>
<text text-anchor="start" x="327.75" y="-12.2" font-family="Times,serif" font-size="14.00" fill="blue">UDTF02.</text>
</g>
<!-- UDTF12&#45;&gt;UDTF13 -->
<g id="edge12" class="edge">
<title>UDTF12&#45;&gt;UDTF13</title>
<path fill="none" stroke="black" d="M354,-97.65C354,-89.79 354,-81.18 354,-72.83"/>
<polygon fill="black" stroke="black" points="357.5,-72.84 354,-62.84 350.5,-72.84 357.5,-72.84"/>
</g>
</g>
</svg>
