<?xml version="1.0" encoding="UTF-8" standalone="no"?>
<!DOCTYPE svg PUBLIC "-//W3C//DTD SVG 1.1//EN"
 "http://www.w3.org/Graphics/SVG/1.1/DTD/svg11.dtd">
<!-- Generated by graphviz version 9.0.0 (20230911.1827)
 -->
<!-- Title: DownloadPMGroupsTemplateFlow Pages: 1 -->
<svg width="850pt" height="726pt"
 viewBox="0.00 0.00 849.75 725.50" xmlns="http://www.w3.org/2000/svg" xmlns:xlink="http://www.w3.org/1999/xlink">
<g id="graph0" class="graph" transform="scale(1 1) rotate(0) translate(4 721.5)">
<title>DownloadPMGroupsTemplateFlow</title>
<polygon fill="white" stroke="none" points="-4,4 -4,-721.5 845.75,-721.5 845.75,4 -4,4"/>
<!-- PGDTF01 -->
<g id="node1" class="node">
<title>PGDTF01</title>
<polygon fill="none" stroke="black" points="450,-717.5 308.5,-717.5 308.5,-656.5 450,-656.5 450,-717.5"/>
<polygon fill="none" stroke="black" points="316.5,-687 316.5,-713.5 442,-713.5 442,-687 316.5,-687"/>
<text text-anchor="start" x="321.5" y="-695.2" font-family="Times,serif" font-size="14.00">PGDTF01: Viene de:</text>
<polygon fill="none" stroke="black" points="316.5,-660.5 316.5,-687 442,-687 442,-660.5 316.5,-660.5"/>
<text text-anchor="start" x="356.75" y="-668.7" font-family="Times,serif" font-size="14.00" fill="orange">MPF23.</text>
</g>
<!-- PGDTF02 -->
<g id="node2" class="node">
<title>PGDTF02</title>
<polygon fill="none" stroke="black" points="514.12,-619.5 244.38,-619.5 244.38,-558.5 514.12,-558.5 514.12,-619.5"/>
<polygon fill="none" stroke="black" points="252.38,-589 252.38,-615.5 506.12,-615.5 506.12,-589 252.38,-589"/>
<text text-anchor="start" x="323.75" y="-598.2" font-family="Times,serif" font-size="14.00">PGDTF02: </text>
<text text-anchor="start" x="387.5" y="-598.2" font-family="Times,serif" font-size="14.00" fill="green">Sistema</text>
<text text-anchor="start" x="431" y="-598.2" font-family="Times,serif" font-size="14.00">.</text>
<polygon fill="none" stroke="black" points="252.38,-562.5 252.38,-589 506.12,-589 506.12,-562.5 252.38,-562.5"/>
<text text-anchor="start" x="257.38" y="-571.7" font-family="Times,serif" font-size="14.00" fill="blue">Ejecuta: </text>
<text text-anchor="start" x="305.38" y="-571.7" font-family="Times,serif" font-size="14.00">&quot;Download Template(PMGroups)&quot;.</text>
</g>
<!-- PGDTF01&#45;&gt;PGDTF02 -->
<g id="edge1" class="edge">
<title>PGDTF01&#45;&gt;PGDTF02</title>
<path fill="none" stroke="black" d="M379.25,-656.15C379.25,-648.29 379.25,-639.68 379.25,-631.33"/>
<polygon fill="black" stroke="black" points="382.75,-631.34 379.25,-621.34 375.75,-631.34 382.75,-631.34"/>
</g>
<!-- PGDTF03 -->
<g id="node3" class="node">
<title>PGDTF03</title>
<polygon fill="none" stroke="black" points="222.5,-492.75 0,-492.75 0,-405.25 222.5,-405.25 222.5,-492.75"/>
<polygon fill="none" stroke="black" points="8,-462.25 8,-488.75 214.5,-488.75 214.5,-462.25 8,-462.25"/>
<text text-anchor="start" x="51.62" y="-471.45" font-family="Times,serif" font-size="14.00">PGDTF03: </text>
<text text-anchor="start" x="115.38" y="-471.45" font-family="Times,serif" font-size="14.00">Response</text>
<text text-anchor="start" x="167.12" y="-471.45" font-family="Times,serif" font-size="14.00">.</text>
<polygon fill="none" stroke="black" points="8,-435.75 8,-462.25 214.5,-462.25 214.5,-435.75 8,-435.75"/>
<text text-anchor="start" x="55.38" y="-444.95" font-family="Times,serif" font-size="14.00" fill="purple">res_msg: </text>
<text text-anchor="start" x="108.62" y="-444.95" font-family="Times,serif" font-size="14.00">&quot;Success&quot;.</text>
<polygon fill="none" stroke="black" points="8,-409.25 8,-435.75 214.5,-435.75 214.5,-409.25 8,-409.25"/>
<text text-anchor="start" x="13" y="-418.45" font-family="Times,serif" font-size="14.00" fill="purple">res_obj: </text>
<text text-anchor="start" x="60.25" y="-418.45" font-family="Times,serif" font-size="14.00">&quot;PMGroupsTemplate.csv&quot;.</text>
</g>
<!-- PGDTF02&#45;&gt;PGDTF03 -->
<g id="edge2" class="edge">
<title>PGDTF02&#45;&gt;PGDTF03</title>
<path fill="none" stroke="green" d="M321.1,-558.06C287.32,-540.66 243.96,-518.34 205.43,-498.5"/>
<polygon fill="green" stroke="green" points="207.07,-495.4 196.57,-493.94 203.86,-501.63 207.07,-495.4"/>
<text text-anchor="middle" x="314.12" y="-527.2" font-family="Times,serif" font-size="14.00">code: &#39;200&#39;</text>
</g>
<!-- PGDTF04 -->
<g id="node4" class="node">
<title>PGDTF04</title>
<polygon fill="none" stroke="black" points="518.25,-506 240.25,-506 240.25,-392 518.25,-392 518.25,-506"/>
<polygon fill="none" stroke="black" points="248.25,-475.5 248.25,-502 510.25,-502 510.25,-475.5 248.25,-475.5"/>
<text text-anchor="start" x="319.62" y="-484.7" font-family="Times,serif" font-size="14.00">PGDTF04: </text>
<text text-anchor="start" x="383.38" y="-484.7" font-family="Times,serif" font-size="14.00">Response</text>
<text text-anchor="start" x="435.12" y="-484.7" font-family="Times,serif" font-size="14.00">.</text>
<polygon fill="none" stroke="black" points="248.25,-449 248.25,-475.5 510.25,-475.5 510.25,-449 248.25,-449"/>
<text text-anchor="start" x="295.25" y="-458.2" font-family="Times,serif" font-size="14.00" fill="purple">res_msg: </text>
<text text-anchor="start" x="348.5" y="-458.2" font-family="Times,serif" font-size="14.00">&quot;Record not found.&quot;.</text>
<polygon fill="none" stroke="black" points="248.25,-422.5 248.25,-449 510.25,-449 510.25,-422.5 248.25,-422.5"/>
<text text-anchor="start" x="253.25" y="-431.7" font-family="Times,serif" font-size="14.00" fill="purple">dis_msg: </text>
<text text-anchor="start" x="306.5" y="-431.7" font-family="Times,serif" font-size="14.00">&quot;Hay un problema con el servidor.&quot;.</text>
<polygon fill="none" stroke="black" points="248.25,-396 248.25,-422.5 510.25,-422.5 510.25,-396 248.25,-396"/>
<text text-anchor="start" x="342.88" y="-405.2" font-family="Times,serif" font-size="14.00" fill="purple">type: </text>
<text text-anchor="start" x="373.62" y="-405.2" font-family="Times,serif" font-size="14.00">&quot;error&quot;.</text>
</g>
<!-- PGDTF02&#45;&gt;PGDTF04 -->
<g id="edge3" class="edge">
<title>PGDTF02&#45;&gt;PGDTF04</title>
<path fill="none" stroke="red" d="M379.25,-558.06C379.25,-546.11 379.25,-531.83 379.25,-517.63"/>
<polygon fill="red" stroke="red" points="382.75,-517.82 379.25,-507.82 375.75,-517.82 382.75,-517.82"/>
<text text-anchor="middle" x="408.12" y="-527.2" font-family="Times,serif" font-size="14.00">code: &#39;404&#39;</text>
</g>
<!-- PGDTF05 -->
<g id="node5" class="node">
<title>PGDTF05</title>
<polygon fill="none" stroke="black" points="841.75,-506 536.75,-506 536.75,-392 841.75,-392 841.75,-506"/>
<polygon fill="none" stroke="black" points="544.75,-475.5 544.75,-502 833.75,-502 833.75,-475.5 544.75,-475.5"/>
<text text-anchor="start" x="629.62" y="-484.7" font-family="Times,serif" font-size="14.00">PGDTF05: </text>
<text text-anchor="start" x="693.38" y="-484.7" font-family="Times,serif" font-size="14.00">Response</text>
<text text-anchor="start" x="745.12" y="-484.7" font-family="Times,serif" font-size="14.00">.</text>
<polygon fill="none" stroke="black" points="544.75,-449 544.75,-475.5 833.75,-475.5 833.75,-449 544.75,-449"/>
<text text-anchor="start" x="593.25" y="-458.2" font-family="Times,serif" font-size="14.00" fill="purple">res_msg: </text>
<text text-anchor="start" x="646.5" y="-458.2" font-family="Times,serif" font-size="14.00">&quot;Database not available&quot;.</text>
<polygon fill="none" stroke="black" points="544.75,-422.5 544.75,-449 833.75,-449 833.75,-422.5 544.75,-422.5"/>
<text text-anchor="start" x="549.75" y="-431.7" font-family="Times,serif" font-size="14.00" fill="purple">dis_msg: </text>
<text text-anchor="start" x="603" y="-431.7" font-family="Times,serif" font-size="14.00">&quot;No hay conexión con la base de datos.&quot;.</text>
<polygon fill="none" stroke="black" points="544.75,-396 544.75,-422.5 833.75,-422.5 833.75,-396 544.75,-396"/>
<text text-anchor="start" x="652.88" y="-405.2" font-family="Times,serif" font-size="14.00" fill="purple">type: </text>
<text text-anchor="start" x="683.62" y="-405.2" font-family="Times,serif" font-size="14.00">&quot;error&quot;.</text>
</g>
<!-- PGDTF02&#45;&gt;PGDTF05 -->
<g id="edge4" class="edge">
<title>PGDTF02&#45;&gt;PGDTF05</title>
<path fill="none" stroke="red" d="M446.52,-558.06C477.52,-544.25 515.52,-527.34 552.16,-511.03"/>
<polygon fill="red" stroke="red" points="553.35,-514.33 561.06,-507.06 550.5,-507.93 553.35,-514.33"/>
<text text-anchor="middle" x="541.5" y="-527.2" font-family="Times,serif" font-size="14.00">code: &#39;E1&#39;</text>
</g>
<!-- PGDTF06 -->
<g id="node6" class="node">
<title>PGDTF06</title>
<polygon fill="none" stroke="black" points="186.12,-355 36.38,-355 36.38,-294 186.12,-294 186.12,-355"/>
<polygon fill="none" stroke="black" points="44.38,-324.5 44.38,-351 178.12,-351 178.12,-324.5 44.38,-324.5"/>
<text text-anchor="start" x="49.38" y="-332.7" font-family="Times,serif" font-size="14.00">PGDTF06: Redirige a:</text>
<polygon fill="none" stroke="black" points="44.38,-298 44.38,-324.5 178.12,-324.5 178.12,-298 44.38,-298"/>
<text text-anchor="start" x="88.75" y="-306.2" font-family="Times,serif" font-size="14.00" fill="blue">MPF61.</text>
</g>
<!-- PGDTF03&#45;&gt;PGDTF06 -->
<g id="edge5" class="edge">
<title>PGDTF03&#45;&gt;PGDTF06</title>
<path fill="none" stroke="black" d="M111.25,-404.81C111.25,-392.39 111.25,-378.87 111.25,-366.58"/>
<polygon fill="black" stroke="black" points="114.75,-366.76 111.25,-356.76 107.75,-366.76 114.75,-366.76"/>
</g>
<!-- PGDTF07 -->
<g id="node7" class="node">
<title>PGDTF07</title>
<polygon fill="none" stroke="black" points="666.12,-355 402.38,-355 402.38,-294 666.12,-294 666.12,-355"/>
<polygon fill="none" stroke="black" points="410.38,-324.5 410.38,-351 658.12,-351 658.12,-324.5 410.38,-324.5"/>
<text text-anchor="start" x="478.75" y="-333.7" font-family="Times,serif" font-size="14.00">PGDTF07: </text>
<text text-anchor="start" x="542.5" y="-333.7" font-family="Times,serif" font-size="14.00" fill="green">Sistema</text>
<text text-anchor="start" x="586" y="-333.7" font-family="Times,serif" font-size="14.00">.</text>
<polygon fill="none" stroke="black" points="410.38,-298 410.38,-324.5 658.12,-324.5 658.12,-298 410.38,-298"/>
<text text-anchor="start" x="415.38" y="-307.2" font-family="Times,serif" font-size="14.00" fill="green">Muestra: </text>
<text text-anchor="start" x="467.88" y="-307.2" font-family="Times,serif" font-size="14.00">&quot;MessageModal[dis_msg, type]&quot;.</text>
</g>
<!-- PGDTF04&#45;&gt;PGDTF07 -->
<g id="edge6" class="edge">
<title>PGDTF04&#45;&gt;PGDTF07</title>
<path fill="none" stroke="black" d="M450.4,-391.77C463.08,-381.75 475.99,-371.54 487.76,-362.24"/>
<polygon fill="black" stroke="black" points="489.66,-365.21 495.33,-356.26 485.32,-359.71 489.66,-365.21"/>
</g>
<!-- PGDTF05&#45;&gt;PGDTF07 -->
<g id="edge13" class="edge">
<title>PGDTF05&#45;&gt;PGDTF07</title>
<path fill="none" stroke="black" d="M618.1,-391.77C605.42,-381.75 592.51,-371.54 580.74,-362.24"/>
<polygon fill="black" stroke="black" points="583.18,-359.71 573.17,-356.26 578.84,-365.21 583.18,-359.71"/>
</g>
<!-- PGDTF08 -->
<g id="node8" class="node">
<title>PGDTF08</title>
<polygon fill="none" stroke="black" points="499.12,-257 277.38,-257 277.38,-196 499.12,-196 499.12,-257"/>
<polygon fill="none" stroke="black" points="285.38,-226.5 285.38,-253 491.12,-253 491.12,-226.5 285.38,-226.5"/>
<text text-anchor="start" x="339.12" y="-235.7" font-family="Times,serif" font-size="14.00">PGDTF08: </text>
<text text-anchor="start" x="402.88" y="-235.7" font-family="Times,serif" font-size="14.00" fill="blue">Actor</text>
<text text-anchor="start" x="433.62" y="-235.7" font-family="Times,serif" font-size="14.00">.</text>
<polygon fill="none" stroke="black" points="285.38,-200 285.38,-226.5 491.12,-226.5 491.12,-200 285.38,-200"/>
<text text-anchor="start" x="290.38" y="-209.2" font-family="Times,serif" font-size="14.00" fill="orange">Selecciona: </text>
<text text-anchor="start" x="356.38" y="-209.2" font-family="Times,serif" font-size="14.00">&quot;MessageModal : Yes&quot;.</text>
</g>
<!-- PGDTF07&#45;&gt;PGDTF08 -->
<g id="edge7" class="edge">
<title>PGDTF07&#45;&gt;PGDTF08</title>
<path fill="none" stroke="black" d="M488.86,-293.65C474.37,-284.12 458.18,-273.48 443.09,-263.56"/>
<polygon fill="black" stroke="black" points="445.41,-260.9 435.13,-258.33 441.57,-266.75 445.41,-260.9"/>
</g>
<!-- PGDTF09 -->
<g id="node9" class="node">
<title>PGDTF09</title>
<polygon fill="none" stroke="black" points="737,-257 517.5,-257 517.5,-196 737,-196 737,-257"/>
<polygon fill="none" stroke="black" points="525.5,-226.5 525.5,-253 729,-253 729,-226.5 525.5,-226.5"/>
<text text-anchor="start" x="578.12" y="-235.7" font-family="Times,serif" font-size="14.00">PGDTF09: </text>
<text text-anchor="start" x="641.88" y="-235.7" font-family="Times,serif" font-size="14.00" fill="blue">Actor</text>
<text text-anchor="start" x="672.62" y="-235.7" font-family="Times,serif" font-size="14.00">.</text>
<polygon fill="none" stroke="black" points="525.5,-200 525.5,-226.5 729,-226.5 729,-200 525.5,-200"/>
<text text-anchor="start" x="530.5" y="-209.2" font-family="Times,serif" font-size="14.00" fill="orange">Selecciona: </text>
<text text-anchor="start" x="596.5" y="-209.2" font-family="Times,serif" font-size="14.00">&quot;MessageModal : No&quot;.</text>
</g>
<!-- PGDTF07&#45;&gt;PGDTF09 -->
<g id="edge8" class="edge">
<title>PGDTF07&#45;&gt;PGDTF09</title>
<path fill="none" stroke="black" d="M563.17,-293.65C571.83,-284.71 581.44,-274.79 590.53,-265.4"/>
<polygon fill="black" stroke="black" points="592.85,-268.04 597.3,-258.42 587.83,-263.16 592.85,-268.04"/>
</g>
<!-- PGDTF12 -->
<g id="node12" class="node">
<title>PGDTF12</title>
<polygon fill="none" stroke="black" points="469.88,-159 306.62,-159 306.62,-98 469.88,-98 469.88,-159"/>
<polygon fill="none" stroke="black" points="314.62,-128.5 314.62,-155 461.88,-155 461.88,-128.5 314.62,-128.5"/>
<text text-anchor="start" x="334.62" y="-137.7" font-family="Times,serif" font-size="14.00">PGDTF12: </text>
<text text-anchor="start" x="398.38" y="-137.7" font-family="Times,serif" font-size="14.00" fill="green">Sistema</text>
<polygon fill="none" stroke="black" points="314.62,-102 314.62,-128.5 461.88,-128.5 461.88,-102 314.62,-102"/>
<text text-anchor="start" x="319.62" y="-111.2" font-family="Times,serif" font-size="14.00" fill="blue">Cierra</text>
<text text-anchor="start" x="353.38" y="-111.2" font-family="Times,serif" font-size="14.00">: &quot;MessageModal&quot;</text>
</g>
<!-- PGDTF08&#45;&gt;PGDTF12 -->
<g id="edge11" class="edge">
<title>PGDTF08&#45;&gt;PGDTF12</title>
<path fill="none" stroke="black" d="M388.25,-195.65C388.25,-187.79 388.25,-179.18 388.25,-170.83"/>
<polygon fill="black" stroke="black" points="391.75,-170.84 388.25,-160.84 384.75,-170.84 391.75,-170.84"/>
</g>
<!-- PGDTF10 -->
<g id="node10" class="node">
<title>PGDTF10</title>
<polygon fill="none" stroke="black" points="708.88,-159 545.62,-159 545.62,-98 708.88,-98 708.88,-159"/>
<polygon fill="none" stroke="black" points="553.62,-128.5 553.62,-155 700.88,-155 700.88,-128.5 553.62,-128.5"/>
<text text-anchor="start" x="573.62" y="-137.7" font-family="Times,serif" font-size="14.00">PGDTF10: </text>
<text text-anchor="start" x="637.38" y="-137.7" font-family="Times,serif" font-size="14.00" fill="green">Sistema</text>
<polygon fill="none" stroke="black" points="553.62,-102 553.62,-128.5 700.88,-128.5 700.88,-102 553.62,-102"/>
<text text-anchor="start" x="558.62" y="-111.2" font-family="Times,serif" font-size="14.00" fill="blue">Cierra</text>
<text text-anchor="start" x="592.38" y="-111.2" font-family="Times,serif" font-size="14.00">: &quot;MessageModal&quot;</text>
</g>
<!-- PGDTF09&#45;&gt;PGDTF10 -->
<g id="edge9" class="edge">
<title>PGDTF09&#45;&gt;PGDTF10</title>
<path fill="none" stroke="black" d="M627.25,-195.65C627.25,-187.79 627.25,-179.18 627.25,-170.83"/>
<polygon fill="black" stroke="black" points="630.75,-170.84 627.25,-160.84 623.75,-170.84 630.75,-170.84"/>
</g>
<!-- PGDTF11 -->
<g id="node11" class="node">
<title>PGDTF11</title>
<polygon fill="none" stroke="black" points="702.12,-61 552.38,-61 552.38,0 702.12,0 702.12,-61"/>
<polygon fill="none" stroke="black" points="560.38,-30.5 560.38,-57 694.12,-57 694.12,-30.5 560.38,-30.5"/>
<text text-anchor="start" x="565.38" y="-38.7" font-family="Times,serif" font-size="14.00">PGDTF11: Redirige a:</text>
<polygon fill="none" stroke="black" points="560.38,-4 560.38,-30.5 694.12,-30.5 694.12,-4 560.38,-4"/>
<text text-anchor="start" x="604.75" y="-12.2" font-family="Times,serif" font-size="14.00" fill="blue">MPF55.</text>
</g>
<!-- PGDTF10&#45;&gt;PGDTF11 -->
<g id="edge10" class="edge">
<title>PGDTF10&#45;&gt;PGDTF11</title>
<path fill="none" stroke="black" d="M627.25,-97.65C627.25,-89.79 627.25,-81.18 627.25,-72.83"/>
<polygon fill="black" stroke="black" points="630.75,-72.84 627.25,-62.84 623.75,-72.84 630.75,-72.84"/>
</g>
<!-- PGDTF13 -->
<g id="node13" class="node">
<title>PGDTF13</title>
<polygon fill="none" stroke="black" points="463.12,-61 313.38,-61 313.38,0 463.12,0 463.12,-61"/>
<polygon fill="none" stroke="black" points="321.38,-30.5 321.38,-57 455.12,-57 455.12,-30.5 321.38,-30.5"/>
<text text-anchor="start" x="326.38" y="-38.7" font-family="Times,serif" font-size="14.00">PGDTF13: Redirige a:</text>
<polygon fill="none" stroke="black" points="321.38,-4 321.38,-30.5 455.12,-30.5 455.12,-4 321.38,-4"/>
<text text-anchor="start" x="358.25" y="-12.2" font-family="Times,serif" font-size="14.00" fill="blue">PGDTF02.</text>
</g>
<!-- PGDTF12&#45;&gt;PGDTF13 -->
<g id="edge12" class="edge">
<title>PGDTF12&#45;&gt;PGDTF13</title>
<path fill="none" stroke="black" d="M388.25,-97.65C388.25,-89.79 388.25,-81.18 388.25,-72.83"/>
<polygon fill="black" stroke="black" points="391.75,-72.84 388.25,-62.84 384.75,-72.84 391.75,-72.84"/>
</g>
</g>
</svg>
